<svg xmlns="http://www.w3.org/2000/svg" width="33.068" height="33.068" viewBox="0 0 33.068 33.068">
  <g id="Group_251" data-name="Group 251" transform="matrix(0.259, -0.966, 0.966, 0.259, 8905.722, 11171.833)">
    <circle id="Ellipse_29" data-name="Ellipse 29" cx="13.5" cy="13.5" r="13.5" transform="translate(8461 -11487)" fill="#0078c8"/>
    <path id="Path_194" data-name="Path 194" d="M16.166,5.871,11.356.365a.531.531,0,0,0-.55-.189.583.583,0,0,0-.4.45.709.709,0,0,0,.162.626l3.849,4.405L.632,5.457a.585.585,0,0,0-.555.63.623.623,0,0,0,.569.646l13.785.2-3.75,4.3a.685.685,0,0,0-.148.621.625.625,0,0,0,.41.462.51.51,0,0,0,.546-.173L16.176,6.77a.7.7,0,0,0-.01-.9Z" transform="matrix(0.819, 0.574, -0.574, 0.819, 8471.568, -11482.546)" fill="#fff"/>
  </g>
</svg>
