<svg width="270" height="244" viewBox="0 0 270 244" fill="none" xmlns="http://www.w3.org/2000/svg">
<mask id="mask0_2738_14" style="mask-type:luminance" maskUnits="userSpaceOnUse" x="0" y="76" width="270" height="168">
<path d="M270 76.4941H0V243.494H270V76.4941Z" fill="white"/>
</mask>
<g mask="url(#mask0_2738_14)">
<g opacity="0.6">
<path d="M64.8135 92.5371C64.8979 92.5371 64.9816 92.5205 65.0596 92.4881C65.1376 92.4558 65.2084 92.4085 65.2681 92.3488C65.3278 92.2891 65.3752 92.2182 65.4075 92.1402C65.4398 92.0622 65.4564 91.9786 65.4564 91.8942V87.7126C65.4564 87.5417 65.3886 87.3778 65.2678 87.257C65.1469 87.1362 64.9831 87.0684 64.8122 87.0684C64.6414 87.0684 64.4775 87.1362 64.3567 87.257C64.2359 87.3778 64.168 87.5417 64.168 87.7126V91.8942C64.168 91.9786 64.1846 92.0622 64.2169 92.1402C64.2492 92.2182 64.2966 92.2891 64.3563 92.3488C64.416 92.4085 64.4869 92.4558 64.5649 92.4881C64.6429 92.5205 64.7291 92.5371 64.8135 92.5371Z" fill="white"/>
<path d="M57.9437 87.0801C57.7732 87.0801 57.6097 87.1478 57.4891 87.2684C57.3685 87.389 57.3008 87.5525 57.3008 87.723V91.9046C57.3008 92.0755 57.3687 92.2394 57.4895 92.3602C57.6103 92.481 57.7742 92.5489 57.945 92.5489C58.1159 92.5489 58.2797 92.481 58.4006 92.3602C58.5214 92.2394 58.5893 92.0755 58.5893 91.9046V87.723C58.5893 87.5525 58.5215 87.389 58.4009 87.2684C58.2804 87.1478 58.1142 87.0801 57.9437 87.0801Z" fill="white"/>
<path d="M67.7596 85.5801H62.8383V81.8062C62.8383 81.6357 62.7706 81.4722 62.65 81.3516C62.5294 81.231 62.3659 81.1633 62.1954 81.1633H59.2735V74.9301C59.2735 74.7595 59.2058 74.596 59.0852 74.4754C58.9646 74.3549 58.8011 74.2871 58.6306 74.2871H57.3604L56.6705 46.9629H59.1507C59.3212 46.9629 59.4847 46.8952 59.6053 46.7746C59.7259 46.654 59.7936 46.4905 59.7936 46.32V42.81C59.7936 42.6395 59.7259 42.476 59.6053 42.3554C59.4847 42.2349 59.3212 42.1671 59.1507 42.1671H56.5372L56.498 40.599L55.7113 8.93376H57.2062C57.2907 8.93376 57.3743 8.91713 57.4523 8.88482C57.5303 8.85251 57.6011 8.80516 57.6608 8.74546C57.7205 8.68575 57.7679 8.61488 57.8002 8.53688C57.8325 8.45887 57.8492 8.37527 57.8492 8.29084V6.02232C57.8492 5.8518 57.7814 5.68827 57.6608 5.5677C57.5403 5.44713 57.3767 5.37939 57.2062 5.37939H55.6198L55.4029 -3.28177L55.3114 -6.88057C55.3074 -7.0479 55.2382 -7.20704 55.1186 -7.32417C54.999 -7.4413 54.8385 -7.50718 54.6711 -7.50781H52.0576C51.8898 -7.50786 51.7286 -7.44228 51.6085 -7.32508C51.4883 -7.20788 51.4188 -7.04835 51.4147 -6.88057L51.1089 5.37678H49.5225C49.352 5.37678 49.1885 5.44452 49.0679 5.56509C48.9473 5.68566 48.8796 5.84919 48.8796 6.0197V8.28823C48.8796 8.45874 48.9473 8.62227 49.0679 8.74284C49.1885 8.86341 49.352 8.93115 49.5225 8.93115H51.02L50.1837 42.1619H47.5702C47.3997 42.1619 47.2362 42.2296 47.1156 42.3502C46.995 42.4708 46.9273 42.6343 46.9273 42.8048V46.3304C46.9273 46.501 46.995 46.6645 47.1156 46.7851C47.2362 46.9056 47.3997 46.9734 47.5702 46.9734H50.0531L49.3735 74.295H48.0981C47.9276 74.295 47.7641 74.3627 47.6435 74.4833C47.523 74.6039 47.4552 74.7674 47.4552 74.9379V81.1711H44.5359C44.3654 81.1711 44.2019 81.2388 44.0813 81.3594C43.9607 81.48 43.893 81.6435 43.893 81.814V85.5879H38.9692C38.8847 85.5879 38.8011 85.6046 38.7231 85.6369C38.6451 85.6692 38.5743 85.7165 38.5146 85.7762C38.4549 85.8359 38.4075 85.9068 38.3752 85.9848C38.3429 86.0628 38.3262 86.1464 38.3262 86.2309V93.4049C38.3262 93.4894 38.3429 93.573 38.3752 93.651C38.4075 93.729 38.4549 93.7999 38.5146 93.8596C38.5743 93.9193 38.6451 93.9666 38.7231 93.9989C38.8011 94.0312 38.8847 94.0479 38.9692 94.0479H41.2743V100.498C41.2743 100.582 41.2909 100.666 41.3232 100.744C41.3555 100.822 41.4029 100.893 41.4626 100.953C41.5223 101.012 41.5932 101.06 41.6712 101.092C41.7492 101.124 41.8328 101.141 41.9172 101.141H47.8682L42.2805 224.76C42.2766 224.847 42.2903 224.933 42.3209 225.015C42.3515 225.096 42.3982 225.17 42.4583 225.233C42.5184 225.296 42.5906 225.346 42.6705 225.38C42.7505 225.414 42.8365 225.432 42.9234 225.431H63.8053C63.8922 225.432 63.9782 225.414 64.0582 225.38C64.1381 225.346 64.2103 225.296 64.2704 225.233C64.3305 225.17 64.3772 225.096 64.4078 225.015C64.4384 224.933 64.4521 224.847 64.4482 224.76L58.8606 101.141H64.8115C64.982 101.141 65.1456 101.073 65.2661 100.953C65.3867 100.832 65.4544 100.669 65.4544 100.498V94.04H67.7596C67.9301 94.04 68.0936 93.9723 68.2142 93.8517C68.3347 93.7311 68.4025 93.5676 68.4025 93.3971V86.223C68.4025 86.0525 68.3347 85.889 68.2142 85.7684C68.0936 85.6478 67.9301 85.5801 67.7596 85.5801ZM52.6979 -6.21935H54.0569L54.1144 -3.92731H52.643L52.6979 -6.21935ZM52.6091 -2.63885H54.1458L54.347 5.37939H52.4104L52.6091 -2.63885ZM50.1785 6.66524H56.5737V7.65053H50.168L50.1785 6.66524ZM54.4908 11.5708L55.2043 39.9535H51.5271L52.2406 11.5708H54.4908ZM52.2719 10.2823L52.3059 8.92331H54.4228L54.4568 10.2823H52.2719ZM55.2356 41.2393L55.2592 42.1567H51.4696L51.4931 41.2393H55.2356ZM48.221 43.4425H58.5051V45.6666H48.221V43.4425ZM55.4473 49.5294L56.072 74.2741H50.6594L51.2814 49.5294H55.4473ZM51.3154 48.2409L51.3493 46.9525H55.3846L55.4186 48.2409H51.3154ZM48.7411 75.5599H57.985V81.1502H48.7437L48.7411 75.5599ZM45.1788 82.4491H61.5499V85.5853H45.1788V82.4491ZM52.7214 224.133H43.5977L43.7231 221.323H52.7188L52.7214 224.133ZM52.7214 220.037H43.7832L43.9139 217.162H52.7214V220.037ZM52.7214 215.856H43.9714L44.1021 212.981H52.7267L52.7214 215.856ZM52.7214 211.674H44.1596L44.2903 208.799H52.7214V211.674ZM52.7214 207.492H44.3582L44.4889 204.618H52.7319L52.7214 207.492ZM52.7214 203.311H44.5359L44.6666 200.436H52.7214V203.311ZM52.7214 199.129H44.7267L44.8574 196.254H52.7214V199.129ZM52.7214 194.948H44.9149L45.0456 192.073H52.7214V194.948ZM52.7214 190.766H45.1031L45.2337 187.891H52.7214V190.766ZM52.7214 186.584H45.2912L45.4219 183.709H52.7214V186.584ZM52.7214 182.403H45.4794L45.6101 179.528H52.7214V182.403ZM52.7214 178.221H45.665L45.7956 175.346H52.7188L52.7214 178.221ZM52.7214 174.039H45.8584L45.9891 171.165H52.724L52.7214 174.039ZM52.7214 169.858H46.0465L46.1746 166.983H52.7084L52.7214 169.858ZM52.7214 165.676H46.2347L46.3628 162.801H52.7188L52.7214 165.676ZM52.7214 161.495H46.4255L46.5562 158.62H52.724L52.7214 161.495ZM52.7214 157.313H46.6111L46.7417 154.438H52.7214V157.313ZM52.7214 153.131H46.7992L46.9299 150.257H52.7214V153.131ZM52.7214 148.95H46.99L47.1207 146.075H52.724L52.7214 148.95ZM52.7214 144.768H47.1782L47.3089 141.893H52.7214V144.768ZM52.7214 140.587H47.3664L47.497 137.712H52.724L52.7214 140.587ZM52.7214 136.405H47.5545L47.6852 133.53H52.7214V136.405ZM52.7214 132.223H47.7323L47.8629 129.349H52.711L52.7214 132.223ZM52.7214 128.042H47.9309L48.0616 125.167H52.7214V128.042ZM52.7214 123.86H48.1217L48.2523 120.985H52.724L52.7214 123.86ZM52.7214 119.679H48.3098L48.4405 116.804H52.7214V119.679ZM52.7214 115.497H48.498L48.6287 112.622H52.7214V115.497ZM52.7214 111.315H48.6862L48.8169 108.44H52.7214V111.315ZM52.7214 107.134H48.8744L49.005 104.259H52.7214V107.134ZM52.7214 102.952H49.0625L49.1566 100.861H52.7188L52.7214 102.952ZM55.118 223.858H54.0047V101.133H55.1128L55.118 223.858ZM63.1337 223.858H56.4039V101.133H57.5721L63.1337 223.858ZM64.1791 99.5702H42.5627V98.1798H64.1686L64.1791 99.5702ZM64.1791 96.894H42.5627V93.7578H64.1686L64.1791 96.894ZM67.1271 92.4771H39.6147V86.8659H67.1166L67.1271 92.4771Z" fill="white"/>
<path d="M61.8887 87.7223V91.9039C61.8887 92.0748 61.9566 92.2387 62.0774 92.3595C62.1982 92.4803 62.3621 92.5482 62.5329 92.5482C62.7038 92.5482 62.8676 92.4803 62.9885 92.3595C63.1093 92.2387 63.1771 92.0748 63.1771 91.9039V87.7223C63.1771 87.5514 63.1093 87.3876 62.9885 87.2668C62.8676 87.146 62.7038 87.0781 62.5329 87.0781C62.3621 87.0781 62.1982 87.146 62.0774 87.2668C61.9566 87.3876 61.8887 87.5514 61.8887 87.7223Z" fill="white"/>
<path d="M60.2327 87.0801C60.0622 87.0801 59.8987 87.1478 59.7781 87.2684C59.6576 87.389 59.5898 87.5525 59.5898 87.723V91.9046C59.5898 92.0755 59.6577 92.2394 59.7785 92.3602C59.8993 92.481 60.0632 92.5489 60.2341 92.5489C60.4049 92.5489 60.5688 92.481 60.6896 92.3602C60.8104 92.2394 60.8783 92.0755 60.8783 91.9046V87.723C60.8783 87.5525 60.8106 87.389 60.69 87.2684C60.5694 87.1478 60.4033 87.0801 60.2327 87.0801Z" fill="white"/>
<path d="M44.2074 87.0801C44.0368 87.0801 43.8733 87.1478 43.7528 87.2684C43.6322 87.389 43.5645 87.5525 43.5645 87.723V91.9046C43.5645 92.0755 43.6323 92.2394 43.7531 92.3602C43.874 92.481 44.0378 92.5489 44.2087 92.5489C44.3795 92.5489 44.5434 92.481 44.6642 92.3602C44.785 92.2394 44.8529 92.0755 44.8529 91.9046V87.723C44.8529 87.5525 44.7852 87.389 44.6646 87.2684C44.544 87.1478 44.3779 87.0801 44.2074 87.0801Z" fill="white"/>
<path d="M41.9183 87.0801C41.7478 87.0801 41.5843 87.1478 41.4637 87.2684C41.3431 87.389 41.2754 87.5525 41.2754 87.723V91.9046C41.2754 92.0755 41.3433 92.2394 41.4641 92.3602C41.5849 92.481 41.7488 92.5489 41.9196 92.5489C42.0905 92.5489 42.2543 92.481 42.3752 92.3602C42.496 92.2394 42.5638 92.0755 42.5638 91.9046V87.723C42.5638 87.5525 42.4961 87.389 42.3755 87.2684C42.255 87.1478 42.0888 87.0801 41.9183 87.0801Z" fill="white"/>
<path d="M55.6546 87.0801C55.4841 87.0801 55.3206 87.1478 55.2 87.2684C55.0795 87.389 55.0117 87.5525 55.0117 87.723V91.9046C55.0117 92.0755 55.0796 92.2394 55.2004 92.3602C55.3212 92.481 55.4851 92.5489 55.656 92.5489C55.8268 92.5489 55.9907 92.481 56.1115 92.3602C56.2323 92.2394 56.3002 92.0755 56.3002 91.9046V87.723C56.3002 87.5525 56.2325 87.389 56.1119 87.2684C55.9913 87.1478 55.8252 87.0801 55.6546 87.0801Z" fill="white"/>
<path d="M46.4984 87.0801C46.3279 87.0801 46.1644 87.1478 46.0438 87.2684C45.9232 87.389 45.8555 87.5525 45.8555 87.723V91.9046C45.8555 92.0755 45.9234 92.2394 46.0442 92.3602C46.165 92.481 46.3289 92.5489 46.4997 92.5489C46.6706 92.5489 46.8344 92.481 46.9553 92.3602C47.0761 92.2394 47.1439 92.0755 47.1439 91.9046V87.723C47.1439 87.5525 47.0762 87.389 46.9556 87.2684C46.8351 87.1478 46.6715 87.0801 46.501 87.0801" fill="white"/>
<path d="M48.7874 87.0801C48.6169 87.0801 48.4533 87.1478 48.3328 87.2684C48.2122 87.389 48.1445 87.5525 48.1445 87.723V91.9046C48.1445 92.0755 48.2123 92.2394 48.3331 92.3602C48.454 92.481 48.6178 92.5489 48.7887 92.5489C48.9595 92.5489 49.1234 92.481 49.2442 92.3602C49.365 92.2394 49.4329 92.0755 49.4329 91.9046V87.723C49.4329 87.5525 49.3652 87.389 49.2446 87.2684C49.124 87.1478 48.9579 87.0801 48.7874 87.0801Z" fill="white"/>
<path d="M53.3656 87.0801C53.1951 87.0801 53.0315 87.1478 52.911 87.2684C52.7904 87.389 52.7227 87.5525 52.7227 87.723V91.9046C52.7227 92.0755 52.7905 92.2394 52.9113 92.3602C53.0322 92.481 53.196 92.5489 53.3669 92.5489C53.5377 92.5489 53.7016 92.481 53.8224 92.3602C53.9432 92.2394 54.0111 92.0755 54.0111 91.9046V87.723C54.0111 87.5525 53.9434 87.389 53.8228 87.2684C53.7022 87.1478 53.5361 87.0801 53.3656 87.0801Z" fill="white"/>
<path d="M51.0765 87.0801C50.906 87.0801 50.7425 87.1478 50.6219 87.2684C50.5013 87.389 50.4336 87.5525 50.4336 87.723V91.9046C50.4336 92.0755 50.5015 92.2394 50.6223 92.3602C50.7431 92.481 50.907 92.5489 51.0778 92.5489C51.2487 92.5489 51.4125 92.481 51.5334 92.3602C51.6542 92.2394 51.722 92.0755 51.722 91.9046V87.723C51.722 87.5525 51.6543 87.389 51.5338 87.2684C51.4132 87.1478 51.247 87.0801 51.0765 87.0801Z" fill="white"/>
<path d="M86.5654 190.45H90.5117C90.6823 190.45 90.8458 190.382 90.9664 190.261C91.0869 190.141 91.1547 189.977 91.1547 189.807V184.721C91.1547 184.028 90.8793 183.363 90.3892 182.873C89.8991 182.383 89.2343 182.107 88.5412 182.107C87.848 182.107 87.1833 182.383 86.6931 182.873C86.203 183.363 85.9277 184.028 85.9277 184.721V189.807C85.9277 189.891 85.9443 189.975 85.9766 190.053C86.0089 190.131 86.0563 190.202 86.116 190.261C86.1757 190.321 86.2465 190.368 86.3245 190.401C86.4025 190.433 86.4862 190.45 86.5706 190.45M87.2135 184.718C87.2287 184.376 87.3753 184.053 87.6229 183.816C87.8705 183.579 88.1999 183.447 88.5425 183.447C88.8851 183.447 89.2145 183.579 89.462 183.816C89.7096 184.053 89.8563 184.376 89.8714 184.718V189.161H87.2083L87.2135 184.718Z" fill="white"/>
<path d="M93.9443 190.45H97.8907C98.0612 190.45 98.2248 190.382 98.3453 190.261C98.4659 190.141 98.5337 189.977 98.5337 189.807V184.721C98.5337 184.028 98.2583 183.363 97.7681 182.873C97.278 182.383 96.6133 182.107 95.9201 182.107C95.227 182.107 94.5622 182.383 94.0721 182.873C93.582 183.363 93.3066 184.028 93.3066 184.721V189.807C93.3066 189.977 93.3743 190.141 93.4949 190.261C93.6155 190.382 93.779 190.45 93.9495 190.45M94.5925 184.718C94.6076 184.376 94.7543 184.053 95.0019 183.816C95.2494 183.579 95.5788 183.447 95.9214 183.447C96.264 183.447 96.5934 183.579 96.841 183.816C97.0886 184.053 97.2352 184.376 97.2504 184.718V189.161H94.5925V184.718Z" fill="white"/>
<path d="M130.841 190.45H134.787C134.958 190.45 135.121 190.382 135.242 190.261C135.362 190.141 135.43 189.977 135.43 189.807V184.721C135.43 184.028 135.155 183.363 134.665 182.873C134.175 182.383 133.51 182.107 132.817 182.107C132.123 182.107 131.459 182.383 130.969 182.873C130.478 183.363 130.203 184.028 130.203 184.721V189.807C130.203 189.977 130.271 190.141 130.391 190.261C130.512 190.382 130.676 190.45 130.846 190.45M131.489 184.718C131.481 184.539 131.51 184.36 131.573 184.191C131.636 184.023 131.732 183.87 131.857 183.74C131.981 183.61 132.13 183.507 132.295 183.436C132.461 183.366 132.638 183.329 132.818 183.329C132.998 183.329 133.175 183.366 133.341 183.436C133.506 183.507 133.655 183.61 133.779 183.74C133.903 183.87 134 184.023 134.063 184.191C134.126 184.36 134.155 184.539 134.147 184.718V189.161H131.486L131.489 184.718Z" fill="white"/>
<path d="M152.985 190.45H156.932C157.102 190.45 157.266 190.382 157.386 190.261C157.507 190.141 157.575 189.977 157.575 189.807V184.721C157.575 184.028 157.299 183.363 156.809 182.873C156.319 182.383 155.654 182.107 154.961 182.107C154.268 182.107 153.603 182.383 153.113 182.873C152.623 183.363 152.348 184.028 152.348 184.721V189.807C152.348 189.977 152.415 190.141 152.536 190.261C152.657 190.382 152.82 190.45 152.991 190.45M153.634 184.718C153.649 184.376 153.795 184.053 154.043 183.816C154.291 183.579 154.62 183.447 154.963 183.447C155.305 183.447 155.635 183.579 155.882 183.816C156.13 184.053 156.276 184.376 156.291 184.718V189.161H153.631L153.634 184.718Z" fill="white"/>
<path d="M138.224 190.45H142.17C142.341 190.45 142.504 190.382 142.625 190.261C142.745 190.141 142.813 189.977 142.813 189.807V184.721C142.813 184.028 142.538 183.363 142.047 182.873C141.557 182.383 140.893 182.107 140.199 182.107C139.506 182.107 138.842 182.383 138.351 182.873C137.861 183.363 137.586 184.028 137.586 184.721V189.807C137.586 189.977 137.654 190.141 137.774 190.261C137.895 190.382 138.058 190.45 138.229 190.45M138.872 184.718C138.887 184.376 139.034 184.053 139.281 183.816C139.529 183.579 139.858 183.447 140.201 183.447C140.543 183.447 140.873 183.579 141.12 183.816C141.368 184.053 141.515 184.376 141.53 184.718V189.161H138.872V184.718Z" fill="white"/>
<path d="M101.325 190.45H105.272C105.442 190.45 105.606 190.382 105.726 190.261C105.847 190.141 105.915 189.977 105.915 189.807V184.721C105.915 184.028 105.639 183.363 105.149 182.873C104.659 182.383 103.994 182.107 103.301 182.107C102.608 182.107 101.943 182.383 101.453 182.873C100.963 183.363 100.688 184.028 100.688 184.721V189.807C100.687 189.891 100.704 189.975 100.736 190.053C100.769 190.131 100.816 190.202 100.876 190.261C100.936 190.321 101.006 190.368 101.084 190.401C101.162 190.433 101.246 190.45 101.33 190.45M101.973 184.718C101.965 184.539 101.994 184.36 102.057 184.191C102.12 184.023 102.217 183.87 102.341 183.74C102.465 183.61 102.614 183.507 102.78 183.436C102.945 183.366 103.123 183.329 103.302 183.329C103.482 183.329 103.66 183.366 103.825 183.436C103.99 183.507 104.139 183.61 104.264 183.74C104.388 183.87 104.484 184.023 104.548 184.191C104.611 184.36 104.639 184.539 104.631 184.718V189.161H101.973V184.718Z" fill="white"/>
<path d="M123.464 190.45H127.41C127.581 190.45 127.744 190.382 127.865 190.261C127.985 190.141 128.053 189.977 128.053 189.807V184.721C128.053 184.028 127.778 183.363 127.288 182.873C126.798 182.383 126.133 182.107 125.44 182.107C124.747 182.107 124.082 182.383 123.592 182.873C123.102 183.363 122.826 184.028 122.826 184.721V189.807C122.826 189.977 122.894 190.141 123.014 190.261C123.135 190.382 123.299 190.45 123.469 190.45M124.112 184.718C124.127 184.376 124.274 184.053 124.521 183.816C124.769 183.579 125.098 183.447 125.441 183.447C125.784 183.447 126.113 183.579 126.361 183.816C126.608 184.053 126.755 184.376 126.77 184.718V189.161H124.112V184.718Z" fill="white"/>
<path d="M145.604 190.45H149.551C149.721 190.45 149.885 190.382 150.006 190.261C150.126 190.141 150.194 189.977 150.194 189.807V184.721C150.194 184.028 149.918 183.363 149.428 182.873C148.938 182.383 148.273 182.107 147.58 182.107C146.887 182.107 146.222 182.383 145.732 182.873C145.242 183.363 144.967 184.028 144.967 184.721V189.807C144.967 189.977 145.035 190.141 145.155 190.261C145.276 190.382 145.439 190.45 145.61 190.45M146.253 184.718C146.268 184.376 146.414 184.053 146.662 183.816C146.91 183.579 147.239 183.447 147.582 183.447C147.924 183.447 148.254 183.579 148.501 183.816C148.749 184.053 148.895 184.376 148.911 184.718V189.161H146.253V184.718Z" fill="white"/>
<path d="M73.7795 197.9C73.0864 197.9 72.4216 198.176 71.9315 198.666C71.4414 199.156 71.166 199.821 71.166 200.514V205.6C71.166 205.77 71.2338 205.934 71.3543 206.054C71.4749 206.175 71.6384 206.243 71.8089 206.243H75.7553C75.9258 206.243 76.0894 206.175 76.2099 206.054C76.3305 205.934 76.3983 205.77 76.3983 205.6V200.514C76.3983 199.821 76.1229 199.156 75.6328 198.666C75.1427 198.176 74.4779 197.9 73.7847 197.9M75.115 204.957H72.4571V200.514C72.4491 200.334 72.4776 200.155 72.5408 199.987C72.604 199.819 72.7006 199.665 72.8248 199.535C72.949 199.406 73.0982 199.302 73.2634 199.232C73.4286 199.161 73.6064 199.125 73.7861 199.125C73.9657 199.125 74.1435 199.161 74.3087 199.232C74.4739 199.302 74.6231 199.406 74.7473 199.535C74.8715 199.665 74.9681 199.819 75.0313 199.987C75.0945 200.155 75.123 200.334 75.115 200.514V204.957Z" fill="white"/>
<path d="M88.5432 197.9C87.85 197.9 87.1853 198.176 86.6952 198.666C86.205 199.156 85.9297 199.821 85.9297 200.514V205.6C85.9297 205.77 85.9974 205.934 86.118 206.054C86.2386 206.175 86.4021 206.243 86.5726 206.243H90.519C90.6895 206.243 90.853 206.175 90.9736 206.054C91.0942 205.934 91.1619 205.77 91.1619 205.6V200.514C91.1619 199.821 90.8866 199.156 90.3965 198.666C89.9063 198.176 89.2416 197.9 88.5484 197.9M89.8761 204.957H87.2103V200.514C87.2103 200.161 87.3505 199.823 87.5999 199.573C87.8494 199.324 88.1878 199.184 88.5406 199.184C88.8934 199.184 89.2318 199.324 89.4812 199.573C89.7307 199.823 89.8708 200.161 89.8708 200.514L89.8761 204.957Z" fill="white"/>
<path d="M81.1604 197.9C80.4673 197.9 79.8025 198.176 79.3124 198.666C78.8222 199.156 78.5469 199.821 78.5469 200.514V205.6C78.5469 205.77 78.6146 205.934 78.7352 206.054C78.8558 206.175 79.0193 206.243 79.1898 206.243H83.1362C83.3068 206.243 83.4703 206.175 83.5908 206.054C83.7114 205.934 83.7791 205.77 83.7791 205.6V200.514C83.7791 199.821 83.5038 199.156 83.0137 198.666C82.5235 198.176 81.8588 197.9 81.1656 197.9M82.4959 204.957H79.838V200.514C79.83 200.334 79.8585 200.155 79.9217 199.987C79.9849 199.819 80.0815 199.665 80.2057 199.535C80.3299 199.406 80.4791 199.302 80.6443 199.232C80.8095 199.161 80.9873 199.125 81.1669 199.125C81.3466 199.125 81.5244 199.161 81.6896 199.232C81.8548 199.302 82.004 199.406 82.1282 199.535C82.2524 199.665 82.349 199.819 82.4122 199.987C82.4754 200.155 82.5039 200.334 82.4959 200.514V204.957Z" fill="white"/>
<path d="M123.464 206.247H127.41C127.581 206.247 127.744 206.179 127.865 206.058C127.985 205.938 128.053 205.774 128.053 205.604V200.518C128.053 199.825 127.778 199.16 127.288 198.67C126.798 198.18 126.133 197.904 125.44 197.904C124.747 197.904 124.082 198.18 123.592 198.67C123.102 199.16 122.826 199.825 122.826 200.518V205.604C122.826 205.774 122.894 205.938 123.014 206.058C123.135 206.179 123.299 206.247 123.469 206.247M124.112 200.515C124.127 200.173 124.274 199.85 124.521 199.613C124.769 199.376 125.098 199.244 125.441 199.244C125.784 199.244 126.113 199.376 126.361 199.613C126.608 199.85 126.755 200.173 126.77 200.515V204.958H124.112V200.515Z" fill="white"/>
<path d="M103.299 197.9C102.606 197.9 101.941 198.176 101.451 198.666C100.961 199.156 100.686 199.821 100.686 200.514V205.6C100.686 205.77 100.753 205.934 100.874 206.054C100.994 206.175 101.158 206.243 101.328 206.243H105.275C105.445 206.243 105.609 206.175 105.729 206.054C105.85 205.934 105.918 205.77 105.918 205.6V200.514C105.918 199.821 105.642 199.156 105.152 198.666C104.662 198.176 103.997 197.9 103.304 197.9M104.635 204.957H101.977V200.514C101.969 200.334 101.997 200.155 102.06 199.987C102.124 199.819 102.22 199.665 102.344 199.535C102.469 199.406 102.618 199.302 102.783 199.232C102.948 199.161 103.126 199.125 103.306 199.125C103.485 199.125 103.663 199.161 103.828 199.232C103.993 199.302 104.143 199.406 104.267 199.535C104.391 199.665 104.488 199.819 104.551 199.987C104.614 200.155 104.643 200.334 104.635 200.514V204.957Z" fill="white"/>
<path d="M162.109 195.447C162.545 195.43 162.958 195.245 163.26 194.931C163.562 194.616 163.731 194.197 163.731 193.76C163.731 193.324 163.562 192.905 163.26 192.59C162.958 192.276 162.545 192.091 162.109 192.073H161.642V180.341C161.642 180.171 161.574 180.007 161.453 179.887C161.333 179.766 161.169 179.698 160.999 179.698H109.541L102.111 153.801C102.111 153.788 102.098 153.775 102.093 153.762C102.083 153.735 102.071 153.709 102.056 153.684C102.034 153.641 102.007 153.6 101.975 153.563C101.957 153.542 101.938 153.522 101.918 153.503C101.879 153.47 101.836 153.441 101.79 153.417C101.769 153.404 101.747 153.393 101.724 153.383C101.651 153.353 101.573 153.337 101.494 153.336H66.8551C66.407 153.336 65.9772 153.514 65.6603 153.831C65.3434 154.148 65.1654 154.577 65.1654 155.026C65.1654 155.474 65.3434 155.903 65.6603 156.22C65.9772 156.537 66.407 156.715 66.8551 156.715H67.3203V175.452H66.8551C66.4077 175.452 65.9786 175.629 65.6622 175.946C65.3458 176.262 65.168 176.691 65.168 177.138C65.168 177.586 65.3458 178.015 65.6622 178.331C65.9786 178.648 66.4077 178.826 66.8551 178.826H67.3203V192.079H66.8524C66.4165 192.096 66.0041 192.281 65.7018 192.596C65.3994 192.91 65.2305 193.329 65.2305 193.766C65.2305 194.202 65.3994 194.621 65.7018 194.936C66.0041 195.25 66.4165 195.435 66.8524 195.453H67.3203V208.703H66.8524C66.6253 208.694 66.3987 208.731 66.1863 208.812C65.9738 208.893 65.7798 209.016 65.6159 209.173C65.4521 209.331 65.3217 209.52 65.2326 209.729C65.1436 209.938 65.0977 210.163 65.0977 210.39C65.0977 210.617 65.1436 210.842 65.2326 211.052C65.3217 211.261 65.4521 211.45 65.6159 211.607C65.7798 211.765 65.9738 211.888 66.1863 211.968C66.3987 212.049 66.6253 212.086 66.8524 212.077H67.3203V223.493C67.3203 223.577 67.3369 223.661 67.3692 223.739C67.4015 223.817 67.4489 223.888 67.5086 223.948C67.5683 224.007 67.6391 224.055 67.7171 224.087C67.7951 224.119 67.8788 224.136 67.9632 224.136H161.004C161.174 224.136 161.338 224.068 161.459 223.948C161.579 223.827 161.647 223.663 161.647 223.493V212.075H162.115C162.342 212.084 162.568 212.046 162.781 211.966C162.993 211.885 163.187 211.762 163.351 211.605C163.515 211.447 163.645 211.258 163.734 211.049C163.824 210.84 163.869 210.615 163.869 210.388C163.869 210.16 163.824 209.935 163.734 209.726C163.645 209.517 163.515 209.328 163.351 209.17C163.187 209.013 162.993 208.89 162.781 208.809C162.568 208.729 162.342 208.692 162.115 208.701H161.647V195.45L162.109 195.447ZM160.353 180.982V192.071H116.757L113.509 180.982H160.353ZM112.168 180.982L115.417 192.071H113.096L109.915 180.982H112.168ZM111.755 192.071H68.6061V178.818H107.952L111.755 192.071ZM101.609 156.71L106.985 175.446H68.6061V156.71H101.609ZM66.8499 155.424C66.7431 155.424 66.6407 155.382 66.5652 155.306C66.4898 155.231 66.4474 155.128 66.4474 155.022C66.4474 154.915 66.4898 154.813 66.5652 154.737C66.6407 154.662 66.7431 154.619 66.8499 154.619H101.003L101.233 155.424H66.8499ZM66.8499 177.532C66.7438 177.532 66.6421 177.49 66.5671 177.415C66.4921 177.34 66.45 177.238 66.45 177.132C66.45 177.026 66.4921 176.924 66.5671 176.849C66.6421 176.774 66.7438 176.732 66.8499 176.732H107.359L107.589 177.532H66.8499ZM75.1033 222.845H72.4454V215.893C72.4374 215.713 72.4659 215.534 72.5291 215.366C72.5923 215.198 72.6889 215.044 72.8131 214.914C72.9373 214.785 73.0865 214.681 73.2517 214.611C73.4169 214.54 73.5947 214.504 73.7743 214.504C73.954 214.504 74.1318 214.54 74.297 214.611C74.4622 214.681 74.6114 214.785 74.7356 214.914C74.8598 215.044 74.9564 215.198 75.0196 215.366C75.0828 215.534 75.1112 215.713 75.1033 215.893V222.845ZM82.4838 222.845H79.8259V215.893C79.8179 215.713 79.8464 215.534 79.9096 215.366C79.9728 215.198 80.0694 215.044 80.1936 214.914C80.3178 214.785 80.467 214.681 80.6322 214.611C80.7974 214.54 80.9752 214.504 81.1549 214.504C81.3345 214.504 81.5123 214.54 81.6775 214.611C81.8427 214.681 81.9919 214.785 82.1161 214.914C82.2403 215.044 82.3369 215.198 82.4001 215.366C82.4633 215.534 82.4918 215.713 82.4838 215.893V222.845ZM89.8644 222.845H87.2065V215.893C87.1985 215.713 87.227 215.534 87.2902 215.366C87.3534 215.198 87.45 215.044 87.5742 214.914C87.6983 214.785 87.8475 214.681 88.0127 214.611C88.178 214.54 88.3558 214.504 88.5354 214.504C88.7151 214.504 88.8929 214.54 89.0581 214.611C89.2233 214.681 89.3725 214.785 89.4967 214.914C89.6209 215.044 89.7175 215.198 89.7807 215.366C89.8439 215.534 89.8724 215.713 89.8644 215.893V222.845ZM97.2449 222.845H94.587V215.893C94.579 215.713 94.6075 215.534 94.6707 215.366C94.7339 215.198 94.8305 215.044 94.9547 214.914C95.0789 214.785 95.2281 214.681 95.3933 214.611C95.5585 214.54 95.7363 214.504 95.916 214.504C96.0956 214.504 96.2734 214.54 96.4386 214.611C96.6038 214.681 96.753 214.785 96.8772 214.914C97.0014 215.044 97.098 215.198 97.1612 215.366C97.2244 215.534 97.2529 215.713 97.2449 215.893V222.845ZM104.625 222.845H101.967V215.893C101.959 215.713 101.988 215.534 102.051 215.366C102.114 215.198 102.211 215.044 102.335 214.914C102.459 214.785 102.609 214.681 102.774 214.611C102.939 214.54 103.117 214.504 103.296 214.504C103.476 214.504 103.654 214.54 103.819 214.611C103.984 214.681 104.133 214.785 104.258 214.914C104.382 215.044 104.478 215.198 104.542 215.366C104.605 215.534 104.633 215.713 104.625 215.893V222.845ZM112.006 222.845H109.348V215.893C109.34 215.713 109.369 215.534 109.432 215.366C109.495 215.198 109.591 215.044 109.716 214.914C109.84 214.785 109.989 214.681 110.154 214.611C110.319 214.54 110.497 214.504 110.677 214.504C110.857 214.504 111.034 214.54 111.2 214.611C111.365 214.681 111.514 214.785 111.638 214.914C111.762 215.044 111.859 215.198 111.922 215.366C111.985 215.534 112.014 215.713 112.006 215.893V222.845ZM113.292 222.845V215.893C113.292 215.2 113.016 214.535 112.526 214.045C112.036 213.555 111.371 213.279 110.678 213.279C109.985 213.279 109.32 213.555 108.83 214.045C108.34 214.535 108.065 215.2 108.065 215.893V222.845H105.919V215.893C105.919 215.2 105.644 214.535 105.154 214.045C104.663 213.555 103.999 213.279 103.306 213.279C102.612 213.279 101.948 213.555 101.458 214.045C100.967 214.535 100.692 215.2 100.692 215.893V222.845H98.5439V215.893C98.5439 215.2 98.2685 214.535 97.7784 214.045C97.2883 213.555 96.6235 213.279 95.9303 213.279C95.2372 213.279 94.5724 213.555 94.0823 214.045C93.5922 214.535 93.3168 215.2 93.3168 215.893V222.845H91.1685V215.893C91.1685 215.2 90.8932 214.535 90.403 214.045C89.9129 213.555 89.2482 213.279 88.555 213.279C87.8619 213.279 87.1971 213.555 86.707 214.045C86.2169 214.535 85.9415 215.2 85.9415 215.893V222.845H83.7958V215.893C83.7958 215.2 83.5205 214.535 83.0303 214.045C82.5402 213.555 81.8755 213.279 81.1823 213.279C80.4892 213.279 79.8244 213.555 79.3343 214.045C78.8442 214.535 78.5688 215.2 78.5688 215.893V222.845H76.4205V215.893C76.4205 215.2 76.1451 214.535 75.655 214.045C75.1649 213.555 74.5001 213.279 73.807 213.279C73.1138 213.279 72.4491 213.555 71.959 214.045C71.4689 214.535 71.1935 215.2 71.1935 215.893V222.845H68.6375V212.075H117.523L120.615 222.847L113.292 222.845ZM121.916 222.845L118.825 212.072H121.273L124.428 222.845H121.916ZM134.14 222.845H131.482V215.893C131.474 215.713 131.502 215.534 131.565 215.366C131.629 215.198 131.725 215.044 131.849 214.914C131.974 214.785 132.123 214.681 132.288 214.611C132.453 214.54 132.631 214.504 132.811 214.504C132.99 214.504 133.168 214.54 133.333 214.611C133.499 214.681 133.648 214.785 133.772 214.914C133.896 215.044 133.993 215.198 134.056 215.366C134.119 215.534 134.148 215.713 134.14 215.893V222.845ZM141.52 222.845H138.862V215.893C138.854 215.713 138.883 215.534 138.946 215.366C139.009 215.198 139.106 215.044 139.23 214.914C139.354 214.785 139.503 214.681 139.669 214.611C139.834 214.54 140.012 214.504 140.191 214.504C140.371 214.504 140.549 214.54 140.714 214.611C140.879 214.681 141.028 214.785 141.153 214.914C141.277 215.044 141.373 215.198 141.437 215.366C141.5 215.534 141.528 215.713 141.52 215.893V222.845ZM148.901 222.845H146.243V215.893C146.235 215.713 146.263 215.534 146.327 215.366C146.39 215.198 146.486 215.044 146.611 214.914C146.735 214.785 146.884 214.681 147.049 214.611C147.214 214.54 147.392 214.504 147.572 214.504C147.751 214.504 147.929 214.54 148.095 214.611C148.26 214.681 148.409 214.785 148.533 214.914C148.657 215.044 148.754 215.198 148.817 215.366C148.88 215.534 148.909 215.713 148.901 215.893V222.845ZM156.281 222.845H153.626V215.893C153.618 215.713 153.647 215.534 153.71 215.366C153.773 215.198 153.87 215.044 153.994 214.914C154.118 214.785 154.267 214.681 154.432 214.611C154.598 214.54 154.775 214.504 154.955 214.504C155.135 214.504 155.312 214.54 155.478 214.611C155.643 214.681 155.792 214.785 155.916 214.914C156.04 215.044 156.137 215.198 156.2 215.366C156.263 215.534 156.292 215.713 156.284 215.893L156.281 222.845ZM160.351 222.845H157.572V215.893C157.572 215.2 157.297 214.535 156.807 214.045C156.317 213.555 155.652 213.279 154.959 213.279C154.266 213.279 153.601 213.555 153.111 214.045C152.621 214.535 152.345 215.2 152.345 215.893V222.845H150.197V215.893C150.197 215.2 149.922 214.535 149.432 214.045C148.941 213.555 148.277 213.279 147.584 213.279C146.89 213.279 146.226 213.555 145.736 214.045C145.245 214.535 144.97 215.2 144.97 215.893V222.845H142.824V215.893C142.824 215.2 142.549 214.535 142.059 214.045C141.569 213.555 140.904 213.279 140.211 213.279C139.518 213.279 138.853 213.555 138.363 214.045C137.873 214.535 137.597 215.2 137.597 215.893V222.845H135.449V215.893C135.449 215.2 135.174 214.535 134.684 214.045C134.193 213.555 133.529 213.279 132.836 213.279C132.142 213.279 131.478 213.555 130.988 214.045C130.497 214.535 130.222 215.2 130.222 215.893V222.845H125.797L122.643 212.072H160.377L160.351 222.845ZM162.107 209.986C162.159 209.986 162.211 209.997 162.26 210.017C162.308 210.037 162.352 210.066 162.39 210.103C162.427 210.141 162.456 210.185 162.476 210.233C162.496 210.282 162.507 210.334 162.507 210.386C162.507 210.439 162.496 210.491 162.476 210.539C162.456 210.588 162.427 210.632 162.39 210.669C162.352 210.706 162.308 210.736 162.26 210.756C162.211 210.776 162.159 210.786 162.107 210.786H66.8524C66.7999 210.786 66.7479 210.776 66.6994 210.756C66.6509 210.736 66.6068 210.706 66.5697 210.669C66.5326 210.632 66.5031 210.588 66.483 210.539C66.4629 210.491 66.4526 210.439 66.4526 210.386C66.4526 210.334 66.4629 210.282 66.483 210.233C66.5031 210.185 66.5326 210.141 66.5697 210.103C66.6068 210.066 66.6509 210.037 66.6994 210.017C66.7479 209.997 66.7999 209.986 66.8524 209.986H162.107ZM120.291 208.701H117.863L114.06 195.45H116.412L120.291 208.701ZM117.748 195.45H160.348V208.701H121.631L117.748 195.45ZM116.522 208.701H68.6061V195.45H112.719L116.522 208.701ZM161.001 194.162H66.8524C66.7464 194.162 66.6447 194.119 66.5697 194.044C66.4947 193.969 66.4526 193.868 66.4526 193.762C66.4526 193.656 66.4947 193.554 66.5697 193.479C66.6447 193.404 66.7464 193.362 66.8524 193.362H162.109C162.216 193.362 162.317 193.404 162.392 193.479C162.467 193.554 162.509 193.656 162.509 193.762C162.509 193.868 162.467 193.969 162.392 194.044C162.317 194.119 162.216 194.162 162.109 194.162H161.001Z" fill="white"/>
<path d="M110.682 197.9C109.989 197.9 109.324 198.176 108.834 198.666C108.344 199.156 108.068 199.821 108.068 200.514V205.6C108.068 205.77 108.136 205.934 108.257 206.054C108.377 206.175 108.541 206.243 108.711 206.243H112.658C112.828 206.243 112.992 206.175 113.112 206.054C113.233 205.934 113.301 205.77 113.301 205.6V200.514C113.301 199.821 113.025 199.156 112.535 198.666C112.045 198.176 111.38 197.9 110.687 197.9M112.015 204.957H109.349V200.514C109.341 200.334 109.37 200.155 109.433 199.987C109.496 199.819 109.592 199.665 109.717 199.535C109.841 199.406 109.99 199.302 110.155 199.232C110.321 199.161 110.498 199.125 110.678 199.125C110.858 199.125 111.035 199.161 111.201 199.232C111.366 199.302 111.515 199.406 111.639 199.535C111.763 199.665 111.86 199.819 111.923 199.987C111.986 200.155 112.015 200.334 112.007 200.514L112.015 204.957Z" fill="white"/>
<path d="M95.9182 197.9C95.225 197.9 94.5603 198.176 94.0702 198.666C93.58 199.156 93.3047 199.821 93.3047 200.514V205.6C93.3047 205.77 93.3724 205.934 93.493 206.054C93.6136 206.175 93.7771 206.243 93.9476 206.243H97.894C98.0646 206.243 98.2281 206.175 98.3487 206.054C98.4692 205.934 98.537 205.77 98.537 205.6V200.514C98.537 199.821 98.2616 199.156 97.7715 198.666C97.2813 198.176 96.6166 197.9 95.9235 197.9M97.2537 204.957H94.5958V200.514C94.5878 200.334 94.6163 200.155 94.6795 199.987C94.7427 199.819 94.8393 199.665 94.9635 199.535C95.0877 199.406 95.2369 199.302 95.4021 199.232C95.5673 199.161 95.7451 199.125 95.9247 199.125C96.1044 199.125 96.2822 199.161 96.4474 199.232C96.6126 199.302 96.7618 199.406 96.886 199.535C97.0102 199.665 97.1068 199.819 97.17 199.987C97.2332 200.155 97.2617 200.334 97.2537 200.514V204.957Z" fill="white"/>
<path d="M130.843 206.247H134.789C134.96 206.247 135.123 206.179 135.244 206.058C135.364 205.938 135.432 205.774 135.432 205.604V200.518C135.432 199.825 135.157 199.16 134.667 198.67C134.177 198.18 133.512 197.904 132.819 197.904C132.125 197.904 131.461 198.18 130.971 198.67C130.48 199.16 130.205 199.825 130.205 200.518V205.604C130.205 205.774 130.273 205.938 130.393 206.058C130.514 206.179 130.677 206.247 130.848 206.247M131.491 200.515C131.483 200.336 131.511 200.156 131.575 199.988C131.638 199.82 131.734 199.666 131.859 199.537C131.983 199.407 132.132 199.303 132.297 199.233C132.462 199.162 132.64 199.126 132.82 199.126C133 199.126 133.177 199.162 133.343 199.233C133.508 199.303 133.657 199.407 133.781 199.537C133.905 199.666 134.002 199.82 134.065 199.988C134.128 200.156 134.157 200.336 134.149 200.515V204.958H131.488L131.491 200.515Z" fill="white"/>
<path d="M71.8057 170.973H75.7521C75.8365 170.973 75.9201 170.957 75.9981 170.924C76.0761 170.892 76.147 170.845 76.2067 170.785C76.2664 170.725 76.3137 170.654 76.3461 170.576C76.3784 170.498 76.395 170.415 76.395 170.33V165.244C76.395 164.551 76.1196 163.887 75.6295 163.396C75.1394 162.906 74.4746 162.631 73.7815 162.631C73.0883 162.631 72.4236 162.906 71.9334 163.396C71.4433 163.887 71.168 164.551 71.168 165.244V170.33C71.168 170.501 71.2357 170.664 71.3563 170.785C71.4768 170.905 71.6404 170.973 71.8109 170.973M72.4538 165.244C72.469 164.902 72.6157 164.579 72.8632 164.342C73.1108 164.105 73.4402 163.973 73.7828 163.973C74.1254 163.973 74.4548 164.105 74.7024 164.342C74.9499 164.579 75.0966 164.902 75.1118 165.244V169.687H72.4538V165.244Z" fill="white"/>
<path d="M79.1865 170.973H83.1329C83.3034 170.973 83.467 170.905 83.5875 170.785C83.7081 170.664 83.7758 170.501 83.7758 170.33V165.244C83.7758 164.551 83.5005 163.887 83.0104 163.396C82.5202 162.906 81.8555 162.631 81.1623 162.631C80.4692 162.631 79.8044 162.906 79.3143 163.396C78.8242 163.887 78.5488 164.551 78.5488 165.244V170.33C78.5488 170.501 78.6166 170.664 78.7371 170.785C78.8577 170.905 79.0212 170.973 79.1918 170.973M79.8347 165.244C79.8499 164.902 79.9965 164.579 80.2441 164.342C80.4917 164.105 80.821 163.973 81.1637 163.973C81.5063 163.973 81.8357 164.105 82.0832 164.342C82.3308 164.579 82.4774 164.902 82.4926 165.244V169.687H79.8347V165.244Z" fill="white"/>
<path d="M86.5654 170.973H90.5117C90.6823 170.973 90.8458 170.905 90.9664 170.785C91.0869 170.664 91.1547 170.501 91.1547 170.33V165.244C91.1547 164.551 90.8793 163.887 90.3892 163.396C89.8991 162.906 89.2343 162.631 88.5412 162.631C87.848 162.631 87.1833 162.906 86.6931 163.396C86.203 163.887 85.9277 164.551 85.9277 165.244V170.33C85.9277 170.415 85.9443 170.498 85.9766 170.576C86.0089 170.654 86.0563 170.725 86.116 170.785C86.1757 170.845 86.2465 170.892 86.3245 170.924C86.4025 170.957 86.4862 170.973 86.5706 170.973M87.2135 165.244C87.2287 164.902 87.3753 164.579 87.6229 164.342C87.8705 164.105 88.1999 163.973 88.5425 163.973C88.8851 163.973 89.2145 164.105 89.462 164.342C89.7096 164.579 89.8563 164.902 89.8714 165.244V169.687H87.2083L87.2135 165.244Z" fill="white"/>
<path d="M93.9443 170.973H97.8907C98.0612 170.973 98.2248 170.905 98.3453 170.785C98.4659 170.664 98.5337 170.501 98.5337 170.33V165.244C98.5337 164.551 98.2583 163.887 97.7681 163.396C97.278 162.906 96.6133 162.631 95.9201 162.631C95.227 162.631 94.5622 162.906 94.0721 163.396C93.582 163.887 93.3066 164.551 93.3066 165.244V170.33C93.3066 170.501 93.3743 170.664 93.4949 170.785C93.6155 170.905 93.779 170.973 93.9495 170.973M94.5925 165.244C94.6076 164.902 94.7543 164.579 95.0019 164.342C95.2494 164.105 95.5788 163.973 95.9214 163.973C96.264 163.973 96.5934 164.105 96.841 164.342C97.0886 164.579 97.2352 164.902 97.2504 165.244V169.687H94.5925V165.244Z" fill="white"/>
<path d="M71.8057 190.45H75.7521C75.8365 190.45 75.9201 190.433 75.9981 190.401C76.0761 190.368 76.147 190.321 76.2067 190.261C76.2664 190.202 76.3137 190.131 76.3461 190.053C76.3784 189.975 76.395 189.891 76.395 189.807V184.721C76.395 184.028 76.1196 183.363 75.6295 182.873C75.1394 182.383 74.4746 182.107 73.7815 182.107C73.0883 182.107 72.4236 182.383 71.9334 182.873C71.4433 183.363 71.168 184.028 71.168 184.721V189.807C71.168 189.977 71.2357 190.141 71.3563 190.261C71.4768 190.382 71.6404 190.45 71.8109 190.45M72.4538 184.718C72.469 184.376 72.6157 184.053 72.8632 183.816C73.1108 183.579 73.4402 183.447 73.7828 183.447C74.1254 183.447 74.4548 183.579 74.7024 183.816C74.9499 184.053 75.0966 184.376 75.1118 184.718V189.161H72.4538V184.718Z" fill="white"/>
<path d="M145.604 206.247H149.551C149.721 206.247 149.885 206.179 150.006 206.058C150.126 205.938 150.194 205.774 150.194 205.604V200.518C150.194 199.825 149.918 199.16 149.428 198.67C148.938 198.18 148.273 197.904 147.58 197.904C146.887 197.904 146.222 198.18 145.732 198.67C145.242 199.16 144.967 199.825 144.967 200.518V205.604C144.967 205.774 145.035 205.938 145.155 206.058C145.276 206.179 145.439 206.247 145.61 206.247M146.253 200.515C146.245 200.336 146.273 200.156 146.336 199.988C146.4 199.82 146.496 199.666 146.62 199.537C146.745 199.407 146.894 199.303 147.059 199.233C147.224 199.162 147.402 199.126 147.582 199.126C147.761 199.126 147.939 199.162 148.104 199.233C148.269 199.303 148.419 199.407 148.543 199.537C148.667 199.666 148.764 199.82 148.827 199.988C148.89 200.156 148.918 200.336 148.911 200.515V204.958H146.253V200.515Z" fill="white"/>
<path d="M138.224 206.247H142.17C142.341 206.247 142.504 206.179 142.625 206.058C142.745 205.938 142.813 205.774 142.813 205.604V200.518C142.813 199.825 142.538 199.16 142.047 198.67C141.557 198.18 140.893 197.904 140.199 197.904C139.506 197.904 138.842 198.18 138.351 198.67C137.861 199.16 137.586 199.825 137.586 200.518V205.604C137.586 205.774 137.654 205.938 137.774 206.058C137.895 206.179 138.058 206.247 138.229 206.247M138.872 200.515C138.887 200.173 139.034 199.85 139.281 199.613C139.529 199.376 139.858 199.244 140.201 199.244C140.543 199.244 140.873 199.376 141.12 199.613C141.368 199.85 141.515 200.173 141.53 200.515V204.958H138.872V200.515Z" fill="white"/>
<path d="M152.983 206.247H156.93C157.1 206.247 157.264 206.179 157.384 206.058C157.505 205.938 157.573 205.774 157.573 205.604V200.518C157.573 199.825 157.297 199.16 156.807 198.67C156.317 198.18 155.652 197.904 154.959 197.904C154.266 197.904 153.601 198.18 153.111 198.67C152.621 199.16 152.346 199.825 152.346 200.518V205.604C152.346 205.774 152.413 205.938 152.534 206.058C152.655 206.179 152.818 206.247 152.989 206.247M153.632 200.515C153.647 200.173 153.793 199.85 154.041 199.613C154.289 199.376 154.618 199.244 154.961 199.244C155.303 199.244 155.633 199.376 155.88 199.613C156.128 199.85 156.274 200.173 156.289 200.515V204.958H153.629L153.632 200.515Z" fill="white"/>
<path d="M79.1865 190.45H83.1329C83.3034 190.45 83.467 190.382 83.5875 190.261C83.7081 190.141 83.7758 189.977 83.7758 189.807V184.721C83.7758 184.028 83.5005 183.363 83.0104 182.873C82.5202 182.383 81.8555 182.107 81.1623 182.107C80.4692 182.107 79.8044 182.383 79.3143 182.873C78.8242 183.363 78.5488 184.028 78.5488 184.721V189.807C78.5488 189.977 78.6166 190.141 78.7371 190.261C78.8577 190.382 79.0212 190.45 79.1918 190.45M79.8347 184.718C79.8499 184.376 79.9965 184.053 80.2441 183.816C80.4917 183.579 80.821 183.447 81.1637 183.447C81.5063 183.447 81.8357 183.579 82.0832 183.816C82.3308 184.053 82.4774 184.376 82.4926 184.718V189.161H79.8347V184.718Z" fill="white"/>
<path d="M164.146 205.67C176.001 194.347 191.708 187.941 208.1 187.744C223.884 187.965 238.941 194.407 250 205.67" stroke="white" stroke-width="0.6" stroke-miterlimit="10"/>
<path d="M171.777 204.788C182.019 195.804 195.118 190.749 208.74 190.523C221.848 190.766 234.403 195.849 243.989 204.793" stroke="white" stroke-width="0.6" stroke-miterlimit="10"/>
<path d="M171.183 205.672H165.799V208.445H171.183V205.672Z" stroke="white" stroke-width="0.6" stroke-miterlimit="10"/>
<path d="M170.18 208.445H166.701V223.651H170.18V208.445Z" stroke="white" stroke-width="0.6" stroke-miterlimit="10"/>
<path d="M248.134 205.672H242.75V208.445H248.134V205.672Z" stroke="white" stroke-width="0.6" stroke-miterlimit="10"/>
<path d="M247.135 208.445H243.656V223.651H247.135V208.445Z" stroke="white" stroke-width="0.6" stroke-miterlimit="10"/>
<path d="M240.888 205.672H174.061V223.65H240.888V205.672Z" stroke="white" stroke-width="0.6" stroke-miterlimit="10"/>
<path d="M174.061 208.445H240.888" stroke="white" stroke-width="0.6" stroke-miterlimit="10"/>
<path d="M174.061 213.086H240.888" stroke="white" stroke-width="0.6" stroke-miterlimit="10"/>
<path d="M174.061 219.594H240.888" stroke="white" stroke-width="0.6" stroke-miterlimit="10"/>
<path d="M179.732 205.672V208.445" stroke="white" stroke-width="0.6" stroke-miterlimit="10"/>
<path d="M184.051 205.672V208.445" stroke="white" stroke-width="0.6" stroke-miterlimit="10"/>
<path d="M188.367 205.672V208.445" stroke="white" stroke-width="0.6" stroke-miterlimit="10"/>
<path d="M192.684 205.672V208.445" stroke="white" stroke-width="0.6" stroke-miterlimit="10"/>
<path d="M197.002 205.672V208.445" stroke="white" stroke-width="0.6" stroke-miterlimit="10"/>
<path d="M201.318 205.672V208.445" stroke="white" stroke-width="0.6" stroke-miterlimit="10"/>
<path d="M205.633 205.672V208.445" stroke="white" stroke-width="0.6" stroke-miterlimit="10"/>
<path d="M209.951 205.672V208.445" stroke="white" stroke-width="0.6" stroke-miterlimit="10"/>
<path d="M214.266 205.672V208.445" stroke="white" stroke-width="0.6" stroke-miterlimit="10"/>
<path d="M218.582 205.672V208.445" stroke="white" stroke-width="0.6" stroke-miterlimit="10"/>
<path d="M222.9 205.672V208.445" stroke="white" stroke-width="0.6" stroke-miterlimit="10"/>
<path d="M227.217 205.672V208.445" stroke="white" stroke-width="0.6" stroke-miterlimit="10"/>
<path d="M231.533 205.672V208.445" stroke="white" stroke-width="0.6" stroke-miterlimit="10"/>
<path d="M235.852 205.672V208.445" stroke="white" stroke-width="0.6" stroke-miterlimit="10"/>
<mask id="mask1_2738_14" style="mask-type:luminance" maskUnits="userSpaceOnUse" x="0" y="144" width="39" height="82">
<g opacity="0.6">
<path d="M38.3271 144.244H0V225.422H38.3271V144.244Z" fill="white"/>
</g>
</mask>
<g mask="url(#mask1_2738_14)">
<path d="M37.794 144.777H0.533203V224.887H37.794V144.777Z" stroke="white" stroke-width="0.6" stroke-miterlimit="10"/>
</g>
<path d="M7.40903 150.318H4.44531V154.275H7.40903V150.318Z" stroke="white" stroke-width="0.6" stroke-miterlimit="10"/>
<path d="M14.0431 150.318H11.082V154.275H14.0431V150.318Z" stroke="white" stroke-width="0.6" stroke-miterlimit="10"/>
<path d="M20.6779 150.318H17.7168V154.275H20.6779V150.318Z" stroke="white" stroke-width="0.6" stroke-miterlimit="10"/>
<path d="M27.3154 150.318H24.3516V154.275H27.3154V150.318Z" stroke="white" stroke-width="0.6" stroke-miterlimit="10"/>
<path d="M33.9539 150.318H30.9902V154.275H33.9539V150.318Z" stroke="white" stroke-width="0.6" stroke-miterlimit="10"/>
<path d="M7.40903 158.986H4.44531V162.943H7.40903V158.986Z" stroke="white" stroke-width="0.6" stroke-miterlimit="10"/>
<path d="M14.0431 158.986H11.082V162.943H14.0431V158.986Z" stroke="white" stroke-width="0.6" stroke-miterlimit="10"/>
<path d="M20.6779 158.986H17.7168V162.943H20.6779V158.986Z" stroke="white" stroke-width="0.6" stroke-miterlimit="10"/>
<path d="M27.3154 158.986H24.3516V162.943H27.3154V158.986Z" stroke="white" stroke-width="0.6" stroke-miterlimit="10"/>
<path d="M33.954 158.986H30.9902V162.943H33.954V158.986Z" stroke="white" stroke-width="0.6" stroke-miterlimit="10"/>
<path d="M7.40903 167.652H4.44531V171.609H7.40903V167.652Z" stroke="white" stroke-width="0.6" stroke-miterlimit="10"/>
<path d="M14.0431 167.652H11.082V171.609H14.0431V167.652Z" stroke="white" stroke-width="0.6" stroke-miterlimit="10"/>
<path d="M20.6779 167.652H17.7168V171.609H20.6779V167.652Z" stroke="white" stroke-width="0.6" stroke-miterlimit="10"/>
<path d="M27.3154 167.652H24.3516V171.609H27.3154V167.652Z" stroke="white" stroke-width="0.6" stroke-miterlimit="10"/>
<path d="M33.9539 167.652H30.9902V171.609H33.9539V167.652Z" stroke="white" stroke-width="0.6" stroke-miterlimit="10"/>
<path d="M7.40903 176.32H4.44531V180.277H7.40903V176.32Z" stroke="white" stroke-width="0.6" stroke-miterlimit="10"/>
<path d="M14.0431 176.32H11.082V180.277H14.0431V176.32Z" stroke="white" stroke-width="0.6" stroke-miterlimit="10"/>
<path d="M20.6779 176.32H17.7168V180.277H20.6779V176.32Z" stroke="white" stroke-width="0.6" stroke-miterlimit="10"/>
<path d="M27.3154 176.32H24.3516V180.277H27.3154V176.32Z" stroke="white" stroke-width="0.6" stroke-miterlimit="10"/>
<path d="M33.954 176.32H30.9902V180.277H33.954V176.32Z" stroke="white" stroke-width="0.6" stroke-miterlimit="10"/>
<path d="M7.40903 184.992H4.44531V188.949H7.40903V184.992Z" stroke="white" stroke-width="0.6" stroke-miterlimit="10"/>
<path d="M14.0431 184.992H11.082V188.949H14.0431V184.992Z" stroke="white" stroke-width="0.6" stroke-miterlimit="10"/>
<path d="M20.6779 184.992H17.7168V188.949H20.6779V184.992Z" stroke="white" stroke-width="0.6" stroke-miterlimit="10"/>
<path d="M27.3154 184.992H24.3516V188.949H27.3154V184.992Z" stroke="white" stroke-width="0.6" stroke-miterlimit="10"/>
<path d="M33.954 184.992H30.9902V188.949H33.954V184.992Z" stroke="white" stroke-width="0.6" stroke-miterlimit="10"/>
<path d="M7.40903 193.658H4.44531V197.615H7.40903V193.658Z" stroke="white" stroke-width="0.6" stroke-miterlimit="10"/>
<path d="M14.0431 193.658H11.082V197.615H14.0431V193.658Z" stroke="white" stroke-width="0.6" stroke-miterlimit="10"/>
<path d="M20.6779 193.658H17.7168V197.615H20.6779V193.658Z" stroke="white" stroke-width="0.6" stroke-miterlimit="10"/>
<path d="M27.3154 193.658H24.3516V197.615H27.3154V193.658Z" stroke="white" stroke-width="0.6" stroke-miterlimit="10"/>
<path d="M33.9539 193.658H30.9902V197.615H33.9539V193.658Z" stroke="white" stroke-width="0.6" stroke-miterlimit="10"/>
<path d="M7.40903 202.324H4.44531V206.281H7.40903V202.324Z" stroke="white" stroke-width="0.6" stroke-miterlimit="10"/>
<path d="M14.0431 202.324H11.082V206.281H14.0431V202.324Z" stroke="white" stroke-width="0.6" stroke-miterlimit="10"/>
<path d="M20.6779 202.324H17.7168V206.281H20.6779V202.324Z" stroke="white" stroke-width="0.6" stroke-miterlimit="10"/>
<path d="M27.3154 202.324H24.3516V206.281H27.3154V202.324Z" stroke="white" stroke-width="0.6" stroke-miterlimit="10"/>
<path d="M33.954 202.324H30.9902V206.281H33.954V202.324Z" stroke="white" stroke-width="0.6" stroke-miterlimit="10"/>
<mask id="mask2_2738_14" style="mask-type:luminance" maskUnits="userSpaceOnUse" x="0" y="144" width="39" height="82">
<g opacity="0.6">
<path d="M38.3271 144.244H0V225.422H38.3271V144.244Z" fill="white"/>
</g>
</mask>
<g mask="url(#mask2_2738_14)">
<path d="M23.7622 213.488H16.5332V224.888H23.7622V213.488Z" stroke="white" stroke-width="0.6" stroke-miterlimit="10"/>
</g>
</g>
</g>
<path d="M18.0909 13.7273H20.9091V29.1364C20.9091 30.7273 20.5341 32.1477 19.7841 33.3977C19.0417 34.6402 17.9924 35.6212 16.6364 36.3409C15.2803 37.053 13.6894 37.4091 11.8636 37.4091C10.0379 37.4091 8.44697 37.053 7.09091 36.3409C5.73485 35.6212 4.68182 34.6402 3.93182 33.3977C3.18939 32.1477 2.81818 30.7273 2.81818 29.1364V13.7273H5.63636V28.9091C5.63636 30.0455 5.88636 31.0568 6.38636 31.9432C6.88636 32.822 7.59849 33.5152 8.52273 34.0227C9.45455 34.5227 10.5682 34.7727 11.8636 34.7727C13.1591 34.7727 14.2727 34.5227 15.2045 34.0227C16.1364 33.5152 16.8485 32.822 17.3409 31.9432C17.8409 31.0568 18.0909 30.0455 18.0909 28.9091V13.7273ZM39.2642 19.5455C39.1278 18.3939 38.5748 17.5 37.6051 16.8636C36.6354 16.2273 35.446 15.9091 34.0369 15.9091C33.0066 15.9091 32.1051 16.0758 31.3324 16.4091C30.5672 16.7424 29.9688 17.2008 29.5369 17.7841C29.1127 18.3674 28.9006 19.0303 28.9006 19.7727C28.9006 20.3939 29.0483 20.928 29.3438 21.375C29.6468 21.8144 30.0331 22.1818 30.5028 22.4773C30.9725 22.7652 31.465 23.0038 31.9801 23.1932C32.4953 23.375 32.9688 23.5227 33.4006 23.6364L35.7642 24.2727C36.3703 24.4318 37.0445 24.6515 37.7869 24.9318C38.5369 25.2121 39.2528 25.5947 39.9347 26.0795C40.6241 26.5568 41.1922 27.1705 41.6392 27.9205C42.0862 28.6705 42.3097 29.5909 42.3097 30.6818C42.3097 31.9394 41.9801 33.0758 41.321 34.0909C40.6695 35.1061 39.715 35.9129 38.4574 36.5114C37.2074 37.1098 35.6884 37.4091 33.9006 37.4091C32.2339 37.4091 30.7907 37.1402 29.571 36.6023C28.3589 36.0644 27.4044 35.3144 26.7074 34.3523C26.018 33.3902 25.6278 32.2727 25.5369 31H28.446C28.5218 31.8788 28.8172 32.6061 29.3324 33.1818C29.8551 33.75 30.5142 34.1742 31.3097 34.4545C32.1127 34.7273 32.9763 34.8636 33.9006 34.8636C34.9763 34.8636 35.9422 34.6894 36.7983 34.3409C37.6544 33.9848 38.3324 33.4924 38.8324 32.8636C39.3324 32.2273 39.5824 31.4848 39.5824 30.6364C39.5824 29.8636 39.3665 29.2348 38.9347 28.75C38.5028 28.2652 37.9347 27.8712 37.2301 27.5682C36.5256 27.2652 35.7642 27 34.946 26.7727L32.0824 25.9545C30.2642 25.4318 28.8248 24.6856 27.7642 23.7159C26.7036 22.7462 26.1733 21.4773 26.1733 19.9091C26.1733 18.6061 26.5256 17.4697 27.2301 16.5C27.9422 15.5227 28.8968 14.7652 30.0938 14.2273C31.2983 13.6818 32.643 13.4091 34.1278 13.4091C35.6278 13.4091 36.9612 13.678 38.1278 14.2159C39.2945 14.7462 40.2188 15.4735 40.9006 16.3977C41.59 17.322 41.9536 18.3712 41.9915 19.5455H39.2642ZM47.8977 37H44.9432L53.4886 13.7273H56.3977L64.9432 37H61.9886L55.0341 17.4091H54.8523L47.8977 37ZM48.9886 27.9091H60.8977V30.4091H48.9886V27.9091Z" fill="white"/>
</svg>
