<svg width="60" height="61" viewBox="0 0 60 61" fill="none" xmlns="http://www.w3.org/2000/svg">
<rect y="0.746582" width="60" height="60" rx="30" fill="white" fill-opacity="0.1"/>
<g clip-path="url(#clip0_537_1110)">
<path d="M41.9991 30.8196C41.9991 24.1506 36.6261 18.7446 29.9991 18.7446C23.3691 18.7461 17.9961 24.1506 17.9961 30.8211C17.9961 36.8466 22.3851 41.8416 28.1211 42.7476V34.3101H25.0761V30.8211H28.1241V28.1586C28.1241 25.1331 29.9166 23.4621 32.6571 23.4621C33.9711 23.4621 35.3436 23.6976 35.3436 23.6976V26.6676H33.8301C32.3406 26.6676 31.8756 27.5991 31.8756 28.5546V30.8196H35.2026L34.6716 34.3086H31.8741V42.7461C37.6101 41.8401 41.9991 36.8451 41.9991 30.8196Z" fill="white"/>
</g>
<defs>
<clipPath id="clip0_537_1110">
<rect width="24" height="24" fill="white" transform="translate(18 18.7466)"/>
</clipPath>
</defs>
</svg>
