<svg width="60" height="61" viewBox="0 0 60 61" fill="none" xmlns="http://www.w3.org/2000/svg">
<rect y="0.746582" width="60" height="60" rx="30" fill="white" fill-opacity="0.1"/>
<g clip-path="url(#clip0_537_1113)">
<path d="M30 18.7466C26.7435 18.7466 26.334 18.7616 25.0545 18.8186C23.775 18.8786 22.9035 19.0796 22.14 19.3766C21.3388 19.6771 20.6132 20.1497 20.0145 20.7611C19.4031 21.3598 18.9305 22.0853 18.63 22.8866C18.333 23.6486 18.1305 24.5216 18.072 25.7966C18.015 27.0791 18 27.4871 18 30.7481C18 34.0061 18.015 34.4141 18.072 35.6936C18.132 36.9716 18.333 37.8431 18.63 38.6066C18.9375 39.3956 19.347 40.0646 20.0145 40.7321C20.6805 41.3996 21.3495 41.8106 22.1385 42.1166C22.9035 42.4136 23.7735 42.6161 25.0515 42.6746C26.3325 42.7316 26.7405 42.7466 30 42.7466C33.2595 42.7466 33.666 42.7316 34.947 42.6746C36.2235 42.6146 37.098 42.4136 37.8615 42.1166C38.6622 41.8159 39.3872 41.3433 39.9855 40.7321C40.653 40.0646 41.0625 39.3956 41.37 38.6066C41.6655 37.8431 41.868 36.9716 41.928 35.6936C41.985 34.4141 42 34.0061 42 30.7466C42 27.4871 41.985 27.0791 41.928 25.7981C41.868 24.5216 41.6655 23.6486 41.37 22.8866C41.0695 22.0853 40.5969 21.3598 39.9855 20.7611C39.3868 20.1497 38.6612 19.6771 37.86 19.3766C37.095 19.0796 36.222 18.8771 34.9455 18.8186C33.6645 18.7616 33.258 18.7466 29.997 18.7466H30ZM28.9245 20.9096H30.0015C33.2055 20.9096 33.585 20.9201 34.8495 20.9786C36.0195 21.0311 36.6555 21.2276 37.0785 21.3911C37.638 21.6086 38.0385 21.8696 38.4585 22.2896C38.8785 22.7096 39.138 23.1086 39.3555 23.6696C39.5205 24.0911 39.7155 24.7271 39.768 25.8971C39.8265 27.1616 39.8385 27.5411 39.8385 30.7436C39.8385 33.9461 39.8265 34.3271 39.768 35.5916C39.7155 36.7616 39.519 37.3961 39.3555 37.8191C39.1617 38.3394 38.8549 38.8103 38.457 39.1976C38.037 39.6176 37.638 39.8771 37.077 40.0946C36.657 40.2596 36.021 40.4546 34.8495 40.5086C33.585 40.5656 33.2055 40.5791 30.0015 40.5791C26.7975 40.5791 26.4165 40.5656 25.152 40.5086C23.982 40.4546 23.3475 40.2596 22.9245 40.0946C22.4037 39.9015 21.9324 39.5951 21.5445 39.1976C21.1459 38.81 20.8385 38.3386 20.6445 37.8176C20.481 37.3961 20.2845 36.7601 20.232 35.5901C20.175 34.3256 20.163 33.9461 20.163 30.7406C20.163 27.5351 20.175 27.1586 20.232 25.8941C20.286 24.7241 20.481 24.0881 20.646 23.6651C20.8635 23.1056 21.1245 22.7051 21.5445 22.2851C21.9645 21.8651 22.3635 21.6056 22.9245 21.3881C23.3475 21.2231 23.982 21.0281 25.152 20.9741C26.259 20.9231 26.688 20.9081 28.9245 20.9066V20.9096ZM36.4065 22.9016C36.2174 22.9016 36.0301 22.9388 35.8554 23.0112C35.6807 23.0836 35.522 23.1896 35.3883 23.3233C35.2545 23.4571 35.1485 23.6158 35.0761 23.7905C35.0037 23.9652 34.9665 24.1525 34.9665 24.3416C34.9665 24.5307 35.0037 24.7179 35.0761 24.8926C35.1485 25.0674 35.2545 25.2261 35.3883 25.3598C35.522 25.4935 35.6807 25.5996 35.8554 25.672C36.0301 25.7443 36.2174 25.7816 36.4065 25.7816C36.7884 25.7816 37.1547 25.6299 37.4247 25.3598C37.6948 25.0898 37.8465 24.7235 37.8465 24.3416C37.8465 23.9597 37.6948 23.5934 37.4247 23.3233C37.1547 23.0533 36.7884 22.9016 36.4065 22.9016ZM30.0015 24.5846C29.1841 24.5718 28.3723 24.7218 27.6135 25.0258C26.8546 25.3298 26.1638 25.7817 25.5812 26.3552C24.9987 26.9287 24.536 27.6124 24.2203 28.3665C23.9045 29.1205 23.7419 29.9298 23.7419 30.7473C23.7419 31.5648 23.9045 32.3742 24.2203 33.1282C24.536 33.8822 24.9987 34.5659 25.5812 35.1394C26.1638 35.713 26.8546 36.1649 27.6135 36.4689C28.3723 36.7729 29.1841 36.9228 30.0015 36.9101C31.6193 36.8848 33.1623 36.2245 34.2975 35.0715C35.4326 33.9185 36.0689 32.3653 36.0689 30.7473C36.0689 29.1293 35.4326 27.5762 34.2975 26.4232C33.1623 25.2702 31.6193 24.6098 30.0015 24.5846ZM30.0015 26.7461C30.5269 26.7461 31.0471 26.8496 31.5324 27.0506C32.0178 27.2516 32.4588 27.5463 32.8303 27.9178C33.2018 28.2893 33.4964 28.7303 33.6975 29.2157C33.8985 29.701 34.002 30.2212 34.002 30.7466C34.002 31.2719 33.8985 31.7921 33.6975 32.2775C33.4964 32.7629 33.2018 33.2039 32.8303 33.5754C32.4588 33.9468 32.0178 34.2415 31.5324 34.4426C31.0471 34.6436 30.5269 34.7471 30.0015 34.7471C28.9405 34.7471 27.923 34.3256 27.1727 33.5754C26.4225 32.8251 26.001 31.8076 26.001 30.7466C26.001 29.6856 26.4225 28.668 27.1727 27.9178C27.923 27.1676 28.9405 26.7461 30.0015 26.7461Z" fill="white"/>
</g>
<defs>
<clipPath id="clip0_537_1113">
<rect width="24" height="24" fill="white" transform="translate(18 18.7466)"/>
</clipPath>
</defs>
</svg>
