<svg width="60" height="61" viewBox="0 0 60 61" fill="none" xmlns="http://www.w3.org/2000/svg">
<rect y="0.746582" width="60" height="60" rx="30" fill="white" fill-opacity="0.1"/>
<g clip-path="url(#clip0_537_1119)">
<path d="M18 20.4656C18 19.5161 18.789 18.7466 19.7625 18.7466H40.2375C41.211 18.7466 42 19.5161 42 20.4656V41.0276C42 41.9771 41.211 42.7466 40.2375 42.7466H19.7625C18.789 42.7466 18 41.9771 18 41.0276V20.4656ZM25.4145 38.8376V28.0001H21.813V38.8376H25.4145ZM23.6145 26.5196C24.87 26.5196 25.6515 25.6886 25.6515 24.6476C25.629 23.5841 24.8715 22.7756 23.6385 22.7756C22.4055 22.7756 21.6 23.5856 21.6 24.6476C21.6 25.6886 22.3815 26.5196 23.5905 26.5196H23.6145ZM30.9765 38.8376V32.7851C30.9765 32.4611 31.0005 32.1371 31.0965 31.9061C31.356 31.2596 31.9485 30.5891 32.9445 30.5891C34.248 30.5891 34.7685 31.5821 34.7685 33.0401V38.8376H38.37V32.6216C38.37 29.2916 36.594 27.7436 34.224 27.7436C32.313 27.7436 31.4565 28.7936 30.9765 29.5331V29.5706H30.9525L30.9765 29.5331V28.0001H27.3765C27.4215 29.0171 27.3765 38.8376 27.3765 38.8376H30.9765Z" fill="white"/>
</g>
<defs>
<clipPath id="clip0_537_1119">
<rect width="24" height="24" fill="white" transform="translate(18 18.7466)"/>
</clipPath>
</defs>
</svg>
