<svg width="36" height="37" viewBox="0 0 36 37" fill="none" xmlns="http://www.w3.org/2000/svg">
<g clip-path="url(#clip0_525_483)">
<path d="M13.5 16.9922C13.5 18.1857 13.9741 19.3303 14.818 20.1742C15.6619 21.0181 16.8065 21.4922 18 21.4922C19.1935 21.4922 20.3381 21.0181 21.182 20.1742C22.0259 19.3303 22.5 18.1857 22.5 16.9922C22.5 15.7987 22.0259 14.6541 21.182 13.8102C20.3381 12.9663 19.1935 12.4922 18 12.4922C16.8065 12.4922 15.6619 12.9663 14.818 13.8102C13.9741 14.6541 13.5 15.7987 13.5 16.9922Z" stroke="white" stroke-width="2" stroke-linecap="round" stroke-linejoin="round"/>
<path d="M26.4855 25.4782L20.121 31.8427C19.5585 32.4047 18.7959 32.7203 18.0008 32.7203C17.2056 32.7203 16.443 32.4047 15.8805 31.8427L9.51451 25.4782C7.83634 23.8 6.69351 21.6618 6.23054 19.334C5.76756 17.0063 6.00524 14.5935 6.91351 12.4008C7.82178 10.2081 9.35985 8.33404 11.3332 7.01549C13.3066 5.69694 15.6267 4.99316 18 4.99316C20.3734 4.99316 22.6934 5.69694 24.6668 7.01549C26.6402 8.33404 28.1782 10.2081 29.0865 12.4008C29.9948 14.5935 30.2324 17.0063 29.7695 19.334C29.3065 21.6618 28.1637 23.8 26.4855 25.4782Z" stroke="white" stroke-width="2" stroke-linecap="round" stroke-linejoin="round"/>
</g>
<defs>
<clipPath id="clip0_525_483">
<rect width="36" height="36" fill="white" transform="translate(0 0.493164)"/>
</clipPath>
</defs>
</svg>
