<svg width="60" height="61" viewBox="0 0 60 61" fill="none" xmlns="http://www.w3.org/2000/svg">
<rect y="0.246582" width="60" height="60" rx="30" fill="#5C9DFE" fill-opacity="0.15"/>
<g clip-path="url(#clip0_537_1088)">
<path d="M18.75 23.9966C18.75 23.3335 19.0134 22.6977 19.4822 22.2288C19.9511 21.76 20.587 21.4966 21.25 21.4966H38.75C39.413 21.4966 40.0489 21.76 40.5178 22.2288C40.9866 22.6977 41.25 23.3335 41.25 23.9966V36.4966C41.25 37.1596 40.9866 37.7955 40.5178 38.2643C40.0489 38.7332 39.413 38.9966 38.75 38.9966H21.25C20.587 38.9966 19.9511 38.7332 19.4822 38.2643C19.0134 37.7955 18.75 37.1596 18.75 36.4966V23.9966Z" stroke="white" stroke-width="2" stroke-linecap="round" stroke-linejoin="round"/>
<path d="M18.75 23.9966L30 31.4966L41.25 23.9966" stroke="white" stroke-width="2" stroke-linecap="round" stroke-linejoin="round"/>
</g>
<defs>
<clipPath id="clip0_537_1088">
<rect width="30" height="30" fill="white" transform="translate(15 15.2466)"/>
</clipPath>
</defs>
</svg>
