<svg width="60" height="61" viewBox="0 0 60 61" fill="none" xmlns="http://www.w3.org/2000/svg">
<rect y="0.246582" width="60" height="60" rx="30" fill="#FACC15" fill-opacity="0.15"/>
<g clip-path="url(#clip0_537_1097)">
<path d="M18.75 30.2466C18.75 31.724 19.041 33.1869 19.6064 34.5518C20.1717 35.9167 21.0004 37.1569 22.045 38.2015C23.0897 39.2462 24.3299 40.0749 25.6948 40.6402C27.0597 41.2056 28.5226 41.4966 30 41.4966C31.4774 41.4966 32.9403 41.2056 34.3052 40.6402C35.6701 40.0749 36.9103 39.2462 37.955 38.2015C38.9996 37.1569 39.8283 35.9167 40.3936 34.5518C40.959 33.1869 41.25 31.724 41.25 30.2466C41.25 28.7692 40.959 27.3063 40.3936 25.9414C39.8283 24.5765 38.9996 23.3363 37.955 22.2916C36.9103 21.247 35.6701 20.4183 34.3052 19.8529C32.9403 19.2876 31.4774 18.9966 30 18.9966C28.5226 18.9966 27.0597 19.2876 25.6948 19.8529C24.3299 20.4183 23.0897 21.247 22.045 22.2916C21.0004 23.3363 20.1717 24.5765 19.6064 25.9414C19.041 27.3063 18.75 28.7692 18.75 30.2466Z" stroke="white" stroke-width="2" stroke-linecap="round" stroke-linejoin="round"/>
<path d="M26.25 30.2466C26.25 31.2411 26.6451 32.195 27.3483 32.8982C28.0516 33.6015 29.0054 33.9966 30 33.9966C30.9946 33.9966 31.9484 33.6015 32.6517 32.8982C33.3549 32.195 33.75 31.2411 33.75 30.2466C33.75 29.252 33.3549 28.2982 32.6517 27.5949C31.9484 26.8917 30.9946 26.4966 30 26.4966C29.0054 26.4966 28.0516 26.8917 27.3483 27.5949C26.6451 28.2982 26.25 29.252 26.25 30.2466Z" stroke="white" stroke-width="2" stroke-linecap="round" stroke-linejoin="round"/>
<path d="M30 26.4966H40.5" stroke="white" stroke-width="2" stroke-linecap="round" stroke-linejoin="round"/>
<path d="M33.248 32.1216L27.998 41.2153" stroke="white" stroke-width="2" stroke-linecap="round" stroke-linejoin="round"/>
<path d="M26.752 32.1216L21.502 23.0278" stroke="white" stroke-width="2" stroke-linecap="round" stroke-linejoin="round"/>
</g>
<defs>
<clipPath id="clip0_537_1097">
<rect width="30" height="30" fill="white" transform="translate(15 15.2466)"/>
</clipPath>
</defs>
</svg>
