<svg width="92" height="92" viewBox="0 0 92 92" fill="none" xmlns="http://www.w3.org/2000/svg">
<g clip-path="url(#clip0_3181_243)">
<path d="M91.3551 47.1505V35.3275C91.3625 33.7413 90.8546 32.1956 89.9078 30.9229C88.961 29.6502 87.6265 28.7194 86.1051 28.2705L76.6201 25.4255V23.1875C77.9836 22.2394 79.0977 20.9757 79.8674 19.504C80.637 18.0323 81.0393 16.3963 81.0401 14.7355V10.3135C81.0401 7.57795 79.9534 4.95441 78.019 3.02007C76.0847 1.08573 73.4612 -0.000976562 70.7256 -0.000976562C67.99 -0.000976562 65.3665 1.08573 63.4321 3.02007C61.4978 4.95441 60.4111 7.57795 60.4111 10.3135V14.7335C60.4118 16.3943 60.8142 18.0303 61.5838 19.502C62.3534 20.9737 63.4675 22.2374 64.8311 23.1855V25.4235L56.4721 27.9315C53.3973 25.1713 49.4237 23.6232 45.292 23.576C41.1602 23.5287 37.1523 24.9854 34.0151 27.6745L26.5211 25.4255V23.1875C27.8846 22.2394 28.9987 20.9757 29.7684 19.504C30.538 18.0323 30.9403 16.3963 30.9411 14.7355V10.3135C30.9411 7.57795 29.8544 4.95441 27.92 3.02007C25.9857 1.08573 23.3621 -0.000976562 20.6266 -0.000976562C17.891 -0.000976562 15.2675 1.08573 13.3331 3.02007C11.3988 4.95441 10.3121 7.57795 10.3121 10.3135V14.7335C10.3128 16.3943 10.7152 18.0303 11.4848 19.502C12.2544 20.9737 13.3685 22.2374 14.7321 23.1855V25.4235L5.25007 28.2695C3.72875 28.7189 2.39441 29.6499 1.44766 30.9227C0.50091 32.1955 -0.00707684 33.7412 7.44834e-05 35.3275V47.1505H2.94707V35.3275C2.94271 34.3755 3.24787 33.4479 3.81656 32.6844C4.38526 31.9209 5.18668 31.3629 6.10007 31.0945L15.5881 28.2475C16.1621 29.0574 16.9164 29.7229 17.7916 30.1915C18.6667 30.66 19.6388 30.9188 20.6311 30.9475C21.6234 30.9188 22.5954 30.66 23.4706 30.1915C24.3457 29.7229 25.1001 29.0574 25.6741 28.2475L31.7171 30.0595C29.7519 32.5258 28.511 35.4898 28.1331 38.6205C26.72 37.112 24.8856 36.0635 22.8687 35.6115C20.8517 35.1594 18.7454 35.3247 16.8236 36.0858C14.9018 36.8469 13.2534 38.1686 12.0929 39.879C10.9323 41.5894 10.3132 43.6095 10.3161 45.6765V50.0995C10.3168 51.7603 10.7192 53.3963 11.4888 54.868C12.2584 56.3397 13.3725 57.6034 14.7361 58.5515V60.7895L5.25007 63.6325C3.72875 64.0819 2.39441 65.0129 1.44766 66.2857C0.50091 67.5585 -0.00707684 69.1042 7.44834e-05 70.6905V83.9905H17.6821C18.0725 83.9913 18.4467 84.1468 18.7228 84.4228C18.9988 84.6989 19.1543 85.0731 19.1551 85.4635V91.3575H72.2001V85.4605C72.2009 85.0701 72.3563 84.6959 72.6324 84.4198C72.9085 84.1438 73.2827 83.9883 73.6731 83.9875H91.3551V70.6875C91.3625 69.1013 90.8546 67.5556 89.9078 66.2829C88.961 65.0102 87.6265 64.0794 86.1051 63.6305L76.6201 60.7885V58.5505C77.9836 57.6024 79.0977 56.3387 79.8674 54.867C80.637 53.3953 81.0393 51.7593 81.0401 50.0985V45.6785C81.042 43.6286 80.4325 41.6247 79.2895 39.923C78.1466 38.2214 76.522 36.8992 74.6237 36.1257C72.7253 35.3522 70.6394 35.1624 68.6326 35.5806C66.6259 35.9988 64.7894 37.0061 63.3581 38.4735V37.0735C63.3587 35.665 62.9839 34.2819 62.2722 33.0664C61.5605 31.851 60.5377 30.8472 59.3091 30.1585L65.6821 28.2455C66.2365 29.0747 66.9867 29.7544 67.8664 30.2244C68.7461 30.6944 69.7282 30.9403 70.7256 30.9403C71.723 30.9403 72.705 30.6944 73.5847 30.2244C74.4644 29.7544 75.2147 29.0747 75.7691 28.2455L85.2581 31.0925C86.1707 31.3616 86.9713 31.9199 87.5392 32.6834C88.1071 33.4468 88.4117 34.374 88.4071 35.3255V47.1505H91.3551ZM20.6291 2.94652C22.5829 2.94785 24.4564 3.72431 25.8383 5.10549C27.2202 6.48667 27.9977 8.35971 28.0001 10.3135H21.2391C20.2963 10.3108 19.3925 9.93639 18.7241 9.27152L17.6821 8.23052L16.6401 9.27252C15.9716 9.93739 15.0679 10.3118 14.1251 10.3145H13.2621C13.2642 8.36123 14.041 6.48853 15.4221 5.10725C16.8032 3.72597 18.6758 2.94891 20.6291 2.94652ZM13.2611 14.7345V13.2605H14.1241C15.3876 13.2643 16.6244 12.8972 17.6811 12.2045C18.7378 12.8972 19.9746 13.2643 21.2381 13.2605H28.0001V14.7335C28.0001 16.6875 27.2239 18.5615 25.8422 19.9431C24.4605 21.3248 22.5866 22.101 20.6326 22.101C18.6786 22.101 16.8046 21.3248 15.423 19.9431C14.0413 18.5615 13.2651 16.6875 13.2651 14.7335L13.2611 14.7345ZM20.6291 27.9995C20.0228 27.9476 19.438 27.7496 18.9248 27.4226C18.4116 27.0956 17.9853 26.6492 17.6821 26.1215V24.6215C19.6042 25.2 21.654 25.2 23.5761 24.6215V26.1215C23.2733 26.6495 22.847 27.0962 22.3337 27.4233C21.8205 27.7503 21.2355 27.9481 20.6291 27.9995ZM61.1291 53.8615C61.8747 55.7553 63.1616 57.3876 64.8291 58.5545V60.7925L55.3461 63.6375C55.0346 63.7328 54.7299 63.8491 54.4341 63.9855L53.0421 63.6645V60.7645C54.6305 59.488 55.8628 57.8234 56.6201 55.9315C58.319 55.7853 59.9141 55.052 61.1311 53.8575L61.1291 53.8615ZM45.6761 63.3615C47.1917 63.3611 48.6928 63.0663 50.0961 62.4935V64.0935L45.6761 67.4085L41.2571 64.0995V62.4995C42.6609 63.0692 44.162 63.3609 45.6771 63.3585L45.6761 63.3615ZM39.4461 66.4255L43.0381 69.1255L39.3381 71.3425L38.4031 66.6705L39.4461 66.4255ZM44.0461 78.0965H47.3021L48.4481 88.4105H42.9001L44.0461 78.0965ZM47.5581 75.1495H43.7881L42.9421 72.6125L45.6741 70.9745L48.4041 72.6125L47.5581 75.1495ZM48.3111 69.1205L51.9031 66.4205L52.9411 66.6595L52.0061 71.3315L48.3111 69.1205ZM59.2631 51.5995C58.7529 52.1473 58.1118 52.5565 57.4001 52.7885C57.4418 52.3842 57.4628 51.978 57.4631 51.5715V44.5205C58.2432 44.7983 58.9304 45.2884 59.4471 45.9356C59.9639 46.5827 60.2898 47.3612 60.3881 48.1835C60.4517 48.8 60.3844 49.423 60.1905 50.0117C59.9967 50.6004 59.6806 51.1415 59.2631 51.5995ZM54.5181 51.5725C54.5181 53.9173 53.5866 56.166 51.9286 57.8241C50.2706 59.4821 48.0219 60.4135 45.6771 60.4135C43.3323 60.4135 41.0836 59.4821 39.4255 57.8241C37.7675 56.166 36.8361 53.9173 36.8361 51.5725V44.1995H41.8361C45.027 44.2028 48.167 43.4003 50.9651 41.8665L52.1341 44.1995H54.5181V51.5725ZM33.9531 52.7885C33.0827 52.5066 32.3233 51.9577 31.7824 51.2199C31.2415 50.482 30.9466 49.5926 30.9397 48.6777C30.9327 47.7629 31.214 46.8691 31.7435 46.1231C32.2731 45.377 33.0241 44.8167 33.8901 44.5215V51.5705C33.8903 51.9773 33.9113 52.3839 33.9531 52.7885ZM34.7321 55.9255C35.4883 57.8179 36.7208 59.4828 38.3101 60.7585V63.6585L36.9181 63.9795C36.6222 63.8442 36.3179 63.7279 36.0071 63.6315L26.5221 60.7865V58.5505C28.1892 57.3831 29.4759 55.751 30.2221 53.8575C31.4397 55.0496 33.0342 55.7807 34.7321 55.9255ZM20.6291 38.3095C22.5829 38.3108 24.4564 39.0873 25.8383 40.4685C27.2202 41.8497 27.9977 43.7227 28.0001 45.6765H27.1371C26.1943 45.6738 25.2905 45.2994 24.6221 44.6345L23.5801 43.5925L22.5381 44.6345C21.8696 45.2994 20.9659 45.6738 20.0231 45.6765H13.2611C13.2635 43.7232 14.0405 41.8506 15.4218 40.4695C16.8031 39.0885 18.6758 38.3116 20.6291 38.3095ZM13.2611 50.0995V48.6235H20.0181C21.2815 48.6273 22.5183 48.2601 23.5751 47.5675C24.6318 48.2602 25.8686 48.6273 27.1321 48.6235H28.0001V50.0995C28.0001 52.0535 27.2239 53.9275 25.8422 55.3091C24.4605 56.6908 22.5866 57.467 20.6326 57.467C18.6786 57.467 16.8046 56.6908 15.423 55.3091C14.0413 53.9275 13.2651 52.0535 13.2651 50.0995H13.2611ZM20.6281 60.4135C21.6263 60.4131 22.6191 60.2668 23.5751 59.9795V61.4795C23.2725 62.0079 22.8463 62.4549 22.3331 62.7824C21.8198 63.1098 21.2347 63.3079 20.6281 63.3595C20.0218 63.3076 19.437 63.1096 18.9238 62.7826C18.4106 62.4556 17.9843 62.0092 17.6811 61.4815V59.9815C18.6377 60.267 19.6308 60.4118 20.6291 60.4115L20.6281 60.4135ZM17.6821 81.0405H11.7881V70.7255H8.84107V81.0405H2.94707V70.6905C2.94271 69.7385 3.24787 68.8109 3.81656 68.0474C4.38526 67.2839 5.18668 66.7259 6.10007 66.4575L15.5881 63.6105C16.1621 64.4204 16.9164 65.0859 17.7916 65.5545C18.6667 66.023 19.6388 66.2818 20.6311 66.3105C21.6234 66.2818 22.5954 66.023 23.4706 65.5545C24.3457 65.0859 25.1001 64.4204 25.6741 63.6105L31.2611 65.2875L27.1511 66.2345C24.8745 66.7515 22.8421 68.0287 21.3887 69.8556C19.9354 71.6825 19.1479 73.9501 19.1561 76.2845V78.0925H22.1001V76.2855C22.0943 74.618 22.6569 72.9982 23.695 71.6933C24.7332 70.3883 26.1849 69.4759 27.8111 69.1065L35.5351 67.3235L37.2721 76.0115L40.3551 74.1625L41.2271 76.7795L39.9381 88.4075H32.4161V76.6195H29.4691V88.4075H22.1001V85.4605C22.0985 84.2891 21.6326 83.1661 20.8044 82.3376C19.9763 81.5091 18.8535 81.0426 17.6821 81.0405ZM85.2581 66.4575C86.1709 66.7265 86.9717 67.2847 87.5398 68.0481C88.1079 68.8116 88.4126 69.7389 88.4081 70.6905V81.0405H82.5141V70.7255H79.5671V81.0405H73.6731C72.5013 81.0421 71.378 81.5083 70.5494 82.3369C69.7208 83.1654 69.2547 84.2888 69.2531 85.4605V88.4075H61.8861V76.6195H58.9391V88.4075H51.4171L50.1251 76.7785L51.0001 74.1625L54.0831 76.0115L55.8201 67.3235L63.5461 69.1065C65.1722 69.4759 66.624 70.3883 67.6621 71.6933C68.7002 72.9982 69.2628 74.618 69.2571 76.2855V78.0935H72.2001V76.2855C72.2082 73.9511 71.4208 71.6835 69.9674 69.8566C68.5141 68.0297 66.4816 66.7525 64.2051 66.2355L60.0951 65.2885L65.6821 63.6115C66.2365 64.4407 66.9867 65.1204 67.8664 65.5904C68.7461 66.0604 69.7282 66.3064 70.7256 66.3064C71.723 66.3064 72.705 66.0604 73.5847 65.5904C74.4644 65.1204 75.2147 64.4407 75.7691 63.6115L85.2581 66.4575ZM73.6731 61.4805C73.4117 62.0417 72.9955 62.5166 72.4734 62.8494C71.9514 63.1821 71.3452 63.3589 70.7261 63.3589C70.107 63.3589 69.5008 63.1821 68.9787 62.8494C68.4567 62.5166 68.0405 62.0417 67.7791 61.4805V59.9805C69.701 60.5599 71.7511 60.5599 73.6731 59.9805V61.4805ZM70.7261 57.4655C68.7731 57.4631 66.9008 56.6864 65.5198 55.3055C64.1388 53.9247 63.3617 52.0525 63.3591 50.0995V48.6235H64.2221C65.4855 48.6273 66.7223 48.2601 67.7791 47.5675C68.8358 48.2602 70.0726 48.6273 71.3361 48.6235H78.0931V50.0995C78.0902 52.0523 77.313 53.9242 75.932 55.3049C74.551 56.6855 72.6788 57.4631 70.7261 57.4655ZM70.7261 38.3105C72.6792 38.3129 74.5516 39.0898 75.9327 40.4709C77.3138 41.852 78.0907 43.7244 78.0931 45.6775H71.3361C70.3933 45.6748 69.4895 45.3004 68.8211 44.6355L67.7801 43.5935L66.7381 44.6355C66.0696 45.3004 65.1659 45.6748 64.2231 45.6775H63.3601C63.3622 43.7244 64.1389 41.8519 65.5197 40.4706C66.9006 39.0894 68.773 38.3132 70.7261 38.3105ZM60.4121 42.8555C59.0707 41.8259 57.429 41.264 55.7381 41.2555H53.9561L52.1441 37.6305L50.7551 38.5555C48.1162 40.3189 45.0129 41.2587 41.8391 41.2555H35.6161C33.9251 41.264 32.2835 41.8259 30.9421 42.8555V40.6765C30.9419 37.8769 31.772 35.14 33.3273 32.8122C34.8826 30.4843 37.0933 28.6698 39.6798 27.5984C42.2663 26.5269 45.1124 26.2465 47.8583 26.7926C50.6041 27.3388 53.1264 28.6869 55.1061 30.6665L56.6701 32.2295L57.0001 32.3405C57.9941 32.6711 58.8587 33.3063 59.4711 34.1561C60.0836 35.0059 60.4128 36.027 60.4121 37.0745V42.8555ZM70.7261 2.94652C72.6792 2.94891 74.5516 3.72583 75.9327 5.1069C77.3138 6.48796 78.0907 8.3604 78.0931 10.3135H77.2301C76.2873 10.3108 75.3835 9.93639 74.7151 9.27152L73.6731 8.23052L72.6321 9.27252C71.9636 9.93739 71.0599 10.3118 70.1171 10.3145H63.3591C63.3612 8.36123 64.138 6.48853 65.5191 5.10725C66.9002 3.72597 68.7728 2.94891 70.7261 2.94652ZM63.3591 14.7345V13.2605H70.1161C71.3795 13.2643 72.6163 12.8971 73.6731 12.2045C74.7298 12.8972 75.9666 13.2643 77.2301 13.2605H78.0931V14.7335C78.0931 16.6875 77.3169 18.5615 75.9352 19.9431C74.5535 21.3248 72.6796 22.101 70.7256 22.101C68.7716 22.101 66.8976 21.3248 65.516 19.9431C64.1343 18.5615 63.3581 16.6875 63.3581 14.7335L63.3591 14.7345ZM70.7261 27.9995C70.1197 27.9477 69.5349 27.7499 69.0217 27.4228C68.5085 27.0958 68.0821 26.6493 67.7791 26.1215V24.6215C69.701 25.2009 71.7511 25.2009 73.6731 24.6215V26.1215C73.3703 26.6495 72.944 27.0962 72.4307 27.4233C71.9175 27.7503 71.3325 27.9481 70.7261 27.9995Z" fill="#F13C3C"/>
<path d="M33.8906 0H36.8376V2.947H33.8906V0Z" fill="black"/>
<path d="M33.8906 5.89355H36.8376V22.1016H33.8906V5.89355Z" fill="black"/>
<path d="M54.5176 0H57.4646V2.947H54.5176V0Z" fill="black"/>
<path d="M54.5176 5.89355H57.4646V22.1016H54.5176V5.89355Z" fill="black"/>
<path d="M39.7832 5.89355H42.7302V16.2076H39.7832V5.89355Z" fill="black"/>
<path d="M39.7832 19.1553H42.7302V22.1023H39.7832V19.1553Z" fill="black"/>
<path d="M48.623 5.89355H51.57V16.2076H48.623V5.89355Z" fill="black"/>
<path d="M48.623 19.1553H51.57V22.1023H48.623V19.1553Z" fill="black"/>
</g>
<defs>
<clipPath id="clip0_3181_243">
<rect width="91.355" height="91.355" fill="white"/>
</clipPath>
</defs>
</svg>
