<svg width="102" height="92" viewBox="0 0 102 92" fill="none" xmlns="http://www.w3.org/2000/svg">
<g clip-path="url(#clip0_3182_253)">
<path d="M41.8012 64.7832C41.4839 64.4662 41.0538 64.2881 40.6052 64.2881C40.1567 64.2881 39.7265 64.4662 39.4092 64.7832L30.9502 73.2422C30.6332 73.5595 30.4551 73.9897 30.4551 74.4382C30.4551 74.8868 30.6332 75.3169 30.9502 75.6342L39.4092 84.0932C39.7292 84.3966 40.155 84.5631 40.5959 84.5572C41.0368 84.5513 41.458 84.3736 41.7698 84.0618C42.0816 83.75 42.2593 83.3288 42.2652 82.8879C42.2711 82.447 42.1046 82.0212 41.8012 81.7012L34.5382 74.4382L41.8012 67.1752C42.1183 66.858 42.2964 66.4278 42.2964 65.9792C42.2964 65.5307 42.1183 65.1005 41.8012 64.7832Z" fill="black"/>
<path d="M62.1035 64.7835C61.7835 64.4801 61.3577 64.3136 60.9168 64.3195C60.4759 64.3254 60.0547 64.5031 59.7429 64.8149C59.4311 65.1267 59.2534 65.5479 59.2475 65.9888C59.2416 66.4297 59.4081 66.8555 59.7115 67.1755L66.9745 74.4385L59.7115 81.7015C59.5475 81.857 59.4163 82.0437 59.3257 82.2507C59.235 82.4577 59.1868 82.6808 59.1837 82.9068C59.1807 83.1328 59.223 83.357 59.3081 83.5664C59.3932 83.7758 59.5194 83.966 59.6792 84.1258C59.839 84.2856 60.0292 84.4117 60.2385 84.4968C60.4479 84.5819 60.6722 84.6242 60.8981 84.6212C61.1241 84.6182 61.3472 84.5699 61.5542 84.4793C61.7612 84.3887 61.948 84.2575 62.1035 84.0935L70.5625 75.6345C70.8795 75.3172 71.0576 74.887 71.0576 74.4385C71.0576 73.9899 70.8795 73.5597 70.5625 73.2425L62.1035 64.7835Z" fill="black"/>
<path d="M54.767 64.4072C54.5606 64.3246 54.3399 64.2835 54.1176 64.2863C53.8953 64.289 53.6757 64.3356 53.4714 64.4232C53.2671 64.5109 53.082 64.638 52.9269 64.7972C52.7717 64.9564 52.6494 65.1447 52.567 65.3512L45.801 82.2682C45.7183 82.4746 45.6771 82.6953 45.6798 82.9176C45.6825 83.14 45.729 83.3596 45.8167 83.564C45.9044 83.7683 46.0315 83.9534 46.1908 84.1085C46.3501 84.2637 46.5384 84.3859 46.745 84.4682C46.9447 84.5483 47.1579 84.589 47.373 84.5882C47.7114 84.5883 48.0421 84.487 48.3223 84.2974C48.6025 84.1077 48.8194 83.8384 48.945 83.5242L55.712 66.6072C55.7946 66.4007 55.8357 66.1801 55.8329 65.9577C55.8302 65.7354 55.7836 65.5158 55.696 65.3115C55.6083 65.1072 55.4812 64.9222 55.322 64.767C55.1628 64.6118 54.9745 64.4896 54.768 64.4072H54.767Z" fill="black"/>
<path d="M86.062 35.556C88.1322 33.1861 89.3745 30.2066 89.601 27.068H90.509C92.0795 27.068 93.5856 26.4441 94.6961 25.3336C95.8066 24.2231 96.4305 22.717 96.4305 21.1465C96.4305 19.576 95.8066 18.0699 94.6961 16.9594C93.5856 15.8489 92.0795 15.225 90.509 15.225H89.663V14.633C89.658 10.7541 88.1151 7.03556 85.3726 4.29252C82.6301 1.54947 78.9118 0.00582085 75.033 0H73.849C69.9693 0.00476332 66.2498 1.54808 63.5064 4.29146C60.7631 7.03484 59.2197 10.7543 59.215 14.634V15.226H58.369C56.7985 15.226 55.2923 15.8499 54.1818 16.9604C53.0713 18.0709 52.4475 19.577 52.4475 21.1475C52.4475 22.718 53.0713 24.2241 54.1818 25.3346C55.2923 26.4451 56.7985 27.069 58.369 27.069H59.277C59.5047 30.2077 60.7484 33.1869 62.82 35.556C60.6427 35.5868 58.4945 36.0597 56.5056 36.946C54.5167 37.8323 52.7286 39.1136 51.25 40.712C51.072 40.906 50.912 41.112 50.742 41.321C50.573 41.121 50.432 40.906 50.26 40.721C48.7814 39.1214 46.993 37.839 45.0036 36.9518C43.0141 36.0646 40.8651 35.5911 38.687 35.56C40.7604 33.1913 42.0059 30.2117 42.235 27.072H43.143C44.7133 27.072 46.2194 26.4482 47.3298 25.3378C48.4402 24.2274 49.064 22.7213 49.064 21.151C49.064 19.5807 48.4402 18.0746 47.3298 16.9642C46.2194 15.8538 44.7133 15.23 43.143 15.23H42.301V14.638C42.2973 10.7571 40.754 7.03614 38.0099 4.29182C35.2657 1.54749 31.5449 0.00397134 27.664 0H26.48C22.6003 0.00502732 18.881 1.54843 16.1377 4.29175C13.3944 7.03507 11.851 10.7544 11.846 14.634V15.226H11.001C9.43063 15.226 7.9246 15.8498 6.8142 16.9602C5.70379 18.0706 5.07997 19.5767 5.07997 21.147C5.07997 22.7173 5.70379 24.2234 6.8142 25.3338C7.9246 26.4442 9.43063 27.068 11.001 27.068H11.909C12.1365 30.2071 13.3803 33.1867 15.452 35.556C13.2745 35.5868 11.126 36.0598 9.13691 36.9463C7.14782 37.8328 5.35965 39.1143 3.88097 40.713C1.30964 43.6372 -0.0744425 47.4178 0.000974351 51.311V55.828C0.00377751 56.5672 0.169171 57.2967 0.485428 57.9648C0.801684 58.6329 1.26106 59.2233 1.83097 59.694C0.659406 60.9372 0.00508752 62.5798 0.000974351 64.288V84.588C0.000974351 86.3827 0.713924 88.1039 1.98298 89.373C3.25204 90.6421 4.97325 91.355 6.76797 91.355H94.742C96.5367 91.355 98.2579 90.6421 99.527 89.373C100.796 88.1039 101.509 86.3827 101.509 84.588V64.288C101.505 62.5805 100.852 60.9384 99.682 59.695C100.251 59.224 100.71 58.6335 101.026 57.9654C101.342 57.2973 101.507 56.5679 101.509 55.829V51.311C101.586 47.4198 100.204 43.6407 97.635 40.717C96.1564 39.1173 94.3681 37.8349 92.3786 36.9477C90.3891 36.0605 88.2401 35.587 86.062 35.556ZM65.982 38.911H67.026C68.7992 39.85 70.7479 40.4111 72.749 40.559V43.13L68.799 43.939C68.4671 44.0083 68.1239 44.0017 67.7949 43.9198C67.4659 43.8379 67.1596 43.6828 66.899 43.466C66.6102 43.2303 66.3779 42.9329 66.2192 42.5956C66.0605 42.2583 65.9795 41.8897 65.982 41.517V38.911ZM76.133 40.558C78.1332 40.4106 80.081 39.8495 81.853 38.91H82.901V41.515C82.9036 41.8878 82.8225 42.2563 82.6638 42.5936C82.5051 42.9309 82.2728 43.2284 81.984 43.464C81.7227 43.6825 81.4151 43.8386 81.0845 43.9203C80.7539 44.0021 80.409 44.0075 80.076 43.936L76.134 43.129L76.133 40.558ZM90.513 18.609C91.1772 18.6222 91.8099 18.8953 92.275 19.3698C92.7401 19.8442 93.0006 20.4821 93.0006 21.1465C93.0006 21.8109 92.7401 22.4488 92.275 22.9232C91.8099 23.3977 91.1772 23.6708 90.513 23.684H89.667V18.61L90.513 18.609ZM73.849 3.388H75.033C78.0157 3.39118 80.8753 4.57746 82.9844 6.68656C85.0935 8.79565 86.2798 11.6553 86.283 14.638V17.101C84.7626 16.7253 83.3705 15.9498 82.2508 14.8549C81.1311 13.76 80.3246 12.3855 79.915 10.874C79.8129 10.4757 79.5693 10.1283 79.2297 9.89649C78.8902 9.66473 78.4778 9.56454 78.0697 9.61464C77.6617 9.66475 77.2858 9.86172 77.0124 10.1688C76.7389 10.4758 76.5867 10.8719 76.584 11.283C76.5926 11.6692 76.5139 12.0523 76.3537 12.4038C76.1936 12.7553 75.9561 13.0661 75.659 13.313C73.069 15.632 66.285 15.713 62.599 15.473V14.637C62.6024 11.6545 63.7888 8.79508 65.8979 6.6862C68.007 4.57732 70.8664 3.39118 73.849 3.388ZM55.832 21.147C55.832 20.4739 56.0994 19.8283 56.5753 19.3524C57.0513 18.8764 57.6969 18.609 58.37 18.609H59.216V23.688H58.37C58.0364 23.688 57.7061 23.6223 57.398 23.4945C57.0899 23.3668 56.81 23.1796 56.5743 22.9436C56.3386 22.7076 56.1517 22.4274 56.0243 22.1192C55.8969 21.8109 55.8316 21.4805 55.832 21.147ZM62.601 25.377V18.857C66.235 19.084 74.201 19.157 77.916 15.829C78.063 15.697 78.204 15.562 78.334 15.421C79.2061 16.8014 80.3698 17.9743 81.7433 18.8572C83.1169 19.7401 84.667 20.3118 86.285 20.532V25.969C86.2836 28.9523 85.098 31.813 82.9885 33.9225C80.879 36.032 78.0183 37.2177 75.035 37.219H73.849C70.866 37.2174 68.0056 36.0316 65.8965 33.9221C63.7874 31.8126 62.602 28.952 62.601 25.969V25.377ZM62.601 38.95V41.516C62.5975 42.3912 62.79 43.256 63.1643 44.0471C63.5386 44.8383 64.0852 45.5356 64.764 46.088C65.7721 46.9153 67.0348 47.3695 68.339 47.374C68.7237 47.3741 69.1074 47.3346 69.484 47.256L72.749 46.579V57.52H60.907V50.753C60.9125 50.5274 60.8728 50.303 60.7902 50.093C60.7077 49.883 60.584 49.6916 60.4264 49.5301C60.2687 49.3686 60.0804 49.2402 59.8725 49.1526C59.6645 49.065 59.4411 49.0199 59.2155 49.0199C58.9898 49.0199 58.7664 49.065 58.5585 49.1526C58.3505 49.2402 58.1622 49.3686 58.0046 49.5301C57.847 49.6916 57.7233 49.883 57.6407 50.093C57.5582 50.303 57.5185 50.5274 57.524 50.753V57.52H50.757V51.311C50.6837 48.2605 51.7537 45.2928 53.757 42.991C54.893 41.769 56.2589 40.783 57.7765 40.0896C59.2941 39.3962 60.9335 39.0089 62.601 38.95ZM48.828 44.421C47.8558 46.5872 47.3596 48.9367 47.373 51.311V57.52H43.989V50.753C43.9945 50.5274 43.9548 50.303 43.8722 50.093C43.7897 49.883 43.666 49.6916 43.5084 49.5301C43.3507 49.3686 43.1624 49.2402 42.9545 49.1526C42.7465 49.065 42.5231 49.0199 42.2975 49.0199C42.0718 49.0199 41.8484 49.065 41.6405 49.1526C41.4325 49.2402 41.2442 49.3686 41.0866 49.5301C40.929 49.6916 40.8053 49.883 40.7227 50.093C40.6402 50.303 40.6005 50.5274 40.606 50.753V57.52H28.764V46.583L32.021 47.25C32.8458 47.4223 33.6988 47.4074 34.517 47.2063C35.3353 47.0052 36.098 46.623 36.749 46.088C37.4285 45.5355 37.9757 44.8377 38.3504 44.0461C38.725 43.2544 38.9176 42.3888 38.914 41.513V38.95C40.5824 39.009 42.2228 39.3966 43.7411 40.0908C45.2594 40.7849 46.6258 41.7718 47.762 42.995C48.1578 43.4386 48.5145 43.9158 48.828 44.421ZM18.613 38.911H19.657C21.4302 39.85 23.3789 40.4111 25.38 40.559V43.13L21.43 43.939C21.098 44.008 20.7548 44.0012 20.4258 43.9191C20.0968 43.837 19.7906 43.6818 19.53 43.465C19.2412 43.2293 19.0089 42.9319 18.8502 42.5946C18.6915 42.2573 18.6105 41.8887 18.613 41.516V38.911ZM34.484 38.911H35.531V41.516C35.5336 41.8888 35.4525 42.2573 35.2938 42.5946C35.1351 42.9319 34.9028 43.2294 34.614 43.465C34.3527 43.6835 34.0451 43.8396 33.7145 43.9213C33.3839 44.0031 33.039 44.0085 32.706 43.937L28.764 43.13V40.558C30.7641 40.411 32.7119 39.8501 34.484 38.911ZM43.144 18.611C43.8082 18.6242 44.4408 18.8973 44.906 19.3718C45.3711 19.8462 45.6316 20.4841 45.6316 21.1485C45.6316 21.8129 45.3711 22.4508 44.906 22.9252C44.4408 23.3997 43.8082 23.6728 43.144 23.686H42.301V18.61L43.144 18.611ZM26.48 3.388H27.664C30.6467 3.39118 33.5063 4.57746 35.6154 6.68656C37.7245 8.79565 38.9108 11.6553 38.914 14.638V17.101C37.3936 16.7253 36.0015 15.9498 34.8818 14.8549C33.7621 13.76 32.9556 12.3855 32.546 10.874C32.4439 10.4757 32.2003 10.1283 31.8607 9.89649C31.5212 9.66473 31.1088 9.56454 30.7007 9.61464C30.2927 9.66475 29.9168 9.86172 29.6434 10.1688C29.3699 10.4758 29.2177 10.8719 29.215 11.283C29.2236 11.6692 29.1449 12.0523 28.9847 12.4038C28.8245 12.7553 28.5871 13.0661 28.29 13.313C25.7 15.632 18.916 15.713 15.23 15.473V14.637C15.2334 11.6545 16.4198 8.79508 18.5289 6.6862C20.638 4.57732 23.4974 3.39118 26.48 3.388ZM8.46297 21.147C8.46324 20.4741 8.73075 19.8288 9.20669 19.353C9.68263 18.8773 10.328 18.61 11.001 18.61H11.847V23.688H11.001C10.6674 23.688 10.3372 23.6223 10.029 23.4945C9.72091 23.3668 9.44099 23.1796 9.20528 22.9436C8.96956 22.7076 8.78268 22.4274 8.65531 22.1192C8.52794 21.8109 8.46258 21.4805 8.46297 21.147ZM15.23 25.376V18.856C18.864 19.083 26.83 19.156 30.546 15.828C30.693 15.696 30.834 15.561 30.964 15.42C31.8361 16.8004 32.9998 17.9733 34.3733 18.8562C35.7469 19.7391 37.297 20.3108 38.915 20.531V25.968C38.9136 28.9513 37.728 31.812 35.6185 33.9215C33.509 36.031 30.6483 37.2167 27.665 37.218H26.48C23.4966 37.2169 20.6357 36.0313 18.5262 33.9218C16.4166 31.8122 15.231 28.9514 15.23 25.968V25.376ZM3.38797 51.311C3.31467 48.2605 4.38474 45.2928 6.38797 42.991C7.52417 41.7686 8.89037 40.7824 10.4083 40.0888C11.9263 39.3952 13.5661 39.0079 15.234 38.949V41.515C15.2302 42.3902 15.4223 43.2551 15.7962 44.0464C16.1701 44.8377 16.7164 45.5353 17.395 46.088C18.4032 46.9153 19.6658 47.3695 20.97 47.374C21.3547 47.3742 21.7384 47.3347 22.115 47.256L25.38 46.579V57.52H13.538V50.753C13.5435 50.5274 13.5038 50.303 13.4212 50.093C13.3387 49.883 13.215 49.6916 13.0574 49.5301C12.8997 49.3686 12.7114 49.2402 12.5035 49.1526C12.2955 49.065 12.0721 49.0199 11.8465 49.0199C11.6208 49.0199 11.3974 49.065 11.1895 49.1526C10.9815 49.2402 10.7932 49.3686 10.6356 49.5301C10.478 49.6916 10.3543 49.883 10.2717 50.093C10.1892 50.303 10.1495 50.5274 10.155 50.753V57.52H5.07897C4.6304 57.5197 4.20029 57.3414 3.8832 57.0241C3.5661 56.7068 3.38797 56.2766 3.38797 55.828V51.311ZM98.126 84.588C98.126 85.4855 97.7694 86.3462 97.1348 86.9809C96.5002 87.6155 95.6395 87.972 94.742 87.972H6.77097C5.87348 87.972 5.01275 87.6155 4.37812 86.9809C3.7435 86.3462 3.38697 85.4855 3.38697 84.588V64.288C3.38697 63.3905 3.7435 62.5298 4.37812 61.8951C5.01275 61.2605 5.87348 60.904 6.77097 60.904H94.742C95.6395 60.904 96.5002 61.2605 97.1348 61.8951C97.7694 62.5298 98.126 63.3905 98.126 64.288V84.588ZM98.126 55.828C98.126 56.2767 97.9477 56.7071 97.6304 57.0244C97.3131 57.3417 96.8827 57.52 96.434 57.52H91.359V50.753C91.3645 50.5274 91.3248 50.303 91.2422 50.093C91.1597 49.883 91.036 49.6916 90.8784 49.5301C90.7207 49.3686 90.5324 49.2402 90.3245 49.1526C90.1165 49.065 89.8931 49.0199 89.6675 49.0199C89.4418 49.0199 89.2184 49.065 89.0105 49.1526C88.8025 49.2402 88.6142 49.3686 88.4566 49.5301C88.299 49.6916 88.1753 49.883 88.0927 50.093C88.0102 50.303 87.9705 50.5274 87.976 50.753V57.52H76.133V46.583L79.39 47.25C80.2162 47.4239 81.0709 47.4097 81.8908 47.2086C82.7108 47.0075 83.4751 46.6245 84.127 46.088C84.805 45.5346 85.3507 44.8366 85.7239 44.0449C86.0971 43.2533 86.2885 42.3882 86.284 41.513V38.95C87.9529 39.009 89.5937 39.3968 91.1124 40.0913C92.6311 40.7858 93.9977 41.7732 95.134 42.997C97.1341 45.2982 98.2016 48.264 98.127 51.312L98.126 55.828Z" fill="#F13C3C"/>
</g>
<defs>
<clipPath id="clip0_3182_253">
<rect width="101.511" height="91.355" fill="white"/>
</clipPath>
</defs>
</svg>
