<svg width="40" height="40" viewBox="0 0 40 40" fill="none" xmlns="http://www.w3.org/2000/svg">
<path d="M35.4173 9.16731C35.0858 9.16731 34.7679 9.03562 34.5334 8.80119C34.299 8.56677 34.1673 8.24883 34.1673 7.91731C34.1673 7.58579 34.299 7.26785 34.5334 7.03343C34.7679 6.79901 35.0858 6.66731 35.4173 6.66731C35.7488 6.66731 36.0668 6.79901 36.3012 7.03343C36.5356 7.26785 36.6673 7.58579 36.6673 7.91731C36.6673 8.24883 36.5356 8.56677 36.3012 8.80119C36.0668 9.03562 35.7488 9.16731 35.4173 9.16731ZM35.4173 9.16731V15.4173C35.4173 16.5807 35.4173 17.1623 35.274 17.634C35.1151 18.1587 34.8292 18.6361 34.4417 19.024C34.0541 19.4118 33.5769 19.698 33.0523 19.8573C32.579 20.0007 31.9973 20.0007 30.834 20.0007M4.58398 30.834C4.9155 30.834 5.23344 30.9657 5.46786 31.2001C5.70228 31.4345 5.83398 31.7525 5.83398 32.084C5.83398 32.4155 5.70228 32.7335 5.46786 32.9679C5.23344 33.2023 4.9155 33.334 4.58398 33.334C4.25246 33.334 3.93451 33.2023 3.70009 32.9679C3.46567 32.7335 3.33398 32.4155 3.33398 32.084C3.33398 31.7525 3.46567 31.4345 3.70009 31.2001C3.93451 30.9657 4.25246 30.834 4.58398 30.834ZM4.58398 30.834V24.584C4.58398 23.4207 4.58398 22.839 4.72731 22.3673C4.88622 21.8426 5.17211 21.3652 5.55964 20.9774C5.94717 20.5896 6.42438 20.3033 6.94898 20.144C7.42231 20.0007 8.00398 20.0007 9.16731 20.0007M9.16731 4.58398C9.16731 4.9155 9.03561 5.23344 8.80119 5.46786C8.56677 5.70228 8.24883 5.83398 7.91731 5.83398C7.58579 5.83398 7.26785 5.70228 7.03343 5.46786C6.79901 5.23344 6.66731 4.9155 6.66731 4.58398C6.66731 4.25246 6.79901 3.93451 7.03343 3.70009C7.26785 3.46567 7.58579 3.33398 7.91731 3.33398C8.24883 3.33398 8.56677 3.46567 8.80119 3.70009C9.03561 3.93451 9.16731 4.25246 9.16731 4.58398ZM9.16731 4.58398H15.4173C16.5807 4.58398 17.1623 4.58398 17.634 4.72731C18.1587 4.88622 18.6361 5.17211 19.024 5.55964C19.4118 5.94717 19.698 6.42438 19.8573 6.94898C20.0007 7.42231 20.0007 8.00398 20.0007 9.16731M30.834 35.4173C30.834 35.0858 30.9657 34.7679 31.2001 34.5335C31.4345 34.299 31.7525 34.1673 32.084 34.1673C32.4155 34.1673 32.7335 34.299 32.9679 34.5335C33.2023 34.7679 33.334 35.0858 33.334 35.4173C33.334 35.7489 33.2023 36.0668 32.9679 36.3012C32.7335 36.5356 32.4155 36.6673 32.084 36.6673C31.7525 36.6673 31.4345 36.5356 31.2001 36.3012C30.9657 36.0668 30.834 35.7489 30.834 35.4173ZM30.834 35.4173H24.584C23.4207 35.4173 22.839 35.4173 22.3673 35.274C21.8426 35.1151 21.3652 34.8292 20.9774 34.4417C20.5895 34.0541 20.3033 33.5769 20.144 33.0523C20.0007 32.579 20.0007 31.9973 20.0007 30.834" stroke="black" stroke-width="1.5" stroke-linecap="round" stroke-linejoin="round"/>
<path d="M9.24805 19.9173C9.24805 14.8106 9.24805 12.2573 10.8347 10.6706C12.4214 9.08398 14.9747 9.08398 20.0814 9.08398C25.188 9.08398 27.7414 9.08398 29.328 10.6706C30.9147 12.2573 30.9147 14.8106 30.9147 19.9173C30.9147 25.024 30.9147 27.5773 29.328 29.164C27.7414 30.7506 25.188 30.7506 20.0814 30.7506C14.9747 30.7506 12.4214 30.7506 10.8347 29.164C9.24805 27.5773 9.24805 25.024 9.24805 19.9173Z" stroke="black" stroke-width="1.5" stroke-linecap="round" stroke-linejoin="round"/>
<path d="M22.1783 23.3336L19.745 15.7986C19.6606 15.5608 19.5034 15.3557 19.2958 15.2124C19.0881 15.0691 18.8406 14.9949 18.5883 15.0003C18.3364 14.9952 18.0892 15.0696 17.8819 15.2129C17.6746 15.3562 17.5176 15.5611 17.4333 15.7986L15 23.3336M26.345 15.0003V23.3336M15.895 20.8336H21.2817" stroke="#F13C3C" stroke-linecap="round" stroke-linejoin="round"/>
</svg>
