<svg width="80" height="81" viewBox="0 0 80 81" fill="none" xmlns="http://www.w3.org/2000/svg">
<rect y="80.5" width="80" height="80" rx="40" transform="rotate(-90 0 80.5)" fill="#4CAF50" fill-opacity="0.2"/>
<g clip-path="url(#clip0_369_67)">
<path d="M26.6665 42.1667C29.6383 42.5198 32.4049 43.8626 34.5211 45.9787C36.6373 48.0949 37.98 50.8615 38.3332 53.8333C39.8064 52.984 41.0387 51.773 41.9135 50.3149C42.7884 48.8567 43.277 47.1996 43.3332 45.5C46.1317 44.5155 48.5754 42.7233 50.3554 40.35C52.1354 37.9767 53.1717 35.1289 53.3332 32.1667C53.3332 30.8406 52.8064 29.5688 51.8687 28.6311C50.931 27.6935 49.6593 27.1667 48.3332 27.1667C45.3709 27.3282 42.5231 28.3644 40.1498 30.1444C37.7765 31.9244 35.9843 34.3681 34.9998 37.1667C33.3003 37.2228 31.6431 37.7114 30.1849 38.5863C28.7268 39.4612 27.5158 40.6935 26.6665 42.1667Z" stroke="#00B307" stroke-width="2" stroke-linecap="round" stroke-linejoin="round"/>
<path d="M31.6668 43.8333C29.9322 44.8126 28.5296 46.2876 27.6387 48.0693C26.7479 49.851 26.4095 51.8581 26.6668 53.8333C28.6421 54.0907 30.6492 53.7522 32.4309 52.8614C34.2125 51.9706 35.6875 50.5679 36.6668 48.8333" stroke="#00B307" stroke-width="2" stroke-linecap="round" stroke-linejoin="round"/>
<path d="M43.3335 35.5C43.3335 35.942 43.5091 36.3659 43.8217 36.6785C44.1342 36.9911 44.5581 37.1667 45.0002 37.1667C45.4422 37.1667 45.8661 36.9911 46.1787 36.6785C46.4912 36.3659 46.6668 35.942 46.6668 35.5C46.6668 35.058 46.4912 34.634 46.1787 34.3215C45.8661 34.0089 45.4422 33.8333 45.0002 33.8333C44.5581 33.8333 44.1342 34.0089 43.8217 34.3215C43.5091 34.634 43.3335 35.058 43.3335 35.5Z" stroke="#00B307" stroke-width="2" stroke-linecap="round" stroke-linejoin="round"/>
</g>
<defs>
<clipPath id="clip0_369_67">
<rect width="40" height="40" fill="white" transform="translate(20 20.5)"/>
</clipPath>
</defs>
</svg>
