<svg width="75" height="75" viewBox="0 0 75 75" fill="none" xmlns="http://www.w3.org/2000/svg">
<path d="M45.5 28.8301C45.2348 28.8301 44.9804 28.7247 44.7929 28.5372C44.6054 28.3496 44.5 28.0953 44.5 27.8301V24.8301C44.3 24.0401 40.72 21.8301 37.5 21.8301C34.28 21.8301 30.7 24.0401 30.5 24.8301V27.8301C30.5 28.0953 30.3946 28.3496 30.2071 28.5372C30.0196 28.7247 29.7652 28.8301 29.5 28.8301C29.2348 28.8301 28.9804 28.7247 28.7929 28.5372C28.6054 28.3496 28.5 28.0953 28.5 27.8301V24.8301C28.5 22.4201 33.77 19.8301 37.5 19.8301C41.22 19.8301 46.5 22.4101 46.5 24.8301V27.8301C46.5 28.0953 46.3946 28.3496 46.2071 28.5372C46.0196 28.7247 45.7652 28.8301 45.5 28.8301Z" fill="#F13C3C"/>
<path d="M37.5 21.8301C34.08 21.8301 31.5 19.0001 31.5 15.2601V13.4001C31.5 9.65008 34.08 6.83008 37.5 6.83008C40.92 6.83008 43.5 9.65008 43.5 13.4001V15.2601C43.5 19.0001 40.92 21.8301 37.5 21.8301ZM37.5 8.83008C35.18 8.83008 33.5 10.7501 33.5 13.4001V15.2601C33.5 17.9101 35.18 19.8301 37.5 19.8301C39.82 19.8301 41.5 17.9101 41.5 15.2601V13.4001C41.5 10.7501 39.81 8.83008 37.5 8.83008Z" fill="#F13C3C"/>
<path d="M37.5 59.8301C34.08 59.8301 31.5 57.0001 31.5 53.2601V51.4001C31.5 47.6501 34.08 44.8301 37.5 44.8301C40.92 44.8301 43.5 47.6501 43.5 51.4001V53.2601C43.5 57.0001 40.92 59.8301 37.5 59.8301ZM37.5 46.8301C35.18 46.8301 33.5 48.7501 33.5 51.4001V53.2601C33.5 55.9101 35.18 57.8301 37.5 57.8301C39.82 57.8301 41.5 55.9101 41.5 53.2601V51.4001C41.5 48.7501 39.81 46.8301 37.5 46.8301Z" fill="#F13C3C"/>
<path d="M57.5 59.8301C54.08 59.8301 51.5 57.0001 51.5 53.2601V51.4001C51.5 47.6501 54.08 44.8301 57.5 44.8301C60.92 44.8301 63.5 47.6501 63.5 51.4001V53.2601C63.5 57.0001 60.92 59.8301 57.5 59.8301ZM57.5 46.8301C55.18 46.8301 53.5 48.7501 53.5 51.4001V53.2601C53.5 55.9101 55.18 57.8301 57.5 57.8301C59.82 57.8301 61.5 55.9101 61.5 53.2601V51.4001C61.5 48.7501 59.81 46.8301 57.5 46.8301Z" fill="#F13C3C"/>
<path d="M17.5 59.8301C14.08 59.8301 11.5 57.0001 11.5 53.2601V51.4001C11.5 47.6501 14.08 44.8301 17.5 44.8301C20.92 44.8301 23.5 47.6501 23.5 51.4001V53.2601C23.5 57.0001 20.92 59.8301 17.5 59.8301ZM17.5 46.8301C15.18 46.8301 13.5 48.7501 13.5 51.4001V53.2601C13.5 55.9101 15.18 57.8301 17.5 57.8301C19.82 57.8301 21.5 55.9101 21.5 53.2601V51.4001C21.5 48.7501 19.81 46.8301 17.5 46.8301Z" fill="#F13C3C"/>
<path d="M37.5 42.8301C37.2348 42.8301 36.9804 42.7247 36.7929 42.5372C36.6054 42.3496 36.5 42.0953 36.5 41.8301V33.8301C36.5 33.5649 36.6054 33.3105 36.7929 33.123C36.9804 32.9354 37.2348 32.8301 37.5 32.8301C37.7652 32.8301 38.0196 32.9354 38.2071 33.123C38.3946 33.3105 38.5 33.5649 38.5 33.8301V41.8301C38.5 42.0953 38.3946 42.3496 38.2071 42.5372C38.0196 42.7247 37.7652 42.8301 37.5 42.8301Z" fill="black"/>
<path d="M57.5 42.8301C57.2348 42.8301 56.9804 42.7247 56.7929 42.5372C56.6054 42.3496 56.5 42.0953 56.5 41.8301V39.8301C56.5 39.5649 56.3946 39.3105 56.2071 39.123C56.0196 38.9354 55.7652 38.8301 55.5 38.8301H19.5C19.2348 38.8301 18.9804 38.9354 18.7929 39.123C18.6054 39.3105 18.5 39.5649 18.5 39.8301V41.8301C18.5 42.0953 18.3946 42.3496 18.2071 42.5372C18.0196 42.7247 17.7652 42.8301 17.5 42.8301C17.2348 42.8301 16.9804 42.7247 16.7929 42.5372C16.6054 42.3496 16.5 42.0953 16.5 41.8301V39.8301C16.5 39.0344 16.8161 38.2714 17.3787 37.7088C17.9413 37.1461 18.7044 36.8301 19.5 36.8301H55.5C56.2956 36.8301 57.0587 37.1461 57.6213 37.7088C58.1839 38.2714 58.5 39.0344 58.5 39.8301V41.8301C58.5 42.0953 58.3946 42.3496 58.2071 42.5372C58.0196 42.7247 57.7652 42.8301 57.5 42.8301Z" fill="black"/>
<path d="M25.5 66.8301C25.2348 66.8301 24.9804 66.7247 24.7929 66.5372C24.6054 66.3496 24.5 66.0953 24.5 65.8301V62.8301C24.3 62.0401 20.72 59.8301 17.5 59.8301C14.28 59.8301 10.7 62.0401 10.5 62.8301V65.8301C10.5 66.0953 10.3946 66.3496 10.2071 66.5372C10.0196 66.7247 9.76522 66.8301 9.5 66.8301C9.23478 66.8301 8.98043 66.7247 8.79289 66.5372C8.60536 66.3496 8.5 66.0953 8.5 65.8301V62.8301C8.5 60.4201 13.77 57.8301 17.5 57.8301C21.22 57.8301 26.5 60.4101 26.5 62.8301V65.8301C26.5 66.0953 26.3946 66.3496 26.2071 66.5372C26.0196 66.7247 25.7652 66.8301 25.5 66.8301Z" fill="#F13C3C"/>
<path d="M45.5 66.8301C45.2348 66.8301 44.9804 66.7247 44.7929 66.5372C44.6054 66.3496 44.5 66.0953 44.5 65.8301V62.8301C44.3 62.0401 40.72 59.8301 37.5 59.8301C34.28 59.8301 30.7 62.0401 30.5 62.8301V65.8301C30.5 66.0953 30.3946 66.3496 30.2071 66.5372C30.0196 66.7247 29.7652 66.8301 29.5 66.8301C29.2348 66.8301 28.9804 66.7247 28.7929 66.5372C28.6054 66.3496 28.5 66.0953 28.5 65.8301V62.8301C28.5 60.4201 33.77 57.8301 37.5 57.8301C41.22 57.8301 46.5 60.4101 46.5 62.8301V65.8301C46.5 66.0953 46.3946 66.3496 46.2071 66.5372C46.0196 66.7247 45.7652 66.8301 45.5 66.8301Z" fill="#F13C3C"/>
<path d="M65.5 66.8301C65.2348 66.8301 64.9804 66.7247 64.7929 66.5372C64.6054 66.3496 64.5 66.0953 64.5 65.8301V62.8301C64.3 62.0401 60.72 59.8301 57.5 59.8301C54.28 59.8301 50.7 62.0401 50.5 62.8301V65.8301C50.5 66.0953 50.3946 66.3496 50.2071 66.5372C50.0196 66.7247 49.7652 66.8301 49.5 66.8301C49.2348 66.8301 48.9804 66.7247 48.7929 66.5372C48.6054 66.3496 48.5 66.0953 48.5 65.8301V62.8301C48.5 60.4201 53.77 57.8301 57.5 57.8301C61.22 57.8301 66.5 60.4101 66.5 62.8301V65.8301C66.5 66.0953 66.3946 66.3496 66.2071 66.5372C66.0196 66.7247 65.7652 66.8301 65.5 66.8301Z" fill="#F13C3C"/>
</svg>
