<svg width="75" height="75" viewBox="0 0 75 75" fill="none" xmlns="http://www.w3.org/2000/svg">
<path d="M39.6992 32.3896H37.6992V40.3896H39.6992V32.3896Z" fill="#F13C3C"/>
<path d="M45.6992 57.3896H43.6992V42.8297L51.6992 37.9496V32.3896H53.6992V39.0797L45.6992 43.9496V57.3896Z" fill="#F13C3C"/>
<path d="M52.529 33.3403C51.787 33.3418 51.0644 33.1033 50.469 32.6603C49.8004 32.1678 49.3293 31.4531 49.1404 30.6444C48.9514 29.8358 49.057 28.9863 49.4382 28.2485C49.8193 27.5107 50.451 26.933 51.2199 26.6192C51.9887 26.3053 52.8442 26.2759 53.6328 26.5362C54.4214 26.7965 55.0913 27.3295 55.5222 28.0394C55.9531 28.7492 56.1168 29.5895 55.9838 30.4092C55.8508 31.2289 55.4299 31.9743 54.7967 32.5116C54.1635 33.0488 53.3594 33.3427 52.529 33.3403ZM51.649 31.0503C51.8844 31.2266 52.1669 31.3288 52.4605 31.3439C52.7542 31.3589 53.0456 31.2862 53.2978 31.1349C53.5499 30.9836 53.7512 30.7607 53.8761 30.4945C54.001 30.2283 54.0438 29.9309 53.999 29.6403C53.9743 29.4422 53.9092 29.2512 53.8077 29.0792C53.7062 28.9072 53.5705 28.7578 53.409 28.6403C53.2542 28.5216 53.0769 28.4355 52.8878 28.3874C52.6987 28.3393 52.5018 28.33 52.309 28.3603C52.1165 28.3896 51.9317 28.4566 51.7651 28.5574C51.5985 28.6583 51.4535 28.791 51.3383 28.948C51.2231 29.105 51.14 29.2832 51.0938 29.4723C51.0476 29.6615 51.0392 29.8579 51.069 30.0503C51.1231 30.447 51.3315 30.8064 51.649 31.0503Z" fill="black"/>
<path d="M45.3094 39.2295C44.5684 39.2247 43.8477 38.9868 43.2494 38.5495C42.5834 38.058 42.1144 37.3451 41.9267 36.539C41.7389 35.7328 41.8446 34.8861 42.2249 34.1508C42.6052 33.4156 43.2351 32.84 44.0015 32.5273C44.768 32.2147 45.6207 32.1854 46.4068 32.4449C47.1928 32.7044 47.8606 33.2355 48.2903 33.943C48.72 34.6505 48.8835 35.488 48.7513 36.3052C48.6191 37.1223 48.2 37.8656 47.5692 38.4015C46.9384 38.9375 46.1372 39.2311 45.3094 39.2295ZM45.3094 34.2295H45.0894C44.8913 34.2542 44.7003 34.3194 44.5283 34.4208C44.3563 34.5223 44.2069 34.658 44.0894 34.8195C43.9713 34.9748 43.8854 35.1522 43.837 35.3412C43.7885 35.5302 43.7784 35.727 43.8073 35.92C43.8362 36.113 43.9035 36.2982 44.0052 36.4647C44.1069 36.6312 44.241 36.7757 44.3994 36.8895C44.716 37.1203 45.1106 37.2172 45.498 37.1592C45.8855 37.1012 46.2344 36.8929 46.4694 36.5795C46.5863 36.4237 46.671 36.2463 46.7187 36.0575C46.7664 35.8687 46.7762 35.6723 46.7473 35.4797C46.7185 35.2871 46.6516 35.1022 46.5507 34.9356C46.4498 34.7691 46.3168 34.6242 46.1594 34.5095C45.9128 34.3397 45.6188 34.2522 45.3194 34.2595L45.3094 34.2295Z" fill="black"/>
<path d="M38.6097 46.1299C37.8677 46.1314 37.1451 45.8928 36.5497 45.4499C36.1807 45.1791 35.8689 44.8379 35.6323 44.4461C35.3957 44.0543 35.239 43.6195 35.1712 43.1668C35.1033 42.7142 35.1257 42.2526 35.237 41.8086C35.3483 41.3646 35.5464 40.947 35.8197 40.5799C36.1733 40.1021 36.6435 39.7228 37.1853 39.4782C37.727 39.2336 38.3225 39.1318 38.9147 39.1827C39.507 39.2335 40.0764 39.4352 40.5686 39.7686C41.0608 40.1019 41.4594 40.5558 41.7264 41.0869C41.9934 41.618 42.1199 42.2087 42.0938 42.8026C42.0677 43.3964 41.89 43.9737 41.5774 44.4794C41.2649 44.9851 40.8281 45.4023 40.3086 45.6912C39.7891 45.9801 39.2042 46.1312 38.6097 46.1299ZM37.7397 43.8399C37.896 43.9555 38.0735 44.0391 38.2621 44.0861C38.4507 44.1331 38.6467 44.1424 38.8389 44.1136C39.0312 44.0849 39.2158 44.0185 39.3824 43.9183C39.549 43.8182 39.6942 43.6862 39.8097 43.5299C39.9253 43.3736 40.009 43.1961 40.0559 43.0075C40.1029 42.8189 40.1122 42.6229 40.0835 42.4307C40.0547 42.2385 39.9883 42.0538 39.8881 41.8873C39.788 41.7207 39.656 41.5755 39.4997 41.4599C39.3435 41.3443 39.166 41.2607 38.9774 41.2137C38.7888 41.1668 38.5928 41.1574 38.4005 41.1862C38.2083 41.215 38.0237 41.2814 37.8571 41.3815C37.6905 41.4817 37.5453 41.6136 37.4297 41.7699C37.3116 41.9252 37.2257 42.1026 37.1773 42.2916C37.1288 42.4806 37.1187 42.6774 37.1476 42.8704C37.1765 43.0633 37.2438 43.2486 37.3455 43.4151C37.4472 43.5816 37.5813 43.7261 37.7397 43.8399Z" fill="#F13C3C"/>
<path d="M39.6992 61.3896H37.6992V50.8896L29.6992 44.9996V38.3896H31.6992V43.9897L39.6992 49.8797V61.3896Z" fill="#F13C3C"/>
<path d="M30.3108 39.2504C29.8094 39.252 29.3136 39.1449 28.8576 38.9364C28.4016 38.728 27.9961 38.4232 27.6692 38.043C27.3422 37.6629 27.1016 37.2164 26.9637 36.7343C26.8259 36.2522 26.7942 35.746 26.8708 35.2504C26.9401 34.8038 27.0968 34.3752 27.3319 33.9891C27.567 33.603 27.8758 33.2671 28.2408 33.0004C28.6085 32.7286 29.0261 32.5319 29.4699 32.4214C29.9136 32.311 30.3748 32.289 30.827 32.3568C31.2792 32.4246 31.7136 32.5808 32.1055 32.8165C32.4974 33.0522 32.839 33.3627 33.1108 33.7304C33.3826 34.0981 33.5794 34.5158 33.6898 34.9595C33.8002 35.4033 33.8222 35.8644 33.7544 36.3166C33.6866 36.7689 33.5304 37.2033 33.2947 37.5952C33.0591 37.987 32.7485 38.3286 32.3808 38.6004C31.778 39.0328 31.0525 39.2606 30.3108 39.2504ZM30.3108 34.2504C29.9942 34.2518 29.6862 34.3533 29.4308 34.5404C29.1174 34.7755 28.9091 35.1244 28.8511 35.5118C28.7931 35.8993 28.89 36.2939 29.1208 36.6104C29.271 36.8136 29.4708 36.9749 29.7011 37.079C29.9313 37.1831 30.1844 37.2265 30.4362 37.2051C30.688 37.1837 30.9301 37.0982 31.1395 36.9567C31.3488 36.8152 31.5185 36.6224 31.6323 36.3968C31.746 36.1712 31.8001 35.9202 31.7894 35.6677C31.7787 35.4152 31.7035 35.1697 31.571 34.9545C31.4386 34.7393 31.2532 34.5617 31.0326 34.4384C30.812 34.3152 30.5635 34.2505 30.3108 34.2504Z" fill="black"/>
<path d="M38.5993 33.3101C37.8573 33.3115 37.1347 33.073 36.5393 32.6301C35.8707 32.1376 35.3996 31.4228 35.2107 30.6142C35.0217 29.8055 35.1273 28.956 35.5085 28.2182C35.8896 27.4805 36.5213 26.9028 37.2902 26.5889C38.059 26.2751 38.9146 26.2457 39.7031 26.506C40.4917 26.7663 41.1616 27.2992 41.5925 28.0091C42.0234 28.719 42.1871 29.5592 42.0541 30.3789C41.9211 31.1986 41.5002 31.9441 40.867 32.4813C40.2338 33.0185 39.4298 33.3124 38.5993 33.3101ZM38.5993 28.3101C38.2834 28.3062 37.9746 28.4036 37.7179 28.588C37.4613 28.7723 37.2705 29.0339 37.1732 29.3345C37.076 29.6351 37.0775 29.959 37.1776 30.2587C37.2777 30.5584 37.471 30.8182 37.7293 31.0001C37.8856 31.1156 38.0631 31.1993 38.2517 31.2463C38.4403 31.2932 38.6363 31.3026 38.8285 31.2738C39.0208 31.245 39.2054 31.1786 39.372 31.0785C39.5386 30.9783 39.6838 30.8463 39.7993 30.6901C40.0302 30.3736 40.127 29.9789 40.069 29.5915C40.011 29.2041 39.8028 28.8551 39.4893 28.6201C39.2325 28.4382 38.924 28.3435 38.6093 28.3501L38.5993 28.3101Z" fill="black"/>
<path d="M58.8292 51.3896H53.6992V49.3896H58.8292C60.3841 49.3145 61.8531 48.6544 62.9417 47.5416C64.0304 46.4289 64.6581 44.9458 64.6992 43.3896H66.6992C66.662 45.4775 65.8248 47.4714 64.3604 48.9599C62.896 50.4485 60.9161 51.3182 58.8292 51.3896Z" fill="black"/>
<path d="M27.6992 51.3896H19.3792C16.2192 51.3896 12.6992 48.9196 12.6992 45.3896H14.6992C14.6992 47.6796 17.1692 49.3896 19.3792 49.3896H27.6992V51.3896Z" fill="black"/>
<path d="M45.6992 59.3896H43.6992V61.3896H45.6992V59.3896Z" fill="#F13C3C"/>
<path d="M45.6992 63.3896H43.6992V65.3896H45.6992V63.3896Z" fill="#F13C3C"/>
<path d="M39.6992 63.3896H37.6992V65.3896H39.6992V63.3896Z" fill="#F13C3C"/>
<path d="M39.6992 67.3896H37.6992V69.3896H39.6992V67.3896Z" fill="#F13C3C"/>
<path d="M60.34 54.4999V52.3699C65.77 52.3699 69.71 48.1499 69.71 42.3699C69.7658 39.909 68.9444 37.5085 67.3926 35.5976C65.8409 33.6868 63.66 32.3903 61.24 31.9399L60.24 31.7499L60.42 30.7499C60.5609 29.9912 60.6346 29.2216 60.64 28.4499C60.6406 25.1046 59.4658 21.8654 57.3209 19.2981C55.176 16.7309 52.1974 14.9988 48.9053 14.4045C45.6131 13.8102 42.2169 14.3913 39.3097 16.0465C36.4025 17.7016 34.1692 20.3256 33 23.4599L32.61 24.4599L31.61 24.0599C30.6221 23.6611 29.5653 23.4606 28.5 23.4699C26.2783 23.4725 24.1483 24.3563 22.5774 25.9273C21.0064 27.4983 20.1226 29.6282 20.12 31.8499C20.1265 32.5252 20.2172 33.1971 20.39 33.8499L20.78 35.4299L19.18 35.1599C18.6713 35.0718 18.1563 35.025 17.64 35.0199C12.24 35.0199 8.16 38.6399 8.16 43.4299C8.22807 45.8472 9.25133 48.139 11.0057 49.8034C12.76 51.4678 15.1025 52.3691 17.52 52.3099H21.95V54.4999H17.48C14.4993 54.5562 11.6178 53.4293 9.4662 51.3658C7.3146 49.3023 6.06824 46.4703 6 43.4899C6 37.4899 11 32.9999 17.6 32.9999H18C17.9787 32.6235 17.9787 32.2463 18 31.8699C18.0046 30.2472 18.3841 28.6475 19.109 27.1957C19.8339 25.744 20.8845 24.4793 22.1788 23.5006C23.4732 22.5219 24.9762 21.8556 26.5705 21.5536C28.1649 21.2516 29.8074 21.3222 31.37 21.7599C32.8933 18.3289 35.5481 15.5248 38.8908 13.8163C42.2334 12.1078 46.0612 11.5986 49.7343 12.3737C53.4073 13.1488 56.703 15.1614 59.0703 18.0748C61.4375 20.9882 62.733 24.626 62.74 28.3799C62.7353 28.9216 62.6986 29.4625 62.63 29.9999C65.3145 30.7323 67.6776 32.3402 69.3443 34.5685C71.0109 36.7968 71.8858 39.5178 71.83 42.2999C71.83 49.3799 67 54.4999 60.34 54.4999Z" fill="#F13C3C"/>
</svg>
