<svg width="74" height="75" viewBox="0 0 74 75" fill="none" xmlns="http://www.w3.org/2000/svg">
<g clip-path="url(#clip0_3193_458)">
<path d="M63.8991 55.0004C64.2891 52.8904 64.2791 50.7304 63.8691 48.6304L69.5191 34.8104C69.5191 34.8104 69.5191 34.7904 69.5191 34.7804C70.4391 32.2404 71.7791 29.8804 73.4891 27.8004C73.9191 27.3404 74.0891 26.7004 73.9491 26.0904L71.6291 15.9504C71.5991 15.8404 71.5591 15.7404 71.5091 15.6504C71.5091 15.6304 71.4991 15.6104 71.4891 15.5904C71.4791 15.5704 71.4391 15.5304 71.4091 15.5004C71.3591 15.4304 71.2991 15.3604 71.2391 15.2904C71.1991 15.2604 71.1491 15.2304 71.1091 15.2104C71.0491 15.1704 70.9891 15.1304 70.9191 15.0904C70.8291 15.0504 70.7291 15.0304 70.6291 15.0204C70.5991 15.0204 70.5791 15.0004 70.5491 15.0004C70.3091 14.9804 70.0791 15.0404 69.8691 15.1504C69.8491 15.1604 69.8291 15.1604 69.8091 15.1804H69.7991L61.0791 20.6904C60.5491 21.0204 60.2191 21.6004 60.2091 22.2304C59.9691 24.9304 59.2691 27.5604 58.1291 30.0204L55.2991 36.9504C53.9091 36.2004 52.4291 35.6604 50.8891 35.3404C51.4691 31.2704 51.6891 27.1604 51.5291 23.0504C53.8291 20.2604 54.9291 16.6504 54.5891 13.0404C53.8191 5.76038 47.3191 0.490384 47.0391 0.270384C46.6191 -0.0596163 46.0391 -0.0896163 45.5991 0.210384C45.1591 0.510384 44.9491 1.06038 45.0891 1.58038C45.7291 4.00038 45.1791 6.55038 40.4791 11.7904C38.3691 13.8504 37.6991 17.0004 38.7891 19.7604C39.2091 20.8204 39.7991 21.7904 40.5491 22.6304C40.2491 24.5604 40.0191 26.3904 39.8491 28.1704C39.5691 31.1204 39.4991 34.0804 39.6391 37.0304C38.5391 37.6304 37.5091 38.3604 36.5691 39.2004L30.5791 13.2804C30.5791 13.2804 30.5591 13.2304 30.5491 13.2104C30.5291 13.1304 30.4991 13.0504 30.4591 12.9704L24.3291 1.54038C23.7191 0.400384 22.4191 -0.189616 21.1691 0.100384C19.9191 0.390384 19.0191 1.51038 18.9691 2.81038L18.5091 15.8004C18.5091 15.8904 18.5191 15.9904 18.5391 16.0804V16.1404L24.6491 42.5404C23.6891 42.5804 22.7291 42.7304 21.7991 42.9704L15.0791 26.5404C14.5391 25.2804 13.1091 24.6904 11.8591 25.2004L1.57907 29.5004C0.319073 30.0304 -0.270927 31.4904 0.239073 32.7704L9.34907 55.0304C4.00907 55.3104 -0.130927 59.8504 -0.000926947 65.2604C0.139073 70.6704 4.50907 74.9904 9.85907 75.0004H64.1891C67.7191 74.9504 70.9491 72.9904 72.6691 69.8704C74.3891 66.7504 74.3391 62.9404 72.5291 59.8704C70.7191 56.8004 67.4291 54.9404 63.8991 55.0004ZM62.6391 22.6504L67.8191 19.3804L65.9891 23.8604C65.7291 24.5004 66.0291 25.2304 66.6591 25.4904C67.2891 25.7504 68.0091 25.4504 68.2691 24.8104L70.0991 20.3304L71.4691 26.3504C69.9991 28.1604 68.7991 30.1804 67.8891 32.3304C66.5991 32.9304 65.1191 32.9704 63.8091 32.4204C62.4991 31.8704 61.4691 30.7904 60.9791 29.4404C61.8491 27.2704 62.3991 24.9804 62.6291 22.6404L62.6391 22.6504ZM59.7991 32.4604C60.6191 33.4704 61.6791 34.2504 62.8791 34.7304C63.8291 35.1504 64.8591 35.3704 65.8991 35.3704C66.1491 35.3704 66.3991 35.3504 66.6491 35.3204L62.7091 44.9404C61.5291 42.3104 59.7091 40.0204 57.4091 38.3004L59.7991 32.4404V32.4604ZM42.8891 23.5304L49.0891 23.9104C49.1291 25.0804 49.1091 26.2804 49.0791 27.5104C47.0091 27.6604 44.9391 27.5604 42.8891 27.2104C42.7291 27.1904 42.5791 27.1704 42.4291 27.1504C42.5491 25.9704 42.6991 24.7804 42.8891 23.5304ZM42.2991 13.4604C45.5791 9.80038 47.2791 6.98038 47.6691 4.34038C50.0291 6.79038 51.5791 9.92038 52.1291 13.3004C52.3891 16.2404 51.4891 19.1704 49.6291 21.4404C47.1891 21.2904 44.7791 21.1404 42.3891 20.9904C41.3691 20.0204 40.7791 18.6704 40.7591 17.2504C40.7391 15.8304 41.2991 14.4604 42.2991 13.4704V13.4604ZM42.2091 29.6404L42.5691 29.6904C44.1591 29.9404 45.7691 30.0804 47.3791 30.1004C47.8891 30.1004 48.4291 30.0604 48.9691 30.0204C48.8591 31.6304 48.6691 33.3104 48.4391 35.0404C48.1391 35.0204 47.8391 34.9904 47.5291 34.9904C45.6691 34.9904 43.8191 35.3204 42.0591 35.9404C41.9991 33.8404 42.0591 31.7304 42.2191 29.6304L42.2091 29.6404ZM32.6591 44.2604L29.1291 29.0304C28.9591 28.3704 28.3091 27.9604 27.6491 28.1204C26.9891 28.2804 26.5791 28.9304 26.7191 29.6004L29.8891 43.3104C29.0191 42.9904 28.1191 42.7704 27.1991 42.6304L21.7791 19.2204C22.5391 19.5704 23.3591 19.7504 24.1991 19.7504C24.2791 19.7504 24.3591 19.7404 24.4391 19.7304L25.3091 23.5004C25.3991 23.9404 25.7291 24.3004 26.1491 24.4304C26.5791 24.5604 27.0391 24.4504 27.3591 24.1404C27.6791 23.8304 27.8191 23.3704 27.7091 22.9304L26.8391 19.1504C27.6791 18.7704 28.4191 18.2104 28.9991 17.4904L34.5091 41.3404C33.7891 42.2404 33.1691 43.2204 32.6591 44.2504V44.2604ZM25.1191 17.1404C23.5391 17.4504 21.9291 16.8004 20.9991 15.4704L21.1591 11.0704C21.5891 11.1504 22.0291 11.1904 22.4591 11.1904C22.8791 11.1904 23.2991 11.1404 23.7091 11.0504C24.5391 10.8304 25.3191 10.4404 25.9991 9.90038L28.0791 13.7804C27.8291 15.3904 26.6691 16.7104 25.1191 17.1404ZM21.7391 2.54038C21.9091 2.50038 22.0791 2.58038 22.1591 2.73038L24.8091 7.69038C24.3291 8.13038 23.7591 8.45038 23.1391 8.63038C22.5091 8.75038 21.8591 8.72038 21.2391 8.54038L21.4391 2.91038C21.4391 2.74038 21.5691 2.59038 21.7391 2.55038V2.54038ZM12.7891 27.5004L13.7291 29.8104L9.15907 31.7204C8.61907 31.9504 8.30907 32.5304 8.42907 33.1204C8.54907 33.7004 9.04907 34.1204 9.63907 34.1204C9.79907 34.1204 9.95907 34.0904 10.1091 34.0304L14.6791 32.1104L15.6191 34.4204L13.3291 35.3804C12.7891 35.6104 12.4791 36.1904 12.5891 36.7804C12.6991 37.3704 13.2091 37.7904 13.7991 37.7904C13.9591 37.7904 14.1191 37.7604 14.2691 37.7004L16.5591 36.7404L17.4991 39.0504L12.9291 40.9704C12.3891 41.2004 12.0791 41.7804 12.1891 42.3704C12.3091 42.9604 12.8091 43.3804 13.3991 43.3804C13.5591 43.3804 13.7191 43.3504 13.8691 43.2904L18.4391 41.3804L19.4391 43.8204C15.4191 45.6804 12.4691 49.3104 11.4491 53.6704L2.51907 31.8104L12.7991 27.5104L12.7891 27.5004ZM64.1791 72.5004H9.85907C5.76907 72.5004 2.44907 69.1404 2.44907 65.0004C2.44907 60.8604 5.76907 57.5004 9.85907 57.5004C10.5791 57.5004 11.2891 57.6004 11.9691 57.8104C12.3391 57.9204 12.7391 57.8504 13.0491 57.6204C13.3591 57.3904 13.5491 57.0204 13.5591 56.6304C13.6491 52.1804 16.1891 48.1404 20.1491 46.1904C24.1091 44.2404 28.8091 44.6904 32.3291 47.3704C32.6391 47.6004 33.0391 47.6804 33.4091 47.5704C33.7791 47.4604 34.0791 47.1804 34.2191 46.8104C36.6291 40.3004 43.2991 36.4704 50.0491 37.7204C56.8091 38.9604 61.7091 44.9204 61.7091 51.8804C61.7091 53.3104 61.4991 54.7304 61.0891 56.1004C60.9591 56.5304 61.0591 56.9904 61.3591 57.3204C61.6591 57.6504 62.0991 57.7904 62.5291 57.6904C63.0691 57.5704 63.6191 57.5104 64.1791 57.5104C68.2691 57.5104 71.5891 60.8704 71.5891 65.0104C71.5891 69.1504 68.2691 72.5104 64.1791 72.5104V72.5004Z" fill="#F13C3C"/>
<path d="M47.7488 19.6307C48.1388 19.6307 48.4988 19.4507 48.7388 19.1407C50.2788 17.0307 50.8788 14.3607 50.3788 11.7807C50.2688 11.3407 49.9388 10.9907 49.5088 10.8707C49.0788 10.7507 48.6188 10.8707 48.2988 11.2007C47.9888 11.5207 47.8688 11.9907 47.9888 12.4307C48.2888 14.2607 47.8388 16.1407 46.7688 17.6407C46.4888 18.0207 46.4388 18.5307 46.6488 18.9507C46.8588 19.3707 47.2888 19.6407 47.7488 19.6407V19.6307Z" fill="black"/>
<path d="M46.12 57.5001C45.2 57.5001 44.3 57.7201 43.47 58.1201C41.25 55.0401 37.1 54.1401 33.83 56.0201C30.56 57.9001 29.2 61.9701 30.67 65.4801C30.86 65.9401 31.31 66.2401 31.81 66.2401C31.98 66.2401 32.14 66.2101 32.29 66.1401C32.59 66.0101 32.83 65.7601 32.95 65.4601C33.07 65.1501 33.07 64.8101 32.95 64.5001C32.68 63.8701 32.54 63.1801 32.54 62.4901C32.54 59.7301 34.75 57.4901 37.48 57.4901C39.4 57.4901 41.14 58.6001 41.94 60.3601C41.97 60.4001 42 60.4401 42.03 60.4801C42.05 60.5201 42.07 60.5601 42.1 60.6001C42.12 60.6301 42.15 60.6401 42.18 60.6701C42.24 60.7301 42.3 60.7901 42.37 60.8301C42.43 60.8801 42.5 60.9201 42.57 60.9601C42.64 60.9901 42.72 61.0101 42.79 61.0301C42.87 61.0501 42.94 61.0601 43.02 61.0701C43.18 61.0701 43.34 61.0401 43.49 60.9901C43.52 60.9901 43.56 60.9801 43.59 60.9701C43.63 60.9401 43.67 60.9101 43.7 60.8801C43.74 60.8601 43.79 60.8401 43.83 60.8101C44.48 60.2801 45.29 59.9901 46.12 59.9901C47.56 59.9901 48.87 60.8401 49.48 62.1701C49.76 62.8001 50.5 63.0801 51.12 62.7901C51.74 62.5001 52.01 61.7601 51.73 61.1301C50.72 58.9101 48.54 57.4901 46.12 57.4901V57.5001Z" fill="black"/>
<path d="M21.8195 48.8101C21.6295 48.8701 17.2695 50.4001 17.2695 55.0001C17.2695 55.6901 17.8195 56.2501 18.4995 56.2501C19.1795 56.2501 19.7295 55.6901 19.7295 55.0001C19.8295 53.2601 20.9595 51.7501 22.5995 51.1801C23.2495 50.9601 23.5995 50.2501 23.3795 49.5901C23.1595 48.9301 22.4595 48.5801 21.8095 48.8001L21.8195 48.8101Z" fill="black"/>
<path d="M39.1885 47.46C39.2885 47.49 39.3885 47.5 39.4885 47.5C40.0585 47.5 40.5485 47.11 40.6885 46.55C41.2585 44.22 43.2985 42.56 45.6685 42.5C46.3485 42.5 46.8985 41.94 46.8985 41.25C46.8985 40.56 46.3385 40 45.6585 40C42.1485 40.05 39.1185 42.49 38.2885 45.95C38.1185 46.62 38.5285 47.3 39.1885 47.47V47.46Z" fill="black"/>
</g>
<defs>
<clipPath id="clip0_3193_458">
<rect width="74" height="75" fill="white"/>
</clipPath>
</defs>
</svg>
