<svg width="79" height="79" viewBox="0 0 79 79" fill="none" xmlns="http://www.w3.org/2000/svg">
<g clip-path="url(#clip0_3193_466)">
<path d="M74.9901 55.0404L67.2401 51.1604L62.3101 38.3304C62.1901 38.0204 61.9501 37.7804 61.6501 37.6604L31.0401 25.4204C30.6001 25.2504 30.1001 25.3504 29.7701 25.6804L25.6901 29.7604C25.3601 30.0904 25.2601 30.5904 25.4401 31.0204L37.6801 61.6304C37.8001 61.9304 38.0501 62.1704 38.3501 62.2904L51.1801 67.2204L55.0601 74.9704C55.2301 75.3204 55.5501 75.5604 55.9301 75.6304C55.9901 75.6304 56.0601 75.6304 56.1201 75.6304C56.4301 75.6304 56.7301 75.5004 56.9501 75.2804L75.3101 56.9204C75.5801 56.6604 75.7101 56.2704 75.6601 55.9004C75.6001 55.5204 75.3501 55.2004 75.0001 55.0304L74.9901 55.0404ZM27.9001 30.8804L28.5601 30.2304L43.8001 45.4704C41.5901 48.6104 42.3301 52.9504 45.4701 55.1604C48.6101 57.3704 52.9501 56.6304 55.1601 53.4904C57.3701 50.3504 56.6301 46.0104 53.4901 43.8004C51.0901 42.1004 47.8701 42.1004 45.4701 43.8004L30.2301 28.5604L30.8801 27.9004L60.2901 39.6604L64.9301 51.7204L51.7401 64.9104L39.6801 60.2704L27.9201 30.8604L27.9001 30.8804ZM49.4701 44.8804C52.0101 44.8804 54.0601 46.9404 54.0501 49.4804C54.0501 52.0204 51.9901 54.0704 49.4501 54.0604C46.9101 54.0604 44.8601 52.0004 44.8701 49.4604C44.8701 48.2404 45.3601 47.0804 46.2201 46.2204C47.0801 45.3604 48.2501 44.8804 49.4701 44.8804ZM56.4201 72.4704L53.4701 66.5604L66.5401 53.4904L72.4501 56.4404L56.4201 72.4704Z" fill="#F13C3C"/>
<path d="M22.6208 63.24C22.1508 62.8 21.4208 62.8 20.9508 63.24L19.4508 64.74C11.2408 53.6 11.0008 38.48 18.8608 27.08C21.7908 28.69 25.4808 27.62 27.0908 24.69C28.0908 22.88 28.0908 20.69 27.1008 18.87C38.4908 11.01 53.6208 11.25 64.7608 19.46L63.2408 20.94C63.0208 21.16 62.9008 21.46 62.9008 21.77C62.9008 22.08 63.0208 22.39 63.2408 22.61L68.4508 27.78C68.9108 28.24 69.6608 28.24 70.1208 27.78L75.3008 22.6C75.7608 22.14 75.7608 21.39 75.3008 20.93L70.1208 15.75C69.6608 15.29 68.9108 15.29 68.4508 15.75L66.4508 17.74C56.4008 10.18 43.0508 8.62999 31.5308 13.68L38.3408 6.88999C40.1408 7.74999 42.3108 6.98999 43.1708 5.17999C44.0308 3.37999 43.2708 1.20999 41.4608 0.349986C39.6608 -0.510014 37.4908 0.249986 36.6308 2.05999C36.1508 3.05999 36.1608 4.21999 36.6508 5.21999L25.1508 16.74C22.3708 14.87 18.6008 15.62 16.7308 18.4C15.3608 20.44 15.3608 23.12 16.7308 25.16L5.21083 36.66C3.41083 35.78 1.24083 36.53 0.360826 38.33C-0.519174 40.13 0.230826 42.3 2.03083 43.18C3.83083 44.06 6.00083 43.31 6.88083 41.51C7.37083 40.51 7.37083 39.33 6.88083 38.33L13.6908 31.54C8.63083 43.05 10.1708 56.4 17.7308 66.46L15.7308 68.46C15.2708 68.92 15.2708 69.67 15.7308 70.13L20.9108 75.31C21.1308 75.53 21.4308 75.66 21.7408 75.66C22.0508 75.66 22.3608 75.53 22.5808 75.31L27.7708 70.13C28.2308 69.67 28.2308 68.92 27.7708 68.46L22.6008 63.25L22.6208 63.24ZM69.2908 18.25L72.8008 21.76L69.2908 25.27L65.7808 21.76L69.2908 18.25ZM39.0108 2.74999C39.5008 2.25999 40.3008 2.24999 40.7908 2.74999C41.2808 3.23999 41.2908 4.03999 40.7908 4.52999C40.3008 5.01999 39.5008 5.02999 39.0108 4.52999C38.5208 4.03999 38.5208 3.24999 39.0108 2.75999V2.74999ZM19.1608 19.16C20.6008 17.71 22.9408 17.71 24.3808 19.15C24.3808 19.15 24.3808 19.15 24.3908 19.16C25.8408 20.61 25.8408 22.95 24.3908 24.4C22.9408 25.85 20.6008 25.85 19.1508 24.4C17.7008 22.95 17.7008 20.61 19.1508 19.16H19.1608ZM4.53083 40.79C4.00083 41.24 3.20083 41.16 2.76083 40.63C2.37083 40.16 2.37083 39.48 2.76083 39.02C3.25083 38.54 4.04083 38.54 4.53083 39.02C5.02083 39.51 5.02083 40.3 4.53083 40.79ZM21.7808 72.77L18.2708 69.26L21.7808 65.75L25.2908 69.26L21.7808 72.77Z" fill="black"/>
</g>
<defs>
<clipPath id="clip0_3193_466">
<rect width="78.38" height="78.37" fill="white"/>
</clipPath>
</defs>
</svg>
