<svg width="79" height="79" viewBox="0 0 79 79" fill="none" xmlns="http://www.w3.org/2000/svg">
<g clip-path="url(#clip0_3193_469)">
<path d="M77.65 32.3798L71.12 29.7698C70.45 27.5198 69.55 25.3398 68.42 23.2798L71.19 16.8098C71.38 16.3798 71.28 15.8798 70.95 15.5498L62.83 7.42977C62.5 7.09977 62 6.99977 61.57 7.18977L55.1 9.95977C53.04 8.82977 50.86 7.92977 48.61 7.25977L46 0.729766C45.83 0.289766 45.4 0.00976562 44.93 0.00976562H33.45C32.98 0.00976562 32.56 0.299766 32.38 0.729766L29.77 7.25977C27.52 7.91977 25.34 8.82977 23.28 9.95977L16.81 7.18977C16.38 7.00977 15.88 7.09977 15.55 7.42977L7.42 15.5398C7.09 15.8698 6.99 16.3698 7.18 16.7998L9.95 23.2698C8.82 25.3298 7.92 27.5098 7.25 29.7598L0.72 32.3698C0.28 32.5398 0 32.9698 0 33.4398V44.9198C0 45.3898 0.29 45.8098 0.72 45.9898L7.25 48.5998C7.91 50.8498 8.82 53.0298 9.95 55.0898L7.18 61.5598C6.99 61.9898 7.09 62.4898 7.42 62.8198L15.54 70.9398C15.87 71.2698 16.37 71.3698 16.8 71.1798L23.27 68.4098C25.33 69.5398 27.51 70.4398 29.76 71.1098L32.37 77.6398C32.54 78.0798 32.97 78.3598 33.44 78.3598H44.92C45.39 78.3598 45.81 78.0698 45.99 77.6398L48.6 71.1098C50.85 70.4498 53.03 69.5398 55.09 68.4098L61.56 71.1798C61.99 71.3698 62.49 71.2698 62.82 70.9398L70.94 62.8198C71.27 62.4898 71.37 61.9898 71.18 61.5598L68.41 55.0898C69.54 53.0298 70.44 50.8498 71.11 48.5998L77.64 45.9898C78.08 45.8198 78.36 45.3898 78.36 44.9198V33.4398C78.36 32.9698 78.07 32.5498 77.64 32.3698L77.65 32.3798ZM76.08 44.1498L69.75 46.6798C69.42 46.8098 69.17 47.0898 69.07 47.4398C68.39 49.8898 67.41 52.2498 66.15 54.4598C65.97 54.7698 65.95 55.1498 66.09 55.4798L68.78 61.7598L61.76 68.7798L55.48 66.0898C55.15 65.9498 54.77 65.9698 54.46 66.1498C52.25 67.4098 49.88 68.3898 47.44 69.0698C47.09 69.1698 46.81 69.4198 46.68 69.7498L44.15 76.0798H34.22L31.69 69.7498C31.56 69.4198 31.28 69.1698 30.93 69.0698C28.48 68.3898 26.12 67.4098 23.91 66.1498C23.6 65.9698 23.22 65.9498 22.89 66.0898L16.61 68.7798L9.59 61.7598L12.28 55.4798C12.42 55.1498 12.4 54.7698 12.22 54.4598C10.96 52.2498 9.98 49.8798 9.3 47.4398C9.2 47.0898 8.95 46.8098 8.62 46.6798L2.29 44.1498V34.2198L8.62 31.6898C8.95 31.5598 9.2 31.2798 9.3 30.9298C9.98 28.4798 10.96 26.1198 12.22 23.9098C12.4 23.5998 12.42 23.2198 12.28 22.8898L9.59 16.6098L16.61 9.58977L22.89 12.2798C23.22 12.4198 23.6 12.3998 23.91 12.2198C26.12 10.9598 28.48 9.97977 30.93 9.29977C31.28 9.19977 31.56 8.94977 31.69 8.61977L34.22 2.28977H44.15L46.68 8.61977C46.81 8.94977 47.09 9.19977 47.44 9.29977C49.89 9.97977 52.25 10.9598 54.46 12.2198C54.77 12.3998 55.15 12.4198 55.48 12.2798L61.76 9.58977L68.78 16.6098L66.09 22.8898C65.95 23.2198 65.97 23.5998 66.15 23.9098C67.41 26.1198 68.39 28.4798 69.07 30.9298C69.17 31.2798 69.42 31.5598 69.75 31.6898L76.08 34.2198V44.1498Z" fill="#F13C3C"/>
<path d="M39.1897 13.9297C25.2597 13.9297 13.9297 25.2597 13.9297 39.1897C13.9297 53.1197 25.2597 64.4497 39.1897 64.4497C53.1197 64.4497 64.4497 53.1197 64.4497 39.1897C64.4497 25.2597 53.1197 13.9297 39.1897 13.9297ZM39.1897 62.1497C26.5297 62.1497 16.2297 51.8497 16.2297 39.1897C16.2297 26.5297 26.5297 16.2297 39.1897 16.2297C51.8497 16.2297 62.1497 26.5297 62.1497 39.1897C62.1497 51.8497 51.8497 62.1497 39.1897 62.1497Z" fill="#F13C3C"/>
<path d="M39.1893 18.5195C34.4993 18.5195 30.0693 20.0495 26.3993 22.9595C25.8993 23.3495 25.8193 24.0695 26.2093 24.5695C26.5993 25.0695 27.3193 25.1495 27.8193 24.7595C31.0893 22.1795 35.0193 20.8195 39.1893 20.8195C49.3193 20.8195 57.5593 29.0595 57.5593 39.1895C57.5593 49.3195 49.3193 57.5595 39.1893 57.5595C29.0593 57.5595 20.8193 49.3195 20.8193 39.1895C20.8193 35.0195 22.1793 31.0895 24.7593 27.8195C25.1493 27.3195 25.0693 26.5995 24.5693 26.2095C24.0693 25.8195 23.3493 25.8995 22.9593 26.3995C20.0593 30.0795 18.5293 34.4995 18.5293 39.1895C18.5293 50.5795 27.7993 59.8495 39.1893 59.8495C50.5793 59.8495 59.8493 50.5795 59.8493 39.1895C59.8493 27.7995 50.5793 18.5295 39.1893 18.5295V18.5195Z" fill="#F13C3C"/>
<path d="M25.6894 47.6396L38.6194 55.0996C38.7994 55.1996 38.9994 55.2496 39.1894 55.2496C39.3794 55.2496 39.5894 55.1996 39.7594 55.0996L52.6894 47.6396C53.0494 47.4296 53.2594 47.0596 53.2594 46.6496V31.7296C53.2594 31.3196 53.0394 30.9396 52.6894 30.7396L39.7594 23.2796C39.3994 23.0696 38.9694 23.0696 38.6094 23.2796L25.6794 30.7396C25.3194 30.9496 25.1094 31.3196 25.1094 31.7296V46.6496C25.1094 47.0596 25.3294 47.4396 25.6794 47.6396H25.6894ZM27.4094 33.7096L38.0394 39.8496V52.1196L27.4094 45.9796V33.7096ZM40.3394 52.1196V39.8496L50.9694 33.7096V45.9796L40.3394 52.1196ZM39.1894 25.5796L49.8194 31.7196L39.1894 37.8596L28.5594 31.7196L39.1894 25.5796Z" fill="black"/>
</g>
<defs>
<clipPath id="clip0_3193_469">
<rect width="78.37" height="78.37" fill="white"/>
</clipPath>
</defs>
</svg>
