<svg width="75" height="75" viewBox="0 0 75 75" fill="none" xmlns="http://www.w3.org/2000/svg">
<path d="M64.4309 37.2899L59.8009 32.6599L55.2209 37.2399L53.8009 35.8299L59.8009 29.8299L63.1009 33.1299L65.1909 20.5599L52.6309 22.6599L55.9209 25.9599L51.2509 30.6299L49.8409 29.2199L53.1009 25.9599L48.4609 21.3199L67.6309 18.1299L64.4309 37.2899Z" fill="#F13C3C"/>
<path d="M36.0006 62.6603C32.4029 62.6603 28.8861 61.5935 25.8947 59.5947C22.9034 57.596 20.5719 54.7551 19.1952 51.4313C17.8184 48.1075 17.4582 44.4501 18.1601 40.9216C18.8619 37.3931 20.5944 34.1519 23.1383 31.608C25.6822 29.0641 28.9233 27.3317 32.4519 26.6298C35.9804 25.9279 39.6378 26.2882 42.9616 27.6649C46.2854 29.0417 49.1262 31.3731 51.125 34.3645C53.1237 37.3558 54.1906 40.8726 54.1906 44.4703C54.1853 49.2929 52.2671 53.9166 48.857 57.3267C45.4468 60.7368 40.8232 62.655 36.0006 62.6603ZM36.0006 28.2803C32.7985 28.2803 29.6683 29.2298 27.0059 31.0088C24.3434 32.7878 22.2683 35.3163 21.0429 38.2746C19.8176 41.233 19.4969 44.4882 20.1216 47.6288C20.7463 50.7693 22.2883 53.6541 24.5525 55.9183C26.8167 58.1826 29.7015 59.7245 32.842 60.3492C35.9826 60.9739 39.2379 60.6533 42.1962 59.4279C45.1545 58.2025 47.6831 56.1274 49.462 53.465C51.241 50.8025 52.1906 47.6724 52.1906 44.4703C52.1879 40.1772 50.4813 36.0608 47.4457 33.0251C44.41 29.9895 40.2936 28.2829 36.0006 28.2803Z" fill="black"/>
<path d="M48.6095 55.6629L47.1953 57.0771L59.7606 69.6424L61.1748 68.2282L48.6095 55.6629Z" fill="black"/>
<path d="M34.6797 46.2398C34.3683 46.2455 34.0589 46.1883 33.7702 46.0714C33.4815 45.9546 33.2194 45.7805 32.9997 45.5598L24.6797 37.2398L26.0997 35.8298L34.4197 44.1498C34.4808 44.2067 34.5612 44.2384 34.6447 44.2384C34.7282 44.2384 34.8086 44.2067 34.8697 44.1498L44.5197 34.5098L45.9997 35.9198L36.3597 45.5598C36.141 45.7819 35.8791 45.9569 35.5902 46.0739C35.3012 46.1908 34.9913 46.2473 34.6797 46.2398Z" fill="#F13C3C"/>
<path d="M34.6803 55.7201C33.3617 55.7199 32.0965 55.1987 31.1603 54.2701L22.0703 45.1801L23.4803 43.7601L32.5803 52.8601C33.1406 53.4068 33.8925 53.7128 34.6753 53.7128C35.4581 53.7128 36.21 53.4068 36.7703 52.8601L48.5103 41.1201L49.9303 42.5301L38.1903 54.2701C37.7298 54.7314 37.1826 55.097 36.5802 55.3459C35.9778 55.5947 35.3321 55.7219 34.6803 55.7201Z" fill="#F13C3C"/>
<path d="M19.4192 32.0001L15.6192 28.2001C15.0584 27.6504 14.3045 27.3425 13.5192 27.3425C12.734 27.3425 11.98 27.6504 11.4192 28.2001L7.60922 32.0001L6.19922 30.5401L9.99922 26.7301C10.9339 25.8139 12.1905 25.3008 13.4992 25.3008C14.808 25.3008 16.0646 25.8139 16.9992 26.7301L20.8092 30.5401L19.4192 32.0001Z" fill="#F13C3C"/>
<path d="M7.60922 42.5296L6.19922 41.1196L11.8792 35.4396C12.3155 35.0072 12.905 34.7646 13.5192 34.7646C14.1335 34.7646 14.7229 35.0072 15.1592 35.4396L16.8692 37.1496L15.4592 38.5696L13.7492 36.8596C13.7194 36.8287 13.6836 36.8042 13.6441 36.7874C13.6046 36.7707 13.5621 36.7621 13.5192 36.7621C13.4763 36.7621 13.4338 36.7707 13.3943 36.7874C13.3548 36.8042 13.3191 36.8287 13.2892 36.8596L7.60922 42.5296Z" fill="#F13C3C"/>
</svg>
