<svg width="79" height="79" viewBox="0 0 79 79" fill="none" xmlns="http://www.w3.org/2000/svg">
<path d="M34.6106 63.23H7.53063C4.28063 63.23 1.65062 60.59 1.64062 57.34V7.89C1.64062 4.64 4.28063 2.01 7.53063 2H9.89062V4.36H7.53063C5.58063 4.36 4.00063 5.94 4.00063 7.89V57.34C4.00063 59.29 5.58063 60.87 7.53063 60.87H34.6106V63.23Z" fill="#F13C3C"/>
<path d="M12.2402 2H14.6002V4.36H12.2402V2Z" fill="#F13C3C"/>
<path d="M71.1092 63.23V60.87C73.0592 60.87 74.6392 59.29 74.6392 57.34V7.89C74.6392 5.94 73.0592 4.36 71.1092 4.36H16.9492V2H71.1192C74.3692 2 76.9992 4.64 77.0092 7.89V57.34C77.0092 60.59 74.3692 63.22 71.1192 63.23H71.1092Z" fill="#F13C3C"/>
<path d="M24.0508 66.5L25.2308 61.79L27.5108 62.36L26.3308 67.07L24.0508 66.5Z" fill="#F13C3C"/>
<path d="M34.6104 72.6501H22.8304C22.1804 72.6501 21.6504 72.1201 21.6504 71.4701V69.1101C21.6504 67.1601 23.2304 65.5801 25.1804 65.5801H34.6004V67.9401H25.1804C24.5304 67.9401 24.0004 68.4701 24.0004 69.1201V70.3001H34.6004V72.6601L34.6104 72.6501Z" fill="#F13C3C"/>
<path d="M2.81055 51.46H34.6005V53.82H2.81055V51.46Z" fill="#F13C3C"/>
<path d="M6.34961 56.1699H8.70961V58.5299H6.34961V56.1699Z" fill="#F13C3C"/>
<path d="M11.0605 56.1699H18.1305V58.5299H11.0605V56.1699Z" fill="#F13C3C"/>
<path d="M66.4009 77.3605H42.8509C39.6009 77.3605 36.9709 74.7205 36.9609 71.4705V24.3705C36.9609 21.1205 39.6009 18.4905 42.8509 18.4805H66.4009C69.6509 18.4805 72.2809 21.1205 72.2909 24.3705V71.4705C72.2909 74.7205 69.6509 77.3505 66.4009 77.3605ZM42.8509 20.8405C40.9009 20.8405 39.3209 22.4205 39.3209 24.3705V71.4705C39.3209 73.4205 40.9009 75.0005 42.8509 75.0005H66.4009C68.3509 75.0005 69.9309 73.4205 69.9309 71.4705V24.3705C69.9309 22.4205 68.3509 20.8405 66.4009 20.8405H42.8509Z" fill="#F13C3C"/>
<path d="M60.5106 30.2601H48.7306C46.5206 30.2601 45.6006 28.3401 45.3106 26.7301H38.1406V24.3701H46.3806C47.0306 24.3701 47.5606 24.9001 47.5606 25.5501C47.5606 25.5701 47.6306 27.9101 48.7406 27.9101H60.5206C61.6306 27.9101 61.7006 25.5701 61.7006 25.5501C61.7006 24.9001 62.2306 24.3701 62.8806 24.3701H71.1206V26.7301H63.9506C63.6606 28.3401 62.7306 30.2601 60.5306 30.2601H60.5106Z" fill="#F13C3C"/>
<path d="M49.9199 23.2002H59.3399V25.5602H49.9199V23.2002Z" fill="#F13C3C"/>
<path d="M49.9199 71.4697H59.3399V73.8297H49.9199V71.4697Z" fill="#F13C3C"/>
<path d="M38.1406 67.9404H71.1106V70.3004H38.1406V67.9404Z" fill="#F13C3C"/>
<path d="M22.8301 34.9697H18.1201C17.4701 34.9697 16.9401 34.4397 16.9401 33.7897V32.0597C16.2801 31.8497 15.6401 31.5897 15.0301 31.2697L13.8101 32.4897C13.3501 32.9497 12.6001 32.9497 12.1401 32.4897L8.81008 29.1597C8.35008 28.6997 8.35008 27.9497 8.81008 27.4897L10.0301 26.2697C9.71008 25.6597 9.45008 25.0197 9.24008 24.3597H7.51008C6.86008 24.3597 6.33008 23.8297 6.33008 23.1797V18.4697C6.33008 17.8197 6.86008 17.2897 7.51008 17.2897H9.24008C9.45008 16.6297 9.71008 15.9897 10.0301 15.3797L8.81008 14.1597C8.35008 13.6997 8.35008 12.9497 8.81008 12.4897L12.1401 9.15969C12.6001 8.69969 13.3501 8.69969 13.8101 9.15969L15.0301 10.3797C15.6401 10.0597 16.2801 9.79969 16.9401 9.58969V7.85969C16.9401 7.20969 17.4701 6.67969 18.1201 6.67969H22.8301C23.4801 6.67969 24.0101 7.20969 24.0101 7.85969V9.58969C24.6701 9.79969 25.3101 10.0597 25.9201 10.3797L27.1401 9.15969C27.6001 8.69969 28.3501 8.69969 28.8101 9.15969L32.1401 12.4897C32.6001 12.9497 32.6001 13.6997 32.1401 14.1597L30.9201 15.3797C31.2401 15.9897 31.5001 16.6297 31.7101 17.2897H33.4401C34.0901 17.2897 34.6201 17.8197 34.6201 18.4697V23.1797C34.6201 23.8297 34.0901 24.3597 33.4401 24.3597H31.7101C31.5001 25.0197 31.2401 25.6597 30.9201 26.2697L32.1401 27.4897C32.6001 27.9497 32.6001 28.6997 32.1401 29.1597L28.8101 32.4897C28.3501 32.9497 27.6001 32.9497 27.1401 32.4897L25.9201 31.2697C25.3101 31.5897 24.6701 31.8497 24.0101 32.0597V33.7897C24.0101 34.4397 23.4801 34.9697 22.8301 34.9697ZM19.3001 32.6097H21.6601V31.1597C21.6601 30.6097 22.0401 30.1297 22.5801 30.0097C23.6101 29.7797 24.6001 29.3697 25.4901 28.7997C25.9601 28.5097 26.5601 28.5697 26.9501 28.9597L27.9801 29.9897L29.6501 28.3197L28.6201 27.2897C28.2301 26.8997 28.1601 26.2897 28.4601 25.8297C29.0301 24.9397 29.4301 23.9497 29.6701 22.9197C29.7901 22.3797 30.2701 21.9997 30.8201 21.9997H32.2701V19.6397H30.8201C30.2701 19.6397 29.7901 19.2597 29.6701 18.7197C29.4401 17.6897 29.0301 16.6997 28.4601 15.8097C28.1701 15.3397 28.2301 14.7397 28.6201 14.3497L29.6501 13.3197L27.9801 11.6497L26.9501 12.6797C26.5601 13.0697 25.9501 13.1397 25.4901 12.8397C24.6001 12.2697 23.6101 11.8697 22.5801 11.6297C22.0401 11.5097 21.6601 11.0297 21.6601 10.4797V9.02969H19.3001V10.4797C19.3001 11.0297 18.9201 11.5097 18.3801 11.6297C17.3501 11.8597 16.3601 12.2697 15.4701 12.8397C15.0001 13.1297 14.4001 13.0697 14.0101 12.6797L12.9801 11.6497L11.3101 13.3197L12.3401 14.3497C12.7301 14.7397 12.8001 15.3497 12.5001 15.8097C11.9301 16.6997 11.5301 17.6897 11.2901 18.7197C11.1701 19.2597 10.6901 19.6397 10.1401 19.6397H8.69008V21.9997H10.1401C10.6901 21.9997 11.1701 22.3797 11.2901 22.9197C11.5201 23.9497 11.9301 24.9397 12.5001 25.8297C12.7901 26.2997 12.7301 26.8997 12.3401 27.2897L11.3101 28.3197L12.9801 29.9897L14.0101 28.9597C14.4001 28.5697 15.0101 28.4997 15.4701 28.7997C16.3601 29.3697 17.3501 29.7697 18.3801 30.0097C18.9201 30.1297 19.3001 30.6097 19.3001 31.1597V32.6097Z" fill="#F13C3C"/>
<path d="M20.4798 26.7302C17.2298 26.7302 14.5898 24.0902 14.5898 20.8402C14.5898 17.5902 17.2298 14.9502 20.4798 14.9502C23.7298 14.9502 26.3698 17.5902 26.3698 20.8402C26.3698 24.0902 23.7298 26.7202 20.4798 26.7302ZM20.4798 17.3102C18.5298 17.3102 16.9498 18.8902 16.9498 20.8402C16.9498 22.7902 18.5298 24.3702 20.4798 24.3702C22.4298 24.3702 24.0098 22.7902 24.0098 20.8402C24.0098 18.8902 22.4298 17.3102 20.4798 17.3102Z" fill="#F13C3C"/>
<path d="M21.6608 50.2803H19.3008V45.5703C19.3008 44.9203 19.8308 44.3903 20.4808 44.3903H22.2108C22.4208 43.7303 22.6808 43.0903 23.0008 42.4803L21.7808 41.2603C21.3208 40.8003 21.3208 40.0503 21.7808 39.5903L25.1108 36.2603C25.5708 35.8003 26.3208 35.8003 26.7808 36.2603L28.0008 37.4803C28.6108 37.1603 29.2508 36.9003 29.9108 36.6903V34.9603C29.9108 34.3103 30.4408 33.7803 31.0908 33.7803H35.8008V36.1403H32.2708V37.5903C32.2708 38.1403 31.8908 38.6203 31.3508 38.7403C30.3208 38.9703 29.3308 39.3803 28.4408 39.9503C27.9708 40.2403 27.3708 40.1803 26.9808 39.7903L25.9508 38.7603L24.2808 40.4303L25.3108 41.4603C25.7008 41.8503 25.7708 42.4603 25.4708 42.9203C24.9008 43.8103 24.5008 44.8003 24.2608 45.8303C24.1408 46.3703 23.6608 46.7503 23.1108 46.7503H21.6608V50.2803Z" fill="#F13C3C"/>
<path d="M29.8991 47.9203H27.5391C27.5391 44.6703 30.1791 42.0403 33.4291 42.0303V44.3903C31.4791 44.3903 29.8991 45.9703 29.8991 47.9203Z" fill="#F13C3C"/>
<path d="M54.6297 60.8805C47.4797 60.8805 41.6797 55.0805 41.6797 47.9305C41.6797 40.7805 47.4797 34.9805 54.6297 34.9805C61.7797 34.9805 67.5797 40.7805 67.5797 47.9305C67.5797 55.0805 61.7797 60.8705 54.6297 60.8805ZM54.6297 37.3305C48.7797 37.3305 44.0297 42.0705 44.0297 47.9305C44.0297 53.7905 48.7697 58.5305 54.6297 58.5305C60.4897 58.5305 65.2297 53.7905 65.2297 47.9305C65.2297 42.0805 60.4797 37.3405 54.6297 37.3305Z" fill="#F13C3C"/>
<path d="M52.2701 56.1698C51.9601 56.1698 51.6601 56.0498 51.4401 55.8198L45.5501 49.9298C45.0901 49.4698 45.0901 48.7198 45.5501 48.2598L49.0801 44.7298C49.5401 44.2698 50.2901 44.2698 50.7501 44.7298L52.2701 46.2498L58.5001 40.0198C58.9601 39.5598 59.7101 39.5598 60.1701 40.0198L63.7001 43.5498C64.1601 44.0098 64.1601 44.7598 63.7001 45.2198L53.1001 55.8198C52.8801 56.0398 52.5801 56.1598 52.2701 56.1698ZM48.0501 49.0998L52.2701 53.3198L61.2001 44.3898L59.3301 42.5198L53.1001 48.7498C52.6401 49.2098 51.8901 49.2098 51.4301 48.7498L49.9101 47.2298L48.0401 49.0998H48.0501Z" fill="black"/>
<path d="M68.7598 6.70996H71.1198V9.06996H68.7598V6.70996Z" fill="#F13C3C"/>
<path d="M51.0898 6.70996H66.3998V9.06996H51.0898V6.70996Z" fill="#F13C3C"/>
</svg>
