<svg width="40" height="40" viewBox="0 0 40 40" fill="none" xmlns="http://www.w3.org/2000/svg">
<g clip-path="url(#clip0_2768_254)">
<mask id="mask0_2768_254" style="mask-type:luminance" maskUnits="userSpaceOnUse" x="0" y="0" width="40" height="40">
<path d="M40 0H0V40H40V0Z" fill="white"/>
</mask>
<g mask="url(#mask0_2768_254)">
<path d="M32.5002 20.9541L27.5002 25.8341M18.3335 31.6674C14.7242 28.0945 11.1131 24.5233 7.50017 20.9541C6.67568 20.1518 6.02624 19.1874 5.59275 18.1218C5.15926 17.0562 4.95111 15.9123 4.9814 14.7623C5.0117 13.6123 5.27979 12.481 5.76878 11.4396C6.25777 10.3983 6.95707 9.46954 7.82265 8.71175C8.68824 7.95396 9.70136 7.3836 10.7982 7.03658C11.895 6.68957 13.0518 6.57342 14.1958 6.69545C15.3397 6.81748 16.446 7.17504 17.4449 7.74562C18.4439 8.31621 19.3139 9.08745 20.0002 10.0108C20.6894 9.09415 21.5604 8.32965 22.5587 7.76512C23.5569 7.20059 24.661 6.8482 25.8017 6.72998C26.9424 6.61176 28.0953 6.73028 29.1881 7.0781C30.2809 7.42592 31.2902 7.99557 32.1527 8.75139C33.0153 9.5072 33.7125 10.4329 34.2009 11.4706C34.6892 12.5083 34.9581 13.6356 34.9907 14.7819C35.0233 15.9283 34.8189 17.0691 34.3904 18.1328C33.9618 19.1966 33.3183 20.1605 32.5002 20.9641" stroke="black" stroke-width="2" stroke-linecap="round" stroke-linejoin="round"/>
<path d="M25 31.6673L28.3333 35.0006L35 28.334" stroke="#F13C3C" stroke-width="2" stroke-linecap="round" stroke-linejoin="round"/>
</g>
</g>
<defs>
<clipPath id="clip0_2768_254">
<rect width="40" height="40" fill="white"/>
</clipPath>
</defs>
</svg>
