<svg width="270" height="236" viewBox="0 0 270 236" fill="none" xmlns="http://www.w3.org/2000/svg">
<path d="M5.588 17.6052V48.4932H3.608V17.6052H5.588ZM39.3343 48.4932H37.3543L19.2263 20.8612V48.4932H17.2463V17.6492H19.2263L37.3543 45.1932V17.6492H39.3343V48.4932ZM59.6619 17.6052C64.8833 17.6052 68.9019 18.9692 71.7179 21.6972C74.5633 24.4252 75.9859 28.2238 75.9859 33.0932C75.9859 37.9625 74.5633 41.7465 71.7179 44.4452C68.9019 47.1438 64.8833 48.4932 59.6619 48.4932H50.9939V17.6052H59.6619ZM59.6619 46.8212C64.3259 46.8212 67.8753 45.6185 70.3099 43.2132C72.7446 40.7785 73.9619 37.4052 73.9619 33.0932C73.9619 28.7518 72.7446 25.3638 70.3099 22.9292C67.8753 20.4945 64.3259 19.2772 59.6619 19.2772H52.9739V46.8212H59.6619ZM88.3544 17.6052V48.4932H86.3744V17.6052H88.3544ZM117.525 40.5732H102.873L99.9247 48.4932H97.7687L109.121 18.3092H111.321L122.629 48.4932H120.473L117.525 40.5732ZM116.909 38.9012L110.221 20.9052L103.489 38.9012H116.909Z" fill="white"/>
<path d="M211.753 212.743H118.484" stroke="white" stroke-linecap="round" stroke-linejoin="round"/>
<path d="M3.4082 224.147C3.57995 210.506 3.56235 196.859 3.58604 183.221C3.60578 172.83 3.59985 162.423 3.42218 152.026C3.35901 148.258 3.44574 148.302 7.43731 148.635C8.75994 148.746 10.1202 148.351 11.4606 148.349C33.8269 148.329 56.193 148.329 78.5593 148.349C80.4603 148.349 82.4069 147.771 84.5981 149.042V172.153" stroke="white" stroke-linecap="round" stroke-linejoin="round"/>
<path d="M6.09325 147.665C5.94526 145.836 6.22454 143.999 6.90871 142.296C27.7884 142.296 48.8141 142.342 69.838 142.208C71.4567 142.198 73.8551 143.971 74.7158 141.57C75.0883 139.923 75.0635 138.21 74.643 136.575C74.2107 134.191 75.2885 131.674 74.5028 128.874C68.9477 128.874 63.3534 128.874 57.7588 128.874C57.1069 128.984 56.439 128.952 55.8002 128.782C55.1614 128.612 54.5661 128.307 54.0551 127.887C50.2392 124.082 45.3063 124.754 40.6554 124.999C39.1456 125.164 37.6728 125.574 36.2947 126.213C35.4419 126.578 34.364 126.868 34.6088 128.209" stroke="white" stroke-linecap="round" stroke-linejoin="round"/>
<path d="M78.5581 196.303V219.281H64.4668V173.322H78.5581V195.633" stroke="white" stroke-linecap="round" stroke-linejoin="round"/>
<path d="M85.2674 224.148C85.4312 216.278 86.4755 208.481 87.1388 200.652C87.7091 196.881 87.9848 193.072 87.9625 189.258C87.6994 187.758 88.0381 186.215 88.9056 184.963C87.2561 182.365 85.9176 179.582 84.918 176.671H115.159C115.625 178.207 114.543 179.283 114.02 180.132C113.016 181.851 112.377 183.759 112.143 185.736C111.91 187.713 112.087 189.718 112.664 191.623C113.041 194.4 113.273 197.194 113.359 199.995C114.089 206.562 114.379 213.178 114.764 219.778C114.851 221.271 115.949 222.576 115.463 224.138" stroke="white" stroke-linecap="round" stroke-linejoin="round"/>
<path d="M9.78001 183.893C9.61988 184.893 9.51291 185.901 9.46 186.912C9.43499 196.865 9.43499 206.817 9.46 216.769C9.46 217.545 9.08872 218.418 9.89809 219.285H24.0327V173.494H9.43831V183.222" stroke="white" stroke-linecap="round" stroke-linejoin="round"/>
<path d="M106.74 118.479C106.963 118.256 107.307 118.07 107.394 117.801C108.628 113.953 108.549 114.001 104.391 114.072C101.258 114.329 98.1066 114.241 94.9926 113.811C94.449 113.677 93.8789 113.697 93.3463 113.87C92.8137 114.043 92.34 114.361 91.9785 114.789C92.8629 116.188 92.6375 118.185 94.1338 118.982H106.571C107.196 126.183 107.81 133.234 108.424 140.284" stroke="white" stroke-linecap="round" stroke-linejoin="round"/>
<path d="M53.7319 128.542C47.815 128.979 41.878 129.083 35.9494 128.854C28.5683 128.953 21.1854 128.878 13.4707 128.878V141.627" stroke="white" stroke-linecap="round" stroke-linejoin="round"/>
<path d="M193.971 151.014C193.131 151.422 192.22 151.661 191.288 151.716C182.677 151.661 174.066 151.693 165.455 151.671C164.776 151.618 164.103 151.51 163.441 151.349" stroke="white" stroke-linecap="round" stroke-linejoin="round"/>
<path d="M111.439 175.841C111.059 174.758 110.823 173.63 110.736 172.485C110.354 165.324 109.911 158.168 109.407 151.015C109.133 147.187 109.042 147.192 111.656 141.117H89.4612C89.2352 141.693 89.1708 142.319 89.2752 142.928C89.3796 143.538 89.6488 144.107 90.0536 144.574C92.073 147.536 91.5064 150.652 90.9003 153.684C90.4825 156.695 90.2377 159.728 90.1663 162.767C89.5628 167.096 89.2684 171.463 89.2858 175.833" stroke="white" stroke-linecap="round" stroke-linejoin="round"/>
<path d="M86.2752 158.397H1.05859" stroke="white" stroke-linecap="round" stroke-linejoin="round"/>
<path d="M125.193 167.12C123.942 168.875 123.332 171.007 123.466 173.158C123.578 183.668 123.521 194.18 123.507 204.692C123.668 205.82 123.555 206.971 123.18 208.048" stroke="white" stroke-linecap="round" stroke-linejoin="round"/>
<path d="M223.83 163.095C222.713 163.166 221.591 163.158 220.475 163.071C215.239 162.317 212.1 165.318 209.42 169.138C208.907 169.933 208.66 170.871 208.717 171.816C208.752 183.332 208.735 194.851 208.753 206.368C208.807 206.936 208.914 207.497 209.074 208.044" stroke="white" stroke-linecap="round" stroke-linejoin="round"/>
<path d="M157.404 163.767C154.097 168.493 156.002 173.836 155.824 178.867C155.483 188.583 155.725 198.319 155.725 208.049" stroke="white" stroke-linecap="round" stroke-linejoin="round"/>
<path d="M143.311 163.767C143.191 166.057 145.501 166.776 146.493 168.361C147.301 169.584 147.714 171.025 147.678 172.49C147.678 183.224 147.678 193.959 147.678 204.694C147.518 205.824 147.631 206.975 148.007 208.051" stroke="white" stroke-linecap="round" stroke-linejoin="round"/>
<path d="M176.862 157.054C176.246 156.245 175.357 156.383 174.512 156.383H156.023C155.877 157.038 155.678 157.41 155.745 157.72C156.16 159.627 154.448 162.531 157.109 163.272C159.549 163.951 159.823 160.581 161.926 159.564C165.084 162.754 168.924 165.967 167.848 171.821C167.694 173.38 167.679 174.949 167.805 176.51" stroke="white" stroke-linecap="round" stroke-linejoin="round"/>
<path d="M135.595 168.461C135.595 180.538 135.595 192.615 135.595 204.692C135.756 205.821 135.643 206.972 135.268 208.048" stroke="white" stroke-linecap="round" stroke-linejoin="round"/>
<path d="M201.019 166.785C200.172 172.697 200.821 178.632 200.714 184.565C200.582 192.389 200.681 200.218 200.681 208.047" stroke="white" stroke-linecap="round" stroke-linejoin="round"/>
<path d="M172.499 181.879C172.499 189.483 172.499 197.087 172.499 204.689C172.659 205.818 172.547 206.969 172.172 208.046" stroke="white" stroke-linecap="round" stroke-linejoin="round"/>
<path d="M196.656 181.879C196.656 189.483 196.656 197.087 196.656 204.689C196.816 205.818 196.704 206.969 196.328 208.046" stroke="white" stroke-linecap="round" stroke-linejoin="round"/>
<path d="M183.905 181.879C183.905 189.483 183.905 197.087 183.905 204.689C183.745 205.818 183.857 206.969 184.233 208.046" stroke="white" stroke-linecap="round" stroke-linejoin="round"/>
<path d="M168.141 181.879V208.054" stroke="white" stroke-linecap="round" stroke-linejoin="round"/>
<path d="M188.268 181.879V208.054" stroke="white" stroke-linecap="round" stroke-linejoin="round"/>
<path d="M159.753 181.879C159.753 189.483 159.753 197.087 159.753 204.689C159.592 205.818 159.705 206.969 160.08 208.046" stroke="white" stroke-linecap="round" stroke-linejoin="round"/>
<path d="M89.293 184.562H111.436" stroke="white" stroke-linecap="round" stroke-linejoin="round"/>
<path d="M162.097 151.351C158.329 152.14 154.465 151.341 150.355 151.87V162.421" stroke="white" stroke-linecap="round" stroke-linejoin="round"/>
<path d="M206.047 162.423V151.874C202.047 151.374 198.299 152.091 194.641 151.353" stroke="white" stroke-linecap="round" stroke-linejoin="round"/>
<path d="M93.9916 119.483C93.7686 119.932 93.3501 120.378 93.3501 120.824C93.3501 127.34 92.4286 133.796 91.9785 140.282" stroke="white" stroke-linecap="round" stroke-linejoin="round"/>
<path d="M156.395 177.185H200.01" stroke="white" stroke-linecap="round" stroke-linejoin="round"/>
<path d="M167.805 166.114C171.03 163.419 174.589 161.093 176.885 157.411C176.994 157.155 177.176 156.937 177.408 156.784C177.639 156.63 177.911 156.549 178.189 156.549C178.467 156.549 178.739 156.63 178.971 156.784C179.202 156.937 179.384 157.155 179.493 157.411C181.124 160.617 184.197 162.382 186.687 164.659C187.358 165.182 187.888 165.865 188.226 166.646C188.565 167.427 188.702 168.281 188.625 169.129C188.522 171.585 188.599 174.047 188.599 176.507" stroke="white" stroke-linecap="round" stroke-linejoin="round"/>
<path d="M131.24 147.663C129.048 148.382 126.928 149.301 124.905 150.407C122.906 151.641 121.322 153.444 120.358 155.586C119.394 157.728 119.094 160.11 119.496 162.424" stroke="white" stroke-linecap="round" stroke-linejoin="round"/>
<path d="M30.2471 159.069C30.2471 163.877 30.2353 168.687 30.2471 173.495C30.2471 174.644 29.9272 175.882 30.9083 176.851" stroke="white" stroke-linecap="round" stroke-linejoin="round"/>
<path d="M245.301 171.48C238.377 170.742 231.431 171.342 224.5 171.144" stroke="white" stroke-linecap="round" stroke-linejoin="round"/>
<path d="M108.083 147.663H91.9785" stroke="white" stroke-linecap="round" stroke-linejoin="round"/>
<path d="M162.099 140.954C160.852 136.144 163.027 132.898 166.782 130.199C175.164 124.177 183.984 125.371 191.29 131.222C192.735 132.334 193.801 133.866 194.342 135.608C194.882 137.35 194.87 139.217 194.308 140.952" stroke="white" stroke-linecap="round" stroke-linejoin="round"/>
<path d="M200.344 165.444C201.299 162.536 200.328 159.629 200.851 156.31C193.409 156.735 186.456 155.586 179.543 157.059" stroke="white" stroke-linecap="round" stroke-linejoin="round"/>
<path d="M31.9223 183.557C24.9973 182.904 18.0547 183.263 11.1218 183.299C8.79043 183.311 6.38386 182.649 4.07617 183.557" stroke="white" stroke-linecap="round" stroke-linejoin="round"/>
<path d="M29.9107 195.971C22.4092 195.971 14.9255 195.955 7.43393 195.985C6.20211 195.985 4.97401 196.194 3.74219 196.305" stroke="white" stroke-linecap="round" stroke-linejoin="round"/>
<path d="M82.92 195.97C75.6514 195.97 68.3807 195.959 61.1122 195.984C60.1005 196.038 59.0922 196.144 58.0918 196.304" stroke="white" stroke-linecap="round" stroke-linejoin="round"/>
<path d="M58.0938 183.222H82.92" stroke="white" stroke-linecap="round" stroke-linejoin="round"/>
<path d="M234.901 159.404C234.253 159.884 233.579 160.329 232.883 160.735C227.506 163.527 225.034 167.468 226.353 173.863C226.933 176.684 225.863 179.867 226.515 182.886" stroke="white" stroke-linecap="round" stroke-linejoin="round"/>
<path d="M234.901 156.048C234.666 157.116 234.803 158.233 235.289 159.213C235.774 160.193 236.58 160.978 237.572 161.438C238.773 162.096 239.898 162.882 240.928 163.784C241.848 164.557 242.574 165.534 243.051 166.636C243.528 167.739 243.742 168.938 243.676 170.137C243.38 174.498 243.477 178.876 243.964 183.22" stroke="white" stroke-linecap="round" stroke-linejoin="round"/>
<path d="M193.97 136.928C189.834 137.126 185.678 136.533 181.555 137.258C180.66 137.416 180.238 136.545 179.543 136.257" stroke="white" stroke-linecap="round" stroke-linejoin="round"/>
<path d="M176.858 136.257C176.163 136.545 175.741 137.416 174.845 137.258C170.723 136.527 166.565 137.128 162.43 136.928" stroke="white" stroke-linecap="round" stroke-linejoin="round"/>
<path d="M211.754 208.717C205.042 208.605 198.33 208.323 191.618 208.427C183.787 208.559 175.958 208.461 168.127 208.508C159.517 208.559 150.906 208.625 142.292 208.706C134.352 208.779 126.412 208.721 118.473 208.721" stroke="white" stroke-linecap="round" stroke-linejoin="round"/>
<path d="M250.334 204.356C248.465 203.842 247.144 201.438 244.58 203.278C243.5 203.937 242.641 204.901 242.108 206.048C241.576 207.195 241.396 208.474 241.589 209.724C241.662 210.952 241.669 212.183 241.611 213.412" stroke="white" stroke-linecap="round" stroke-linejoin="round"/>
<path d="M228.861 213.415C228.861 211.513 228.843 209.612 228.861 207.713C228.812 207.068 228.898 206.42 229.112 205.81C229.326 205.2 229.664 204.641 230.105 204.168C230.546 203.696 231.08 203.319 231.674 203.063C232.267 202.807 232.907 202.676 233.553 202.68C234.713 202.904 235.779 203.472 236.612 204.31C237.445 205.148 238.007 206.217 238.224 207.379C238.347 209.385 238.25 211.403 238.25 213.415" stroke="white" stroke-linecap="round" stroke-linejoin="round"/>
<path d="M216.113 205.028C219.623 202.153 221.175 201.939 223.492 204.022C224 204.483 224.389 205.058 224.627 205.701C224.865 206.343 224.946 207.033 224.862 207.713C224.756 209.608 224.837 211.513 224.837 213.415" stroke="white" stroke-linecap="round" stroke-linejoin="round"/>
<path d="M218.128 193.28C218.128 191.268 218.035 189.248 218.156 187.244C218.287 186.363 218.08 185.466 217.577 184.731C217.074 183.996 216.312 183.479 215.443 183.283V224.144" stroke="white" stroke-linecap="round" stroke-linejoin="round"/>
<path d="M147.671 181.21H135.594" stroke="white" stroke-linecap="round" stroke-linejoin="round"/>
<path d="M103.396 84.9307C104.488 87.6238 104.074 90.5558 104.731 93.318C105.084 94.8028 103.794 96.7692 106.06 97.7268C106.22 97.7939 106.198 98.6114 106.06 99.0142C105.111 102.192 105.104 105.577 106.04 108.758C106.403 110.268 105.758 111.917 106.415 113.445" stroke="white" stroke-linecap="round" stroke-linejoin="round"/>
<path d="M104.728 97.0088C101.204 97.9387 97.4928 96.8469 93.7539 97.4767C94.8021 99.846 95.5841 101.364 94.8537 103.775C93.9437 106.776 94.439 110.202 94.3265 113.45" stroke="white" stroke-linecap="round" stroke-linejoin="round"/>
<path d="M161.091 144.979H147V162.423" stroke="white" stroke-linecap="round" stroke-linejoin="round"/>
<path d="M195.646 144.979H209.033C210.081 148.374 208.484 151.712 210.073 154.707" stroke="white" stroke-linecap="round" stroke-linejoin="round"/>
<path d="M118.484 181.543C120.123 180.118 122.115 180.818 123.846 180.951C127.531 181.328 131.246 181.299 134.924 180.864" stroke="white" stroke-linecap="round" stroke-linejoin="round"/>
<path d="M200.681 181.21C183.234 181.139 165.785 181.524 148.342 180.874" stroke="white" stroke-linecap="round" stroke-linejoin="round"/>
<path d="M96.6762 85.6025C95.1976 89.1683 96.7849 93.1053 95.334 96.6731" stroke="white" stroke-linecap="round" stroke-linejoin="round"/>
<path d="M146.329 154.708C143.68 151.154 139.797 149.416 135.93 147.663" stroke="white" stroke-linecap="round" stroke-linejoin="round"/>
<path d="M221.145 147.663C219.191 149.347 216.548 149.507 214.369 150.915C209.966 153.76 208.944 157.679 209.404 162.424" stroke="white" stroke-linecap="round" stroke-linejoin="round"/>
<path d="M134.922 213.415V224.15" stroke="white" stroke-linecap="round" stroke-linejoin="round"/>
<path d="M248.32 193.287C248.618 190.111 247.464 186.673 250.172 183.836C251.502 187.015 250.932 190.367 250.962 193.623C250.991 197.086 250.936 200.554 250.798 204.026C250.66 207.357 250.759 210.739 250.82 214.082C250.881 217.425 250.82 220.795 251.005 224.152" stroke="white" stroke-linecap="round" stroke-linejoin="round"/>
<path d="M247.987 184.565C247.598 183.987 247.032 183.552 246.373 183.325C245.715 183.099 245.001 183.092 244.339 183.307C243.57 183.694 242.948 184.321 242.569 185.094C242.189 185.867 242.072 186.742 242.236 187.587C242.363 189.484 242.379 191.387 242.284 193.286" stroke="white" stroke-linecap="round" stroke-linejoin="round"/>
<path d="M194.641 155.715C194.501 151.686 194.613 147.652 194.976 143.637C195.251 141.568 194.349 140.602 192.296 140.968C187.203 141.876 182.249 140.253 177.196 140.213C170.916 140.164 164.607 143.933 163.715 150.338C163.682 150.577 163.604 151.523 162.371 151.274C161.164 149.675 161.956 147.572 161.778 145.649C161.433 142.038 158.502 140.296 154.708 140.861C153.635 140.917 152.598 141.268 151.712 141.877C150.827 142.485 150.127 143.327 149.689 144.308" stroke="white" stroke-linecap="round" stroke-linejoin="round"/>
<path d="M186.926 141.625C189.559 144.032 192.37 146.306 193.3 150.012" stroke="white" stroke-linecap="round" stroke-linejoin="round"/>
<path d="M216.113 214.084H250.334" stroke="white" stroke-linecap="round" stroke-linejoin="round"/>
<path d="M155.723 162.759C151.508 163.657 147.209 163.059 142.966 163.243C138.542 163.44 134.024 163.316 129.555 163.09C129.117 163.046 128.678 163.157 128.315 163.405C127.951 163.653 127.687 164.021 127.569 164.445C126.779 166.905 124.872 166.864 122.844 166.8C120.61 166.731 118.371 166.785 116.133 166.785" stroke="white" stroke-linecap="round" stroke-linejoin="round"/>
<path d="M104.727 101.376H96.0039" stroke="white" stroke-linecap="round" stroke-linejoin="round"/>
<path d="M188.939 165.778L194.639 159.064C196.091 161.003 197.302 162.788 198.689 164.425C199.367 165.263 200.239 165.921 201.231 166.343C202.222 166.765 203.301 166.938 204.374 166.846C206.162 166.537 207.995 166.634 209.74 167.128" stroke="white" stroke-linecap="round" stroke-linejoin="round"/>
<path d="M155.052 167.121C152.283 166.576 149.433 166.576 146.664 167.121" stroke="white" stroke-linecap="round" stroke-linejoin="round"/>
<path d="M234.232 152.36C231.963 149.853 228.556 149.379 225.844 147.663" stroke="white" stroke-linecap="round" stroke-linejoin="round"/>
<path d="M115.463 172.151V163.036C119.605 162.924 123.751 163.056 127.878 163.43" stroke="white" stroke-linecap="round" stroke-linejoin="round"/>
<path d="M242.954 174.165C239.401 172.402 237.563 173.518 237.606 177.522C237.394 179.427 237.5 181.354 237.922 183.224" stroke="white" stroke-linecap="round" stroke-linejoin="round"/>
<path d="M218.127 184.898C219.86 183.887 221.412 181.871 223.565 184.503C223.794 184.793 223.964 185.125 224.064 185.481C224.164 185.836 224.192 186.208 224.147 186.574C224.197 188.809 224.165 191.047 224.165 193.288" stroke="white" stroke-linecap="round" stroke-linejoin="round"/>
<path d="M236.246 184.898C234.955 184.213 233.97 182.331 232.251 183.277C231.45 183.724 230.814 184.417 230.438 185.254C230.062 186.09 229.965 187.025 230.162 187.921C230.286 189.706 230.301 191.497 230.208 193.284" stroke="white" stroke-linecap="round" stroke-linejoin="round"/>
<path d="M241.946 184.564C241.557 183.987 240.99 183.552 240.332 183.326C239.674 183.099 238.96 183.092 238.298 183.307C237.529 183.693 236.907 184.321 236.528 185.094C236.148 185.866 236.031 186.742 236.195 187.587C236.322 189.484 236.338 191.387 236.243 193.285" stroke="white" stroke-linecap="round" stroke-linejoin="round"/>
<path d="M223.494 139.948V146.661" stroke="white" stroke-linecap="round" stroke-linejoin="round"/>
<path d="M133.247 139.948C133.581 142.393 134.299 144.884 132.24 146.993" stroke="white" stroke-linecap="round" stroke-linejoin="round"/>
<path d="M169.142 141.287C167.154 140.898 165.12 140.788 163.102 140.962C161.982 140.902 161.42 141.507 161.426 142.628" stroke="white" stroke-linecap="round" stroke-linejoin="round"/>
<path d="M200.681 137.264C200.598 139.205 200.563 140.832 203.354 141.076C204.18 141.202 204.947 141.58 205.55 142.159C206.153 142.738 206.561 143.49 206.719 144.31" stroke="white" stroke-linecap="round" stroke-linejoin="round"/>
<path d="M100.029 77.5508V83.5885" stroke="white" stroke-linecap="round" stroke-linejoin="round"/>
<path d="M130.561 163.767C131.009 164.327 131.42 164.922 131.907 165.439C135.53 169.259 137.494 168.847 139.953 163.767" stroke="white" stroke-linecap="round" stroke-linejoin="round"/>
<path d="M200.682 140.282L195.312 142.632" stroke="white" stroke-linecap="round" stroke-linejoin="round"/>
<path d="M180.887 126.194C181.134 125.698 181.259 125.149 181.25 124.595C181.24 124.04 181.097 123.496 180.833 123.008H175.572C175.308 123.496 175.166 124.04 175.157 124.595C175.147 125.149 175.272 125.698 175.519 126.194" stroke="white" stroke-linecap="round" stroke-linejoin="round"/>
<path d="M75.2031 142.294C75.8743 142.406 76.5416 142.568 77.2167 142.622C81.9111 142.989 81.9128 142.983 81.9128 147.662" stroke="white" stroke-linecap="round" stroke-linejoin="round"/>
<path d="M213.765 163.428C209.646 162.939 205.491 162.826 201.352 163.092" stroke="white" stroke-linecap="round" stroke-linejoin="round"/>
<path d="M201.352 180.874H212.424" stroke="white" stroke-linecap="round" stroke-linejoin="round"/>
<path d="M216.449 163.767C216.939 165.863 219.479 166.594 219.805 168.799" stroke="white" stroke-linecap="round" stroke-linejoin="round"/>
<path d="M224.502 184.899C226.403 182.196 228.304 183.122 230.205 184.899" stroke="white" stroke-linecap="round" stroke-linejoin="round"/>
<path d="M237.584 174.835C236.243 174.495 235.667 172.678 233.49 173.678C231.087 174.781 232.048 176.414 231.932 177.857C231.576 179.555 231.794 181.324 232.552 182.884" stroke="white" stroke-linecap="round" stroke-linejoin="round"/>
<path d="M222.487 166.785L219.467 167.121" stroke="white" stroke-linecap="round" stroke-linejoin="round"/>
<path d="M226.848 174.173C227.22 173.88 227.647 173.665 228.104 173.54C228.56 173.415 229.037 173.383 229.507 173.445C229.976 173.508 230.428 173.664 230.836 173.904C231.244 174.144 231.599 174.464 231.882 174.844" stroke="white" stroke-linecap="round" stroke-linejoin="round"/>
<path d="M178.201 116.465V122.503" stroke="white" stroke-linecap="round" stroke-linejoin="round"/>
</svg>
