<svg width="97" height="91" viewBox="0 0 97 91" fill="none" xmlns="http://www.w3.org/2000/svg">
<g clip-path="url(#clip0_3182_281)">
<path d="M1.408 70.4727C1.59294 70.4728 1.77609 70.4365 1.94697 70.3658C2.11786 70.2951 2.27313 70.1914 2.4039 70.0606C2.53467 69.9298 2.63838 69.7745 2.70909 69.6037C2.7798 69.4328 2.81613 69.2496 2.816 69.0647V54.5787H6.4C6.58494 54.5788 6.76809 54.5425 6.93897 54.4718C7.10986 54.4011 7.26513 54.2974 7.3959 54.1666C7.52667 54.0358 7.63038 53.8805 7.70109 53.7097C7.7718 53.5388 7.80813 53.3556 7.808 53.1707V40.8497H10.992C11.1773 40.8498 11.3608 40.8134 11.5319 40.7424C11.703 40.6714 11.8585 40.5674 11.9893 40.4362C12.1201 40.305 12.2238 40.1492 12.2942 39.9779C12.3647 39.8065 12.4007 39.623 12.4 39.4377V11.4697L20.235 19.3047V33.2617C20.2349 33.4466 20.2712 33.6298 20.3419 33.8007C20.4126 33.9715 20.5163 34.1268 20.6471 34.2576C20.7779 34.3884 20.9331 34.4921 21.104 34.5628C21.2749 34.6335 21.4581 34.6698 21.643 34.6697H26.743C26.9279 34.6698 27.1111 34.6335 27.282 34.5628C27.4529 34.4921 27.6081 34.3884 27.7389 34.2576C27.8697 34.1268 27.9734 33.9715 28.0441 33.8007C28.1148 33.6298 28.1511 33.4466 28.151 33.2617V28.5497H30.856C31.0409 28.5498 31.2241 28.5135 31.395 28.4428C31.5659 28.3721 31.7211 28.2684 31.8519 28.1376C31.9827 28.0068 32.0864 27.8515 32.1571 27.6807C32.2278 27.5098 32.2641 27.3266 32.264 27.1417V7.58668H35.235C35.6018 7.57691 35.9503 7.42433 36.2063 7.16144C36.4622 6.89854 36.6055 6.54611 36.6055 6.17918C36.6055 5.81226 36.4622 5.45982 36.2063 5.19693C35.9503 4.93404 35.6018 4.78146 35.235 4.77168H32.041C31.3535 4.77327 30.6946 5.04707 30.2085 5.5332C29.7224 6.01933 29.4486 6.6782 29.447 7.36568V25.7357H27.928C27.2405 25.7373 26.5816 26.0111 26.0955 26.4972C25.6094 26.9833 25.3356 27.6422 25.334 28.3297V31.8497H23.052V12.0617C23.057 11.8737 23.0243 11.6866 22.9558 11.5115C22.8874 11.3363 22.7845 11.1767 22.6533 11.0419C22.5221 10.9072 22.3652 10.8001 22.192 10.727C22.0187 10.6538 21.8326 10.6162 21.6445 10.6162C21.4564 10.6162 21.2703 10.6538 21.097 10.727C20.9238 10.8001 20.7669 10.9072 20.6357 11.0419C20.5045 11.1767 20.4016 11.3363 20.3332 11.5115C20.2647 11.6866 20.232 11.8737 20.237 12.0617V15.3237L12.4 7.48868V2.68868C12.405 2.50069 12.3723 2.3136 12.3038 2.13845C12.2354 1.9633 12.1325 1.80365 12.0013 1.66891C11.8701 1.53417 11.7132 1.42708 11.54 1.35396C11.3667 1.28084 11.1806 1.24316 10.9925 1.24316C10.8044 1.24316 10.6183 1.28084 10.445 1.35396C10.2718 1.42708 10.1149 1.53417 9.98372 1.66891C9.85252 1.80365 9.74965 1.9633 9.68117 2.13845C9.61269 2.3136 9.57999 2.50069 9.585 2.68868V38.0297H7.585C6.89752 38.0313 6.23864 38.3051 5.75252 38.7912C5.26639 39.2773 4.99259 39.9362 4.991 40.6237V51.7637H2.591C1.90404 51.7661 1.24593 52.0402 0.760452 52.5263C0.274974 53.0123 0.00158156 53.6707 3.55651e-07 54.3577V69.0647C-0.000131133 69.2496 0.0361981 69.4328 0.10691 69.6037C0.177622 69.7745 0.28133 69.9298 0.412101 70.0606C0.542872 70.1914 0.698141 70.2951 0.869027 70.3658C1.03991 70.4365 1.22306 70.4728 1.408 70.4727Z" fill="black"/>
<path d="M93.492 44.477H89.968V34.66C89.973 34.472 89.9403 34.2849 89.8718 34.1098C89.8034 33.9346 89.7005 33.775 89.5693 33.6402C89.4381 33.5055 89.2812 33.3984 89.108 33.3253C88.9347 33.2522 88.7486 33.2145 88.5605 33.2145C88.3724 33.2145 88.1863 33.2522 88.013 33.3253C87.8398 33.3984 87.6829 33.5055 87.5517 33.6402C87.4205 33.775 87.3176 33.9346 87.2492 34.1098C87.1807 34.2849 87.148 34.472 87.153 34.66V45.884C87.1529 46.0689 87.1892 46.2519 87.2598 46.4227C87.3305 46.5936 87.4341 46.7488 87.5648 46.8795C87.6954 47.0103 87.8506 47.114 88.0213 47.1848C88.1921 47.2556 88.3751 47.292 88.56 47.292H93.27V87.983H79.937C79.9753 87.7789 79.9951 87.5717 79.996 87.364V78.512H80.996C81.3312 78.5109 81.6626 78.4403 81.9691 78.3045C82.2756 78.1687 82.5506 77.9707 82.7766 77.7231C83.0026 77.4754 83.1747 77.1836 83.282 76.866C83.3893 76.5484 83.4295 76.212 83.4 75.878L82.7 67.943C82.5998 66.7527 82.1703 65.6139 81.4596 64.6538C80.7489 63.6938 79.7851 62.9504 78.676 62.507C79.4547 61.5767 79.9593 60.4483 80.1337 59.2477C80.308 58.0472 80.1452 56.8218 79.6633 55.7085C79.1814 54.5951 78.3995 53.6377 77.4049 52.9431C76.4103 52.2485 75.2422 51.844 74.031 51.775C73.732 50.8897 73.2452 50.0795 72.604 49.3999C71.9628 48.7202 71.1823 48.1871 70.316 47.837C71.4165 46.5277 71.9597 44.8389 71.8288 43.1335C71.6979 41.4281 70.9034 39.8421 69.616 38.716V2.812H77.389V9.046C77.3889 9.23094 77.4252 9.41409 77.4959 9.58497C77.5666 9.75586 77.6703 9.91113 77.8011 10.0419C77.9319 10.1727 78.0871 10.2764 78.258 10.3471C78.4289 10.4178 78.6121 10.4541 78.797 10.454H83.947V15.612C83.9469 15.7969 83.9832 15.9801 84.0539 16.151C84.1246 16.3219 84.2283 16.4771 84.3591 16.6079C84.4899 16.7387 84.6451 16.8424 84.816 16.9131C84.9869 16.9838 85.1701 17.0201 85.355 17.02H87.155V27.985C87.1648 28.3518 87.3174 28.7003 87.5802 28.9563C87.8431 29.2122 88.1956 29.3555 88.5625 29.3555C88.9294 29.3555 89.2819 29.2122 89.5448 28.9563C89.8076 28.7003 89.9602 28.3518 89.97 27.985V16.798C89.9682 16.1107 89.6942 15.4521 89.2081 14.9662C88.722 14.4803 88.0633 14.2066 87.376 14.205H86.759V10.237C86.759 9.54848 86.4859 8.88806 85.9996 8.40064C85.5133 7.91322 84.8535 7.63859 84.165 7.637H80.2V2.594C80.1984 1.90651 79.9246 1.24764 79.4385 0.761516C78.9524 0.275389 78.2935 0.00158468 77.606 0H69.391C68.704 0.00237615 68.0459 0.27653 67.5605 0.76257C67.075 1.24861 66.8016 1.90703 66.8 2.594V37.264C66.047 37.085 65.2679 37.043 64.5 37.14V26.812C64.499 26.1241 64.2253 25.4646 63.739 24.978L58.99 20.231C58.7496 19.991 58.4642 19.8009 58.1502 19.6713C57.8362 19.5418 57.4997 19.4754 57.16 19.476H55.138V13.312C55.143 13.124 55.1103 12.9369 55.0418 12.7618C54.9734 12.5866 54.8705 12.427 54.7393 12.2922C54.6081 12.1575 54.4512 12.0504 54.278 11.9773C54.1047 11.9042 53.9186 11.8665 53.7305 11.8665C53.5424 11.8665 53.3563 11.9042 53.183 11.9773C53.0098 12.0504 52.8529 12.1575 52.7217 12.2922C52.5905 12.427 52.4876 12.5866 52.4192 12.7618C52.3507 12.9369 52.318 13.124 52.323 13.312V19.482C51.654 19.5095 51.0215 19.7941 50.5571 20.2764C50.0927 20.7586 49.8323 21.4015 49.83 22.071V37.212C49.0466 37.0596 48.2418 37.0531 47.456 37.193V7.366C47.4544 6.67748 47.1798 6.0177 46.6924 5.5314C46.2049 5.0451 45.5445 4.772 44.856 4.772H41.909C41.721 4.76699 41.5339 4.79969 41.3588 4.86817C41.1836 4.93665 41.024 5.03952 40.8892 5.17071C40.7545 5.30191 40.6474 5.45877 40.5743 5.63203C40.5012 5.80529 40.4635 5.99144 40.4635 6.1795C40.4635 6.36756 40.5012 6.55371 40.5743 6.72697C40.6474 6.90023 40.7545 7.05709 40.8892 7.18828C41.024 7.31948 41.1836 7.42235 41.3588 7.49083C41.5339 7.55931 41.721 7.59201 41.909 7.587H44.641V38.417C43.9332 38.9514 43.3415 39.6242 42.902 40.3945C42.4625 41.1649 42.1843 42.0166 42.0845 42.8979C41.9847 43.7791 42.0653 44.6715 42.3213 45.5206C42.5774 46.3697 43.0036 47.1579 43.574 47.837C42.1325 48.4198 40.948 49.5007 40.236 50.883C39.5239 49.5015 38.3404 48.4208 36.9 47.837C37.7012 46.8822 38.2133 45.7185 38.376 44.4827C38.5387 43.2469 38.3453 41.9904 37.8185 40.8607C37.2918 39.731 36.4535 38.7752 35.4023 38.1054C34.351 37.4357 33.1305 37.08 31.884 37.08C30.6375 37.08 29.417 37.4357 28.3657 38.1054C27.3145 38.7752 26.4762 39.731 25.9495 40.8607C25.4227 41.9904 25.2293 43.2469 25.392 44.4827C25.5547 45.7185 26.0668 46.8822 26.868 47.837C26.0015 48.187 25.2209 48.7201 24.5795 49.3998C23.9381 50.0794 23.4512 50.8897 23.152 51.775C21.9409 51.844 20.7729 52.2484 19.7783 52.9429C18.7838 53.6375 18.002 54.5949 17.5202 55.7081C17.0384 56.8214 16.8757 58.0467 17.0501 59.2472C17.2245 60.4476 17.7293 61.5759 18.508 62.506C17.399 62.9495 16.4352 63.6929 15.7245 64.6529C15.0139 65.613 14.5843 66.7518 14.484 67.942L13.778 75.878C13.7485 76.2124 13.7888 76.5492 13.8964 76.8672C14.004 77.1851 14.1766 77.4772 14.4031 77.7249C14.6296 77.9726 14.9052 78.1705 15.2123 78.306C15.5194 78.4415 15.8513 78.5116 16.187 78.512H17.187V87.362C17.1878 87.5697 17.2076 87.7769 17.246 87.981H2.815V75.74C2.80522 75.3732 2.65264 75.0247 2.38975 74.7687C2.12686 74.5128 1.77443 74.3695 1.4075 74.3695C1.04057 74.3695 0.68814 74.5128 0.425249 74.7687C0.162358 75.0247 0.00977814 75.3732 3.55651e-07 75.74V89.391C-0.000131133 89.5759 0.0361981 89.7591 0.10691 89.93C0.177622 90.1009 0.28133 90.2561 0.412101 90.3869C0.542872 90.5177 0.698141 90.6214 0.869027 90.6921C1.03991 90.7628 1.22306 90.7991 1.408 90.799H94.678C94.8629 90.7991 95.0461 90.7628 95.217 90.6921C95.3879 90.6214 95.5431 90.5177 95.6739 90.3869C95.8047 90.2561 95.9084 90.1009 95.9791 89.93C96.0498 89.7591 96.0861 89.5759 96.086 89.391V47.071C96.0844 46.3835 95.8106 45.7246 95.3245 45.2385C94.8384 44.7524 94.1795 44.4786 93.492 44.477ZM79.893 68.192L80.561 75.699H78.588C78.4031 75.6989 78.2199 75.7352 78.049 75.8059C77.8781 75.8766 77.7229 75.9803 77.5921 76.1111C77.4613 76.2419 77.3576 76.3971 77.2869 76.568C77.2162 76.7389 77.1799 76.9221 77.18 77.107V87.365C77.18 87.5292 77.1148 87.6866 76.9987 87.8027C76.8826 87.9188 76.7252 87.984 76.561 87.984H75.061V77.012C75.066 76.824 75.0333 76.6369 74.9648 76.4618C74.8963 76.2866 74.7935 76.127 74.6623 75.9922C74.5311 75.8575 74.3742 75.7504 74.201 75.6773C74.0277 75.6042 73.8416 75.5665 73.6535 75.5665C73.4654 75.5665 73.2793 75.6042 73.106 75.6773C72.9328 75.7504 72.7759 75.8575 72.6447 75.9922C72.5135 76.127 72.4107 76.2866 72.3422 76.4618C72.2737 76.6369 72.241 76.824 72.246 77.012V87.983H70.746C70.5818 87.983 70.4244 87.9178 70.3083 87.8017C70.1922 87.6856 70.127 87.5282 70.127 87.364V77.106C70.1271 76.9211 70.0908 76.7379 70.0201 76.567C69.9494 76.3961 69.8457 76.2409 69.7149 76.1101C69.5841 75.9793 69.4289 75.8756 69.258 75.8049C69.0871 75.7342 68.9039 75.6979 68.719 75.698H66.742L67.41 68.191C67.4869 67.2792 67.9046 66.4298 68.5797 65.8121C69.2549 65.1944 70.1379 64.8538 71.053 64.858H76.253C77.1677 64.8545 78.0502 65.1957 78.7247 65.8135C79.3992 66.4313 79.8163 67.2805 79.893 68.192ZM56.943 75.604C56.7581 75.604 56.5751 75.6404 56.4043 75.7112C56.2336 75.782 56.0784 75.8857 55.9477 76.0165C55.8171 76.1472 55.7135 76.3024 55.6428 76.4733C55.5722 76.6441 55.5359 76.8271 55.536 77.012V87.983H54.036C53.8718 87.983 53.7144 87.9178 53.5983 87.8017C53.4822 87.6856 53.417 87.5282 53.417 87.364V77.106C53.4171 76.9211 53.3808 76.7379 53.3101 76.567C53.2394 76.3961 53.1357 76.2409 53.0049 76.1101C52.8741 75.9793 52.7189 75.8756 52.548 75.8049C52.3771 75.7342 52.1939 75.6979 52.009 75.698H50.034L50.7 68.192C50.7769 67.2802 51.1946 66.4308 51.8697 65.8131C52.5449 65.1954 53.4279 64.8548 54.343 64.859H59.543C60.4581 64.8548 61.3411 65.1954 62.0163 65.8131C62.6914 66.4308 63.1091 67.2802 63.186 68.192L63.854 75.699H61.88C61.6951 75.6989 61.5119 75.7352 61.341 75.8059C61.1701 75.8766 61.0149 75.9803 60.8841 76.1111C60.7533 76.2419 60.6496 76.3971 60.5789 76.568C60.5082 76.7389 60.4719 76.9221 60.472 77.107V87.365C60.472 87.5292 60.4068 87.6866 60.2907 87.8027C60.1746 87.9188 60.0172 87.984 59.853 87.984H58.353V77.012C58.3531 76.827 58.3168 76.6438 58.246 76.4728C58.1752 76.3019 58.0714 76.1465 57.9405 76.0157C57.8097 75.885 57.6543 75.7813 57.4833 75.7106C57.3123 75.64 57.128 75.6037 56.943 75.604ZM40.235 75.604C40.0501 75.604 39.8671 75.6404 39.6963 75.7112C39.5256 75.782 39.3704 75.8857 39.2397 76.0165C39.1091 76.1472 39.0055 76.3024 38.9348 76.4733C38.8642 76.6441 38.8279 76.8271 38.828 77.012V87.983H37.328C37.1638 87.983 37.0064 87.9178 36.8903 87.8017C36.7742 87.6856 36.709 87.5282 36.709 87.364V77.106C36.709 76.9211 36.6725 76.7379 36.6017 76.5671C36.5309 76.3963 36.4271 76.2411 36.2962 76.1104C36.1653 75.9797 36.01 75.8761 35.8391 75.8055C35.6681 75.7349 35.4849 75.6987 35.3 75.699H33.326L33.994 68.192C34.0709 67.2802 34.4886 66.4308 35.1637 65.8131C35.8389 65.1954 36.7219 64.8548 37.637 64.859H42.837C43.7521 64.8548 44.6351 65.1954 45.3103 65.8131C45.9854 66.4308 46.4031 67.2802 46.48 68.192L47.148 75.699H45.172C44.9871 75.6989 44.8039 75.7352 44.633 75.8059C44.4621 75.8766 44.3069 75.9803 44.1761 76.1111C44.0453 76.2419 43.9416 76.3971 43.8709 76.568C43.8002 76.7389 43.7639 76.9221 43.764 77.107V87.365C43.764 87.5292 43.6988 87.6866 43.5827 87.8027C43.4666 87.9188 43.3092 87.984 43.145 87.984H41.645V77.012C41.6451 76.827 41.6088 76.6438 41.538 76.4728C41.4672 76.3019 41.3634 76.1465 41.2325 76.0157C41.1017 75.885 40.9463 75.7813 40.7753 75.7106C40.6043 75.64 40.42 75.6037 40.235 75.604ZM30.869 78.512C31.219 78.5111 31.5646 78.4343 31.882 78.287C32.2009 78.4351 32.5483 78.5119 32.9 78.512H33.9V87.362C33.9008 87.5697 33.9206 87.7769 33.959 87.981H29.813C29.8513 87.7769 29.8711 87.5697 29.872 87.362V78.512H30.869ZM40.236 54.577C40.9741 54.5776 41.6955 54.797 42.3089 55.2074C42.9224 55.6179 43.4004 56.201 43.6825 56.8831C43.9647 57.5651 44.0383 58.3155 43.8941 59.0394C43.7498 59.7633 43.3943 60.4281 42.8723 60.95C42.3503 61.4718 41.6853 61.8272 40.9614 61.9712C40.2375 62.1153 39.4871 62.0415 38.8051 61.7591C38.1232 61.4768 37.5402 60.9986 37.1299 60.3851C36.7196 59.7715 36.5004 59.0501 36.5 58.312C36.5011 57.3218 36.8951 56.3724 37.5956 55.6725C38.2961 54.9726 39.2458 54.5793 40.236 54.579V54.577ZM46.58 87.362V78.512H47.58C47.93 78.5112 48.2756 78.4344 48.593 78.287C48.9086 78.4336 49.2521 78.5103 49.6 78.512H50.6V87.362C50.6008 87.5697 50.6206 87.7769 50.659 87.981H46.521C46.5593 87.7775 46.5791 87.571 46.58 87.364V87.362ZM56.944 54.579C57.6823 54.579 58.4041 54.7979 59.0179 55.2081C59.6318 55.6183 60.1103 56.2013 60.3928 56.8834C60.6754 57.5656 60.7493 58.3161 60.6053 59.0403C60.4612 59.7644 60.1057 60.4296 59.5836 60.9516C59.0616 61.4737 58.3964 61.8292 57.6723 61.9733C56.9481 62.1173 56.1976 62.0434 55.5154 61.7608C54.8333 61.4783 54.2503 60.9998 53.8401 60.3859C53.4299 59.7721 53.211 59.0503 53.211 58.312C53.2121 57.3223 53.6057 56.3734 54.3055 55.6735C55.0054 54.9737 55.9543 54.5801 56.944 54.579ZM63.288 87.364V78.512H64.288C64.638 78.5112 64.9836 78.4344 65.301 78.287C65.6184 78.4344 65.964 78.5112 66.314 78.512H67.314V87.362C67.3148 87.5697 67.3346 87.7769 67.373 87.981H63.229C63.267 87.7775 63.2874 87.571 63.288 87.364ZM77.384 58.312C77.384 59.0503 77.1651 59.7721 76.7549 60.3859C76.3447 60.9998 75.7617 61.4783 75.0796 61.7608C74.3974 62.0434 73.6469 62.1173 72.9227 61.9733C72.1986 61.8292 71.5334 61.4737 71.0114 60.9516C70.4893 60.4296 70.1338 59.7644 69.9897 59.0403C69.8457 58.3161 69.9196 57.5656 70.2022 56.8834C70.4847 56.2013 70.9632 55.6183 71.5771 55.2081C72.1909 54.7979 72.9127 54.579 73.651 54.579C74.6407 54.5801 75.5896 54.9737 76.2895 55.6735C76.9893 56.3734 77.3829 57.3223 77.384 58.312ZM71.184 52.249C70.2285 52.6366 69.3781 53.2447 68.7024 54.0235C68.0266 54.8024 67.5446 55.73 67.2955 56.7306C67.0465 57.7313 67.0376 58.7766 67.2695 59.7813C67.5014 60.7861 67.9676 61.7217 68.63 62.512C67.1908 63.0867 66.008 64.1625 65.3 65.541C64.591 64.1618 63.4067 63.0859 61.966 62.512C62.6285 61.7216 63.0948 60.7857 63.3267 59.7808C63.5586 58.7758 63.5496 57.7303 63.3003 56.7295C63.0511 55.7287 62.5688 54.801 61.8926 54.0221C61.2165 53.2433 60.3658 52.6354 59.41 52.248C59.7091 51.6295 60.1763 51.1077 60.7582 50.7423C61.34 50.3769 62.013 50.1828 62.7 50.182H67.9C68.5868 50.1829 69.2594 50.3771 69.8409 50.7425C70.4224 51.1079 70.8892 51.6296 71.188 52.248L71.184 52.249ZM69.03 43.635C69.0289 44.6227 68.6368 45.5699 67.9393 46.2692C67.2418 46.9686 66.2957 47.3633 65.308 47.367H65.286C64.5484 47.3648 63.8279 47.1441 63.2156 46.7327C62.6033 46.3213 62.1267 45.7377 61.8459 45.0556C61.5652 44.3734 61.4928 43.6234 61.6381 42.9002C61.7833 42.177 62.1396 41.513 62.662 40.9922C63.1843 40.4714 63.8493 40.117 64.573 39.9739C65.2966 39.8308 66.0464 39.9054 66.7277 40.1881C67.409 40.4709 67.9912 40.9493 68.4008 41.5628C68.8104 42.1762 69.03 42.8973 69.03 43.635ZM52.645 22.291H57.069L61.681 26.905V38.181C60.9126 38.6892 60.2603 39.3541 59.7668 40.1321C59.2734 40.9101 58.95 41.7836 58.8178 42.6954C58.6856 43.6071 58.7476 44.5365 58.9998 45.4226C59.252 46.3087 59.6886 47.1315 60.281 47.837C58.8396 48.42 57.655 49.5003 56.942 50.882C56.2295 49.5007 55.0456 48.4204 53.605 47.837C54.1683 47.1667 54.5912 46.39 54.8484 45.553C55.1056 44.7161 55.192 43.8359 55.1023 42.9649C55.0127 42.0939 54.7489 41.2498 54.3266 40.4828C53.9043 39.7158 53.3321 39.0415 52.644 38.5L52.645 22.291ZM52.323 43.635C52.322 44.6229 51.9297 45.5702 51.2319 46.2696C50.5342 46.969 49.5879 47.3636 48.6 47.367H48.578C47.8404 47.3648 47.1199 47.1441 46.5076 46.7327C45.8953 46.3213 45.4187 45.7377 45.1379 45.0556C44.8572 44.3734 44.7848 43.6234 44.9301 42.9002C45.0753 42.177 45.4316 41.513 45.954 40.9922C46.4763 40.4714 47.1413 40.117 47.865 39.9739C48.5886 39.8308 49.3384 39.9054 50.0197 40.1881C50.701 40.4709 51.2832 40.9493 51.6928 41.5628C52.1024 42.1762 52.321 42.8973 52.321 43.635H52.323ZM45.992 50.182H51.192C51.8788 50.1829 52.5514 50.3771 53.1329 50.7425C53.7144 51.1079 54.1812 51.6296 54.48 52.248C53.525 52.6356 52.6752 53.2435 51.9997 54.0221C51.3243 54.8006 50.8425 55.7277 50.5935 56.7279C50.3445 57.728 50.3354 58.7728 50.567 59.7772C50.7986 60.7815 51.2642 61.7169 51.926 62.507C50.4854 63.0823 49.3018 64.1597 48.594 65.54C47.8862 64.1597 46.7026 63.0823 45.262 62.507C45.9234 61.7162 46.3884 60.7804 46.6193 59.7757C46.8502 58.771 46.8404 57.7259 46.5906 56.7258C46.3409 55.7256 45.8582 54.7987 45.1821 54.0205C44.506 53.2423 43.6555 52.635 42.7 52.248C42.999 51.6297 43.4661 51.108 44.0477 50.7428C44.6294 50.3776 45.3022 50.1836 45.989 50.183L45.992 50.182ZM31.882 39.902C32.8718 39.9005 33.8216 40.2923 34.5225 40.9912C35.2235 41.69 35.618 42.6387 35.6195 43.6285C35.621 44.6183 35.2292 45.5681 34.5303 46.269C33.8315 46.9699 32.8828 47.3645 31.893 47.366H31.871C30.8812 47.3645 29.9325 46.9699 29.2337 46.269C28.5348 45.5681 28.143 44.6183 28.1445 43.6285C28.146 42.6387 28.5405 41.69 29.2415 40.9912C29.9424 40.2923 30.8922 39.9005 31.882 39.902ZM29.282 50.182H34.482C35.1688 50.1829 35.8414 50.3771 36.4229 50.7425C37.0044 51.1079 37.4712 51.6296 37.77 52.248C36.8142 52.6354 35.9635 53.2433 35.2874 54.0221C34.6112 54.801 34.1289 55.7287 33.8797 56.7295C33.6304 57.7303 33.6214 58.7758 33.8533 59.7808C34.0852 60.7857 34.5515 61.7216 35.214 62.512C33.7732 63.0875 32.5896 64.1653 31.882 65.546C31.1742 64.1651 29.9902 63.0873 28.549 62.512C29.2105 61.7217 29.676 60.7863 29.9073 59.7819C30.1387 58.7776 30.1295 57.7328 29.8804 56.7327C29.6313 55.7327 29.1495 54.8056 28.4741 54.0271C27.7987 53.2486 26.9489 52.6407 25.994 52.253C26.2934 51.6347 26.7606 51.1132 27.3425 50.748C27.9243 50.3829 28.5971 50.1888 29.284 50.188L29.282 50.182ZM23.526 54.582C24.2647 54.5806 24.9873 54.7985 25.6022 55.2079C26.217 55.6174 26.6966 56.2001 26.9801 56.8823C27.2636 57.5644 27.3384 58.3154 27.1949 59.0401C27.0514 59.7647 26.6961 60.4306 26.174 60.9532C25.652 61.4759 24.9865 61.8318 24.262 61.9761C23.5375 62.1204 22.7865 62.0464 22.104 61.7636C21.4215 61.4808 20.8383 61.0019 20.4282 60.3875C20.018 59.7731 19.7994 59.0507 19.8 58.312C19.8011 57.3231 20.194 56.375 20.8928 55.6753C21.5915 54.9756 22.5391 54.5814 23.528 54.579L23.526 54.582ZM16.616 75.702L17.284 68.195C17.3609 67.2832 17.7786 66.4338 18.4537 65.8161C19.1289 65.1984 20.0119 64.8578 20.927 64.862H26.127C27.0421 64.8578 27.9251 65.1984 28.6003 65.8161C29.2754 66.4338 29.6931 67.2832 29.77 68.195L30.438 75.702H28.464C28.2791 75.7019 28.0959 75.7382 27.925 75.8089C27.7541 75.8796 27.5989 75.9833 27.4681 76.1141C27.3373 76.2449 27.2336 76.4001 27.1629 76.571C27.0922 76.7419 27.0559 76.9251 27.056 77.11V87.368C27.056 87.5322 26.9908 87.6896 26.8747 87.8057C26.7586 87.9218 26.6012 87.987 26.437 87.987H24.937V77.012C24.942 76.824 24.9093 76.6369 24.8408 76.4618C24.7724 76.2866 24.6695 76.127 24.5383 75.9922C24.4071 75.8575 24.2502 75.7504 24.077 75.6773C23.9037 75.6042 23.7176 75.5665 23.5295 75.5665C23.3414 75.5665 23.1553 75.6042 22.982 75.6773C22.8088 75.7504 22.6519 75.8575 22.5207 75.9922C22.3895 76.127 22.2866 76.2866 22.2182 76.4618C22.1497 76.6369 22.117 76.824 22.122 77.012V87.983H20.622C20.4578 87.983 20.3004 87.9178 20.1843 87.8017C20.0682 87.6856 20.003 87.5282 20.003 87.364V77.106C20.0031 76.9211 19.9668 76.7379 19.8961 76.567C19.8254 76.3961 19.7217 76.2409 19.5909 76.1101C19.4601 75.9793 19.3049 75.8756 19.134 75.8049C18.9631 75.7342 18.7799 75.6979 18.595 75.698L16.616 75.702Z" fill="#F13C3C"/>
</g>
<defs>
<clipPath id="clip0_3182_281">
<rect width="96.086" height="90.798" fill="white"/>
</clipPath>
</defs>
</svg>
