<?xml version="1.0" encoding="UTF-8"?>
<svg width="68px" height="89px" viewBox="0 0 68 89" version="1.1" xmlns="http://www.w3.org/2000/svg" xmlns:xlink="http://www.w3.org/1999/xlink">
    <title>80A22B67-2642-43B0-977B-E40B54EA964F</title>
    <g id="Page-1" stroke="none" stroke-width="1" fill="none" fill-rule="evenodd">
        <g id="Software-App-Development" transform="translate(-216.000000, -2021.000000)">
            <g id="Group-17" transform="translate(216.000000, 2021.000000)">
                <polyline id="Fill-184" fill="#62625F" points="39.010136 31.2536308 31.1764819 26.7677979 34.4515012 28.6233747 42.2851552 33.1092077 39.010136 31.2536308"></polyline>
                <polyline id="Fill-185" fill="#D9530B" points="24.5250192 51.5629037 16.6913652 47.0781452 16.676097 41.8240798 24.5097511 46.3088383 24.5250192 51.5629037"></polyline>
                <polyline id="Fill-186" fill="#D9530B" points="41.4432256 17.4114785 33.6095715 12.92672 38.2510906 10.2867939 46.0847447 14.7715524 41.4432256 17.4114785"></polyline>
                <path d="M26.9842828,36.8225104 L19.1506287,32.3366774 C23.2239543,30.020161 26.5066076,24.419048 26.4924301,19.8075043 C26.4869772,17.5275192 25.6690403,15.921215 24.3494355,15.1658759 L32.1830896,19.6506344 C33.5026944,20.4059735 34.3206313,22.0122777 34.3261299,24.2933372 C34.3402617,28.9048809 31.0576084,34.5049195 26.9842828,36.8225104" id="Fill-187" fill="#D9530B"></path>
                <path d="M21.7571209,37.3253534 L13.9234668,32.8416694 C15.2605209,33.6066785 17.1101488,33.4981589 19.1506287,32.3366774 L26.9842828,36.8225104 C24.9438029,37.9829174 23.094175,38.091437 21.7571209,37.3253534" id="Fill-188" fill="#D9530B"></path>
                <polyline id="Fill-189" fill="#FF7D33" points="11.712856 50.4981227 3.87920195 46.0122898 7.1476777 40.4358891 14.9813318 44.921722 11.712856 50.4981227"></polyline>
                <polyline id="Fill-190" fill="#D9530B" points="35.4090326 10.0622337 27.5753785 5.57747516 30.8427637 0 38.6764178 4.48475849 35.4090326 10.0622337"></polyline>
                <path d="M14.9813318,44.921722 L7.1476777,40.4358891 C5.89241724,39.1701858 5.03412882,37.3403957 4.64370028,35.0690063 L12.4773544,39.5537648 C12.8677829,41.8262287 13.7260713,43.6549443 14.9813318,44.921722" id="Fill-191" fill="#D9530B"></path>
                <path d="M29.4119194,10.6564051 L21.5782653,6.17164657 C23.7790608,5.3550638 25.8249936,5.15521592 27.5753785,5.57747516 L35.4090326,10.0622337 C33.6597383,9.64104886 31.6127149,9.83874784 29.4119194,10.6564051" id="Fill-192" fill="#FF7D33"></path>
                <path d="M12.4609956,33.8978547 L4.62734154,29.4120218 C5.00359251,26.7044052 5.84879394,23.9226516 7.09205799,21.2354496 L14.944252,25.65789 C13.7009879,28.3450919 12.8372466,31.1902382 12.4609956,33.8978547" id="Fill-193" fill="#D9530B"></path>
                <path d="M18.4003079,19.7656007 L10.5917372,15.2486086 C12.3333975,12.8407639 14.382602,10.6983086 16.5823069,9.01356947 L24.415961,13.4994024 C22.2173467,15.1841416 20.1899538,17.302959 18.4482936,19.7097292 L18.4003079,19.7656007" id="Fill-194" fill="#FF7D33"></path>
                <polyline id="Fill-195" fill="#FF7D33" points="7.83474468 36.5291852 0 32.0444267 4.62734154 29.4120218 12.4609956 33.8978547 7.83474468 36.5291852"></polyline>
                <polyline id="Fill-196" fill="#D9530B" points="7.85110341 42.1850953 0.01744932 37.7003368 0 32.0444267 7.83474468 36.5291852 7.85110341 42.1850953"></polyline>
                <polyline id="Fill-197" fill="#D9530B" points="24.415961 13.4994024 16.5823069 9.01356947 16.5659482 3.77562083 24.3996023 8.26037932 24.415961 13.4994024"></polyline>
                <polyline id="Fill-198" fill="#FF7D33" points="24.3996023 8.26037932 16.5659482 3.77562083 21.5619066 0.933697922 29.3966513 5.41845641 24.3996023 8.26037932"></polyline>
                <polyline id="Fill-199" fill="#FF7D33" points="11.6365153 23.8732269 3.80286118 19.3884684 7.32544265 13.376915 15.1590967 17.8627479 11.6365153 23.8732269"></polyline>
                <path d="M26.9842828,36.8225104 C31.0576084,34.5049195 34.3402617,28.9048809 34.3261299,24.2933372 C34.3140878,19.6968358 31.0096228,17.8434078 26.9362972,20.1599242 C22.8771491,22.4689194 19.5955863,28.068958 19.6086343,32.6654594 C19.6217603,37.2770031 22.9251347,39.1304311 26.9842828,36.8225104 Z M46.1011034,20.4285369 L41.4595843,23.0684631 C41.0986015,25.7685584 40.2392225,28.5750244 39.010136,31.2536308 L42.2851552,33.1092077 L38.8290993,38.9391788 L35.5399025,37.1093888 C33.7982422,39.5000423 31.7043238,41.798293 29.5057095,43.4669154 L29.5209777,48.7220552 L25.2000898,51.8701967 L24.5250192,51.5629037 L24.5097511,46.3088383 C22.3089556,47.1426122 20.2761098,47.3166733 18.5268155,46.9116053 L15.2921478,52.4149433 L11.712856,50.4981227 L14.9813318,44.921722 C13.7260713,43.6549443 12.8677829,41.8262287 12.4773544,39.5537648 L8.52617398,42.4913138 L7.85110341,42.1850953 L7.83474468,36.5291852 L12.4609956,33.8978547 C12.8372466,31.1902382 13.7009879,28.3450919 14.944252,25.65789 L12.3115858,24.2149023 L11.6365153,23.8732269 L15.195086,17.8004298 L15.8341673,18.167892 L18.4417501,19.6334432 C20.1834103,17.2255985 22.2173467,15.1841416 24.415961,13.4994024 L24.3996023,8.26037932 L29.3966513,5.41845641 L30.0717218,5.72467495 L29.4119194,10.6564051 C31.6127149,9.83874784 33.4067231,9.49599797 35.1560174,9.91718277 L38.6764178,4.48475849 L42.2088145,6.48323736 L38.9545163,12.0521169 C40.1945086,13.3264158 41.0680652,15.1314935 41.4432256,17.4114785 L46.0847447,14.7715524 L46.7598152,15.0777709 L46.1011034,20.4285369 L46.1011034,20.4285369 Z" id="Fill-200" fill="#CBE7E2"></path>
                <path d="M27.6604439,37.1287289 C31.7337696,34.8122125 35.0153323,29.2110994 35.0022843,24.5995557 C34.9891583,20.0030543 31.6857839,18.1496264 27.6124583,20.4661427 C23.5533102,22.7751379 20.2706569,28.3751766 20.2837049,32.971678 C20.2968309,37.5832217 23.6012959,39.4366496 27.6604439,37.1287289 Z M46.776174,20.7347555 L42.1357454,23.3746816 C41.7736721,26.074777 40.914293,28.881243 39.6852066,31.5598493 L42.9602258,33.4143518 L39.4518219,39.4011928 L36.1626251,37.5714027 C34.4209648,39.9620562 32.3793944,42.1045115 30.1807801,43.7731339 L30.1960482,49.0271993 L25.2000898,51.8701967 L25.1848217,46.6150568 C22.9840262,47.4488308 20.9511804,47.6228918 19.2018861,47.2188983 L15.9148704,52.8275325 L12.3693867,50.8526916 L15.6564024,45.2279406 C14.4022325,43.9611628 13.5428535,42.1324472 13.1524249,39.8599833 L8.52617398,42.4913138 L8.50981524,36.8354038 L13.1360662,34.2040733 C13.5123172,31.4953823 14.3575186,28.7490855 15.6007827,26.0618835 L12.3115858,24.2149023 L15.8341673,18.167892 L19.1233641,20.0159478 C20.8650244,17.6091775 22.8924172,15.4903601 25.0910316,13.8045465 L25.0757634,8.56659785 L30.0717218,5.72467495 L30.08699,10.9626236 C32.2877855,10.1460408 34.3348088,9.94726739 36.0841032,10.3684522 L39.3122274,4.84040177 L42.8446241,6.83888064 L39.6295869,12.3583354 C40.8706697,13.6326343 41.7431357,15.437712 42.1193867,17.7176971 L46.7598152,15.0777709 L46.776174,20.7347555 L46.776174,20.7347555 Z" id="Fill-201" fill="#FF8E4D"></path>
                <polyline id="Fill-202" fill="#CBE7E2" points="0.0010905825 32.4355269 7.83474468 36.895573 7.83474468 36.5291852 8.25134719 36.2885082 0.32281242 31.8617701 0 32.0444267 0.0010905825 32.4355269"></polyline>
                <polyline id="Fill-203" fill="#CBE7E2" points="16.5659482 4.23763476 24.415961 8.63643717 24.3996023 8.26037932 24.8412882 8.00895778 16.926931 3.57040069 16.5659482 3.77562083 16.5659482 4.23763476"></polyline>
                <polyline id="Fill-204" fill="#CBE7E2" points="6.96664101 13.9882776 14.8799076 18.4397281 15.195086 17.8004298 7.32544265 13.376915 6.96664101 13.9882776"></polyline>
                <polyline id="Fill-205" fill="#62625F" points="62.070503 54.8937018 56.0919297 51.4694264 58.5915448 52.8855529 64.5712086 56.3087538 62.070503 54.8937018"></polyline>
                <polyline id="Fill-206" fill="#214EA6" points="51.0141776 70.3969553 45.0334231 66.97268 45.0225173 62.9628288 51.0032717 66.3860297 51.0141776 70.3969553"></polyline>
                <polyline id="Fill-207" fill="#214EA6" points="63.9288555 44.3275506 57.9491917 40.9043497 61.4924942 38.8886796 67.4721581 42.3118805 63.9288555 44.3275506"></polyline>
                <path d="M52.8910701,59.14423 L46.9114062,55.7210291 C50.0217475,53.9514083 52.5257249,49.6772422 52.5159097,46.1562662 C52.5115473,44.4145811 51.8877342,43.189707 50.8800359,42.6116524 L56.8607904,46.0359277 C57.867398,46.6129079 58.4912112,47.8388565 58.4966928,49.5805416 C58.5064793,53.1004431 56.0014113,57.3756836 52.8910701,59.14423" id="Fill-208" fill="#214EA6"></path>
                <path d="M48.9017193,59.5288834 L42.9209648,56.1046081 C43.9417501,56.6891094 45.3540544,56.6063767 46.9114062,55.7210291 L52.8910701,59.14423 C51.3337182,60.0295776 49.9214139,60.1123103 48.9017193,59.5288834" id="Fill-209" fill="#214EA6"></path>
                <polyline id="Fill-210" fill="#73A1FF" points="41.2338337 69.5835959 35.2541699 66.1593206 37.7483321 61.9034201 43.7290865 65.326621 41.2338337 69.5835959"></polyline>
                <polyline id="Fill-211" fill="#214EA6" points="59.3222351 38.715693 53.3425712 35.2924921 55.8367334 31.0355172 61.8174878 34.4597926 59.3222351 38.715693"></polyline>
                <path d="M43.7290865,65.326621 L37.7483321,61.9034201 C36.7908006,60.9364142 36.1353605,59.5396279 35.8376315,57.805464 L41.8172954,61.2297394 C42.116115,62.9639033 42.7704645,64.3606896 43.7290865,65.326621" id="Fill-212" fill="#214EA6"></path>
                <path d="M54.7439697,39.1701858 L48.7643059,35.7469849 C50.4448935,35.1227289 52.0066076,34.9712313 53.3425712,35.2924921 L59.3222351,38.715693 C57.9862715,38.3955066 56.4245574,38.5459298 54.7439697,39.1701858" id="Fill-213" fill="#73A1FF"></path>
                <path d="M41.8052989,56.9115208 L35.8245445,53.4872454 C36.1124583,51.4210761 36.7569926,49.2968865 37.7068899,47.2457595 L43.7007313,50.6216846 C42.7519246,52.6728116 42.0921221,54.844277 41.8052989,56.9115208" id="Fill-214" fill="#214EA6"></path>
                <path d="M46.3388504,46.1240327 L40.3777265,42.675045 C41.7082371,40.8377338 43.2721324,39.2034938 44.9505389,37.9163015 L50.9302027,41.3405768 C49.2517963,42.6266947 47.7053503,44.2437434 46.3748396,46.0810547 L46.3388504,46.1240327" id="Fill-215" fill="#73A1FF"></path>
                <polyline id="Fill-216" fill="#73A1FF" points="38.2729022 58.9207441 32.2932384 55.4975432 35.8245445 53.4872454 41.8052989 56.9115208 38.2729022 58.9207441"></polyline>
                <polyline id="Fill-217" fill="#214EA6" points="38.2848986 63.2389627 32.3052348 59.8146874 32.2932384 55.4975432 38.2729022 58.9207441 38.2848986 63.2389627"></polyline>
                <polyline id="Fill-218" fill="#214EA6" points="50.9302027 41.3405768 44.9505389 37.9163015 44.9385425 33.9182693 50.9192969 37.3414702 50.9302027 41.3405768"></polyline>
                <polyline id="Fill-219" fill="#73A1FF" points="50.9192969 37.3414702 44.9385425 33.9182693 48.7523095 31.7478783 54.7319733 35.1721536 50.9192969 37.3414702"></polyline>
                <polyline id="Fill-220" fill="#73A1FF" points="41.1749423 49.2603552 35.1952784 45.8360798 37.8846549 41.2470996 43.8643187 44.6703005 41.1749423 49.2603552"></polyline>
                <path d="M52.8910701,59.14423 C56.0014113,57.3756836 58.5064793,53.1004431 58.4966928,49.5805416 C58.4857583,46.0713846 55.9643315,44.6563326 52.8550808,46.424879 C49.7556454,48.1880531 47.2516679,52.4622192 47.2614544,55.9703017 C47.2712984,59.4902032 49.7927252,60.9074041 52.8910701,59.14423 Z M67.4841545,46.6300991 L63.9419425,48.6457692 C63.6649346,50.7065662 63.0094945,52.8490215 62.070503,54.8937018 L64.5712086,56.3087538 L61.9330896,60.7612787 L59.4225686,59.363418 C58.0931486,61.1878358 56.4943546,62.9424143 54.8159482,64.2167131 L54.8279446,68.2276387 L51.5289325,70.6311856 L51.0141776,70.3969553 L51.0032717,66.3860297 C49.3226841,67.0221047 47.7707852,67.1553366 46.4348217,66.8458948 L43.9657429,71.0469982 L41.2338337,69.5835959 L43.7290865,65.326621 C42.7704645,64.3606896 42.116115,62.9639033 41.8172954,61.2297394 L38.8007442,63.4721186 L38.2848986,63.2389627 L38.2729022,58.9207441 L41.8052989,56.9115208 C42.0921221,54.844277 42.7519246,52.6728116 43.7007313,50.6216846 L41.6907878,49.5203723 L41.1749423,49.2603552 L43.8926739,44.6230246 L44.3801642,44.9045308 L46.3704773,46.0219598 C47.6998974,44.1846486 49.2517963,42.6266947 50.9302027,41.3405768 L50.9192969,37.3414702 L54.7319733,35.1721536 L55.2478188,35.4053095 L54.7439697,39.1701858 C56.4245574,38.5459298 57.794329,38.2848382 59.129202,38.606099 L61.8174878,34.4597926 L64.5123172,35.9844386 L62.0290608,40.2360412 C62.9756864,41.2084193 63.6420323,42.58694 63.9288555,44.3275506 L67.4721581,42.3118805 L67.986913,42.5461108 L67.4841545,46.6300991 L67.4841545,46.6300991 Z" id="Fill-221" fill="#CBE7E2"></path>
                <path d="M53.4069156,59.3784603 C56.5161663,57.6088395 59.0212343,53.3335989 59.0114478,49.8136974 C59.0016038,46.3056149 56.4801771,44.8905629 53.3698358,46.6591093 C50.2714909,48.4212089 47.7664229,52.6964495 47.7772932,56.204532 C47.787144,59.7244335 50.3085707,61.1405599 53.4069156,59.3784603 Z M68,46.863255 L64.4566975,48.8778506 C64.1807801,50.9397221 63.5242494,53.0832518 62.5863485,55.1268577 L65.0870541,56.5429841 L62.4085835,61.1126242 L59.8980626,59.7158379 C58.5686425,61.5413301 57.0102002,63.1766446 55.3317937,64.4509435 L55.3437901,68.4618691 L51.5289325,70.6311856 L51.5180267,66.62026 C49.8374391,67.256335 48.2866307,67.389567 46.9506672,67.0801251 L44.4412368,71.3618123 L41.7344111,69.855432 L44.2438414,65.5608514 C43.28631,64.5938454 42.6308699,63.1981336 42.3331409,61.4628952 L38.8007442,63.4721186 L38.7887478,59.1549745 L42.3211445,57.1457511 C42.6079677,55.0785074 43.2525019,52.9822534 44.2023993,50.9311265 L41.6907878,49.5203723 L44.3801642,44.9045308 L46.8906851,46.315285 C48.2201052,44.4779738 49.7676418,42.8598505 51.4460482,41.5737327 L51.4340518,37.5757005 L55.2478188,35.4053095 L55.2598152,39.4044161 C56.9393123,38.7801601 58.502117,38.6286625 59.8380806,38.9499233 L62.3017064,34.7305542 L64.998717,36.2562747 L62.5449063,40.4691971 C63.4915319,41.4426497 64.1578779,42.8211703 64.4447011,44.5617809 L67.986913,42.5461108 L68,46.863255 L68,46.863255 Z" id="Fill-222" fill="#316DE6"></path>
                <polyline id="Fill-223" fill="#CBE7E2" points="32.294329 55.7951662 38.2729022 59.2001014 38.2729022 58.9207441 38.5913523 58.737013 32.5386195 55.3578646 32.2932384 55.4975432 32.294329 55.7951662"></polyline>
                <polyline id="Fill-224" fill="#CBE7E2" points="44.9385425 34.2706892 50.9302027 37.6294231 50.9192969 37.3414702 51.2551963 37.1491435 45.2144598 33.7613994 44.9385425 33.9182693 44.9385425 34.2706892"></polyline>
                <polyline id="Fill-225" fill="#CBE7E2" points="37.6109187 41.7134113 43.6516551 45.1129743 43.8926739 44.6230246 37.8846549 41.2470996 37.6109187 41.7134113"></polyline>
                <polyline id="Fill-226" fill="#62625F" points="28.078137 74.5937609 22.8466128 71.599266 25.0332307 72.8370335 30.2647549 75.8315285 28.078137 74.5937609"></polyline>
                <polyline id="Fill-227" fill="#8A9BBC" points="18.4046703 88.1554815 13.1742366 85.1609866 13.1644213 81.6518296 18.394855 84.6463245 18.4046703 88.1554815"></polyline>
                <polyline id="Fill-228" fill="#8A9BBC" points="29.703105 65.3513334 24.4715807 62.355764 27.5710162 60.5936644 32.8014498 63.5892338 29.703105 65.3513334"></polyline>
                <path d="M20.0481781,78.3124359 L14.8166538,75.3168665 C17.5365666,73.769657 19.7286374,70.0305675 19.7188222,66.951191 C19.7155504,65.4286939 19.1691686,64.3563918 18.2879779,63.8513998 L23.5195022,66.8458948 C24.4006928,67.3508867 24.9459841,68.4231888 24.9503724,69.9456859 C24.9590711,73.0250625 22.7680908,76.7652264 20.0481781,78.3124359" id="Fill-229" fill="#8A9BBC"></path>
                <path d="M16.5572235,78.648739 L11.3267898,75.6531696 C12.2188863,76.1646083 13.4534257,76.0926201 14.8166538,75.3168665 L20.0481781,78.3124359 C18.68495,79.0881895 17.44932,79.1601777 16.5572235,78.648739" id="Fill-230" fill="#8A9BBC"></path>
                <polyline id="Fill-231" fill="#EDF4FF" points="9.85014113 87.4441949 4.61970747 84.4497 6.80087247 80.7256528 12.0323967 83.7201478 9.85014113 87.4441949"></polyline>
                <polyline id="Fill-232" fill="#8A9BBC" points="25.6734026 60.4432412 20.4418784 57.4487463 22.6241339 53.7246991 27.8545676 56.719194 25.6734026 60.4432412"></polyline>
                <path d="M12.0323967,83.7201478 L6.80087247,80.7256528 C5.96330511,79.8800599 5.39074929,78.6584091 5.13010008,77.1412843 L10.3605337,80.1357792 C10.621183,81.652904 11.1948294,82.8756293 12.0323967,83.7201478" id="Fill-233" fill="#8A9BBC"></path>
                <path d="M21.6687837,60.8407881 L16.4372594,57.8452187 C17.9073646,57.2993976 19.2738645,57.1672401 20.4418784,57.4487463 L25.6734026,60.4432412 C24.5042982,60.1617351 23.1377983,60.2938925 21.6687837,60.8407881" id="Fill-234" fill="#EDF4FF"></path>
                <path d="M10.3496279,76.3601584 L5.11919425,73.364589 C5.37002823,71.556288 5.93385938,69.6974877 6.76488324,67.904229 L12.0084039,70.8568203 C11.17738,72.6511535 10.6015525,74.5507829 10.3496279,76.3601584" id="Fill-235" fill="#8A9BBC"></path>
                <path d="M14.3149859,66.9221808 L9.10200154,63.9061968 C10.2645625,62.2988181 11.6332435,60.8687238 13.1011676,59.7437736 L18.3316012,62.7382686 C16.8636772,63.8632188 15.5113549,65.2782707 14.3477034,66.884575 L14.3149859,66.9221808" id="Fill-236" fill="#EDF4FF"></path>
                <polyline id="Fill-237" fill="#EDF4FF" points="7.2600077 78.1168858 2.02957403 75.1213164 5.11919425 73.364589 10.3496279 76.3601584 7.2600077 78.1168858"></polyline>
                <polyline id="Fill-238" fill="#8A9BBC" points="7.27091352 81.8935811 2.04047986 78.8990861 2.02957403 75.1213164 7.2600077 78.1168858 7.27091352 81.8935811"></polyline>
                <polyline id="Fill-239" fill="#8A9BBC" points="18.3316012 62.7382686 13.1011676 59.7437736 13.0913523 56.2453611 18.321786 59.2409305 18.3316012 62.7382686"></polyline>
                <polyline id="Fill-240" fill="#EDF4FF" points="18.321786 59.2409305 13.0913523 56.2453611 16.4274442 54.3478807 21.6578779 57.3423756 18.321786 59.2409305"></polyline>
                <polyline id="Fill-241" fill="#EDF4FF" points="9.79888376 69.6663286 4.56845009 66.6707592 6.92083654 62.6576847 12.1512702 65.6521797 9.79888376 69.6663286"></polyline>
                <path d="M20.0481781,78.3124359 C22.7680908,76.7652264 24.9590711,73.0250625 24.9503724,69.9456859 C24.9416218,66.8770538 22.7353734,65.6392863 20.0154606,67.1864957 C17.3053631,68.7283329 15.1132923,72.4684969 15.1230747,75.5360545 C15.1307416,78.615431 17.33699,79.8542731 20.0481781,78.3124359 Z M32.8123557,67.3648546 L29.7140108,69.1280287 C29.4719015,70.9309575 28.8982551,72.8048 28.078137,74.5937609 L30.2647549,75.8315285 L27.9570824,79.7264134 L25.7606492,78.5047626 C24.5969977,80.1003223 23.1988709,81.6346384 21.7309469,82.7499185 L21.7407621,86.258001 L18.8561714,88.3607017 L18.4046703,88.1554815 L18.394855,84.6463245 C16.9247498,85.2039646 15.5680652,85.3200053 14.4000513,85.0492437 L12.240698,88.7238661 L9.85014113,87.4441949 L12.0323967,83.7201478 C11.1948294,82.8756293 10.621183,81.652904 10.3605337,80.1357792 L7.7213241,82.0977268 L7.27091352,81.8935811 L7.2600077,78.1168858 L10.3496279,76.3601584 C10.6015525,74.5507829 11.17738,72.6511535 12.0084039,70.8568203 L10.2503849,69.8941122 L9.79888376,69.6663286 L12.175263,65.6113505 L12.6027714,65.8563254 L14.343341,66.8340758 C15.5069926,65.2266971 16.8636772,63.8632188 18.3316012,62.7382686 L18.321786,59.2409305 L21.6578779,57.3423756 L22.109379,57.5475958 L21.6687837,60.8407881 C23.1377983,60.2938925 24.3352579,60.0661089 25.5043623,60.3465406 L27.8545676,56.719194 L30.2134976,58.0536622 L28.0410572,61.7723371 C28.8688093,62.6222279 29.4511804,63.8288363 29.703105,65.3513334 L32.8014498,63.5892338 L33.252951,63.7933795 L32.8123557,67.3648546 L32.8123557,67.3648546 Z" id="Fill-242" fill="#CBE7E2"></path>
                <path d="M20.4985887,78.5165816 C23.2185014,76.9693721 25.4105722,73.2302826 25.4007898,70.1498316 C25.3931229,67.082274 23.1868745,65.843432 20.4658712,67.3906414 C17.7557737,68.9324786 15.5647934,72.6726425 15.5734921,75.7402002 C15.5822428,78.8206512 17.7874006,80.0584187 20.4985887,78.5165816 Z M33.2638568,67.5700747 L30.1644213,69.3332488 C29.922312,71.1351032 29.3497562,73.0089457 28.5285476,74.7979066 L30.7151655,76.0367486 L28.3725943,80.0347808 L26.1761611,78.8120556 C25.0125096,80.4086898 23.6503721,81.8387841 22.182448,82.9540642 L22.1922633,86.4621467 L18.8561714,88.3607017 L18.8463562,84.8515447 C17.376251,85.4081103 16.0195663,85.5252255 14.8504619,85.2544638 L12.6562099,89 L10.2885553,87.6816486 L12.4828073,83.9253679 C11.6452399,83.0787005 11.0726841,81.8581242 10.8109443,80.3409994 L7.7213241,82.0977268 L7.71150885,78.3221059 L10.8011291,76.5643041 C11.051963,74.7549286 11.6157942,72.9208407 12.4468181,71.1265076 L10.2503849,69.8941122 L12.6027714,65.8563254 L14.7981139,67.0897951 C15.9617655,65.4834909 17.3151783,64.0673645 18.7831024,62.9424143 L18.7732871,59.4440018 L22.109379,57.5475958 L22.1191943,61.0449338 C23.5892995,60.4991127 24.9557993,60.3669552 26.1238132,60.6484614 L28.2798948,56.9566477 L30.6377342,58.2911159 L28.4914678,61.9775573 C29.3203105,62.827448 29.9026815,64.032982 30.1535155,65.5565535 L33.252951,63.7933795 L33.2638568,67.5700747 L33.2638568,67.5700747 Z" id="Fill-243" fill="#D1D9E8"></path>
                <polyline id="Fill-244" fill="#CBE7E2" points="2.02957403 75.382408 7.2600077 78.3607862 7.2600077 78.1168858 7.53919682 77.9557181 2.24441878 74.9999034 2.02957403 75.1213164 2.02957403 75.382408"></polyline>
                <polyline id="Fill-245" fill="#CBE7E2" points="13.0913523 56.5537286 18.3316012 59.4912776 18.321786 59.2409305 18.6173338 59.0733162 13.3312805 56.1089059 13.0913523 56.2453611 13.0913523 56.5537286"></polyline>
                <polyline id="Fill-246" fill="#CBE7E2" points="6.68090839 63.0659761 11.9658712 66.0379076 12.175263 65.6113505 6.92083654 62.6576847 6.68090839 63.0659761"></polyline>
            </g>
        </g>
    </g>
</svg>