<?xml version="1.0" encoding="UTF-8"?>
<svg width="72px" height="88px" viewBox="0 0 72 88" version="1.1" xmlns="http://www.w3.org/2000/svg" xmlns:xlink="http://www.w3.org/1999/xlink">
    <title>6C881098-2078-4043-BB1B-D47C176905E5</title>
    <defs>
        <polygon id="path-1" points="0 0 27.8901582 0 27.8901582 15.8528664 0 15.8528664"></polygon>
        <polygon id="path-3" points="0.345665614 0 1.03976771 0 1.03976771 1.36391816 0.345665614 1.36391816"></polygon>
    </defs>
    <g id="Page-1" stroke="none" stroke-width="1" fill="none" fill-rule="evenodd">
        <g id="Software-App-Development" transform="translate(-750.000000, -2022.000000)">
            <g id="Group-31" transform="translate(750.000000, 2022.000000)">
                <path d="M69.8216832,16.9375449 C69.8216832,18.3492002 68.8726614,19.7594916 66.978774,20.8410787 C63.1882284,22.9947055 57.0410608,22.9947055 53.2505152,20.8410787 C51.353857,19.7594916 50.407606,18.3492002 50.407606,16.9375449 C50.407606,15.5231618 51.353857,14.1115065 53.2505152,13.0353751 C57.0410608,10.8803844 63.1882284,10.8803844 66.978774,13.0353751 C68.8726614,14.1115065 69.8216832,15.5231618 69.8216832,16.9375449" id="Fill-1" fill="#73A1FF"></path>
                <path d="M69.8216832,16.9375449 L69.8216832,62.0286795 C69.8216832,63.4430626 68.8726614,64.8547179 66.978774,65.9322133 C63.1882284,68.08584 57.0410608,68.08584 53.2505152,65.9322133 C51.353857,64.8547179 50.407606,63.4430626 50.407606,62.0286795 L50.407606,16.9375449 C50.407606,18.3492002 51.353857,19.7594916 53.2505152,20.8410787 C57.0410608,22.9947055 63.1882284,22.9947055 66.978774,20.8410787 C68.8726614,19.7594916 69.8216832,18.3492002 69.8216832,16.9375449" id="Fill-3" fill="#316DE6"></path>
                <path d="M51.8300304,30.5727712 C51.8300304,31.9844265 50.8810086,33.3947179 48.9871212,34.476305 C45.1965757,36.6299318 39.049408,36.6299318 35.2588624,34.476305 C33.3622042,33.3947179 32.4159533,31.9844265 32.4159533,30.5727712 C32.4159533,29.1583881 33.3622042,27.7467328 35.2588624,26.6692374 C39.049408,24.5156107 45.1965757,24.5156107 48.9871212,26.6692374 C50.8810086,27.7467328 51.8300304,29.1583881 51.8300304,30.5727712" id="Fill-5" fill="#316DE6"></path>
                <path d="M51.8300304,30.5727712 L51.8300304,72.2554743 C51.8300304,73.6698574 50.8810086,75.0801488 48.9871212,76.1576441 C45.1965757,78.3126348 39.049408,78.3126348 35.2588624,76.1576441 C33.3622042,75.0801488 32.4159533,73.6698574 32.4159533,72.2554743 L32.4159533,30.5727712 C32.4159533,31.9844265 33.3622042,33.3947179 35.2588624,34.476305 C39.049408,36.6299318 45.1965757,36.6299318 48.9871212,34.476305 C50.8810086,33.3947179 51.8300304,31.9844265 51.8300304,30.5727712" id="Fill-7" fill="#214EA6"></path>
                <path d="M33.8383777,54.433974 C33.8383777,55.8456293 32.8893558,57.2559206 30.9954685,58.3375077 C27.2049229,60.4911345 21.0577553,60.4911345 17.2672097,58.3375077 C15.369166,57.2559206 14.4243005,55.8456293 14.4243005,54.433974 C14.4243005,53.0195908 15.369166,51.6079355 17.2672097,50.5304402 C21.0577553,48.3768134 27.2049229,48.3768134 30.9954685,50.5304402 C32.8893558,51.6079355 33.8383777,53.0195908 33.8383777,54.433974" id="Fill-9" fill="#EDF4FF"></path>
                <path d="M33.8383777,54.433974 L33.8383777,82.4815871 C33.8383777,83.8959702 32.8893558,85.3076255 30.9954685,86.383757 C27.2049229,88.5387477 21.0577553,88.5387477 17.2672097,86.383757 C15.369166,85.3076255 14.4243005,83.8959702 14.4243005,82.4815871 L14.4243005,54.433974 C14.4243005,55.8456293 15.369166,57.2559206 17.2672097,58.3375077 C21.0577553,60.4911345 27.2049229,60.4911345 30.9954685,58.3375077 C32.8893558,57.2559206 33.8383777,55.8456293 33.8383777,54.433974" id="Fill-11" fill="#D1D9E8"></path>
                <polygon id="Fill-13" fill="#BF4200" points="61.0937303 10.9611283 61.0937303 12.666026 42.4929025 24.1529448 42.3848387 24.2866088 28.1786054 41.7693118 28.00127 41.8688779 9.30623272 52.4951643 9.30623272 50.7916305 26.5091583 41.0123373 28.00127 40.1639802 28.1786054 40.0644141 41.4399732 23.7437694 42.3848387 22.5817111 42.4929025 22.4480471 59.6639631 11.8435834"></polygon>
                <path d="M72,1.28044637 L72,2.98534408 C71.990302,3.06308741 71.9667496,3.14083075 71.9279575,3.22266584 L65.5909854,16.6640794 C65.1684283,17.5601736 63.1983421,17.8602356 62.0428907,17.202827 L44.7332868,7.36488531 C44.3079587,7.12347179 44.1098418,6.8165902 44.1098418,6.51516429 L44.1098418,4.8116305 C44.1098418,5.1116925 44.3079587,5.41448233 44.7291305,5.65725976 C44.7291305,5.6599876 44.7332868,5.6599876 44.7332868,5.6599876 L62.0428907,15.4979293 C63.1983421,16.1553379 65.1684283,15.8566398 65.5909854,14.9591816 L71.6023806,2.20791073 L71.9279575,1.51913205 C71.9667496,1.43729696 71.990302,1.35818971 72,1.28044637" id="Fill-15" fill="#BF4200"></path>
                <g id="Group-19" transform="translate(44.109842, 0.000000)">
                    <mask id="mask-2" fill="white">
                        <use xlink:href="#path-1"></use>
                    </mask>
                    <g id="Clip-18"></g>
                    <path d="M27.8901582,1.16055797 L27.8901582,1.28058277 C27.8804602,1.3583261 27.8569078,1.43743335 27.8181157,1.51926844 L27.4925389,2.20804712 L21.4811437,14.959318 C21.0585865,15.8554123 19.0885003,16.1554743 17.9330489,15.4980657 L0.623444995,5.66012399 C0.623444995,5.66012399 0.619288695,5.66012399 0.619288695,5.65739616 C0.198116965,5.41461872 0,5.11182889 0,4.81176689 C0,4.29620583 0.577725696,3.79564786 1.57246682,3.64152511 L25.2204282,0.0421450713 C26.5823092,-0.16517049 27.8458244,0.418586485 27.8901582,1.16055797" id="Fill-17" fill="#FF7D33" mask="url(#mask-2)"></path>
                </g>
                <polygon id="Fill-20" fill="#FF7D33" points="61.0937303 10.9611283 59.6639631 11.8435834 42.4929025 22.4480471 42.3848387 22.5817111 34.7926641 18.2280843 33.3615115 17.4070056 52.1285913 5.81779293"></polygon>
                <polygon id="Fill-22" fill="#D9530B" points="42.3849773 22.5817111 41.4401118 23.7437694 28.178744 40.0644141 28.0014085 40.1639802 19.9866767 35.5716677 19.0404258 35.0301922 33.3616501 17.4070056 34.7928027 18.2280843"></polygon>
                <polygon id="Fill-24" fill="#FF7D33" points="28.0016856 40.1641166 26.5095739 41.0124737 9.30664835 50.7917669 1.8377773 46.5090639 0.348436481 45.656615 0.348436481 45.6497954 19.0407029 35.0303286 19.9869538 35.5718041"></polygon>
                <polygon id="Fill-26" fill="#D9530B" points="9.30637126 50.7910849 9.30637126 52.4959826 0.348159394 47.3621947 0.348159394 45.657297 1.83750022 46.5097458"></polygon>
                <g id="Group-30" transform="translate(0.000000, 46.676144)">
                    <mask id="mask-4" fill="white">
                        <use xlink:href="#path-3"></use>
                    </mask>
                    <g id="Clip-29"></g>
                    <polygon id="Fill-28" fill="#00FFFF" mask="url(#mask-4)" points="0.348436481 0.678549287 0.348436481 0.685368878 0.345665614 0.682641042"></polygon>
                </g>
            </g>
        </g>
    </g>
</svg>