<?xml version="1.0" encoding="UTF-8"?>
<svg width="89px" height="82px" viewBox="0 0 89 82" version="1.1" xmlns="http://www.w3.org/2000/svg" xmlns:xlink="http://www.w3.org/1999/xlink">
    <title>7A962EF0-EBC8-495B-87E3-66B8B14D7285</title>
    <defs>
        <polygon id="path-1" points="0 0 37.2605015 0 37.2605015 21.4748977 0 21.4748977"></polygon>
        <polygon id="path-3" points="0 0 37.2605015 0 37.2605015 17.8323749 0 17.8323749"></polygon>
        <polygon id="path-5" points="0 0 37.2605015 0 37.2605015 21.4747746 0 21.4747746"></polygon>
        <polygon id="path-7" points="0 0 37.2605015 0 37.2605015 17.8333587 0 17.8333587"></polygon>
        <polygon id="path-9" points="0 0 37.2605015 0 37.2605015 21.4739139 0 21.4739139"></polygon>
        <polygon id="path-11" points="0 0 37.2605015 0 37.2605015 17.8333587 0 17.8333587"></polygon>
        <polygon id="path-13" points="0 0 49.7902057 0 49.7902057 50.3855478 0 50.3855478"></polygon>
    </defs>
    <g id="Page-1" stroke="none" stroke-width="1" fill="none" fill-rule="evenodd">
        <g id="Software-App-Development" transform="translate(-1282.000000, -2029.000000)">
            <g id="Group-173" transform="translate(1282.000000, 2029.000000)">
                <g id="Group-74">
                    <path d="M67.2203949,42.6861363 C67.2203949,43.8893248 66.8724653,45.0875943 66.179563,46.2366737 C65.2836196,47.712375 63.8120646,49.1005181 61.7648981,50.2820629 C54.488931,54.4710871 42.6918502,54.4710871 35.4158831,50.2781277 C33.3687166,49.1005181 31.8971616,47.712375 31.0012182,46.2366737 C30.3043733,45.0915295 29.9594006,43.8893248 29.9594006,42.6861363 C29.9594006,39.9403481 31.7759283,37.1906246 35.4158831,35.0931611 C42.6918502,30.9011856 54.488931,30.9011856 61.7648981,35.0931611 C65.4009103,37.1906246 67.2203949,39.9403481 67.2203949,42.6861363" id="Fill-1" fill="#D1D9E8"></path>
                    <path d="M48.5904892,52.3608342 C43.7973399,52.3608342 39.3077666,51.294394 35.9477325,49.3572901 C32.772998,47.5284043 31.0234936,45.1594117 31.0234936,42.6871201 C31.0234936,40.2148285 32.772998,37.8468198 35.9477325,36.0169502 C39.3077666,34.08083 43.7963543,33.0143899 48.5895035,33.0143899 C53.3816672,33.0143899 57.8722261,34.08083 61.2312746,36.0169502 C64.4069947,37.8468198 66.1555135,40.2158123 66.1555135,42.6881039 C66.1555135,45.1594117 64.4069947,47.5284043 61.2322602,49.3582739 C57.8722261,51.294394 53.3826528,52.3608342 48.5904892,52.3608342" id="Fill-3" fill="#214EA6"></path>
                    <path d="M67.2203949,42.6861363 L67.2203949,49.7813083 C67.2203949,52.5310317 65.4009103,55.2807552 61.7648981,57.3782186 C54.488931,61.5672428 42.6918502,61.5672428 35.4158831,57.3742834 C31.7798709,55.2807552 29.9594006,52.5349669 29.9594006,49.7852435 L29.9594006,42.6861363 C29.9594006,43.8893248 30.3043733,45.0915295 31.0012182,46.2366737 C31.8971616,47.712375 33.3687166,49.1005181 35.4158831,50.2781277 C42.6918502,54.4710871 54.488931,54.4710871 61.7648981,50.2820629 C63.8120646,49.1005181 65.2836196,47.712375 66.179563,46.2366737 C66.8724653,45.0875943 67.2203949,43.8893248 67.2203949,42.6861363" id="Fill-5" fill="#316DE6"></path>
                    <path d="M65.4435884,39.1381568 L65.4435884,42.6857428 C65.4435884,44.8963434 63.8222167,47.0459483 60.8761498,48.742021 C57.6235501,50.6191131 53.2591526,51.6511202 48.5882222,51.6511202 C43.92222,51.6511202 39.5568369,50.6191131 36.3042371,48.742021 C33.3581703,47.0459483 31.7338417,44.8963434 31.7338417,42.6857428 L31.7338417,39.1381568 C31.7338417,39.7372916 31.8501467,40.3305235 32.0857138,40.9119498 C32.7115929,42.4801284 34.1535787,43.9558297 36.3042371,45.194435 C39.5568369,47.0705433 43.92222,48.1035342 48.5882222,48.1035342 C53.2591526,48.1035342 57.6235501,47.0705433 60.8761498,45.194435 C63.0268082,43.9558297 64.4697797,42.4801284 65.0917162,40.9119498 C65.3262977,40.3305235 65.4435884,39.7372916 65.4435884,39.1381568" id="Fill-7" fill="#1F2366"></path>
                    <path d="M67.2203949,32.0238992 C67.2203949,33.2270876 66.8724653,34.4253571 66.179563,35.5744365 C65.2836196,37.0501379 63.8120646,38.4382809 61.7648981,39.6198257 C54.488931,43.8088499 42.6918502,43.8088499 35.4158831,39.6158905 C33.3687166,38.4382809 31.8971616,37.0501379 31.0012182,35.5744365 C30.3043733,34.4283085 29.9594006,33.2270876 29.9594006,32.0238992 C29.9594006,29.2781109 31.7759283,26.5283875 35.4158831,24.430924 C42.6918502,20.2379646 54.488931,20.2379646 61.7648981,24.430924 C65.4009103,26.5283875 67.2203949,29.2781109 67.2203949,32.0238992" id="Fill-9" fill="#D1D9E8"></path>
                    <path d="M48.5904892,41.6976132 C43.7973399,41.6976132 39.3077666,40.6321569 35.9477325,38.6950529 C32.772998,36.8661671 31.0234936,34.4971746 31.0234936,32.024883 C31.0234936,29.5525914 32.772998,27.1835988 35.9477325,25.354713 C39.3077666,23.4185929 43.7963543,22.3521527 48.5895035,22.3521527 C53.3816672,22.3521527 57.8722261,23.4185929 61.2312746,25.354713 C64.4069947,27.1845826 66.1555135,29.5535752 66.1555135,32.024883 C66.1555135,34.4971746 64.4069947,36.8661671 61.2322602,38.6950529 C57.8722261,40.6321569 53.3826528,41.6976132 48.5904892,41.6976132" id="Fill-11" fill="#214EA6"></path>
                    <path d="M67.2203949,32.0238992 L67.2203949,39.1190711 C67.2203949,41.8687946 65.4009103,44.618518 61.7648981,46.7149977 C54.488931,50.9040218 42.6918502,50.9040218 35.4158831,46.7120463 C31.7798709,44.618518 29.9594006,41.8727298 29.9594006,39.1230063 L29.9594006,32.0238992 C29.9594006,33.2270876 30.3043733,34.4283085 31.0012182,35.5744365 C31.8971616,37.0501379 33.3687166,38.4382809 35.4158831,39.6158905 C42.6918502,43.8088499 54.488931,43.8088499 61.7648981,39.6198257 C63.8120646,38.4382809 65.2836196,37.0501379 66.179563,35.5744365 C66.8724653,34.4253571 67.2203949,33.2270876 67.2203949,32.0238992" id="Fill-13" fill="#316DE6"></path>
                    <path d="M65.4435884,28.4758213 L65.4435884,32.0234073 C65.4435884,34.2340078 63.8222167,36.3836128 60.8761498,38.0796855 C57.6235501,39.9567775 53.2591526,40.9887847 48.5882222,40.9887847 C43.92222,40.9887847 39.5568369,39.9567775 36.3042371,38.0796855 C33.3581703,36.3836128 31.7338417,34.2340078 31.7338417,32.0234073 L31.7338417,28.4758213 C31.7338417,29.074956 31.8501467,29.668188 32.0857138,30.2496143 C32.7115929,31.8168091 34.1535787,33.2934942 36.3042371,34.5311157 C39.5568369,36.4082078 43.92222,37.4402149 48.5882222,37.4402149 C53.2591526,37.4402149 57.6235501,36.4082078 60.8761498,34.5311157 C63.0268082,33.2934942 64.4697797,31.8168091 65.0917162,30.2496143 C65.3262977,29.668188 65.4435884,29.074956 65.4435884,28.4758213" id="Fill-15" fill="#1F2366"></path>
                    <path d="M67.2203949,21.3797639 C67.2203949,22.5829524 66.8724653,23.7812219 66.179563,24.9312851 C65.2836196,26.4069864 63.8120646,27.7951295 61.7648981,28.9766743 C54.488931,33.1656985 42.6918502,33.1656985 35.4158831,28.9727391 C33.3687166,27.7951295 31.8971616,26.4069864 31.0012182,24.9312851 C30.3043733,23.7851571 29.9594006,22.5829524 29.9594006,21.3797639 C29.9594006,18.6339757 31.7759283,15.8842522 35.4158831,13.7877726 C42.6918502,9.59481321 54.488931,9.59481321 61.7648981,13.7877726 C65.4009103,15.8842522 67.2203949,18.6339757 67.2203949,21.3797639" id="Fill-17" fill="#D1D9E8"></path>
                    <path d="M48.5904892,31.0544618 C43.7973399,31.0544618 39.3077666,29.9880216 35.9477325,28.0519015 C32.772998,26.2220319 31.0234936,23.8540231 31.0234936,21.3817315 C31.0234936,18.9094399 32.772998,16.5404474 35.9477325,14.7105778 C39.3077666,12.7744576 43.7963543,11.7090013 48.5895035,11.7090013 C53.3816672,11.7090013 57.8722261,12.7754415 61.2312746,14.7115616 C64.4069947,16.5414312 66.1555135,18.9094399 66.1555135,21.3817315 C66.1555135,23.8540231 64.4069947,26.2230157 61.2322602,28.0519015 C57.8722261,29.9880216 53.3826528,31.0544618 48.5904892,31.0544618" id="Fill-19" fill="#214EA6"></path>
                    <path d="M67.2203949,21.3797639 L67.2203949,28.4759197 C67.2203949,31.2256431 65.4009103,33.9753666 61.7648981,36.0718463 C54.488931,40.2608704 42.6918502,40.2608704 35.4158831,36.0679111 C31.7798709,33.9753666 29.9594006,31.2295783 29.9594006,28.4798549 L29.9594006,21.3797639 C29.9594006,22.5829524 30.3043733,23.7851571 31.0012182,24.9312851 C31.8971616,26.4069864 33.3687166,27.7951295 35.4158831,28.9727391 C42.6918502,33.1656985 54.488931,33.1656985 61.7648981,28.9766743 C63.8120646,27.7951295 65.2836196,26.4069864 66.179563,24.9312851 C66.8724653,23.7812219 67.2203949,22.5829524 67.2203949,21.3797639" id="Fill-21" fill="#316DE6"></path>
                    <path d="M65.4435884,17.8327682 L65.4435884,21.3793704 C65.4435884,23.5909548 63.8222167,25.7405597 60.8761498,27.4366324 C57.6235501,29.3127407 53.2591526,30.3457316 48.5882222,30.3457316 C43.92222,30.3457316 39.5568369,29.3127407 36.3042371,27.4366324 C33.3581703,25.7405597 31.7338417,23.5909548 31.7338417,21.3793704 L31.7338417,17.8327682 C31.7338417,18.431903 31.8501467,19.0241511 32.0857138,19.6065612 C32.7115929,21.173756 34.1535787,22.6494573 36.3042371,23.8880627 C39.5568369,25.7651547 43.92222,26.7971619 48.5882222,26.7971619 C53.2591526,26.7971619 57.6235501,25.7651547 60.8761498,23.8880627 C63.0268082,22.6494573 64.4697797,21.173756 65.0917162,19.6065612 C65.3262977,19.0241511 65.4435884,18.431903 65.4435884,17.8327682" id="Fill-23" fill="#1F2366"></path>
                    <path d="M67.2203949,10.7367109 C67.2203949,11.9398994 66.8724653,13.1381688 66.179563,14.2882321 C65.2836196,15.7639334 63.8120646,17.1520764 61.7648981,18.3326375 C54.488931,22.5216616 42.6918502,22.5216616 35.4158831,18.3296861 C33.3687166,17.1520764 31.8971616,15.7639334 31.0012182,14.2882321 C30.3043733,13.142104 29.9594006,11.9398994 29.9594006,10.7367109 C29.9594006,7.99092264 31.7759283,5.24119918 35.4158831,3.14471951 C42.6918502,-1.04823984 54.488931,-1.04823984 61.7648981,3.14471951 C65.4009103,5.24119918 67.2203949,7.99092264 67.2203949,10.7367109" id="Fill-25" fill="#D1D9E8"></path>
                    <path d="M48.5904892,20.4113104 C43.7973399,20.4113104 39.3077666,19.3448702 35.9477325,17.4087501 C32.772998,15.5788804 31.0234936,13.2098879 31.0234936,10.7375963 C31.0234936,8.2662885 32.772998,5.89729599 35.9477325,4.06742635 C39.3077666,2.13130622 43.7963543,1.06486607 48.5895035,1.06486607 C53.3816672,1.06486607 57.8722261,2.13130622 61.2312746,4.06841015 C64.4069947,5.89729599 66.1555135,8.2662885 66.1555135,10.7385801 C66.1555135,13.2108717 64.4069947,15.5788804 61.2322602,17.4087501 C57.8722261,19.3448702 53.3826528,20.4113104 48.5904892,20.4113104" id="Fill-27" fill="#73A1FF"></path>
                    <path d="M67.2203949,10.7367109 L67.2203949,17.8328666 C67.2203949,20.5825901 65.4009103,23.3313297 61.7648981,25.4287932 C54.488931,29.6178174 42.6918502,29.6178174 35.4158831,25.424858 C31.7798709,23.3313297 29.9594006,20.5855415 29.9594006,17.835818 L29.9594006,10.7367109 C29.9594006,11.9398994 30.3043733,13.142104 31.0012182,14.2882321 C31.8971616,15.7639334 33.3687166,17.1520764 35.4158831,18.3296861 C42.6918502,22.5216616 54.488931,22.5216616 61.7648981,18.3326375 C63.8120646,17.1520764 65.2836196,15.7639334 66.179563,14.2882321 C66.8724653,13.1381688 67.2203949,11.9398994 67.2203949,10.7367109" id="Fill-29" fill="#316DE6"></path>
                    <g id="Group-33" transform="translate(0.000000, 49.214049)">
                        <mask id="mask-2" fill="white">
                            <use xlink:href="#path-1"></use>
                        </mask>
                        <g id="Clip-32"></g>
                        <path d="M37.2605015,10.7376947 C37.2605015,11.9398994 36.9125718,13.1381688 36.2186839,14.2882321 C35.3237261,15.7639334 33.8521712,17.1520764 31.8050046,18.3336213 C24.5290375,22.5226454 12.7319568,22.5226454 5.45598968,18.3296861 C3.40882311,17.1520764 1.93726813,15.7639334 1.04132474,14.2882321 C0.344479883,13.142104 -0.000492818145,11.9398994 -0.000492818145,10.7376947 C-0.000492818145,7.99092264 1.81603486,5.24119918 5.45598968,3.14471951 C12.7319568,-1.04823984 24.5290375,-1.04823984 31.8050046,3.14471951 C35.4410169,5.24119918 37.2605015,7.99092264 37.2605015,10.7376947" id="Fill-31" fill="#D1D9E8" mask="url(#mask-2)"></path>
                    </g>
                    <path d="M18.6305957,69.6254574 C13.8374464,69.6254574 9.34787313,68.5600011 5.98783902,66.6228971 C2.81310453,64.7940113 1.06360012,62.4250188 1.06360012,59.9527272 C1.06360012,57.4804356 2.81310453,55.111443 5.98783902,53.2825572 C9.34787313,51.3454533 13.8364608,50.2799969 18.6296101,50.2799969 C23.4217737,50.2799969 27.9123326,51.3464371 31.2713811,53.2825572 C34.4471012,55.1124268 36.19562,57.4804356 36.19562,59.9527272 C36.19562,62.4250188 34.4471012,64.7940113 31.2723667,66.6228971 C27.9123326,68.5600011 23.4227593,69.6254574 18.6305957,69.6254574" id="Fill-34" fill="#214EA6"></path>
                    <g id="Group-38" transform="translate(0.000000, 59.951743)">
                        <mask id="mask-4" fill="white">
                            <use xlink:href="#path-3"></use>
                        </mask>
                        <g id="Clip-37"></g>
                        <path d="M37.2605015,0 L37.2605015,7.09517194 C37.2605015,9.84489539 35.4410169,12.5946188 31.8050046,14.6910985 C24.5290375,18.8801227 12.7319568,18.8801227 5.45598968,14.6871633 C1.81997741,12.5946188 -0.000492818144,9.8488306 -0.000492818144,7.09910714 L-0.000492818144,0 C-0.000492818144,1.20220467 0.344479883,2.40440935 1.04132474,3.55053737 C1.93726813,5.02623869 3.40882311,6.41438173 5.45598968,7.59199138 C12.7319568,11.7849507 24.5290375,11.7849507 31.8050046,7.59592658 C33.8521712,6.41438173 35.3237261,5.02623869 36.2186839,3.55053737 C36.9125718,2.40047414 37.2605015,1.20220467 37.2605015,0" id="Fill-36" fill="#316DE6" mask="url(#mask-4)"></path>
                    </g>
                    <path d="M35.4836949,56.4036655 L35.4836949,59.9512515 C35.4836949,62.161852 33.8623232,64.311457 30.9162564,66.0075297 C27.6636566,67.883638 23.2992591,68.9166289 18.6283287,68.9166289 C13.9623265,68.9166289 9.59694342,67.883638 6.34434367,66.0075297 C3.3982768,64.311457 1.77394819,62.161852 1.77394819,59.9512515 L1.77394819,56.4036655 C1.77394819,57.0028002 1.89123891,57.5950484 2.12582035,58.1774585 C2.75169939,59.7446533 4.19368528,61.2203546 6.34434367,62.4589599 C9.59694342,64.336052 13.9623265,65.3680591 18.6283287,65.3680591 C23.2992591,65.3680591 27.6636566,64.336052 30.9162564,62.4589599 C33.0669147,61.2203546 34.5098863,59.7446533 35.1318228,58.1774585 C35.3664042,57.5950484 35.4836949,57.0028002 35.4836949,56.4036655" id="Fill-39" fill="#1F2366"></path>
                    <g id="Group-43" transform="translate(0.000000, 38.551713)">
                        <mask id="mask-6" fill="white">
                            <use xlink:href="#path-5"></use>
                        </mask>
                        <g id="Clip-42"></g>
                        <path d="M37.2605015,10.7367109 C37.2605015,11.9398994 36.9125718,13.1381688 36.2186839,14.2882321 C35.3237261,15.7639334 33.8521712,17.1520764 31.8050046,18.3326375 C24.5290375,22.5226454 12.7319568,22.5226454 5.45598968,18.3296861 C3.40882311,17.1520764 1.93726813,15.7639334 1.04132474,14.2882321 C0.344479883,13.142104 -0.000492818144,11.9398994 -0.000492818144,10.7367109 C-0.000492818144,7.99092264 1.81603486,5.24119918 5.45598968,3.14471951 C12.7319568,-1.04823984 24.5290375,-1.04823984 31.8050046,3.14471951 C35.4410169,5.24119918 37.2605015,7.99092264 37.2605015,10.7367109" id="Fill-41" fill="#D1D9E8" mask="url(#mask-6)"></path>
                    </g>
                    <path d="M18.6305957,58.9631219 C13.8374464,58.9631219 9.34787313,57.8966817 5.98783902,55.9605616 C2.81310453,54.1306919 1.06360012,51.7616994 1.06360012,49.2903916 C1.06360012,46.8181 2.81310453,44.4491075 5.98783902,42.6192379 C9.34787313,40.6831177 13.8364608,39.6176614 18.6296101,39.6176614 C23.4217737,39.6176614 27.9123326,40.6831177 31.2713811,42.6202217 C34.4471012,44.4491075 36.19562,46.8181 36.19562,49.2903916 C36.19562,51.7626832 34.4471012,54.1316757 31.2723667,55.9605616 C27.9123326,57.8966817 23.4227593,58.9631219 18.6305957,58.9631219" id="Fill-44" fill="#214EA6"></path>
                    <g id="Group-48" transform="translate(0.000000, 49.288424)">
                        <mask id="mask-8" fill="white">
                            <use xlink:href="#path-7"></use>
                        </mask>
                        <g id="Clip-47"></g>
                        <path d="M37.2605015,0 L37.2605015,7.09615574 C37.2605015,9.84587919 35.4410169,12.5956027 31.8050046,14.6920823 C24.5290375,18.8811065 12.7319568,18.8811065 5.45598968,14.6881471 C1.81997741,12.5956027 -0.000492818144,9.8488306 -0.000492818144,7.09910714 L-0.000492818144,0 C-0.000492818144,1.20318847 0.344479883,2.40539315 1.04132474,3.55152117 C1.93726813,5.02722249 3.40882311,6.41536553 5.45598968,7.59297518 C12.7319568,11.7859345 24.5290375,11.7859345 31.8050046,7.59592658 C33.8521712,6.41536553 35.3237261,5.02722249 36.2186839,3.55152117 C36.9125718,2.40145794 37.2605015,1.20318847 37.2605015,0" id="Fill-46" fill="#316DE6" mask="url(#mask-8)"></path>
                    </g>
                    <path d="M35.4836949,45.74133 L35.4836949,49.2879321 C35.4836949,51.4995165 33.8623232,53.6491214 30.9162564,55.3451941 C27.6636566,57.2213024 23.2992591,58.2542933 18.6283287,58.2542933 C13.9623265,58.2542933 9.59694342,57.2213024 6.34434367,55.3451941 C3.3982768,53.6491214 1.77394819,51.4995165 1.77394819,49.2879321 L1.77394819,45.74133 C1.77394819,46.3404647 1.89123891,46.9327128 2.12582035,47.5151229 C2.75169939,49.0823177 4.19368528,50.5580191 6.34434367,51.7966244 C9.59694342,53.6737164 13.9623265,54.7057236 18.6283287,54.7057236 C23.2992591,54.7057236 27.6636566,53.6737164 30.9162564,51.7966244 C33.0669147,50.5580191 34.5098863,49.0823177 35.1318228,47.5151229 C35.3664042,46.9327128 35.4836949,46.3404647 35.4836949,45.74133" id="Fill-49" fill="#1F2366"></path>
                    <g id="Group-53" transform="translate(0.000000, 27.908562)">
                        <mask id="mask-10" fill="white">
                            <use xlink:href="#path-9"></use>
                        </mask>
                        <g id="Clip-52"></g>
                        <path d="M37.2605015,10.7367109 C37.2605015,11.9398994 36.9125718,13.1381688 36.2186839,14.2872483 C35.3237261,15.7639334 33.8521712,17.1520764 31.8050046,18.3326375 C24.5290375,22.5216616 12.7319568,22.5216616 5.45598968,18.3287023 C3.40882311,17.1520764 1.93726813,15.7639334 1.04132474,14.2872483 C0.344479883,13.142104 -0.000492818145,11.9398994 -0.000492818145,10.7367109 C-0.000492818145,7.99092264 1.81603486,5.24119918 5.45598968,3.14471951 C12.7319568,-1.04823984 24.5290375,-1.04823984 31.8050046,3.14471951 C35.4410169,5.24119918 37.2605015,7.99092264 37.2605015,10.7367109" id="Fill-51" fill="#D1D9E8" mask="url(#mask-10)"></path>
                    </g>
                    <path d="M18.6305957,48.3199704 C13.8374464,48.3199704 9.34787313,47.2535303 5.98783902,45.3174102 C2.81310453,43.4875405 1.06360012,41.118548 1.06360012,38.6462564 C1.06360012,36.1739648 2.81310453,33.8059561 5.98783902,31.9760864 C9.34787313,30.0399663 13.8364608,28.9735262 18.6296101,28.9735262 C23.4217737,28.9735262 27.9123326,30.0399663 31.2713811,31.9760864 C34.4471012,33.8059561 36.19562,36.1749486 36.19562,38.6472402 C36.19562,41.118548 34.4471012,43.4875405 31.2723667,45.3174102 C27.9123326,47.2535303 23.4227593,48.3199704 18.6305957,48.3199704" id="Fill-54" fill="#73A1FF"></path>
                    <g id="Group-58" transform="translate(0.000000, 38.645273)">
                        <mask id="mask-12" fill="white">
                            <use xlink:href="#path-11"></use>
                        </mask>
                        <g id="Clip-57"></g>
                        <path d="M37.2605015,0 L37.2605015,7.09615574 C37.2605015,9.84489539 35.4410169,12.5946188 31.8050046,14.6920823 C24.5290375,18.8811065 12.7319568,18.8811065 5.45598968,14.6881471 C1.81997741,12.5946188 -0.000492818145,9.8488306 -0.000492818145,7.09910714 L-0.000492818145,0 C-0.000492818145,1.20318847 0.344479883,2.40539315 1.04132474,3.55053737 C1.93726813,5.02722249 3.40882311,6.41536553 5.45598968,7.59199138 C12.7319568,11.7849507 24.5290375,11.7849507 31.8050046,7.59592658 C33.8521712,6.41536553 35.3237261,5.02722249 36.2186839,3.55053737 C36.9125718,2.40145794 37.2605015,1.20318847 37.2605015,0" id="Fill-56" fill="#316DE6" mask="url(#mask-12)"></path>
                    </g>
                    <path d="M50.3183096,55.2843952 C50.3163383,55.290298 50.3163383,55.2962008 50.3133814,55.3021037 C50.2404443,55.3404719 50.1684929,55.3827753 50.0955558,55.4270464 C44.0831744,58.8900255 39.2101886,67.3152962 39.2101886,74.243222 C39.2101886,76.273787 39.6280984,77.9491999 40.3732394,79.2173192 C40.8493017,80.0328901 41.4594106,80.6812149 42.181882,81.1426175 L37.8086138,78.6231035 L37.3512786,78.3574772 C35.5120812,77.172981 34.3825421,74.7941505 34.3825421,71.4600493 C34.3825421,64.5321235 39.2545422,56.1078366 45.2649523,52.6438737 C45.3398607,52.5996026 45.4118121,52.558283 45.4847492,52.518931 C45.4877061,52.514012 45.4877061,52.5081092 45.490663,52.5022064 L50.3183096,55.2843952 Z" id="Fill-59" fill="#D1D9E8"></path>
                    <path d="M77.2341639,32.6676001 C76.4367842,32.2170193 75.5615391,31.9081058 74.6172996,31.7457787 C74.5226785,31.7300378 74.4241149,31.7133132 74.32358,31.7024914 C71.8299202,31.3571773 68.8858246,32.0251781 65.7308028,33.8412745 C58.6135232,37.9427404 52.5567882,46.6759408 50.3184081,55.2841985 L45.4907616,52.5020096 C47.7291416,43.8937519 53.7858766,35.1605515 60.9021706,31.0590856 C64.058178,29.2429892 67.001288,28.5749884 69.4959334,28.9193187 C70.5525355,29.0649213 71.5283154,29.3895755 72.4065174,29.8854112 L77.2341639,32.6676001 Z" id="Fill-61" fill="#E1E8F2"></path>
                    <g id="Group-65" transform="translate(39.209794, 31.614452)">
                        <mask id="mask-14" fill="white">
                            <use xlink:href="#path-13"></use>
                        </mask>
                        <g id="Clip-64"></g>
                        <path d="M49.7904028,13.793566 C49.7904028,20.7992121 44.8651782,29.3208953 38.7828167,32.8242102 L10.8853672,48.9034518 C7.99745285,50.5670591 5.37270341,50.7834953 3.42410047,49.7878888 L2.97267905,49.5281654 C2.25020765,49.0667627 1.63911315,48.418438 1.16305082,47.602867 C0.418895423,46.3347477 0,44.6593348 0,42.6287698 C0,35.700844 4.87298581,27.2755733 10.8853672,23.8125942 C10.9583043,23.7683232 11.0302557,23.7260197 11.1031928,23.6876515 C11.1061497,23.6817487 11.1061497,23.6758459 11.108121,23.6699431 C13.346501,15.0616854 19.4042216,6.32848497 26.5205156,2.22701911 C29.6755374,0.409938888 32.619633,-0.257078108 35.1142784,0.0872521994 C35.2148133,0.0990578099 35.3123913,0.115782425 35.4070124,0.131523239 C36.3522376,0.292866583 37.2274826,0.60276386 38.0238768,1.05334466 C38.9355903,1.57082392 39.7418408,2.27129015 40.4219299,3.14588913 C40.4909244,3.23443121 40.5609046,3.32592469 40.6249709,3.41840197 C41.1907262,4.19953987 41.6589034,5.10955569 42.0186606,6.13959521 C42.6267982,6.00284688 43.2122662,5.94185123 43.7691507,5.94972164 C44.7143759,5.95759204 45.5837071,6.16714163 46.3446183,6.55869438 L46.3505321,6.56164578 L46.7802696,6.8095636 L46.7989966,6.82038541 C48.6500216,8.02259009 49.7904028,10.428967 49.7904028,13.793566" id="Fill-63" fill="#EDF4FF" mask="url(#mask-14)"></path>
                    </g>
                    <path d="M85.5548069,38.1735401 C84.7938957,37.7819873 83.9245645,37.5724377 82.9793393,37.5645673 C82.4214692,37.5557131 81.8369868,37.6176926 81.2288492,37.7534571 C80.869092,36.7234176 80.4009148,35.8143856 79.8351595,35.0332477 C80.1387355,35.1208059 80.4285126,35.2388621 80.7074476,35.3805294 L81.18351,35.6550098 L85.5548069,38.1735401 Z" id="Fill-66" fill="#D1D9E8"></path>
                    <path d="M67.3743513,58.2838074 L64.9772839,56.9025509 L65.4750302,56.6890661 L66.1876452,56.3840879 L66.4941781,56.2542261 C66.5099483,56.3280112 66.5247328,56.3978611 66.5434599,56.4667271 C66.6173826,56.773673 66.713975,57.0589753 66.8263375,57.3246015 C66.9327862,57.5774383 67.0559908,57.8125667 67.1959511,58.0270353 C67.2521324,58.117545 67.3122562,58.2011681 67.3743513,58.2838074" id="Fill-68" fill="#BF4200"></path>
                    <path d="M66.0942069,61.5244475 L63.1855942,59.8490346 C63.061404,59.7772171 63.0485908,59.5578295 63.1550395,59.3354905 L64.2017852,57.1612906 L64.207699,57.164242 C64.2569809,57.183918 64.3200616,57.1829342 64.3880705,57.1534201 L64.977481,56.9025509 L67.3745484,58.2838074 C67.3755341,58.2847912 67.3745484,58.285775 67.3765197,58.2867588 L66.0636522,61.0118872 C65.9572035,61.2332424 65.9700167,61.4536138 66.0942069,61.5244475" id="Fill-70" fill="#D9530B"></path>
                    <path d="M66.5499651,52.4021538 L63.6413524,50.7267409 C63.8384797,49.7262154 64.1548689,48.7119167 64.5786925,47.7202454 L67.4863196,49.3966421 C67.235968,49.984955 67.0220849,50.5791708 66.8495985,51.1773217 C66.7293509,51.5855991 66.6307873,51.9948602 66.5499651,52.4021538" id="Fill-72" fill="#BF4200"></path>
                </g>
                <g id="Group-77" transform="translate(63.182071, 43.124124)" fill="#D9530B">
                    <path d="M1.56142023,0.307929675 L0.103664155,2.82842753 C-0.0215116541,3.04387992 -0.0353105622,3.27802453 0.0731094296,3.37542081 L0.0731094296,3.37542081 L1.39681897,4.5953339 L1.39583333,4.59631771 L4.30444602,6.2727144 L4.30444602,6.2717306 L3.95454514,5.94806011 L2.98073648,5.05181751 C2.88217285,4.96229163 2.88512976,4.75962865 2.98270776,4.56090087 L2.98270776,4.56090087 C2.99059285,4.54220866 3.00044921,4.52253264 3.01227684,4.50384042 L3.01227684,4.50384042 L4.47003292,1.98334257 C4.59323745,1.76985778 4.79036471,1.64097987 4.93032506,1.6842671 L4.93032506,1.6842671 L6.31415841,2.11418809 L6.70841293,2.2371632 L3.80078588,0.5597827 L2.02171237,0.00885420791 C2.00298528,0.00295140264 1.98425819,0 1.96454547,0 L1.96454547,0 C1.83148457,0 1.66885458,0.121991309 1.56142023,0.307929675" id="Fill-75"></path>
                </g>
                <path d="M75.3509087,41.3401983 L75.2464312,40.4655994 L75.179408,39.9166385 L77.3842763,41.1877092 L77.3842763,41.188693 C77.2462873,41.1660656 77.1063269,41.1522924 76.962424,41.1454058 C76.7061586,41.1316326 76.4400368,41.1414706 76.1660299,41.1768874 C75.9018794,41.208369 75.6298437,41.2624781 75.3509087,41.3401983" id="Fill-78" fill="#BF4200"></path>
                <g id="Group-82" transform="translate(69.100003, 37.003899)" fill="#D9530B">
                    <path d="M2.69867216,0.0472224422 L0.636721043,1.2356539 C0.460292147,1.33698539 0.31343234,1.5721138 0.289777069,1.78461479 L0.289777069,1.78461479 L0,4.50777563 L2.90861269,6.18318852 L3.19838976,3.46101149 C3.20430358,3.39608063 3.2240163,3.32918217 3.25259975,3.26523512 L3.25259975,3.26523512 C3.31469484,3.11864879 3.4221292,2.98190046 3.54533373,2.9110668 L3.54533373,2.9110668 L4.29244604,2.48114582 L4.81089073,2.18108655 L5.60728485,1.72165154 C5.69204957,1.6754129 5.7689292,1.66557489 5.82905301,1.68721851 L5.82905301,1.68721851 L2.92044032,0.0118056105 C2.9007276,0.00393520351 2.87805796,0 2.85440269,0 L2.85440269,0 C2.80807779,0 2.75485343,0.0147570132 2.69867216,0.0472224422" id="Fill-80"></path>
                </g>
                <path d="M69.8909764,45.3608942 L66.9823638,43.6844975 C67.6289412,42.8728617 68.3425418,42.1369787 69.0995105,41.5122651 L69.1004961,41.5112813 L72.0091088,43.187678 L72.0081232,43.1886618 C71.6059836,43.5202027 71.2156716,43.8822414 70.8421155,44.2728104 C70.8411298,44.2737942 70.8411298,44.2737942 70.8401442,44.274778 C70.5119273,44.6171407 70.1935668,44.9801632 69.8909764,45.3608942" id="Fill-83" fill="#BF4200"></path>
                <g id="Group-87" transform="translate(61.176473, 50.726938)" fill="#D9530B">
                    <path d="M2.46409072,0.00393520351 L0.302590341,1.5721138 C0.129118354,1.70000792 0,1.94497434 0,2.14763732 L0,2.14763732 L0,4.52450024 C0,4.62681553 0.0344972701,4.7045358 0.0896929023,4.74290404 L0.0896929023,4.74290404 L2.99929123,6.41930073 C2.94212432,6.3799487 2.90959833,6.30419603 2.90762705,6.20188074 L2.90762705,6.20188074 L2.90861269,5.66177406 L2.90861269,5.27514031 L2.90861269,3.82305021 C2.90762705,3.77189257 2.91649778,3.71679972 2.93226796,3.66170687 L2.93226796,3.66170687 C2.97760723,3.50331493 3.08307031,3.34295539 3.21218867,3.2485105 L3.21218867,3.2485105 L5.37270341,1.6783643 C5.37368905,1.6773805 5.37270341,1.6763967 5.37368905,1.6754129 L5.37368905,1.6754129 L2.46507636,0 C2.46409072,0.000983800879 2.46507636,0.00295140264 2.46409072,0.00393520351" id="Fill-85"></path>
                </g>
                <g id="Group-126" transform="translate(50.824918, 36.605147)">
                    <path d="M21.4078319,25.3468608 L18.4992192,23.6714479 C18.4903485,23.6635775 18.4824634,23.6547233 18.4735926,23.6458691 L18.8747466,23.0595238 C19.1536817,23.102811 19.4464157,23.1136328 19.7509773,23.0969082 C20.1639589,23.0723132 20.5996101,22.9936091 21.0490603,22.8568608 L21.3319379,25.1874851 C21.3408086,25.2583187 21.3684064,25.3134116 21.4078319,25.3468608" id="Fill-88" fill="#BF4200"></path>
                    <path d="M26.5598513,4.58226756 L24.3539973,3.31119682 L24.2298071,2.2713193 C24.2209364,2.21622645 24.203195,2.17195541 24.1765828,2.13850618 L24.181511,2.13161957 L25.4648094,0.254527494 C25.6037841,0.0508807122 25.8009114,-0.0474993757 25.9241159,0.0223504867 L28.8327286,1.69874718 C28.7095241,1.62791352 28.5123968,1.72727741 28.3734221,1.92994039 L26.5598513,4.58226756 Z" id="Fill-90" fill="#D9530B"></path>
                    <path d="M29.7246309,7.87957458 C29.6408518,7.51261686 29.5294749,7.17418935 29.3924715,6.86330828 C29.2534967,6.54652439 29.0879098,6.25925454 28.8996533,6.00346631 L29.2732095,5.22823122 L32.1719658,6.89774131 C32.1236696,6.87904909 32.0635458,6.88298429 31.9965225,6.91151452 L29.7246309,7.87957458 Z" id="Fill-92" fill="#D9530B"></path>
                    <path d="M16.7323676,20.8024878 C16.5243983,20.4571737 16.3568401,20.0626695 16.2346212,19.6209429 C16.0759338,19.052306 15.9911691,18.4069326 15.9911691,17.6917094 C15.9911691,17.6779362 15.9901834,17.664163 15.9911691,17.6484222 C15.9931404,17.1211049 16.0414365,16.5800144 16.1311294,16.0310535 C16.1547847,15.885451 16.1813969,15.7388647 16.2119516,15.5912945 C16.3095296,15.0993941 16.4416049,14.6045423 16.6022636,14.111658 C16.7225112,13.7368299 16.8605003,13.3639693 17.0142596,12.9940602 C17.6105695,11.5537757 18.4394896,10.1626813 19.422169,8.96047661 C19.5788852,8.76765164 19.7405295,8.57876187 19.9061164,8.39774251 C20.254046,8.01110876 20.6197171,7.64907004 20.9982014,7.31654534 C21.1943431,7.14339639 21.3954129,6.97811784 21.5994396,6.8216935 C21.9473692,6.55508346 22.3021982,6.31306845 22.6668837,6.10253506 C22.6816682,6.09368085 22.6944815,6.08581044 22.709266,6.07695623 C23.3302169,5.71983652 23.9324407,5.46896729 24.5031241,5.32336476 C24.947646,5.20727626 25.3754122,5.15513481 25.7785374,5.16103762 C26.031846,5.16595662 26.2762838,5.19251924 26.5088939,5.24466069 C26.9711573,5.34304078 27.3900528,5.53094675 27.7586807,5.80247579 C28.4683389,6.32389026 28.9867836,7.1542182 29.243049,8.25017238 C29.3632966,8.76174883 29.4263773,9.32743434 29.427363,9.94919649 C29.427363,14.2247951 26.4201867,19.4251666 22.7082804,21.5629659 C22.1297119,21.8974582 21.5669136,22.1375056 21.0307274,22.2870433 C19.9879242,22.5782484 19.0446703,22.5329935 18.2630607,22.1857118 C17.8490935,22.0046925 17.4804655,21.7370986 17.1670332,21.3917845 C17.0073601,21.2147004 16.8624716,21.0179402 16.7323676,20.8024878 M17.1877315,25.5286672 L18.4690587,23.6525589 L18.4739869,23.6456723 L18.8751409,23.059327 C19.1540759,23.1026142 19.4468099,23.1144199 19.7513715,23.0967114 C20.1643531,23.0731002 20.5990187,22.9943961 21.0484689,22.856664 L21.3323321,25.1872883 C21.3412029,25.258122 21.3688007,25.3132148 21.4082261,25.346664 L21.4555367,25.3742105 C21.5166461,25.3968379 21.5945114,25.3860161 21.6782905,25.3378098 L23.7412272,24.1493784 C23.9156849,24.0490307 24.0645159,23.8129185 24.0871856,23.5994337 L24.3700632,20.9431713 C25.13196,20.2968141 25.847532,19.5373199 26.495095,18.7030567 L28.2731829,19.2559528 C28.4121576,19.2982562 28.6082992,19.1703621 28.733475,18.9568773 L30.1922167,16.4353957 C30.3164069,16.2199433 30.3292202,15.9857987 30.2227715,15.8874186 L28.8497801,14.6232345 C29.2391064,13.671899 29.5328261,12.703839 29.7102406,11.7475845 L31.9979024,10.0869286 C32.1703888,9.9600183 32.3014784,9.71505188 32.3004983,9.5123889 L32.3004983,7.13454218 C32.3004983,7.03911349 32.2709237,6.96729603 32.2206562,6.92696019 L32.17236,6.89744617 C32.1240639,6.87973775 32.0629544,6.88367296 31.9969168,6.91121938 L29.7250251,7.87927944 C29.6412461,7.51232172 29.5288835,7.17389421 29.3928657,6.86301314 C29.253891,6.54622925 29.0883041,6.2589594 28.8990619,6.00317117 L29.2736037,5.22793608 L29.2736037,5.22596847 L30.3223207,3.05176853 C30.4287694,2.82942953 30.4159562,2.61200954 30.2907804,2.54019208 L28.8320387,1.69904232 C28.7088341,1.62820866 28.5126925,1.72658875 28.3737178,1.92925173 L26.560147,4.5825627 L26.5591614,4.5835465 C26.4221579,4.56091908 26.2812119,4.54714587 26.137309,4.54025926 C25.8810436,4.52648605 25.6159074,4.53632406 25.3409149,4.57174089 C25.0767644,4.60322252 24.8047288,4.65733157 24.5257937,4.73505184 L24.4213163,3.86045285 L24.354293,3.31149196 L24.2291172,2.27161444 C24.2212321,2.21553779 24.2034906,2.17225055 24.1758928,2.13781752 C24.1689934,2.12896331 24.1620939,2.1210929 24.1532232,2.1142063 L24.1039414,2.08665987 C24.0438176,2.06403245 23.9669379,2.07387046 23.8821732,2.1210929 L23.0857791,2.58052791 L22.5663488,2.87960338 L21.8202221,3.31050816 C21.6970176,3.38035803 21.5895832,3.51710635 21.5274881,3.66369268 C21.4989047,3.72862354 21.4791919,3.795522 21.4732781,3.85946905 L21.1844867,6.58262989 L21.1835011,6.58361369 C20.7803758,6.91515458 20.3910495,7.27719331 20.0174933,7.66677845 C19.6873052,8.01110876 19.3689446,8.37413129 19.0663543,8.75584603 L18.6711142,8.63287092 L17.2862952,8.20294993 C17.1473205,8.15966269 16.9501932,8.28854061 16.8269887,8.5020254 L15.3692326,11.0235071 C15.357405,11.0412155 15.3485342,11.0608915 15.3396635,11.0805675 C15.2430711,11.2783115 15.2401142,11.4809745 15.3386779,11.5705003 L16.3115009,12.4667429 L16.6623874,12.7904134 L16.6614018,12.7913972 C16.4110501,13.3797102 16.1981527,13.9749097 16.0246807,14.5720768 C15.9044331,14.9803542 15.8058695,15.3896154 15.7250473,15.7969089 C15.7250473,15.7978927 15.7250473,15.7998603 15.7240617,15.8008441 L13.5635469,17.3709903 C13.4344286,17.4644514 13.3289655,17.6257947 13.2836262,17.7841867 C13.267856,17.8382957 13.2589853,17.8933886 13.2599709,17.94553 L13.2599709,19.3966363 L13.2599709,19.7832701 L13.2589853,20.3233768 C13.2609566,20.4256921 13.2934826,20.5014447 13.3506495,20.5407968 L13.3831755,20.559489 C13.4324573,20.5781812 13.4945524,20.5771974 13.5635469,20.5476834 L14.1519718,20.2968141 L14.6507037,20.0843131 L15.3633188,19.7793349 L15.6698517,19.6494732 C15.6856218,19.7222744 15.7004064,19.7931081 15.7191335,19.8619741 C15.7930562,20.1679362 15.8886629,20.4542223 16.0010254,20.7198485 C16.1084598,20.9726853 16.2316643,21.2068299 16.3706391,21.4222823 C16.4268203,21.512792 16.4869441,21.5964151 16.5490392,21.6790544 C16.5510105,21.6800382 16.5500249,21.681022 16.5510105,21.6820058 L15.238143,24.4061504 C15.1316942,24.6284894 15.1445075,24.847877 15.2696833,24.9196945 L16.728425,25.7598604 C16.8516296,25.8306941 17.0477712,25.7332978 17.1877315,25.5286672" id="Fill-94" fill="#FF7D33"></path>
                    <path d="M18.9259997,15.9997687 C18.9259997,13.5914241 20.6203085,10.6646165 22.7098574,9.46142802 C24.7984207,8.25725574 26.4917439,9.23121861 26.4927295,11.6385794 C26.4927295,14.0469239 24.7984207,16.9747153 22.7088718,18.1798714 C20.6203085,19.3830599 18.9259997,18.4071294 18.9259997,15.9997687 M22.7098574,21.5621788 C26.420778,19.4243795 29.4279544,14.2249919 29.426969,9.94939325 C29.4279544,5.67182703 26.420778,3.93836988 22.7098574,6.07616919 C18.9989368,8.2149523 15.9907748,13.4153237 15.9907748,17.69289 C15.9917605,21.9675048 18.9979511,23.7019457 22.7098574,21.5621788" id="Fill-96" fill="#DF6D30"></path>
                    <path d="M22.7096603,10.1306094 C24.4739492,9.11434307 25.911007,9.94073581 25.911007,11.9742522 C25.911007,14.0097362 24.4739492,16.4918659 22.7096603,17.509116 C20.9443857,18.5263661 19.507328,17.6989895 19.507328,15.6644893 C19.507328,13.6309729 20.9443857,11.1478595 22.7096603,10.1306094 M22.7096603,18.1800682 C24.7992092,16.9758959 26.4925324,14.0471207 26.4925324,11.6387761 C26.4925324,9.23141537 24.7992092,8.2564687 22.7096603,9.46064098 C20.6201114,10.6648133 18.9267882,13.5916209 18.9267882,15.9999654 C18.9267882,18.4073262 20.6201114,19.3832566 22.7096603,18.1800682" id="Fill-98" fill="#FF7D33"></path>
                    <path d="M19.8981328,17.2035474 C19.7847846,17.0294147 19.6941061,16.8267517 19.6280684,16.5975261 C19.5738584,16.4096201 19.5373899,16.2020381 19.5206341,15.9796991 C19.6142695,15.9354281 19.7069193,15.8872218 19.8005548,15.832129 C21.5658294,14.8158627 23.0019014,12.3337331 23.0019014,10.2972652 C23.0028871,10.1890471 22.9989445,10.0847643 22.9900738,9.98343276 C23.1921293,9.88702028 23.3902421,9.81520281 23.5794843,9.76896417 C23.794353,9.71387132 24.0013366,9.6902601 24.195507,9.69714671 C24.6193306,9.70895232 24.9869729,9.86045765 25.2708362,10.1349381 C25.6522774,10.500912 25.8868589,11.0843059 25.9085429,11.8516706 L25.9075572,11.8536382 C25.9105141,11.8939741 25.9105141,11.9343099 25.9105141,11.9736619 C25.9105141,14.009146 24.4744421,16.4912756 22.7091675,17.5095095 C22.6736846,17.5291855 22.6401729,17.5478777 22.60469,17.5665699 C21.8970032,17.9502523 21.2445119,18.0319078 20.724096,17.8558074 C20.3870084,17.7426703 20.1051164,17.5213151 19.8981328,17.2035474" id="Fill-100" fill="#BF4200"></path>
                    <path d="M25.6156118,17.0825399 C25.2538832,16.8739741 25.2538832,16.1990867 25.6156118,15.5724056 C25.9773403,14.947692 26.5637939,14.6092645 26.9255224,14.8178303 C27.2872509,15.0263961 27.2872509,15.7022673 26.9255224,16.3269808 C26.5628082,16.953662 25.9773403,17.2911057 25.6156118,17.0825399" id="Fill-102" fill="#BF4200"></path>
                    <path d="M21.5902732,20.4210682 C21.5902732,19.8307877 22.005226,19.1135968 22.5167713,18.8184566 C23.0283165,18.5233163 23.4422855,18.7633637 23.4422855,19.3536442 C23.4432694,19.942941 23.0283165,20.6601318 22.5157856,20.9552721 C22.0042404,21.2504123 21.5912588,21.0103649 21.5902732,20.4210682" id="Fill-104" fill="#BF4200"></path>
                    <path d="M18.119355,21.3703377 C17.7576264,21.1617719 17.7566408,20.4868845 18.119355,19.8611871 C18.4810835,19.2345059 19.0665514,18.8970622 19.4292656,19.105628 C19.7909941,19.3141938 19.7909941,19.990065 19.4292656,20.6147786 C19.0665514,21.2414597 18.4810835,21.5789034 18.119355,21.3703377" id="Fill-106" fill="#BF4200"></path>
                    <path d="M16.3083468,17.3323269 C16.3093325,16.7430302 16.7223141,16.0268232 17.234845,15.7316829 C17.7463902,15.4365427 18.1613431,15.6765901 18.1603592,16.264903 C18.1603592,16.8551835 17.7473758,17.5713906 17.2358306,17.8665308 C16.7232997,18.1616711 16.3083468,17.9226075 16.3083468,17.3323269" id="Fill-108" fill="#BF4200"></path>
                    <path d="M18.1458686,12.7159397 C17.7841401,12.5073739 17.7841401,11.8315027 18.1458686,11.2067892 C18.5075971,10.580108 19.0940507,10.2426643 19.4567648,10.4502463 C19.8184934,10.6588121 19.8175077,11.3356671 19.4557792,11.9603806 C19.0940507,12.586078 18.5075971,12.9245055 18.1458686,12.7159397" id="Fill-110" fill="#BF4200"></path>
                    <path d="M21.6288115,8.18022413 C21.6288115,7.58994361 22.0427788,6.87373657 22.5553096,6.5785963 C23.0668549,6.28345604 23.4808221,6.52251965 23.4808221,7.11280018 C23.4808221,7.70308071 23.0668549,8.41830395 22.554324,8.71344421 C22.0427788,9.00858447 21.6288115,8.77050466 21.6288115,8.18022413" id="Fill-112" fill="#BF4200"></path>
                    <path d="M25.6425196,8.42814195 C25.2807911,8.21957617 25.2798055,7.54272116 25.6425196,6.91800761 C26.0042481,6.29231025 26.5907017,5.95486655 26.9524303,6.16343233 C27.3131731,6.37003052 27.3141588,7.04786932 26.9524303,7.67258288 C26.5907017,8.29729644 26.0042481,8.63670774 25.6425196,8.42814195" id="Fill-114" fill="#BF4200"></path>
                    <path d="M26.910245,11.2670962 C26.910245,10.6787832 27.3242123,9.96060858 27.8367431,9.66546832 C28.3482884,9.37032806 28.7632412,9.60939167 28.7642269,10.1986884 C28.7632412,10.7899527 28.3482884,11.5071436 27.8367431,11.8022838 C27.3251979,12.0974241 26.910245,11.8573767 26.910245,11.2670962" id="Fill-116" fill="#BF4200"></path>
                    <path d="M17.832042,21.955404 C19.0374752,22.5771662 20.6618038,22.4463207 22.4517193,21.4143136 C26.1626399,19.2765142 29.1708019,14.0771266 29.1698162,9.80152798 C29.1698162,7.73554614 28.4700145,6.26574762 27.327662,5.53675117 C28.6208168,6.20180057 29.4270675,7.73357853 29.4270675,9.94909811 C29.4280529,14.2256805 26.419891,19.4250682 22.709956,21.5628675 C20.7879652,22.6696435 19.0552166,22.7394933 17.832042,21.955404" id="Fill-118" fill="#D9530B"></path>
                    <path d="M18.6689458,15.851805 C18.6689458,13.4424767 20.3632545,10.515669 22.4528035,9.31346437 C23.5616443,8.67300999 24.5620651,8.64841497 25.2529962,9.127526 C24.5807922,8.81172592 23.6887914,8.89633279 22.7100545,9.4610345 C20.6205056,10.6652068 18.9261968,13.5910306 18.9261968,15.9993751 C18.9261968,17.1277947 19.2967961,17.9394305 19.9078906,18.3634486 C19.147965,18.0053451 18.6689458,17.1307461 18.6689458,15.851805" id="Fill-120" fill="#D9530B"></path>
                    <path d="M3.39256891,37.0102137 L1.54548651,35.9457412 L2.71445114,35.4479379 C2.8218855,35.956563 2.99535749,36.396322 3.22402511,36.7662311 C3.27724947,36.850838 3.33343073,36.9334773 3.39256891,37.0102137" id="Fill-122" fill="#214EA6"></path>
                    <path d="M2.40594699,39.5071988 L0.0798453432,38.167262 C-0.0167470131,38.1111853 -0.026603376,37.9419716 0.055204436,37.7707902 L0.864411829,36.0934097 L0.911722371,36.1219399 C0.926506916,36.1337455 0.942277096,36.1445674 0.961989822,36.1504702 C0.998458365,36.1642434 1.042812,36.1603082 1.09209381,36.1386645 L1.54548651,35.9458396 L3.39256891,37.0103121 C3.39355455,37.0112959 3.39256891,37.0122797 3.39454018,37.0132635 L3.14221729,37.534678 L2.38229171,39.1117108 C2.3004839,39.2819084 2.30935463,39.4511221 2.40594699,39.5071988" id="Fill-124" fill="#3C63B1"></path>
                </g>
                <g id="Group-129" transform="translate(49.356723, 67.748660)" fill="#3C63B1">
                    <path d="M0.234581437,1.20810748 C0.0995492652,1.30747137 0.000985636289,1.49439353 0,1.65081787 L0,1.65081787 L0,3.48167131 C0.000985636289,3.55152117 0.0197127258,3.60464642 0.0532243596,3.63711185 L0.0532243596,3.63711185 L2.33201546,4.95048602 L2.34482873,4.9229396 C2.3330011,4.89539317 2.32807291,4.86194394 2.32708728,4.82357571 L2.32708728,4.82357571 L2.32807291,4.40742794 L2.32610164,4.21558677 L2.32708728,2.99272227 C2.32807291,2.83531413 2.42663654,2.64839197 2.56068308,2.55001188 L2.56068308,2.55001188 L4.22542277,1.3409206 L1.89833549,0 L0.234581437,1.20810748 Z" id="Fill-127"></path>
                </g>
                <path d="M53.5817513,69.0892859 L51.2546641,67.7483653 L51.2556497,67.7473815 C51.4054664,66.9760816 51.6518755,66.1939599 51.9781211,65.4285629 L54.3042227,66.7704673 C54.0804833,67.2958169 53.894198,67.8300208 53.7512808,68.3642247 C53.6842575,68.6052559 53.6290619,68.8472709 53.5817513,69.0883021 L53.5817513,69.0892859 Z" id="Fill-130" fill="#214EA6"></path>
                <g id="Group-134" transform="translate(50.902994, 61.889142)" fill="#3C63B1">
                    <path d="M1.20168251,0.237096012 L0.0780571433,2.17911895 C-0.0165639405,2.34439749 -0.0264203034,2.52443305 0.0553875086,2.60018572 L0.0553875086,2.60018572 L1.07552107,3.53971556 L3.40063707,4.88063616 L3.05270746,4.55893327 L2.38148915,3.94012252 C2.29968134,3.86535365 2.30855207,3.68433429 2.40514442,3.52102334 L2.40514442,3.52102334 L3.52778416,1.57801661 C3.62339088,1.41273806 3.77517886,1.31337417 3.88359886,1.3468234 L3.88359886,1.3468234 L4.84459424,1.64491507 L5.25264766,1.77182538 L5.2536333,1.76887398 L2.92753166,0.427953382 L2.92556038,0.431888586 L1.55651158,0.00688660615 C1.54271267,0.00196760176 1.52792812,0 1.51215794,0 L1.51215794,0 C1.40965177,0 1.28447596,0.0924772826 1.20168251,0.237096012" id="Fill-132"></path>
                </g>
                <g id="Group-139" transform="translate(53.830920, 59.468697)" fill="#214EA6">
                    <path d="M2.32610164,4.18863062 L0,2.84869382 C0.497746326,2.22299647 1.04674574,1.65927856 1.62925679,1.17819993 L1.63024242,1.17524853 L3.95634406,2.51518533 L3.95634406,2.52010433 C3.70402117,2.72768632 3.4576121,2.95199292 3.21908812,3.18908893 C2.90762705,3.50095381 2.60897926,3.83544611 2.32610164,4.18863062" id="Fill-135"></path>
                    <path d="M6.5304318,1.09595418 L6.39835653,0 L8.09660786,0.977898073 C7.97241769,0.959205857 7.84625624,0.947400246 7.71713789,0.943465043 C7.34358174,0.930675631 6.94637031,0.979865675 6.5304318,1.09595418" id="Fill-137"></path>
                </g>
                <g id="Group-142" transform="translate(60.011451, 56.867823)" fill="#3C63B1">
                    <path d="M0.986621925,0.195776375 L0,1.63999606 L0.044353633,1.66459109 C0.0837790846,1.68918611 0.112362537,1.73444095 0.121233264,1.79937181 L0.121233264,1.79937181 L0.21782562,2.60116952 L1.91706258,3.5780838 L2.26302092,3.07142634 L3.31272357,1.53768077 C3.41917229,1.38027263 3.57194591,1.30353616 3.66755263,1.35862901 L3.66755263,1.35862901 L1.34145099,0.0177084158 C1.31976699,0.00590280527 1.29611172,0 1.27048518,0 L1.27048518,0 C1.18079227,0 1.06941537,0.0737850659 0.986621925,0.195776375" id="Fill-140"></path>
                </g>
                <path d="M64.3659922,62.9866707 C64.2841844,62.629551 64.168865,62.3068643 64.0229908,62.0186106 C63.9352692,61.8454617 63.8376912,61.6870697 63.7302568,61.5404834 L64.006235,60.9708627 L64.017077,60.9452839 L66.2465863,62.229144 C66.2111034,62.2163546 66.1657641,62.2202898 66.1164823,62.2409496 L64.3659922,62.9866707 Z" id="Fill-143" fill="#3C63B1"></path>
                <g id="Group-147" transform="translate(55.460768, 57.174769)" fill="#3C63B1">
                    <path d="M2.07870693,0.0354168316 L1.46465553,0.389585148 L0.489861236,0.95133545 C0.353843428,1.03003952 0.241480891,1.21007508 0.222753801,1.37436983 L0.222753801,1.37436983 L0,3.4688819 L2.32708728,4.8088187 L2.54885544,2.71529043 C2.56758253,2.55197948 2.67994507,2.36899252 2.81596288,2.29225605 L2.81596288,2.29225605 L3.5,1.8977519 L3.7917428,1.72952194 L4.40382294,1.37535363 C4.45606166,1.3468234 4.50238657,1.33698539 4.54476893,1.3409206 L4.54476893,1.3409206 L4.55068275,1.33305019 L2.2679491,0.0177084158 C2.24725074,0.00590280527 2.22359547,0 2.19698329,0 L2.19698329,0 C2.16051475,0 2.12010366,0.0108218097 2.07870693,0.0354168316" id="Fill-145"></path>
                </g>
                <g id="Group-172" transform="translate(51.683810, 58.208565)">
                    <path d="M6.2870782,18.2390592 L4.01124401,16.9276526 L4.01617219,16.9197822 L4.32467635,16.4701852 C4.48434942,16.4947802 4.64895068,16.5046182 4.81848013,16.5036344 C5.19006501,16.5026506 5.5862908,16.4396874 5.9992724,16.3147447 L6.21709802,18.1101813 C6.22596875,18.1711769 6.24962402,18.215448 6.2870782,18.2390592" id="Fill-148" fill="#214EA6"></path>
                    <path d="M4.36439749,11.032521 C4.36439749,9.17707253 5.66937994,6.92318472 7.27793836,5.99546049 C8.88748242,5.06872006 10.1924649,5.81837633 10.1934505,7.67382479 C10.1924649,9.52828944 8.88748242,11.7841449 7.278924,12.7118691 C5.66937994,13.6386095 4.36439749,12.8879694 4.36439749,11.032521 M3.02393214,18.3726593 L4.3239864,16.4699884 C4.83257473,16.5457411 5.39734432,16.4985187 5.99956809,16.3145479 L6.21739371,18.1099845 C6.23513517,18.2546032 6.34946897,18.3047771 6.48351551,18.226073 L8.07334684,17.3101544 C8.20837902,17.2324341 8.32271283,17.050431 8.33946864,16.88712 L8.55729426,14.8408142 C9.14473349,14.3430109 9.69668981,13.7586332 10.1944361,13.1152274 L11.5644706,13.5412132 C11.6709193,13.5736787 11.8217217,13.4752986 11.9173284,13.31002 L13.0409537,11.3679971 C13.1375461,11.2017347 13.1483881,11.022683 13.064609,10.9469303 L12.0089925,9.97296744 C12.308626,9.24003578 12.5343367,8.49333092 12.6713401,7.75843166 L14.4326722,6.47850672 C14.5667187,6.38209423 14.6672536,6.19222066 14.6672536,6.03678012 L14.666268,4.20494289 C14.6672536,4.04950235 14.5667187,3.97473348 14.4326722,4.03277773 L12.6821821,4.7784988 C12.5501069,4.20691049 12.3342525,3.72091285 12.0464467,3.33231151 L13.1424743,1.05973148 C13.2242821,0.887566324 13.2144257,0.720320175 13.118819,0.665227326 L11.9951936,0.0178863475 C11.9005726,-0.0372065017 11.7468133,0.0385461659 11.6413502,0.195954307 L10.243718,2.23832493 C9.76666999,2.16453986 9.23935457,2.1989729 8.67754189,2.35638104 L8.44887427,0.458629141 C8.43113282,0.314994213 8.31679901,0.265804169 8.18176684,0.342540637 L6.59390677,1.25747545 C6.45690333,1.33617952 6.34454079,1.51719889 6.3258137,1.68149363 L6.1030599,3.77994091 C5.51956322,4.26003574 4.96957817,4.82572124 4.47084621,5.4524024 L3.10278304,5.02740042 C2.99436305,4.99395119 2.84257506,5.09331508 2.74696834,5.25859363 L1.62334297,7.20061656 C1.52872188,7.36491131 1.51886552,7.54593067 1.60067333,7.62069954 L2.61982126,8.56121318 C2.29456128,9.32661026 2.04815221,10.108732 1.89833549,10.8800318 L0.233595801,12.0891231 C0.0995492652,12.188487 0,12.3754092 0,12.5318335 L0,14.3636708 C0,14.5181275 0.0995492652,14.5928964 0.233595801,14.5358359 L1.85595313,13.8442239 C1.9880284,14.4699213 2.2216242,14.9942871 2.53604217,15.4094511 L1.5237937,17.5078984 C1.44198589,17.6790797 1.44987098,17.8482935 1.54744897,17.9033863 L2.67107434,18.5517111 C2.76470979,18.6058201 2.91748342,18.5300675 3.02393214,18.3726593" id="Fill-150" fill="#316DE6"></path>
                    <path d="M3.78306874,11.3678987 C3.78306874,9.14746012 5.35121654,6.4361049 7.27813549,5.32539371 C9.20604007,4.21468252 10.7741874,5.11781172 10.7741874,7.33825031 C10.7741874,9.55967269 9.20604007,12.2710279 7.27813549,13.3827229 C5.3502309,14.4934341 3.78208357,13.5893211 3.78306874,11.3678987 M3.03201435,14.7748011 L3.23998361,15.047314 L2.15184115,17.3031694 L2.88712582,17.7271876 L4.29165753,15.6720275 L4.63465896,15.7251528 C5.09692238,15.7950027 5.60156816,15.7477802 6.13282612,15.5854531 L6.52510936,15.4654294 L6.75870516,17.3976143 L7.79855145,16.7994634 L8.03313288,14.5967332 L8.42443049,14.2651923 C8.94188954,13.8274009 9.43470769,13.307954 9.88810038,12.7216087 L10.2301162,12.2798821 L11.7016712,12.7373495 L12.4359702,11.4672626 L11.3024885,10.4204985 L11.5144003,9.9059706 C11.7854502,9.24092121 11.9845488,8.57488801 12.1047964,7.92754703 L12.1984318,7.42384098 L14.0849397,6.05635776 L14.0849397,4.85710449 L12.2073026,5.6559508 L12.1156384,5.25652765 C12.0003189,4.7528216 11.8100911,4.31896541 11.5469263,3.96479709 L11.3448708,3.68933285 L12.5138355,1.26327988 L11.7785508,0.840245502 L10.2754554,3.03805667 L9.93245401,2.98493142 C9.49778841,2.91704916 9.0276399,2.95246599 8.53285048,3.08921431 L8.15239487,3.194481 L7.90795707,1.1717864 L6.86613952,1.76993733 L6.6266299,4.03366315 L6.22547593,4.36422025 C5.70998815,4.78922223 5.21815564,5.29292828 4.76771986,5.85959759 L4.42866097,6.28558337 L2.96499108,5.83106736 L2.22970641,7.10213809 L3.33263342,8.1184044 L3.10790835,8.64670547 C2.8132031,9.33831749 2.59636311,10.0358323 2.46231658,10.7205577 L2.36572422,11.2173772 L0.581722538,12.5130429 L0.580736902,13.7122962 L2.33812641,12.9626399 L2.4248624,13.3748525 C2.54116748,13.925781 2.74519419,14.3960378 3.03201435,14.7748011" id="Fill-152" fill="#73A1FF"></path>
                    <path d="M5.81160725,10.1996352 C5.81160725,9.26600813 6.46902666,8.12971811 7.27823405,7.6633965 C8.08842708,7.19609108 8.74584648,7.57485442 8.74584648,8.50848145 C8.74584648,9.44112468 8.08842708,10.5774147 7.27823405,11.0437363 C6.46902666,11.5110417 5.81160725,11.1322784 5.81160725,10.1996352 M7.27823405,12.7122626 C8.88777811,11.7835546 10.1917749,9.52769916 10.1927606,7.67421831 C10.1927606,5.81876985 8.88777811,5.06812978 7.27823405,5.99585401 C5.66967563,6.92357824 4.36469318,9.17746605 4.36469318,11.0329145 C4.36469318,12.8873792 5.66868999,13.639003 7.27823405,12.7122626" id="Fill-154" fill="#73A1FF"></path>
                    <path d="M5.81160725,10.1996352 C5.81160725,9.26600813 6.46902666,8.12971811 7.27823405,7.6633965 C8.08842708,7.19609108 8.74584648,7.57485442 8.74584648,8.50848145 C8.74584648,9.44112468 8.08842708,10.5774147 7.27823405,11.0437363 C6.46902666,11.5110417 5.81160725,11.1322784 5.81160725,10.1996352" id="Fill-156" fill="#214EA6"></path>
                    <path d="M3.7830692,11.3678987 C3.7830692,9.14746012 5.35121654,6.4361049 7.27813549,5.32539371 C8.20857614,4.79020603 9.05228081,4.72330757 9.67914549,5.04402666 C9.04143881,4.6416521 8.14450978,4.67903653 7.14901713,5.25062484 C5.22209819,6.36231983 3.65395085,9.07367506 3.65395085,11.2941136 C3.65395085,12.4392579 4.070875,13.2331852 4.73913641,13.5834183 C4.146769,13.2017035 3.7830692,12.4382741 3.7830692,11.3678987" id="Fill-158" fill="#3C63B1"></path>
                    <path d="M2.88742151,17.7279746 L2.75830316,17.6532058 L4.16283487,15.5980457 L4.5058363,15.651171 C4.96809972,15.720037 5.4727455,15.6737984 6.00498909,15.5104874 L6.3962867,15.3914475 L6.52540505,15.4652326 L6.40909997,15.5006494 L6.13312181,15.5852563 C5.60186385,15.7475835 5.09721807,15.7948059 4.63495465,15.724956 L4.29195322,15.6728146 L2.88742151,17.7279746 Z" id="Fill-160" fill="#3C63B1"></path>
                    <polygon id="Fill-162" fill="#3C63B1" points="0.58122972 13.7120994 0.582215356 13.5822377 2.20851523 12.8886581 2.33763359 12.9624432 2.23414178 13.0067142"></polygon>
                    <polygon id="Fill-164" fill="#3C63B1" points="8.02307939 3.12079432 7.79539741 1.23779944 7.90775995 1.17286858 8.13938448 3.08931269 8.15219775 3.19457938"></polygon>
                    <path d="M12.0781842,5.58226412 L11.98652,5.18284096 C11.8712006,4.67913491 11.6809728,4.24429492 11.4187935,3.89012661 L11.2157525,3.61564616 L12.3847171,1.18959319 L12.5138355,1.26436206 L11.3448708,3.69041503 L11.5479119,3.96489547 C11.8100911,4.31906379 12.0003189,4.75291998 12.1156384,5.25662603 L12.1806904,5.53897688 L12.2063169,5.65506538 L12.0781842,5.58226412 Z" id="Fill-166" fill="#3C63B1"></path>
                    <path d="M6.75870516,17.3975159 L6.74194934,17.2578162 L7.66943309,16.7236123 L7.90401453,14.5228497 L8.29531214,14.1913088 C8.81277119,13.7525337 9.30558933,13.2340706 9.75898203,12.6477253 L10.1009978,12.2050149 L11.5725528,12.6634661 L12.3078375,11.3923953 L11.1743557,10.346615 L11.3852819,9.83208715 C11.6563319,9.16605396 11.8554304,8.50002076 11.975678,7.85267979 L12.0702991,7.34995754 L13.956807,5.98149051 L13.9558213,4.91308276 L14.0859253,4.85798991 L14.0859253,6.05625938 L12.1994175,7.4237426 L12.1047964,7.92744865 C11.9845488,8.57478963 11.7864359,9.24082283 11.5144003,9.90685602 L11.3034741,10.4204001 L12.4369558,11.468148 L11.7016712,12.7382349 L10.2291305,12.2797837 L9.88810038,12.7224941 C9.43470769,13.3078557 8.94188954,13.8273025 8.42443049,14.2650939 L8.03214725,14.5976186 L7.79855145,16.799365 L6.75870516,17.3975159 Z" id="Fill-168" fill="#3C63B1"></path>
                    <path d="M5.15615912,12.8742946 C5.67558944,13.1409046 6.37736248,13.0828604 7.15010133,12.6381824 C8.75865976,11.7094744 10.0636422,9.45361896 10.0636422,7.6001381 C10.0636422,6.7088145 9.76302313,6.07426294 9.2731619,5.75846285 C9.83990277,6.04376511 10.1927606,6.7088145 10.1927606,7.67392317 C10.1927606,9.52838782 8.88777811,11.785227 7.27921969,12.7119675 C6.44142884,13.1940299 5.68741708,13.2225601 5.15615912,12.8742946" id="Fill-170" fill="#3C63B1"></path>
                </g>
            </g>
        </g>
    </g>
</svg>