<svg width="91" height="92" viewBox="0 0 91 92" fill="none" xmlns="http://www.w3.org/2000/svg">
<g clip-path="url(#clip0_3182_261)">
<path d="M35.4023 54.5352C35.4023 59.9112 39.6023 67.8672 45.4023 67.8672C51.2023 67.8672 55.4023 59.8962 55.4023 54.5352C55.4023 51.883 54.3488 49.3395 52.4734 47.4641C50.5981 45.5887 48.0545 44.5352 45.4023 44.5352C42.7502 44.5352 40.2066 45.5887 38.3313 47.4641C36.4559 49.3395 35.4023 51.883 35.4023 54.5352ZM45.3873 47.3732C47.2863 47.375 49.1071 48.1301 50.45 49.4728C51.7928 50.8155 52.5482 52.6362 52.5504 54.5352C52.5504 58.9352 48.9503 65.0352 45.3873 65.0352C41.8243 65.0352 38.2243 58.9222 38.2243 54.5352C38.2312 52.6376 38.9881 50.8198 40.33 49.4781C41.6718 48.1364 43.4898 47.3797 45.3873 47.3732Z" fill="#F13C3C"/>
<path d="M53.1163 68.2363H49.3863L45.3863 75.8813L41.3863 68.2363H37.6563C34.9371 68.2379 32.3298 69.3189 30.4071 71.2418C28.4844 73.1646 27.4037 75.7721 27.4023 78.4913V91.3553H63.4023V78.4913C63.3905 75.7704 62.3024 73.1646 60.3757 71.2432C58.449 69.3218 55.8403 68.2408 53.1193 68.2363H53.1163ZM60.5483 88.5363H30.2383V78.5053C30.2423 76.5392 31.0251 74.6547 32.4154 73.2644C33.8057 71.8741 35.6902 71.0913 37.6563 71.0873H39.6683L44.0683 79.4693L44.4373 80.2923L46.4233 80.2493L46.7493 79.4263L51.1183 71.0863H53.1323C55.1007 71.0874 56.9883 71.8688 58.3815 73.2593C59.7746 74.6499 60.5596 76.536 60.5643 78.5043V88.5323L60.5483 88.5363Z" fill="#F13C3C"/>
<path d="M72.7734 58.124C78.5734 58.124 82.7734 50.153 82.7734 44.792C82.7734 42.1398 81.7199 39.5963 79.8445 37.7209C77.9691 35.8456 75.4256 34.792 72.7734 34.792C70.1213 34.792 67.5777 35.8456 65.7024 37.7209C63.827 39.5963 62.7734 42.1398 62.7734 44.792C62.7734 50.153 66.9734 58.124 72.7734 58.124ZM72.7734 37.615C74.6726 37.6168 76.4935 38.3721 77.8364 39.715C79.1793 41.058 79.9346 42.8788 79.9364 44.778C79.9364 49.178 76.3364 55.278 72.7734 55.278C69.2104 55.278 65.6104 49.165 65.6104 44.778C65.6144 42.8794 66.3703 41.0596 67.7128 39.717C69.0552 38.3744 70.8748 37.6192 72.7734 37.615Z" fill="#F13C3C"/>
<path d="M80.5041 58.4786H76.7741L72.7601 66.1375L68.7601 58.4786H65.0301C62.8866 58.4729 60.7958 59.1427 59.0545 60.3928C57.3133 61.6429 56.0101 63.4098 55.3301 65.4426L58.0251 66.3366C58.5163 64.8678 59.4576 63.591 60.7153 62.6872C61.973 61.7835 63.4834 61.2987 65.0321 61.3015H67.0481L71.4311 69.6696L71.8851 70.5066L73.7001 70.4636L78.4941 61.3015H80.4941C82.4624 61.3026 84.3501 62.084 85.7432 63.4746C87.1363 64.8651 87.9213 66.7512 87.9261 68.7195V78.7476H66.2261V81.5846H90.7771V68.7186C90.7694 66.0001 89.6841 63.3956 87.7591 61.476C85.8341 59.5565 83.2266 58.4785 80.5081 58.4786H80.5041Z" fill="#F13C3C"/>
<path d="M7.99805 44.7773C7.99805 50.1523 12.198 58.1093 17.998 58.1093C23.798 58.1093 27.9981 50.1383 27.9981 44.7773C27.9981 42.1252 26.9445 39.5816 25.0691 37.7063C23.1938 35.8309 20.6502 34.7773 17.998 34.7773C15.3459 34.7773 12.8023 35.8309 10.927 37.7063C9.05162 39.5816 7.99805 42.1252 7.99805 44.7773ZM17.998 37.6143C19.8972 37.6162 21.7181 38.3715 23.061 39.7144C24.4039 41.0573 25.1592 42.8782 25.161 44.7773C25.161 49.1773 21.561 55.2773 17.998 55.2773C14.435 55.2773 10.835 49.1643 10.835 44.7773C10.8395 42.8792 11.5955 41.0602 12.9377 39.718C14.2799 38.3758 16.0989 37.6198 17.997 37.6153L17.998 37.6143Z" fill="#F13C3C"/>
<path d="M10.269 61.3155H12.269L16.669 69.7154C16.7951 69.9599 16.9863 70.1648 17.2216 70.3074C17.4568 70.45 17.7269 70.5248 18.002 70.5235L18.938 70.4805L23.732 61.3184H25.732C27.2825 61.3153 28.7947 61.7998 30.0547 62.7034C31.3147 63.607 32.2586 64.8839 32.753 66.3534L35.434 65.4455C34.7493 63.4125 33.4427 61.6462 31.6991 60.3965C29.9556 59.1468 27.8632 58.4768 25.718 58.4815H21.988L17.988 66.1405L13.974 58.4815H10.274C7.55281 58.4809 4.9426 59.5602 3.01637 61.4823C1.09014 63.4044 0.00529821 66.0123 0 68.7335V81.5975H24.565V78.7605H2.837V68.7335C2.84176 66.7651 3.62675 64.879 5.01989 63.4885C6.41303 62.0979 8.30066 61.3165 10.269 61.3155Z" fill="#F13C3C"/>
<path d="M43.8828 38.8623H46.7198V41.6993H43.8828V38.8623Z" fill="#F13C3C"/>
<path d="M43.8828 34.6074H46.7198V37.4444H43.8828V34.6074Z" fill="#F13C3C"/>
<path d="M43.8828 30.3525H46.7198V33.1895H43.8828V30.3525Z" fill="#F13C3C"/>
<path d="M46.7195 15.8712L48.6625 17.8142L50.6625 15.8142L45.3005 10.4512L39.9395 15.8122L41.9395 17.8122L43.8825 15.8692V28.9342H46.7195V15.8712Z" fill="black"/>
<path d="M71.3555 24.1689H74.1925V27.006H71.3555V24.1689Z" fill="#F13C3C"/>
<path d="M71.3555 19.9131H74.1925V22.7501H71.3555V19.9131Z" fill="#F13C3C"/>
<path d="M71.3555 28.4229H74.1925V31.2599H71.3555V28.4229Z" fill="#F13C3C"/>
<path d="M74.1921 5.43209L76.1371 7.37209L78.1511 5.37209L72.7761 -0.00390625L67.4121 5.37209L69.4121 7.37209L71.3551 5.42909V18.4951H74.1921V5.43209Z" fill="black"/>
<path d="M16.5801 19.9131H19.4171V22.7501H16.5801V19.9131Z" fill="#F13C3C"/>
<path d="M16.5801 28.4229H19.4171V31.2599H16.5801V28.4229Z" fill="#F13C3C"/>
<path d="M16.5801 24.1689H19.4171V27.006H16.5801V24.1689Z" fill="#F13C3C"/>
<path d="M19.417 5.432L21.36 7.372L23.36 5.372L17.998 0L12.623 5.372L14.637 7.372L16.58 5.429V18.495H19.417V5.432Z" fill="black"/>
</g>
<defs>
<clipPath id="clip0_3182_261">
<rect width="90.773" height="91.355" fill="white"/>
</clipPath>
</defs>
</svg>
