<svg width="75" height="75" viewBox="0 0 75 75" fill="none" xmlns="http://www.w3.org/2000/svg">
<path d="M52.5 18.8398H22.5V58.8398H52.5V18.8398Z" fill="white"/>
<path d="M53.5 59.8398H21.5V17.8398H53.5V59.8398ZM23.5 57.8398H51.5V19.8398H23.5V57.8398Z" fill="#F13C3C"/>
<path d="M50.5 65.8398H24.5C23.7044 65.8398 22.9413 65.5238 22.3787 64.9612C21.8161 64.3986 21.5 63.6355 21.5 62.8398V57.8398H53.5V62.8398C53.5 63.6355 53.1839 64.3986 52.6213 64.9612C52.0587 65.5238 51.2956 65.8398 50.5 65.8398ZM23.5 59.8398V62.8398C23.5 63.1051 23.6054 63.3594 23.7929 63.547C23.9804 63.7345 24.2348 63.8398 24.5 63.8398H50.5C50.7652 63.8398 51.0196 63.7345 51.2071 63.547C51.3946 63.3594 51.5 63.1051 51.5 62.8398V59.8398H23.5Z" fill="#F13C3C"/>
<path d="M53.5 19.8398H21.5V14.8398C21.5 14.0442 21.8161 13.2811 22.3787 12.7185C22.9413 12.1559 23.7044 11.8398 24.5 11.8398H50.5C51.2956 11.8398 52.0587 12.1559 52.6213 12.7185C53.1839 13.2811 53.5 14.0442 53.5 14.8398V19.8398ZM23.5 17.8398H51.5V14.8398C51.5 14.5746 51.3946 14.3203 51.2071 14.1327C51.0196 13.9452 50.7652 13.8398 50.5 13.8398H24.5C24.2348 13.8398 23.9804 13.9452 23.7929 14.1327C23.6054 14.3203 23.5 14.5746 23.5 14.8398V17.8398Z" fill="#F13C3C"/>
<path d="M39.5 62.8398H35.5C35.2348 62.8398 34.9804 62.7345 34.7929 62.547C34.6054 62.3594 34.5 62.1051 34.5 61.8398C34.5 61.5746 34.6054 61.3203 34.7929 61.1327C34.9804 60.9452 35.2348 60.8398 35.5 60.8398H39.5C39.7652 60.8398 40.0196 60.9452 40.2071 61.1327C40.3946 61.3203 40.5 61.5746 40.5 61.8398C40.5 62.1051 40.3946 62.3594 40.2071 62.547C40.0196 62.7345 39.7652 62.8398 39.5 62.8398Z" fill="black"/>
<path d="M39.5 16.8398H35.5C35.2348 16.8398 34.9804 16.7345 34.7929 16.547C34.6054 16.3594 34.5 16.1051 34.5 15.8398C34.5 15.5746 34.6054 15.3203 34.7929 15.1327C34.9804 14.9452 35.2348 14.8398 35.5 14.8398H39.5C39.7652 14.8398 40.0196 14.9452 40.2071 15.1327C40.3946 15.3203 40.5 15.5746 40.5 15.8398C40.5 16.1051 40.3946 16.3594 40.2071 16.547C40.0196 16.7345 39.7652 16.8398 39.5 16.8398Z" fill="#F13C3C"/>
<path d="M32.5 51.8398C32.2348 51.8398 31.9804 51.7345 31.7929 51.547C31.6054 51.3594 31.5 51.1051 31.5 50.8398V38.8398C31.5 38.5746 31.6054 38.3203 31.7929 38.1327C31.9804 37.9452 32.2348 37.8398 32.5 37.8398C32.7652 37.8398 33.0196 37.9452 33.2071 38.1327C33.3946 38.3203 33.5 38.5746 33.5 38.8398V50.8398C33.5 51.1051 33.3946 51.3594 33.2071 51.547C33.0196 51.7345 32.7652 51.8398 32.5 51.8398Z" fill="black"/>
<path d="M27.5 51.8398C27.2348 51.8398 26.9804 51.7345 26.7929 51.547C26.6054 51.3594 26.5 51.1051 26.5 50.8398V36.8398C26.5 36.5746 26.6054 36.3203 26.7929 36.1327C26.9804 35.9452 27.2348 35.8398 27.5 35.8398C27.7652 35.8398 28.0196 35.9452 28.2071 36.1327C28.3946 36.3203 28.5 36.5746 28.5 36.8398V50.8398C28.5 51.1051 28.3946 51.3594 28.2071 51.547C28.0196 51.7345 27.7652 51.8398 27.5 51.8398Z" fill="black"/>
<path d="M37.5 51.8398C37.2348 51.8398 36.9804 51.7345 36.7929 51.547C36.6054 51.3594 36.5 51.1051 36.5 50.8398V31.8398C36.5 31.5746 36.6054 31.3203 36.7929 31.1327C36.9804 30.9452 37.2348 30.8398 37.5 30.8398C37.7652 30.8398 38.0196 30.9452 38.2071 31.1327C38.3946 31.3203 38.5 31.5746 38.5 31.8398V50.8398C38.5 51.1051 38.3946 51.3594 38.2071 51.547C38.0196 51.7345 37.7652 51.8398 37.5 51.8398Z" fill="black"/>
<path d="M42.5 51.8398C42.2348 51.8398 41.9804 51.7345 41.7929 51.547C41.6054 51.3594 41.5 51.1051 41.5 50.8398V43.8398C41.5 43.5746 41.6054 43.3203 41.7929 43.1327C41.9804 42.9452 42.2348 42.8398 42.5 42.8398C42.7652 42.8398 43.0196 42.9452 43.2071 43.1327C43.3946 43.3203 43.5 43.5746 43.5 43.8398V50.8398C43.5 51.1051 43.3946 51.3594 43.2071 51.547C43.0196 51.7345 42.7652 51.8398 42.5 51.8398Z" fill="black"/>
<path d="M47.5 51.8398C47.2348 51.8398 46.9804 51.7345 46.7929 51.547C46.6054 51.3594 46.5 51.1051 46.5 50.8398V35.8398C46.5 35.5746 46.6054 35.3203 46.7929 35.1327C46.9804 34.9452 47.2348 34.8398 47.5 34.8398C47.7652 34.8398 48.0196 34.9452 48.2071 35.1327C48.3946 35.3203 48.5 35.5746 48.5 35.8398V50.8398C48.5 51.1051 48.3946 51.3594 48.2071 51.547C48.0196 51.7345 47.7652 51.8398 47.5 51.8398Z" fill="black"/>
<path d="M57.5 51.8398C57.2348 51.8398 56.9804 51.7345 56.7929 51.547C56.6054 51.3594 56.5 51.1051 56.5 50.8398V41.8398C56.5 41.5746 56.6054 41.3203 56.7929 41.1327C56.9804 40.9452 57.2348 40.8398 57.5 40.8398C57.7652 40.8398 58.0196 40.9452 58.2071 41.1327C58.3946 41.3203 58.5 41.5746 58.5 41.8398V50.8398C58.5 51.1051 58.3946 51.3594 58.2071 51.547C58.0196 51.7345 57.7652 51.8398 57.5 51.8398Z" fill="#F13C3C"/>
<path d="M62.5 51.8398C62.2348 51.8398 61.9804 51.7345 61.7929 51.547C61.6054 51.3594 61.5 51.1051 61.5 50.8398V33.8398C61.5 33.5746 61.6054 33.3203 61.7929 33.1327C61.9804 32.9452 62.2348 32.8398 62.5 32.8398C62.7652 32.8398 63.0196 32.9452 63.2071 33.1327C63.3946 33.3203 63.5 33.5746 63.5 33.8398V50.8398C63.5 51.1051 63.3946 51.3594 63.2071 51.547C63.0196 51.7345 62.7652 51.8398 62.5 51.8398Z" fill="#F13C3C"/>
<path d="M67.5 51.8398C67.2348 51.8398 66.9804 51.7345 66.7929 51.547C66.6054 51.3594 66.5 51.1051 66.5 50.8398V38.8398C66.5 38.5746 66.6054 38.3203 66.7929 38.1327C66.9804 37.9452 67.2348 37.8398 67.5 37.8398C67.7652 37.8398 68.0196 37.9452 68.2071 38.1327C68.3946 38.3203 68.5 38.5746 68.5 38.8398V50.8398C68.5 51.1051 68.3946 51.3594 68.2071 51.547C68.0196 51.7345 67.7652 51.8398 67.5 51.8398Z" fill="#F13C3C"/>
<path d="M12.5 51.8398C12.2348 51.8398 11.9804 51.7345 11.7929 51.547C11.6054 51.3594 11.5 51.1051 11.5 50.8398V41.8398C11.5 41.5746 11.6054 41.3203 11.7929 41.1327C11.9804 40.9452 12.2348 40.8398 12.5 40.8398C12.7652 40.8398 13.0196 40.9452 13.2071 41.1327C13.3946 41.3203 13.5 41.5746 13.5 41.8398V50.8398C13.5 51.1051 13.3946 51.3594 13.2071 51.547C13.0196 51.7345 12.7652 51.8398 12.5 51.8398Z" fill="#F13C3C"/>
<path d="M17.5 51.8398C17.2348 51.8398 16.9804 51.7345 16.7929 51.547C16.6054 51.3594 16.5 51.1051 16.5 50.8398V31.8398C16.5 31.5746 16.6054 31.3203 16.7929 31.1327C16.9804 30.9452 17.2348 30.8398 17.5 30.8398C17.7652 30.8398 18.0196 30.9452 18.2071 31.1327C18.3946 31.3203 18.5 31.5746 18.5 31.8398V50.8398C18.5 51.1051 18.3946 51.3594 18.2071 51.547C18.0196 51.7345 17.7652 51.8398 17.5 51.8398Z" fill="#F13C3C"/>
<path d="M7.5 51.8398C7.23478 51.8398 6.98043 51.7345 6.79289 51.547C6.60536 51.3594 6.5 51.1051 6.5 50.8398V38.8398C6.5 38.5746 6.60536 38.3203 6.79289 38.1327C6.98043 37.9452 7.23478 37.8398 7.5 37.8398C7.76522 37.8398 8.01957 37.9452 8.20711 38.1327C8.39464 38.3203 8.5 38.5746 8.5 38.8398V50.8398C8.5 51.1051 8.39464 51.3594 8.20711 51.547C8.01957 51.7345 7.76522 51.8398 7.5 51.8398Z" fill="#F13C3C"/>
</svg>
