<svg width="75" height="75" viewBox="0 0 75 75" fill="none" xmlns="http://www.w3.org/2000/svg">
<path d="M33.5705 53L32.4805 51.84L39.5605 44.3V43H41.0905V44.98L33.5705 53Z" fill="black"/>
<path d="M40.7198 33.0002H39.0898V31.2902L46.6498 24.7002L47.7998 25.7102L40.7198 31.8802V33.0002Z" fill="black"/>
<path d="M31.4198 24L30.0898 22.97L39.2098 15.89V14H41.0898V16.49L31.4198 24Z" fill="black"/>
<path d="M40.7798 61.0001H39.0898V58.6601L47.8298 52.3301L48.9598 53.3401L40.7798 59.2601V61.0001Z" fill="black"/>
<path d="M52.2609 33.8L51.1309 32.52L58.4809 24.4V14H60.0909V25.15L52.2609 33.8Z" fill="black"/>
<path d="M20.9398 61.0002H19.0898V50.8302L28.0898 42.2402L29.3898 43.5102L20.9398 51.5702V61.0002Z" fill="black"/>
<path d="M30.0898 59C29.1009 59 28.1342 58.7068 27.312 58.1574C26.4897 57.6079 25.8489 56.8271 25.4704 55.9134C25.092 54.9998 24.993 53.9945 25.1859 53.0245C25.3788 52.0546 25.8551 51.1637 26.5543 50.4645C27.2536 49.7652 28.1445 49.289 29.1144 49.0961C30.0843 48.9031 31.0896 49.0022 32.0033 49.3806C32.9169 49.759 33.6978 50.3999 34.2472 51.2222C34.7966 52.0444 35.0898 53.0111 35.0898 54C35.0898 55.3261 34.5631 56.5979 33.6254 57.5355C32.6877 58.4732 31.4159 59 30.0898 59ZM30.0898 51C29.4965 51 28.9165 51.176 28.4231 51.5056C27.9298 51.8352 27.5453 52.3038 27.3182 52.852C27.0911 53.4001 27.0317 54.0033 27.1475 54.5853C27.2632 55.1672 27.549 55.7018 27.9685 56.1213C28.3881 56.5409 28.9226 56.8266 29.5046 56.9424C30.0865 57.0581 30.6897 56.9987 31.2379 56.7716C31.7861 56.5446 32.2546 56.1601 32.5843 55.6667C32.9139 55.1734 33.0898 54.5933 33.0898 54C33.0898 53.606 33.0122 53.2159 32.8615 52.852C32.7107 52.488 32.4897 52.1573 32.2112 51.8787C31.9326 51.6001 31.6019 51.3791 31.2379 51.2284C30.8739 51.0776 30.4838 51 30.0898 51Z" fill="#F13C3C"/>
<path d="M30.0898 45C29.1009 45 28.1342 44.7068 27.312 44.1574C26.4897 43.6079 25.8489 42.8271 25.4704 41.9134C25.092 40.9998 24.993 39.9945 25.1859 39.0245C25.3788 38.0546 25.8551 37.1637 26.5543 36.4645C27.2536 35.7652 28.1445 35.289 29.1144 35.0961C30.0843 34.9031 31.0896 35.0022 32.0033 35.3806C32.9169 35.759 33.6978 36.3999 34.2472 37.2222C34.7966 38.0444 35.0898 39.0111 35.0898 40C35.0898 41.3261 34.5631 42.5979 33.6254 43.5355C32.6877 44.4732 31.4159 45 30.0898 45ZM30.0898 37C29.4965 37 28.9165 37.176 28.4231 37.5056C27.9298 37.8352 27.5453 38.3038 27.3182 38.852C27.0911 39.4001 27.0317 40.0033 27.1475 40.5853C27.2632 41.1672 27.549 41.7018 27.9685 42.1213C28.3881 42.5409 28.9226 42.8266 29.5046 42.9424C30.0865 43.0581 30.6897 42.9987 31.2379 42.7716C31.7861 42.5446 32.2546 42.1601 32.5843 41.6667C32.9139 41.1734 33.0898 40.5933 33.0898 40C33.0898 39.606 33.0122 39.2159 32.8615 38.852C32.7107 38.488 32.4897 38.1573 32.2112 37.8787C31.9326 37.6001 31.6019 37.3791 31.2379 37.2284C30.8739 37.0776 30.4838 37 30.0898 37Z" fill="#F13C3C"/>
<path d="M30.0898 32C29.1009 32 28.1342 31.7068 27.312 31.1574C26.4897 30.6079 25.8489 29.8271 25.4704 28.9134C25.092 27.9998 24.993 26.9945 25.1859 26.0246C25.3788 25.0546 25.8551 24.1637 26.5543 23.4645C27.2536 22.7652 28.1445 22.289 29.1144 22.0961C30.0843 21.9031 31.0896 22.0022 32.0033 22.3806C32.9169 22.759 33.6978 23.3999 34.2472 24.2222C34.7966 25.0444 35.0898 26.0111 35.0898 27C35.0898 28.3261 34.5631 29.5979 33.6254 30.5355C32.6877 31.4732 31.4159 32 30.0898 32ZM30.0898 24C29.4965 24 28.9165 24.1759 28.4231 24.5056C27.9298 24.8352 27.5453 25.3038 27.3182 25.852C27.0911 26.4001 27.0317 27.0033 27.1475 27.5853C27.2632 28.1672 27.549 28.7018 27.9685 29.1213C28.3881 29.5409 28.9226 29.8266 29.5046 29.9424C30.0865 30.0581 30.6897 29.9987 31.2379 29.7716C31.7861 29.5446 32.2546 29.1601 32.5843 28.6667C32.9139 28.1734 33.0898 27.5933 33.0898 27C33.0898 26.606 33.0122 26.2159 32.8615 25.852C32.7107 25.488 32.4897 25.1573 32.2112 24.8787C31.9326 24.6001 31.6019 24.3791 31.2379 24.2284C30.8739 24.0776 30.4838 24 30.0898 24Z" fill="#F13C3C"/>
<path d="M49.0898 27C48.1009 27 47.1342 26.7068 46.312 26.1574C45.4897 25.6079 44.8489 24.8271 44.4704 23.9134C44.092 22.9998 43.993 21.9945 44.1859 21.0246C44.3788 20.0546 44.855 19.1637 45.5543 18.4645C46.2536 17.7652 47.1445 17.289 48.1144 17.0961C49.0843 16.9031 50.0896 17.0022 51.0033 17.3806C51.9169 17.759 52.6978 18.3999 53.2472 19.2222C53.7966 20.0444 54.0898 21.0111 54.0898 22C54.0898 23.3261 53.5631 24.5979 52.6254 25.5355C51.6877 26.4732 50.4159 27 49.0898 27ZM49.0898 19C48.4965 19 47.9165 19.1759 47.4231 19.5056C46.9298 19.8352 46.5453 20.3038 46.3182 20.852C46.0911 21.4001 46.0317 22.0033 46.1475 22.5853C46.2632 23.1672 46.549 23.7018 46.9685 24.1213C47.3881 24.5409 47.9226 24.8266 48.5046 24.9424C49.0865 25.0581 49.6897 24.9987 50.2379 24.7716C50.7861 24.5446 51.2546 24.1601 51.5843 23.6667C51.9139 23.1734 52.0898 22.5933 52.0898 22C52.0898 21.2044 51.7738 20.4413 51.2112 19.8787C50.6486 19.3161 49.8855 19 49.0898 19Z" fill="#F13C3C"/>
<path d="M49.0898 41C48.1009 41 47.1342 40.7068 46.312 40.1574C45.4897 39.6079 44.8489 38.8271 44.4704 37.9134C44.092 36.9998 43.993 35.9945 44.1859 35.0246C44.3788 34.0546 44.855 33.1637 45.5543 32.4645C46.2536 31.7652 47.1445 31.289 48.1144 31.0961C49.0843 30.9031 50.0896 31.0022 51.0033 31.3806C51.9169 31.759 52.6978 32.3999 53.2472 33.2222C53.7966 34.0444 54.0898 35.0111 54.0898 36C54.0898 36.6566 53.9605 37.3068 53.7092 37.9134C53.458 38.52 53.0897 39.0712 52.6254 39.5355C52.1611 39.9998 51.6099 40.3681 51.0033 40.6194C50.3966 40.8707 49.7465 41 49.0898 41ZM49.0898 33C48.4965 33 47.9165 33.176 47.4231 33.5056C46.9298 33.8352 46.5453 34.3038 46.3182 34.852C46.0911 35.4001 46.0317 36.0033 46.1475 36.5853C46.2632 37.1672 46.549 37.7018 46.9685 38.1213C47.3881 38.5409 47.9226 38.8266 48.5046 38.9424C49.0865 39.0581 49.6897 38.9987 50.2379 38.7716C50.7861 38.5446 51.2546 38.1601 51.5843 37.6667C51.9139 37.1734 52.0898 36.5933 52.0898 36C52.0898 35.2044 51.7738 34.4413 51.2112 33.8787C50.6486 33.3161 49.8855 33 49.0898 33Z" fill="#F13C3C"/>
<path d="M49.0898 55C48.1009 55 47.1342 54.7068 46.312 54.1574C45.4897 53.6079 44.8489 52.8271 44.4704 51.9134C44.092 50.9998 43.993 49.9945 44.1859 49.0245C44.3788 48.0546 44.855 47.1637 45.5543 46.4645C46.2536 45.7652 47.1445 45.289 48.1144 45.0961C49.0843 44.9031 50.0896 45.0022 51.0033 45.3806C51.9169 45.759 52.6978 46.3999 53.2472 47.2222C53.7966 48.0444 54.0898 49.0111 54.0898 50C54.0898 51.3261 53.5631 52.5979 52.6254 53.5355C51.6877 54.4732 50.4159 55 49.0898 55ZM49.0898 47C48.4965 47 47.9165 47.176 47.4231 47.5056C46.9298 47.8352 46.5453 48.3038 46.3182 48.852C46.0911 49.4001 46.0317 50.0033 46.1475 50.5853C46.2632 51.1672 46.549 51.7018 46.9685 52.1213C47.3881 52.5409 47.9226 52.8266 48.5046 52.9424C49.0865 53.0581 49.6897 52.9987 50.2379 52.7716C50.7861 52.5446 51.2546 52.1601 51.5843 51.6667C51.9139 51.1734 52.0898 50.5933 52.0898 50C52.0898 49.2044 51.7738 48.4413 51.2112 47.8787C50.6486 47.3161 49.8855 47 49.0898 47Z" fill="#F13C3C"/>
<path d="M56.0898 12H43.0898V14H56.0898V12Z" fill="#F13C3C"/>
<path d="M17.0898 63H13.0898V35C13.0898 28.9 15.5131 23.0499 19.8264 18.7365C24.1397 14.4232 29.9899 12 36.0898 12H37.0898V14H36.0898C30.5203 14 25.1789 16.2125 21.2406 20.1508C17.3023 24.089 15.0898 29.4305 15.0898 35V61H17.0898V63Z" fill="#F13C3C"/>
<path d="M37.0898 61H23.0898V63H37.0898V61Z" fill="#F13C3C"/>
<path d="M43.0898 63V61C48.6594 61 54.0008 58.7875 57.9391 54.8492C61.8774 50.911 64.0898 45.5695 64.0898 40V14H62.0898V12H66.0898V40C66.0898 43.0204 65.4949 46.0112 64.3391 48.8017C63.1832 51.5922 61.489 54.1277 59.3533 56.2635C57.2176 58.3992 54.6821 60.0934 51.8916 61.2492C49.1011 62.4051 46.1102 63 43.0898 63Z" fill="#F13C3C"/>
<path d="M21.0898 63H19.0898V65H21.0898V63Z" fill="black"/>
<path d="M21.0898 67H19.0898V69H21.0898V67Z" fill="black"/>
<path d="M41.0898 63H39.0898V65H41.0898V63Z" fill="black"/>
<path d="M41.0898 67H39.0898V69H41.0898V67Z" fill="black"/>
<path d="M41.0898 6H39.0898V8H41.0898V6Z" fill="black"/>
<path d="M41.0898 10H39.0898V12H41.0898V10Z" fill="black"/>
<path d="M60.0898 6H58.0898V8H60.0898V6Z" fill="black"/>
<path d="M60.0898 10H58.0898V12H60.0898V10Z" fill="black"/>
<path d="M41.0898 35H39.0898V37H41.0898V35Z" fill="black"/>
<path d="M41.0898 39H39.0898V41H41.0898V39Z" fill="black"/>
</svg>
