<svg width="75" height="75" viewBox="0 0 75 75" fill="none" xmlns="http://www.w3.org/2000/svg">
<path d="M35.9192 34.8204C35.8166 34.8188 35.7162 34.7914 35.627 34.7407C35.5379 34.6901 35.463 34.6177 35.4092 34.5304L33.4592 31.0504C32.2692 28.9404 32.5592 26.5304 34.2792 24.2504L35.9392 22.0604C35.9845 21.9991 36.0416 21.9475 36.1072 21.9087C36.1727 21.8698 36.2454 21.8445 36.3209 21.8343C36.3965 21.824 36.4733 21.829 36.5468 21.849C36.6204 21.8689 36.6892 21.9034 36.7492 21.9504C36.8707 22.0436 36.9505 22.181 36.9711 22.3327C36.9917 22.4845 36.9515 22.6382 36.8592 22.7604L35.1992 25.0004C34.3792 26.0904 33.1992 28.2604 34.4692 30.5404L36.4692 34.0104C36.5208 34.0977 36.5481 34.1971 36.5485 34.2984C36.5489 34.3998 36.5222 34.4994 36.4713 34.587C36.4203 34.6746 36.347 34.747 36.2587 34.7969C36.1705 34.8467 36.0705 34.8721 35.9692 34.8704L35.9192 34.8204Z" fill="#F13C3C"/>
<path d="M42.3903 34.9002C42.2892 34.9021 42.1893 34.878 42.1003 34.8302C41.9683 34.7528 41.8716 34.6271 41.8306 34.4797C41.7895 34.3323 41.8074 34.1747 41.8803 34.0402L43.8803 30.4902C45.1703 28.2102 44.0003 26.0002 43.1503 25.0002L41.4903 22.8102C41.398 22.688 41.3577 22.5343 41.3783 22.3825C41.3989 22.2308 41.4787 22.0934 41.6003 22.0002C41.6603 21.9532 41.7291 21.9187 41.8026 21.8988C41.8762 21.8788 41.953 21.8738 42.0285 21.8841C42.104 21.8943 42.1767 21.9196 42.2423 21.9585C42.3079 21.9973 42.365 22.0489 42.4103 22.1102L44.0703 24.3002C45.7903 26.5802 46.0703 28.9902 44.8903 31.1002L42.8903 34.6602C42.8343 34.7395 42.7589 34.8031 42.6714 34.8451C42.5839 34.8871 42.4871 34.9061 42.3903 34.9002Z" fill="#F13C3C"/>
<path d="M39.1796 30.5698C39.0275 30.5698 38.8815 30.5101 38.773 30.4035C38.6645 30.2969 38.6022 30.1519 38.5996 29.9998V15.7198C38.618 15.5804 38.6865 15.4524 38.7923 15.3597C38.8981 15.2669 39.0339 15.2158 39.1746 15.2158C39.3153 15.2158 39.4511 15.2669 39.5569 15.3597C39.6627 15.4524 39.7312 15.5804 39.7496 15.7198V29.9998C39.747 30.1502 39.6862 30.2937 39.5798 30.4C39.4735 30.5064 39.33 30.5673 39.1796 30.5698Z" fill="#F13C3C"/>
<path d="M64.9101 64.8596C64.7563 64.8596 64.6087 64.7985 64.5 64.6897C64.3912 64.5809 64.3301 64.4334 64.3301 64.2796V55.7096C64.3301 55.1791 64.1194 54.6704 63.7443 54.2954C63.3692 53.9203 62.8605 53.7096 62.3301 53.7096H15.4901C14.9596 53.7096 14.4509 53.9203 14.0759 54.2954C13.7008 54.6704 13.4901 55.1791 13.4901 55.7096V64.2796C13.4901 64.4334 13.429 64.5809 13.3202 64.6897C13.2114 64.7985 13.0639 64.8596 12.9101 64.8596C12.7563 64.8596 12.6087 64.7985 12.5 64.6897C12.3912 64.5809 12.3301 64.4334 12.3301 64.2796V55.7096C12.3327 54.8749 12.6654 54.0753 13.2556 53.4851C13.8458 52.8949 14.6455 52.5622 15.4801 52.5596H62.3401C63.1747 52.5622 63.9744 52.8949 64.5646 53.4851C65.1547 54.0753 65.4874 54.8749 65.4901 55.7096V64.2796C65.4901 64.3557 65.4751 64.4312 65.4459 64.5015C65.4168 64.5719 65.3741 64.6358 65.3202 64.6897C65.2663 64.7436 65.2024 64.7863 65.132 64.8154C65.0617 64.8446 64.9862 64.8596 64.9101 64.8596Z" fill="#F13C3C"/>
<path d="M54.4302 16.2999H23.9202C22.7471 16.2999 21.6218 15.8345 20.7913 15.0059C19.9608 14.1773 19.4929 13.0531 19.4902 11.8799V7.70988C19.4902 7.55606 19.5513 7.40853 19.6601 7.29976C19.7689 7.19099 19.9164 7.12988 20.0702 7.12988C20.2241 7.12988 20.3716 7.19099 20.4804 7.29976C20.5891 7.40853 20.6502 7.55606 20.6502 7.70988V11.8799C20.6502 12.7471 20.9948 13.5789 21.608 14.1921C22.2212 14.8054 23.053 15.1499 23.9202 15.1499H54.4302C55.2975 15.1499 56.1292 14.8054 56.7425 14.1921C57.3557 13.5789 57.7002 12.7471 57.7002 11.8799V7.70988C57.7002 7.55606 57.7613 7.40853 57.8701 7.29976C57.9789 7.19099 58.1264 7.12988 58.2802 7.12988C58.4341 7.12988 58.5816 7.19099 58.6904 7.29976C58.7991 7.40853 58.8602 7.55606 58.8602 7.70988V11.8799C58.8576 13.0531 58.3897 14.1773 57.5592 15.0059C56.7287 15.8345 55.6034 16.2999 54.4302 16.2999Z" fill="#F13C3C"/>
<path d="M26 64.8597C25.8462 64.8597 25.6988 64.7985 25.59 64.6897C25.535 64.6366 25.4912 64.5729 25.4613 64.5024C25.4314 64.432 25.416 64.3562 25.416 64.2797C25.416 64.2032 25.4314 64.1275 25.4613 64.057C25.4912 63.9866 25.535 63.9229 25.59 63.8697L28.36 61.0997L25.59 58.3297C25.5353 58.2774 25.4917 58.2146 25.4619 58.145C25.4321 58.0754 25.4168 58.0004 25.4168 57.9247C25.4168 57.849 25.4321 57.7741 25.4619 57.7045C25.4917 57.6349 25.5353 57.572 25.59 57.5197C25.6432 57.4647 25.7069 57.4209 25.7773 57.391C25.8478 57.3611 25.9235 57.3457 26 57.3457C26.0766 57.3457 26.1523 57.3611 26.2227 57.391C26.2932 57.4209 26.3569 57.4647 26.41 57.5197L29.59 60.6897C29.6963 60.7997 29.7558 60.9467 29.7558 61.0997C29.7558 61.2527 29.6963 61.3997 29.59 61.5097L26.41 64.6897C26.3001 64.7967 26.1534 64.8575 26 64.8597Z" fill="#F13C3C"/>
<path d="M31.4408 64.8597C31.2878 64.8556 31.1418 64.795 31.0308 64.6897C30.9244 64.5797 30.865 64.4327 30.865 64.2797C30.865 64.1267 30.9244 63.9797 31.0308 63.8697L33.8008 61.0997L31.0008 58.3297C30.8951 58.2214 30.8359 58.0761 30.8359 57.9247C30.8359 57.7734 30.8951 57.6281 31.0008 57.5197C31.0539 57.4647 31.1176 57.4209 31.1881 57.391C31.2585 57.3611 31.3342 57.3457 31.4108 57.3457C31.4873 57.3457 31.563 57.3611 31.6335 57.391C31.7039 57.4209 31.7676 57.4647 31.8208 57.5197L35.0008 60.6897C35.0558 60.7429 35.0996 60.8066 35.1295 60.877C35.1594 60.9475 35.1748 61.0232 35.1748 61.0997C35.1748 61.1762 35.1594 61.252 35.1295 61.3224C35.0996 61.3929 35.0558 61.4566 35.0008 61.5097L31.8208 64.6897C31.7195 64.7915 31.5841 64.852 31.4408 64.8597Z" fill="#F13C3C"/>
<path d="M37.3202 64.8596C37.2043 64.8596 37.0911 64.8248 36.9951 64.7598C36.8991 64.6948 36.8248 64.6026 36.7817 64.495C36.7387 64.3873 36.7289 64.2693 36.7535 64.156C36.7782 64.0428 36.8363 63.9395 36.9202 63.8596L39.6902 61.0896L36.9202 58.3196C36.867 58.2664 36.8249 58.2032 36.7961 58.1337C36.7673 58.0642 36.7525 57.9898 36.7525 57.9146C36.7525 57.8393 36.7673 57.7649 36.7961 57.6954C36.8249 57.6259 36.867 57.5627 36.9202 57.5096C36.9734 57.4564 37.0366 57.4142 37.1061 57.3854C37.1755 57.3566 37.25 57.3418 37.3252 57.3418C37.4005 57.3418 37.4749 57.3566 37.5444 57.3854C37.6139 57.4142 37.6771 57.4564 37.7302 57.5096L40.9102 60.6796C41.019 60.7883 41.0802 60.9358 41.0802 61.0896C41.0808 61.1658 41.066 61.2414 41.0368 61.3118C41.0076 61.3822 40.9646 61.4461 40.9102 61.4996L37.7302 64.6796C37.6772 64.7352 37.6137 64.7798 37.5433 64.8107C37.4729 64.8416 37.3971 64.8582 37.3202 64.8596Z" fill="#F13C3C"/>
<path d="M43.211 64.8597C43.0572 64.8597 42.9097 64.7985 42.801 64.6897C42.7459 64.6366 42.7022 64.5729 42.6723 64.5024C42.6424 64.432 42.627 64.3562 42.627 64.2797C42.627 64.2032 42.6424 64.1275 42.6723 64.057C42.7022 63.9866 42.7459 63.9229 42.801 63.8697L45.571 61.0997L42.801 58.3297C42.7462 58.2774 42.7026 58.2146 42.6729 58.145C42.6431 58.0754 42.6277 58.0004 42.6277 57.9247C42.6277 57.849 42.6431 57.7741 42.6729 57.7045C42.7026 57.6349 42.7462 57.572 42.801 57.5197C42.8541 57.4647 42.9178 57.4209 42.9883 57.391C43.0587 57.3611 43.1344 57.3457 43.211 57.3457C43.2875 57.3457 43.3632 57.3611 43.4337 57.391C43.5041 57.4209 43.5678 57.4647 43.621 57.5197L46.791 60.6897C46.846 60.7429 46.8898 60.8066 46.9197 60.877C46.9496 60.9475 46.965 61.0232 46.965 61.0997C46.965 61.1762 46.9496 61.252 46.9197 61.3224C46.8898 61.3929 46.846 61.4566 46.791 61.5097L43.621 64.6897C43.51 64.795 43.3639 64.8556 43.211 64.8597Z" fill="#F13C3C"/>
<path d="M48.6493 64.8597C48.4959 64.8575 48.3492 64.7967 48.2393 64.6897C48.133 64.5797 48.0735 64.4327 48.0735 64.2797C48.0735 64.1267 48.133 63.9797 48.2393 63.8697L50.9993 61.0997L48.2293 58.3297C48.1236 58.2214 48.0645 58.0761 48.0645 57.9247C48.0645 57.7734 48.1236 57.6281 48.2293 57.5197C48.2824 57.4647 48.3461 57.4209 48.4166 57.391C48.487 57.3611 48.5627 57.3457 48.6393 57.3457C48.7158 57.3457 48.7915 57.3611 48.862 57.391C48.9324 57.4209 48.9961 57.4647 49.0493 57.5197L52.2293 60.6897C52.2843 60.7429 52.3281 60.8066 52.358 60.877C52.3879 60.9475 52.4033 61.0232 52.4033 61.0997C52.4033 61.1762 52.3879 61.252 52.358 61.3224C52.3281 61.3929 52.2843 61.4566 52.2293 61.5097L49.0493 64.6897C48.943 64.7961 48.7996 64.857 48.6493 64.8597Z" fill="#F13C3C"/>
<path d="M26.0004 51.31C25.924 51.3111 25.8483 51.2966 25.7778 51.2674C25.7073 51.2382 25.6435 51.1948 25.5904 51.14L18.1004 43.65C17.9947 43.5417 17.9355 43.3964 17.9355 43.245C17.9355 43.0937 17.9947 42.9484 18.1004 42.84C18.1535 42.785 18.2172 42.7412 18.2877 42.7113C18.3581 42.6814 18.4338 42.666 18.5104 42.666C18.5869 42.666 18.6626 42.6814 18.7331 42.7113C18.8035 42.7412 18.8672 42.785 18.9204 42.84L26.4104 50.33C26.4651 50.3823 26.5087 50.4452 26.5385 50.5148C26.5683 50.5844 26.5836 50.6593 26.5836 50.735C26.5836 50.8107 26.5683 50.8857 26.5385 50.9553C26.5087 51.0249 26.4651 51.0877 26.4104 51.14C26.358 51.1958 26.2943 51.2398 26.2236 51.2691C26.153 51.2984 26.0768 51.3124 26.0004 51.31Z" fill="#F13C3C"/>
<path d="M18.5494 51.3102C18.4731 51.3113 18.3974 51.2968 18.3269 51.2676C18.2564 51.2384 18.1926 51.195 18.1394 51.1402C18.0338 51.0319 17.9746 50.8866 17.9746 50.7352C17.9746 50.5839 18.0338 50.4386 18.1394 50.3302L20.2394 48.2302C20.3478 48.1246 20.4931 48.0654 20.6444 48.0654C20.7958 48.0654 20.9411 48.1246 21.0494 48.2302C21.1045 48.2834 21.1482 48.3471 21.1781 48.4175C21.208 48.488 21.2234 48.5637 21.2234 48.6402C21.2234 48.7168 21.208 48.7925 21.1781 48.8629C21.1482 48.9334 21.1045 48.9971 21.0494 49.0502L18.9994 51.1402C18.9427 51.2014 18.8725 51.2486 18.7944 51.2781C18.7163 51.3076 18.6325 51.3186 18.5494 51.3102Z" fill="#F13C3C"/>
<path d="M24 45.92C23.8462 45.92 23.6988 45.8588 23.59 45.75C23.535 45.6969 23.4912 45.6332 23.4613 45.5627C23.4314 45.4923 23.416 45.4166 23.416 45.34C23.416 45.2635 23.4314 45.1878 23.4613 45.1173C23.4912 45.0469 23.535 44.9832 23.59 44.93L25.68 42.84C25.7332 42.785 25.7969 42.7412 25.8673 42.7113C25.9378 42.6814 26.0135 42.666 26.09 42.666C26.1666 42.666 26.2423 42.6814 26.3127 42.7113C26.3832 42.7412 26.4469 42.785 26.5 42.84C26.5548 42.8923 26.5984 42.9552 26.6282 43.0248C26.6579 43.0944 26.6733 43.1693 26.6733 43.245C26.6733 43.3207 26.6579 43.3957 26.6282 43.4653C26.5984 43.5349 26.5548 43.5977 26.5 43.65L24.41 45.75C24.3001 45.857 24.1534 45.9179 24 45.92Z" fill="#F13C3C"/>
<path d="M28.4105 53.6798C28.2566 53.6798 28.1091 53.6187 28.0003 53.5099C27.8916 53.4012 27.8305 53.2536 27.8305 53.0998V41.4598H16.7605V53.0998C16.7713 53.1817 16.7645 53.2649 16.7406 53.344C16.7166 53.423 16.6761 53.496 16.6216 53.5581C16.5672 53.6202 16.5001 53.67 16.4249 53.7041C16.3497 53.7382 16.2681 53.7558 16.1855 53.7558C16.1029 53.7558 16.0213 53.7382 15.946 53.7041C15.8708 53.67 15.8037 53.6202 15.7493 53.5581C15.6949 53.496 15.6543 53.423 15.6304 53.344C15.6064 53.2649 15.5996 53.1817 15.6105 53.0998V40.8798C15.6105 40.726 15.6716 40.5785 15.7803 40.4697C15.8891 40.3609 16.0366 40.2998 16.1905 40.2998H28.4105C28.5643 40.2998 28.7118 40.3609 28.8206 40.4697C28.9294 40.5785 28.9905 40.726 28.9905 40.8798V53.0998C28.9905 53.2536 28.9294 53.4012 28.8206 53.5099C28.7118 53.6187 28.5643 53.6798 28.4105 53.6798Z" fill="#F13C3C"/>
<path d="M42.9208 51.31C42.8443 51.3124 42.7682 51.2984 42.6975 51.2691C42.6268 51.2398 42.5631 51.1958 42.5108 51.14L35.0008 43.65C34.8951 43.5417 34.8359 43.3964 34.8359 43.245C34.8359 43.0937 34.8951 42.9484 35.0008 42.84C35.0539 42.785 35.1176 42.7412 35.1881 42.7113C35.2585 42.6814 35.3342 42.666 35.4108 42.666C35.4873 42.666 35.563 42.6814 35.6335 42.7113C35.7039 42.7412 35.7676 42.785 35.8208 42.84L43.3108 50.33C43.4164 50.4384 43.4756 50.5837 43.4756 50.735C43.4756 50.8864 43.4164 51.0317 43.3108 51.14C43.2606 51.1933 43.2002 51.2358 43.1332 51.2651C43.0662 51.2943 42.9939 51.3096 42.9208 51.31Z" fill="#F13C3C"/>
<path d="M35.4303 51.3102C35.3538 51.3125 35.2777 51.2986 35.207 51.2693C35.1363 51.24 35.0727 51.196 35.0203 51.1402C34.9146 51.0319 34.8555 50.8865 34.8555 50.7352C34.8555 50.5839 34.9146 50.4385 35.0203 50.3302L37.1103 48.2302C37.2203 48.1239 37.3673 48.0645 37.5203 48.0645C37.6733 48.0645 37.8203 48.1239 37.9303 48.2302C37.9853 48.2834 38.0291 48.347 38.059 48.4175C38.0889 48.4879 38.1043 48.5637 38.1043 48.6402C38.1043 48.7167 38.0889 48.7925 38.059 48.8629C38.0291 48.9333 37.9853 48.997 37.9303 49.0502L35.8403 51.1402C35.7879 51.196 35.7242 51.24 35.6536 51.2693C35.5829 51.2986 35.5068 51.3125 35.4303 51.3102Z" fill="#F13C3C"/>
<path d="M40.8301 45.92C40.6763 45.92 40.5288 45.8588 40.4201 45.75C40.3651 45.6969 40.3213 45.6332 40.2914 45.5627C40.2615 45.4923 40.2461 45.4166 40.2461 45.34C40.2461 45.2635 40.2615 45.1878 40.2914 45.1173C40.3213 45.0469 40.3651 44.9832 40.4201 44.93L42.5101 42.84C42.5633 42.785 42.627 42.7412 42.6974 42.7113C42.7679 42.6814 42.8436 42.666 42.9201 42.666C42.9966 42.666 43.0724 42.6814 43.1428 42.7113C43.2133 42.7412 43.277 42.785 43.3301 42.84C43.4358 42.9484 43.4949 43.0937 43.4949 43.245C43.4949 43.3964 43.4358 43.5417 43.3301 43.65L41.2401 45.75C41.1302 45.857 40.9835 45.9179 40.8301 45.92Z" fill="#F13C3C"/>
<path d="M45.2903 53.6798C45.1365 53.6798 44.989 53.6187 44.8802 53.5099C44.7714 53.4012 44.7103 53.2536 44.7103 53.0998V41.4598H33.6403V53.0998C33.6403 53.2536 33.5792 53.4012 33.4704 53.5099C33.3617 53.6187 33.2141 53.6798 33.0603 53.6798C32.9846 53.6798 32.9097 53.6647 32.8399 53.6355C32.77 53.6062 32.7068 53.5633 32.6537 53.5093C32.6006 53.4553 32.5589 53.3913 32.5308 53.321C32.5028 53.2507 32.489 53.1755 32.4903 53.0998V40.8798C32.489 40.8041 32.5028 40.7289 32.5308 40.6586C32.5589 40.5883 32.6006 40.5243 32.6537 40.4703C32.7068 40.4163 32.77 40.3734 32.8399 40.3441C32.9097 40.3149 32.9846 40.2998 33.0603 40.2998H45.2903C45.366 40.2998 45.441 40.3149 45.5108 40.3441C45.5806 40.3734 45.6439 40.4163 45.6969 40.4703C45.75 40.5243 45.7918 40.5883 45.8198 40.6586C45.8479 40.7289 45.8616 40.8041 45.8603 40.8798V53.0998C45.8616 53.1755 45.8479 53.2507 45.8198 53.321C45.7918 53.3913 45.75 53.4553 45.6969 53.5093C45.6439 53.5633 45.5806 53.6062 45.5108 53.6355C45.441 53.6647 45.366 53.6798 45.2903 53.6798Z" fill="#F13C3C"/>
<path d="M59.7998 51.31C59.7233 51.3124 59.6472 51.2984 59.5765 51.2691C59.5059 51.2398 59.4422 51.1958 59.3898 51.14L51.8998 43.65C51.8451 43.5977 51.8015 43.5349 51.7717 43.4653C51.7419 43.3957 51.7266 43.3207 51.7266 43.245C51.7266 43.1693 51.7419 43.0944 51.7717 43.0248C51.8015 42.9552 51.8451 42.8923 51.8998 42.84C51.953 42.785 52.0167 42.7412 52.0871 42.7113C52.1576 42.6814 52.2333 42.666 52.3098 42.666C52.3863 42.666 52.4621 42.6814 52.5325 42.7113C52.603 42.7412 52.6667 42.785 52.7198 42.84L60.2098 50.33C60.3155 50.4384 60.3746 50.5837 60.3746 50.735C60.3746 50.8864 60.3155 51.0317 60.2098 51.14C60.1567 51.1948 60.0929 51.2382 60.0224 51.2674C59.9519 51.2966 59.8761 51.3111 59.7998 51.31Z" fill="#F13C3C"/>
<path d="M52.3098 51.3102C52.2333 51.3125 52.1572 51.2986 52.0865 51.2693C52.0159 51.24 51.9522 51.196 51.8998 51.1402C51.8451 51.0879 51.8015 51.0251 51.7717 50.9554C51.7419 50.8858 51.7266 50.8109 51.7266 50.7352C51.7266 50.6595 51.7419 50.5846 51.7717 50.5149C51.8015 50.4453 51.8451 50.3825 51.8998 50.3302L53.9998 48.2302C54.1098 48.1239 54.2568 48.0645 54.4098 48.0645C54.5628 48.0645 54.7098 48.1239 54.8198 48.2302C54.8749 48.2834 54.9186 48.347 54.9485 48.4175C54.9784 48.4879 54.9938 48.5637 54.9938 48.6402C54.9938 48.7167 54.9784 48.7925 54.9485 48.8629C54.9186 48.9333 54.8749 48.997 54.8198 49.0502L52.7298 51.1402C52.6755 51.1962 52.6101 51.2403 52.5378 51.2696C52.4654 51.2988 52.3878 51.3127 52.3098 51.3102Z" fill="#F13C3C"/>
<path d="M57.711 45.92C57.5572 45.92 57.4097 45.8588 57.301 45.75C57.2459 45.6969 57.2022 45.6332 57.1723 45.5627C57.1424 45.4923 57.127 45.4166 57.127 45.34C57.127 45.2635 57.1424 45.1878 57.1723 45.1173C57.2022 45.0469 57.2459 44.9832 57.301 44.93L59.391 42.84C59.4441 42.785 59.5078 42.7412 59.5783 42.7113C59.6487 42.6814 59.7244 42.666 59.801 42.666C59.8775 42.666 59.9532 42.6814 60.0237 42.7113C60.0941 42.7412 60.1578 42.785 60.211 42.84C60.3166 42.9484 60.3758 43.0937 60.3758 43.245C60.3758 43.3964 60.3166 43.5417 60.211 43.65L58.121 45.75C58.01 45.8554 57.8639 45.9159 57.711 45.92Z" fill="#F13C3C"/>
<path d="M62.1694 53.6798C62.0155 53.6798 61.868 53.6187 61.7593 53.5099C61.6505 53.4012 61.5894 53.2536 61.5894 53.0998V41.4598H50.5194V53.0998C50.5194 53.2536 50.4583 53.4012 50.3495 53.5099C50.2407 53.6187 50.0932 53.6798 49.9394 53.6798C49.7855 53.6798 49.638 53.6187 49.5293 53.5099C49.4205 53.4012 49.3594 53.2536 49.3594 53.0998V40.8798C49.3594 40.726 49.4205 40.5785 49.5293 40.4697C49.638 40.3609 49.7855 40.2998 49.9394 40.2998H62.1694C62.3215 40.3024 62.4664 40.3647 62.573 40.4732C62.6797 40.5817 62.7394 40.7277 62.7394 40.8798V53.0998C62.7394 53.2519 62.6797 53.3979 62.573 53.5064C62.4664 53.6149 62.3215 53.6772 62.1694 53.6798Z" fill="#F13C3C"/>
<path d="M23.9199 13.1099H54.4299C54.5923 13.1112 54.7533 13.0804 54.9037 13.0192C55.0541 12.958 55.1909 12.8676 55.3061 12.7532C55.4214 12.6389 55.5129 12.5028 55.5753 12.3529C55.6378 12.2031 55.6699 12.0423 55.6699 11.8799V10.1699H22.6699V11.8799C22.6712 12.0428 22.7046 12.2038 22.7681 12.3537C22.8317 12.5036 22.9241 12.6396 23.0402 12.7538C23.1562 12.868 23.2937 12.9583 23.4446 13.0194C23.5956 13.0805 23.7571 13.1112 23.9199 13.1099Z" fill="black"/>
</svg>
