<svg width="75" height="75" viewBox="0 0 75 75" fill="none" xmlns="http://www.w3.org/2000/svg">
<path d="M44.7807 17.0001H30.2207C29.1598 17.0001 28.1424 16.5787 27.3923 15.8285C26.6421 15.0784 26.2207 14.0609 26.2207 13.0001V8.83008C26.2207 7.76921 26.6421 6.7518 27.3923 6.00165C28.1424 5.25151 29.1598 4.83008 30.2207 4.83008H44.7807C45.8416 4.83008 46.859 5.25151 47.6091 6.00165C48.3593 6.7518 48.7807 7.76921 48.7807 8.83008V13.0001C48.7807 14.0609 48.3593 15.0784 47.6091 15.8285C46.859 16.5787 45.8416 17.0001 44.7807 17.0001ZM30.2207 6.73008C29.6637 6.73008 29.1296 6.95133 28.7358 7.34515C28.342 7.73898 28.1207 8.27312 28.1207 8.83008V13.0001C28.1207 13.557 28.342 14.0912 28.7358 14.485C29.1296 14.8788 29.6637 15.1001 30.2207 15.1001H44.7807C45.3377 15.1001 45.8718 14.8788 46.2656 14.485C46.6595 14.0912 46.8807 13.557 46.8807 13.0001V8.83008C46.8807 8.27312 46.6595 7.73898 46.2656 7.34515C45.8718 6.95133 45.3377 6.73008 44.7807 6.73008H30.2207Z" fill="black"/>
<path d="M44.0605 69.1296H31.0605C29.8008 69.1296 28.5926 68.6291 27.7018 67.7383C26.811 66.8475 26.3105 65.6393 26.3105 64.3796V52.5596C26.3105 51.2998 26.811 50.0916 27.7018 49.2008C28.5926 48.31 29.8008 47.8096 31.0605 47.8096H44.0605C45.3203 47.8096 46.5285 48.31 47.4193 49.2008C48.3101 50.0916 48.8105 51.2998 48.8105 52.5596V64.3796C48.8105 65.6393 48.3101 66.8475 47.4193 67.7383C46.5285 68.6291 45.3203 69.1296 44.0605 69.1296ZM31.0605 49.6696C30.681 49.6696 30.3052 49.7443 29.9546 49.8896C29.604 50.0348 29.2854 50.2477 29.017 50.516C28.7486 50.7844 28.5358 51.103 28.3905 51.4536C28.2453 51.8042 28.1705 52.1801 28.1705 52.5596V64.3796C28.1705 64.7591 28.2453 65.1349 28.3905 65.4855C28.5358 65.8362 28.7486 66.1547 29.017 66.4231C29.2854 66.6915 29.604 66.9043 29.9546 67.0496C30.3052 67.1948 30.681 67.2696 31.0605 67.2696H44.0605C44.4439 67.2749 44.8245 67.2041 45.1803 67.0613C45.5361 66.9186 45.8601 66.7067 46.1335 66.438C46.4069 66.1692 46.6243 65.8489 46.7731 65.4956C46.922 65.1423 46.9993 64.7629 47.0005 64.3796V52.5596C46.9979 51.7939 46.6926 51.0604 46.1512 50.5189C45.6098 49.9775 44.8762 49.6722 44.1105 49.6696H31.0605Z" fill="#F13C3C"/>
<path d="M65.7303 65.2996H55.5103C54.4654 65.2996 53.4632 64.8845 52.7243 64.1456C51.9854 63.4067 51.5703 62.4046 51.5703 61.3596V52.0496C51.569 51.5314 51.6699 51.0179 51.8674 50.5388C52.0648 50.0596 52.3548 49.6241 52.7208 49.2571C53.0868 48.8902 53.5216 48.5991 54.0002 48.4005C54.4789 48.2018 54.9921 48.0996 55.5103 48.0996H65.7303C66.7722 48.1152 67.7668 48.5366 68.5026 49.2743C69.2385 50.012 69.6574 51.0077 69.6703 52.0496V61.3596C69.6548 62.3997 69.2348 63.3929 68.4992 64.1285C67.7636 64.864 66.7705 65.2841 65.7303 65.2996ZM55.5103 49.9996C54.9568 50.0022 54.4268 50.2233 54.0354 50.6147C53.644 51.006 53.423 51.5361 53.4203 52.0896V61.3996C53.423 61.9522 53.6443 62.4812 54.036 62.871C54.4277 63.2608 54.9577 63.4796 55.5103 63.4796H65.7303C66.0035 63.4796 66.2739 63.4258 66.5263 63.3213C66.7787 63.2168 67.008 63.0635 67.2011 62.8704C67.3943 62.6772 67.5475 62.4479 67.652 62.1956C67.7565 61.9432 67.8103 61.6728 67.8103 61.3996V52.0496C67.7999 51.504 67.5765 50.9841 67.1878 50.601C66.7991 50.218 66.276 50.0021 65.7303 49.9996H55.5103Z" fill="#F13C3C"/>
<path d="M19.4901 65.2996H9.27008C8.22995 65.2841 7.23677 64.864 6.50121 64.1285C5.76565 63.3929 5.34557 62.3997 5.33008 61.3596V52.0496C5.34299 51.0077 5.76193 50.012 6.49776 49.2743C7.2336 48.5366 8.22824 48.1152 9.27008 48.0996H19.4901C20.0083 48.0996 20.5215 48.2018 21.0002 48.4005C21.4788 48.5991 21.9136 48.8902 22.2796 49.2571C22.6456 49.6241 22.9356 50.0596 23.133 50.5388C23.3305 51.0179 23.4314 51.5314 23.4301 52.0496V61.3596C23.4301 62.4046 23.015 63.4067 22.2761 64.1456C21.5372 64.8845 20.535 65.2996 19.4901 65.2996ZM9.27008 49.9996C8.71751 50.0023 8.18848 50.2236 7.79869 50.6153C7.40889 51.0069 7.19007 51.537 7.19008 52.0896V61.3996C7.19008 61.9513 7.40922 62.4803 7.7993 62.8704C8.18937 63.2605 8.71843 63.4796 9.27008 63.4796H19.4901C20.0427 63.4796 20.5727 63.2608 20.9644 62.871C21.3561 62.4812 21.5774 61.9522 21.5801 61.3996V52.0496C21.5671 51.5031 21.3415 50.9832 20.9512 50.6004C20.5609 50.2176 20.0367 50.0021 19.4901 49.9996H9.27008Z" fill="#F13C3C"/>
<path d="M49.0002 34.5898H26.0002C25.4008 34.5898 24.826 34.3517 24.4022 33.9279C23.9783 33.504 23.7402 32.9292 23.7402 32.3298V28.8098C23.7402 28.2104 23.9783 27.6356 24.4022 27.2117C24.826 26.7879 25.4008 26.5498 26.0002 26.5498H49.0002C49.5996 26.5498 50.1745 26.7879 50.5983 27.2117C51.0221 27.6356 51.2602 28.2104 51.2602 28.8098V32.3298C51.2602 32.9292 51.0221 33.504 50.5983 33.9279C50.1745 34.3517 49.5996 34.5898 49.0002 34.5898ZM26.0002 28.4098C25.8941 28.4098 25.7924 28.4519 25.7174 28.527C25.6424 28.602 25.6002 28.7037 25.6002 28.8098V32.3298C25.6002 32.4359 25.6424 32.5376 25.7174 32.6126C25.7924 32.6877 25.8941 32.7298 26.0002 32.7298H49.0002C49.1063 32.7298 49.2081 32.6877 49.2831 32.6126C49.3581 32.5376 49.4002 32.4359 49.4002 32.3298V28.8098C49.4002 28.7037 49.3581 28.602 49.2831 28.527C49.2081 28.4519 49.1063 28.4098 49.0002 28.4098H26.0002Z" fill="black"/>
<path d="M37.5003 27.8704C37.2537 27.8704 37.0171 27.7724 36.8427 27.598C36.6683 27.4236 36.5703 27.187 36.5703 26.9404V16.5804C36.5703 16.3337 36.6683 16.0972 36.8427 15.9228C37.0171 15.7484 37.2537 15.6504 37.5003 15.6504C37.747 15.6504 37.9835 15.7484 38.1579 15.9228C38.3323 16.0972 38.4303 16.3337 38.4303 16.5804V26.9404C38.4303 27.187 38.3323 27.4236 38.1579 27.598C37.9835 27.7724 37.747 27.8704 37.5003 27.8704Z" fill="#F13C3C"/>
<path d="M60.6192 49.6702C60.3726 49.6702 60.136 49.5722 59.9616 49.3978C59.7872 49.2234 59.6892 48.9868 59.6892 48.7402V45.0902C59.6892 44.8503 59.6418 44.6128 59.5497 44.3914C59.4576 44.1699 59.3227 43.9688 59.1526 43.7997C58.9826 43.6305 58.7807 43.4967 58.5588 43.4058C58.3368 43.3149 58.0991 43.2688 57.8592 43.2702H17.1392C16.8994 43.2688 16.6616 43.3149 16.4397 43.4058C16.2177 43.4967 16.0159 43.6305 15.8458 43.7997C15.6758 43.9688 15.5408 44.1699 15.4487 44.3914C15.3566 44.6128 15.3092 44.8503 15.3092 45.0902V48.7402C15.3092 48.8623 15.2852 48.9832 15.2384 49.0961C15.1917 49.2089 15.1232 49.3114 15.0368 49.3978C14.9505 49.4841 14.8479 49.5526 14.7351 49.5994C14.6223 49.6461 14.5013 49.6702 14.3792 49.6702C14.2571 49.6702 14.1362 49.6461 14.0233 49.5994C13.9105 49.5526 13.808 49.4841 13.7216 49.3978C13.6353 49.3114 13.5667 49.2089 13.52 49.0961C13.4733 48.9832 13.4492 48.8623 13.4492 48.7402V45.0902C13.4519 44.1132 13.8418 43.1772 14.5335 42.4874C15.2252 41.7975 16.1623 41.4102 17.1392 41.4102H57.8592C58.8361 41.4102 59.7732 41.7975 60.4649 42.4874C61.1566 43.1772 61.5466 44.1132 61.5492 45.0902V48.7402C61.5492 48.9868 61.4512 49.2234 61.2768 49.3978C61.1024 49.5722 60.8659 49.6702 60.6192 49.6702Z" fill="#F13C3C"/>
<path d="M37.5003 43.2705C37.2537 43.2705 37.0171 43.1725 36.8427 42.9981C36.6683 42.8237 36.5703 42.5871 36.5703 42.3405V33.6605C36.5703 33.4138 36.6683 33.1773 36.8427 33.0029C37.0171 32.8285 37.2537 32.7305 37.5003 32.7305C37.747 32.7305 37.9835 32.8285 38.1579 33.0029C38.3323 33.1773 38.4303 33.4138 38.4303 33.6605V42.3405C38.4303 42.4626 38.4063 42.5835 38.3595 42.6964C38.3128 42.8092 38.2443 42.9117 38.1579 42.9981C38.0716 43.0844 37.969 43.1529 37.8562 43.1997C37.7434 43.2464 37.6224 43.2705 37.5003 43.2705Z" fill="#F13C3C"/>
</svg>
