<svg width="75" height="75" viewBox="0 0 75 75" fill="none" xmlns="http://www.w3.org/2000/svg">
<path d="M59.5991 60.0698L47.2791 47.7598L44.1191 50.5898L56.5991 63.0698C56.8859 63.4353 57.3024 63.6766 57.7622 63.7436C58.222 63.8107 58.6899 63.6983 59.0691 63.4298L59.9491 62.5498C60.2218 62.171 60.3376 61.7016 60.2723 61.2395C60.2071 60.7774 59.9659 60.3583 59.5991 60.0698Z" fill="#F13C3C"/>
<path d="M37.51 53.4903C34.8505 53.4844 32.2523 52.6907 30.0434 51.2094C27.8345 49.7281 26.114 47.6256 25.0989 45.1674C24.0839 42.7091 23.8199 40.0052 24.3402 37.397C24.8605 34.7889 26.1418 32.3933 28.0224 30.5127C29.903 28.6321 32.2986 27.3507 34.9068 26.8304C37.515 26.3101 40.2189 26.5741 42.6771 27.5892C45.1354 28.6042 47.2379 30.3247 48.7191 32.5336C50.2004 34.7425 50.9941 37.3407 51.0001 40.0003C51.0014 41.7722 50.6533 43.527 49.9759 45.1642C49.2984 46.8015 48.3048 48.2892 47.0519 49.5421C45.7989 50.795 44.3113 51.7886 42.674 52.4661C41.0367 53.1436 39.282 53.4916 37.51 53.4903ZM37.51 28.5703C35.2435 28.5762 33.0296 29.2541 31.1483 30.5183C29.267 31.7825 27.8029 33.5761 26.941 35.6724C26.0791 37.7687 25.8582 40.0736 26.3062 42.2954C26.7542 44.5173 27.851 46.5564 29.4579 48.1549C31.0648 49.7534 33.1096 50.8395 35.3338 51.2759C37.5579 51.7122 39.8616 51.4792 41.9533 50.6064C44.0451 49.7335 45.831 48.26 47.0854 46.3721C48.3397 44.4843 49.006 42.2668 49.0001 40.0003C48.9895 36.9617 47.7736 34.0515 45.6194 31.9085C43.4652 29.7656 40.5486 28.565 37.51 28.5703Z" fill="black"/>
<path d="M36 45.4902H33C32.4696 45.4902 31.9609 45.2795 31.5858 44.9044C31.2107 44.5294 31 44.0207 31 43.4902V36.4902C31 35.9598 31.2107 35.4511 31.5858 35.076C31.9609 34.7009 32.4696 34.4902 33 34.4902H36C36.5304 34.4902 37.0391 34.7009 37.4142 35.076C37.7893 35.4511 38 35.9598 38 36.4902V43.4902C38 44.0207 37.7893 44.5294 37.4142 44.9044C37.0391 45.2795 36.5304 45.4902 36 45.4902ZM33 36.4902V43.4902H36V36.4902H33Z" fill="#F13C3C"/>
<path d="M20 45.4902C19.7348 45.4902 19.4804 45.3849 19.2929 45.1973C19.1054 45.0098 19 44.7555 19 44.4902V35.4902C19 35.225 19.1054 34.9707 19.2929 34.7831C19.4804 34.5956 19.7348 34.4902 20 34.4902C20.2652 34.4902 20.5196 34.5956 20.7071 34.7831C20.8946 34.9707 21 35.225 21 35.4902V44.4902C21 44.7555 20.8946 45.0098 20.7071 45.1973C20.5196 45.3849 20.2652 45.4902 20 45.4902Z" fill="#F13C3C"/>
<path d="M14 45.4902H11C10.4696 45.4902 9.96086 45.2795 9.58579 44.9044C9.21071 44.5294 9 44.0207 9 43.4902V36.4902C9 35.9598 9.21071 35.4511 9.58579 35.076C9.96086 34.7009 10.4696 34.4902 11 34.4902H14C14.5304 34.4902 15.0391 34.7009 15.4142 35.076C15.7893 35.4511 16 35.9598 16 36.4902V43.4902C16 44.0207 15.7893 44.5294 15.4142 44.9044C15.0391 45.2795 14.5304 45.4902 14 45.4902ZM11 36.4902V43.4902H14V36.4902H11Z" fill="#F13C3C"/>
<path d="M10 60.4902C9.73478 60.4902 9.48043 60.3849 9.29289 60.1973C9.10536 60.0098 9 59.7555 9 59.4902V50.4902C9 50.225 9.10536 49.9707 9.29289 49.7831C9.48043 49.5956 9.73478 49.4902 10 49.4902C10.2652 49.4902 10.5196 49.5956 10.7071 49.7831C10.8946 49.9707 11 50.225 11 50.4902V59.4902C11 59.7555 10.8946 60.0098 10.7071 60.1973C10.5196 60.3849 10.2652 60.4902 10 60.4902Z" fill="#F13C3C"/>
<path d="M26 60.4902C25.7348 60.4902 25.4804 60.3849 25.2929 60.1973C25.1054 60.0098 25 59.7555 25 59.4902V52.4902C25 52.225 25.1054 51.9707 25.2929 51.7831C25.4804 51.5956 25.7348 51.4902 26 51.4902C26.2652 51.4902 26.5196 51.5956 26.7071 51.7831C26.8946 51.9707 27 52.225 27 52.4902V59.4902C27 59.7555 26.8946 60.0098 26.7071 60.1973C26.5196 60.3849 26.2652 60.4902 26 60.4902Z" fill="#F13C3C"/>
<path d="M19 60.4902H16C15.4696 60.4902 14.9609 60.2795 14.5858 59.9044C14.2107 59.5294 14 59.0207 14 58.4902V51.4902C14 50.9598 14.2107 50.4511 14.5858 50.076C14.9609 49.7009 15.4696 49.4902 16 49.4902H19C19.5304 49.4902 20.0391 49.7009 20.4142 50.076C20.7893 50.4511 21 50.9598 21 51.4902V58.4902C21 59.0207 20.7893 59.5294 20.4142 59.9044C20.0391 60.2795 19.5304 60.4902 19 60.4902ZM16 51.4902V58.4902H19V51.4902H16Z" fill="#F13C3C"/>
<path d="M65 60.4902C64.7348 60.4902 64.4804 60.3849 64.2929 60.1973C64.1054 60.0098 64 59.7555 64 59.4902V50.4902C64 50.225 64.1054 49.9707 64.2929 49.7831C64.4804 49.5956 64.7348 49.4902 65 49.4902C65.2652 49.4902 65.5196 49.5956 65.7071 49.7831C65.8946 49.9707 66 50.225 66 50.4902V59.4902C66 59.7555 65.8946 60.0098 65.7071 60.1973C65.5196 60.3849 65.2652 60.4902 65 60.4902Z" fill="#F13C3C"/>
<path d="M61 56.4902C60.7348 56.4902 60.4804 56.3849 60.2929 56.1973C60.1054 56.0098 60 55.7555 60 55.4902V51.4902H57C57 51.7555 56.8946 52.0098 56.7071 52.1973C56.5196 52.3849 56.2652 52.4902 56 52.4902C55.7348 52.4902 55.4804 52.3849 55.2929 52.1973C55.1054 52.0098 55 51.7555 55 51.4902C55 50.9598 55.2107 50.4511 55.5858 50.076C55.9609 49.7009 56.4696 49.4902 57 49.4902H60C60.5304 49.4902 61.0391 49.7009 61.4142 50.076C61.7893 50.4511 62 50.9598 62 51.4902V55.4902C62 55.7555 61.8946 56.0098 61.7071 56.1973C61.5196 56.3849 61.2652 56.4902 61 56.4902Z" fill="#F13C3C"/>
<path d="M36 60.4902H33C32.4696 60.4902 31.9609 60.2795 31.5858 59.9044C31.2107 59.5294 31 59.0207 31 58.4902V55.4902C31 55.225 31.1054 54.9707 31.2929 54.7831C31.4804 54.5956 31.7348 54.4902 32 54.4902C32.2652 54.4902 32.5196 54.5956 32.7071 54.7831C32.8946 54.9707 33 55.225 33 55.4902V58.4902H36V55.4902C36 55.225 36.1054 54.9707 36.2929 54.7831C36.4804 54.5956 36.7348 54.4902 37 54.4902C37.2652 54.4902 37.5196 54.5956 37.7071 54.7831C37.8946 54.9707 38 55.225 38 55.4902V58.4902C38 59.0207 37.7893 59.5294 37.4142 59.9044C37.0391 60.2795 36.5304 60.4902 36 60.4902Z" fill="#F13C3C"/>
<path d="M46 60.4902H43C42.4696 60.4902 41.9609 60.2795 41.5858 59.9044C41.2107 59.5294 41 59.0207 41 58.4902V55.4902C41 55.225 41.1054 54.9707 41.2929 54.7831C41.4804 54.5956 41.7348 54.4902 42 54.4902C42.2652 54.4902 42.5196 54.5956 42.7071 54.7831C42.8946 54.9707 43 55.225 43 55.4902V58.4902H46C46 58.225 46.1054 57.9707 46.2929 57.7831C46.4804 57.5956 46.7348 57.4902 47 57.4902C47.2652 57.4902 47.5196 57.5956 47.7071 57.7831C47.8946 57.9707 48 58.225 48 58.4902C48 59.0207 47.7893 59.5294 47.4142 59.9044C47.0391 60.2795 46.5304 60.4902 46 60.4902Z" fill="#F13C3C"/>
<path d="M10 31.4902C9.73478 31.4902 9.48043 31.3849 9.29289 31.1973C9.10536 31.0098 9 30.7555 9 30.4902V21.4902C9 21.225 9.10536 20.9707 9.29289 20.7831C9.48043 20.5956 9.73478 20.4902 10 20.4902C10.2652 20.4902 10.5196 20.5956 10.7071 20.7831C10.8946 20.9707 11 21.225 11 21.4902V30.4902C11 30.7555 10.8946 31.0098 10.7071 31.1973C10.5196 31.3849 10.2652 31.4902 10 31.4902Z" fill="#F13C3C"/>
<path d="M26 29.4902C25.7348 29.4902 25.4804 29.3849 25.2929 29.1973C25.1054 29.0098 25 28.7555 25 28.4902V21.4902C25 21.225 25.1054 20.9707 25.2929 20.7831C25.4804 20.5956 25.7348 20.4902 26 20.4902C26.2652 20.4902 26.5196 20.5956 26.7071 20.7831C26.8946 20.9707 27 21.225 27 21.4902V28.4902C27 28.7555 26.8946 29.0098 26.7071 29.1973C26.5196 29.3849 26.2652 29.4902 26 29.4902Z" fill="#F13C3C"/>
<path d="M19 31.4902H16C15.4696 31.4902 14.9609 31.2795 14.5858 30.9044C14.2107 30.5294 14 30.0207 14 29.4902V22.4902C14 21.9598 14.2107 21.4511 14.5858 21.076C14.9609 20.7009 15.4696 20.4902 16 20.4902H19C19.5304 20.4902 20.0391 20.7009 20.4142 21.076C20.7893 21.4511 21 21.9598 21 22.4902V29.4902C21 30.0207 20.7893 30.5294 20.4142 30.9044C20.0391 31.2795 19.5304 31.4902 19 31.4902ZM16 22.4902V29.4902H19V22.4902H16Z" fill="#F13C3C"/>
<path d="M54 31.4902C53.7348 31.4902 53.4804 31.3849 53.2929 31.1973C53.1054 31.0098 53 30.7555 53 30.4902V21.4902C53 21.225 53.1054 20.9707 53.2929 20.7831C53.4804 20.5956 53.7348 20.4902 54 20.4902C54.2652 20.4902 54.5196 20.5956 54.7071 20.7831C54.8946 20.9707 55 21.225 55 21.4902V30.4902C55 30.7555 54.8946 31.0098 54.7071 31.1973C54.5196 31.3849 54.2652 31.4902 54 31.4902Z" fill="#F13C3C"/>
<path d="M38 25.4902C37.7348 25.4902 37.4804 25.3849 37.2929 25.1973C37.1054 25.0098 37 24.7555 37 24.4902V22.4902H34V24.4902C34 24.7555 33.8946 25.0098 33.7071 25.1973C33.5196 25.3849 33.2652 25.4902 33 25.4902C32.7348 25.4902 32.4804 25.3849 32.2929 25.1973C32.1054 25.0098 32 24.7555 32 24.4902V22.4902C32 21.9598 32.2107 21.4511 32.5858 21.076C32.9609 20.7009 33.4696 20.4902 34 20.4902H37C37.5304 20.4902 38.0391 20.7009 38.4142 21.076C38.7893 21.4511 39 21.9598 39 22.4902V24.4902C39 24.7555 38.8946 25.0098 38.7071 25.1973C38.5196 25.3849 38.2652 25.4902 38 25.4902Z" fill="#F13C3C"/>
<path d="M48 28.4902C47.7348 28.4902 47.4804 28.3849 47.2929 28.1973C47.1054 28.0098 47 27.7555 47 27.4902V22.4902H44V24.4902C44 24.7555 43.8946 25.0098 43.7071 25.1973C43.5196 25.3849 43.2652 25.4902 43 25.4902C42.7348 25.4902 42.4804 25.3849 42.2929 25.1973C42.1054 25.0098 42 24.7555 42 24.4902V22.4902C42 21.9598 42.2107 21.4511 42.5858 21.076C42.9609 20.7009 43.4696 20.4902 44 20.4902H47C47.5304 20.4902 48.0391 20.7009 48.4142 21.076C48.7893 21.4511 49 21.9598 49 22.4902V27.4902C49 27.7555 48.8946 28.0098 48.7071 28.1973C48.5196 28.3849 48.2652 28.4902 48 28.4902Z" fill="#F13C3C"/>
<path d="M65 45.4902C64.7348 45.4902 64.4804 45.3849 64.2929 45.1973C64.1054 45.0098 64 44.7555 64 44.4902V35.4902C64 35.225 64.1054 34.9707 64.2929 34.7831C64.4804 34.5956 64.7348 34.4902 65 34.4902C65.2652 34.4902 65.5196 34.5956 65.7071 34.7831C65.8946 34.9707 66 35.225 66 35.4902V44.4902C66 44.7555 65.8946 45.0098 65.7071 45.1973C65.5196 45.3849 65.2652 45.4902 65 45.4902Z" fill="#F13C3C"/>
<path d="M59 45.4902H56C55.4696 45.4902 54.9609 45.2795 54.5858 44.9044C54.2107 44.5294 54 44.0207 54 43.4902V36.4902C54 35.9598 54.2107 35.4511 54.5858 35.076C54.9609 34.7009 55.4696 34.4902 56 34.4902H59C59.5304 34.4902 60.0391 34.7009 60.4142 35.076C60.7893 35.4511 61 35.9598 61 36.4902V43.4902C61 44.0207 60.7893 44.5294 60.4142 44.9044C60.0391 45.2795 59.5304 45.4902 59 45.4902ZM56 36.4902V43.4902H59V36.4902H56Z" fill="#F13C3C"/>
<path d="M64 31.4902H61C60.4696 31.4902 59.9609 31.2795 59.5858 30.9044C59.2107 30.5294 59 30.0207 59 29.4902V22.4902C59 21.9598 59.2107 21.4511 59.5858 21.076C59.9609 20.7009 60.4696 20.4902 61 20.4902H64C64.5304 20.4902 65.0391 20.7009 65.4142 21.076C65.7893 21.4511 66 21.9598 66 22.4902V29.4902C66 30.0207 65.7893 30.5294 65.4142 30.9044C65.0391 31.2795 64.5304 31.4902 64 31.4902ZM61 22.4902V29.4902H64V22.4902H61Z" fill="#F13C3C"/>
<path d="M42 45.4902C41.7348 45.4902 41.4804 45.3849 41.2929 45.1973C41.1054 45.0098 41 44.7555 41 44.4902V35.4902C41 35.225 41.1054 34.9707 41.2929 34.7831C41.4804 34.5956 41.7348 34.4902 42 34.4902C42.2652 34.4902 42.5196 34.5956 42.7071 34.7831C42.8946 34.9707 43 35.225 43 35.4902V44.4902C43 44.7555 42.8946 45.0098 42.7071 45.1973C42.5196 45.3849 42.2652 45.4902 42 45.4902Z" fill="#F13C3C"/>
</svg>
