<svg width="75" height="75" viewBox="0 0 75 75" fill="none" xmlns="http://www.w3.org/2000/svg">
<path d="M37.7305 61.3799H18.7305C17.4044 61.3799 16.1326 60.8531 15.1949 59.9154C14.2573 58.9777 13.7305 57.706 13.7305 56.3799V12.3799C13.7305 11.0538 14.2573 9.78203 15.1949 8.84435C16.1326 7.90667 17.4044 7.37988 18.7305 7.37988H51.7305C53.0566 7.37988 54.3283 7.90667 55.266 8.84435C56.2037 9.78203 56.7305 11.0538 56.7305 12.3799V38.3799H54.7305V12.3799C54.7305 11.5842 54.4144 10.8212 53.8518 10.2586C53.2892 9.69595 52.5261 9.37988 51.7305 9.37988H18.7305C17.9348 9.37988 17.1718 9.69595 16.6091 10.2586C16.0465 10.8212 15.7305 11.5842 15.7305 12.3799V56.3799C15.7305 57.1755 16.0465 57.9386 16.6091 58.5012C17.1718 59.0638 17.9348 59.3799 18.7305 59.3799H37.7305V61.3799Z" fill="#F13C3C"/>
<path d="M33.7305 53.3799H17.7305V15.3799H52.7305V38.3799H50.7305V17.3799H19.7305V51.3799H33.7305V53.3799Z" fill="#F13C3C"/>
<path d="M57.7298 64.3799H55.7298V61.3799C55.8247 60.4638 56.1707 59.5918 56.7298 58.8599C57.272 58.1336 57.6165 57.2791 57.7298 56.3799V45.3799C57.7035 45.1236 57.5897 44.8842 57.4076 44.7021C57.2254 44.5199 56.986 44.4061 56.7298 44.3799H53.7298V43.3799C53.7035 43.1236 53.5897 42.8842 53.4076 42.7021C53.2254 42.5199 52.986 42.4061 52.7298 42.3799H50.1798L49.8898 41.9199C49.5828 41.6031 49.1698 41.4108 48.7298 41.3799H47.7298V46.3799H45.7298V33.3799C45.7298 33.1147 45.6244 32.8603 45.4369 32.6728C45.2493 32.4852 44.995 32.3799 44.7298 32.3799C44.4646 32.3799 44.2102 32.4852 44.0227 32.6728C43.8351 32.8603 43.7298 33.1147 43.7298 33.3799V48.8099L41.2098 51.2199L37.9398 46.1499C37.7897 45.9099 37.58 45.7129 37.3311 45.5779C37.0823 45.443 36.8028 45.3748 36.5198 45.3799C36.2543 45.3919 35.9992 45.4863 35.7898 45.6499C37.1798 50.0499 38.7898 54.8999 39.0598 55.4599C39.4861 55.9994 39.9435 56.5136 40.4298 56.9999C41.8998 58.5599 42.7298 59.4899 42.7298 60.3599V64.3599H40.7298V60.4699C40.2232 59.7211 39.6437 59.0244 38.9998 58.3899C38.4133 57.8077 37.8748 57.1789 37.3898 56.5099C36.9498 55.8199 34.9598 49.5699 33.8098 45.9099L33.7598 45.6099C33.8106 45.1181 34.0146 44.6547 34.3429 44.2851C34.6713 43.9155 35.1074 43.6583 35.5898 43.5499C36.3258 43.329 37.1136 43.3528 37.8349 43.6179C38.5562 43.883 39.172 44.3749 39.5898 45.0199L41.5898 48.0999L41.7398 47.9499V33.3799C41.7398 32.5842 42.0558 31.8212 42.6184 31.2586C43.1811 30.696 43.9441 30.3799 44.7398 30.3799C45.5354 30.3799 46.2985 30.696 46.8611 31.2586C47.4237 31.8212 47.7398 32.5842 47.7398 33.3799V39.3799H48.7398C49.6517 39.4144 50.5224 39.7683 51.1998 40.3799H52.7398C53.3543 40.3994 53.9494 40.5995 54.451 40.9552C54.9525 41.3109 55.3381 41.8064 55.5598 42.3799H56.7398C57.529 42.4001 58.2804 42.7227 58.8387 43.281C59.3969 43.8393 59.7195 44.5906 59.7398 45.3799V56.3799C59.6441 57.6517 59.1937 58.8712 58.4398 59.8999C58.1123 60.3429 57.8745 60.8457 57.7398 61.3799L57.7298 64.3799Z" fill="#F13C3C"/>
<path d="M51.7305 41.3799H49.7305V46.3799H51.7305V41.3799Z" fill="#F13C3C"/>
<path d="M55.7305 43.3799H53.7305V47.3799H55.7305V43.3799Z" fill="#F13C3C"/>
<path d="M58.7305 63.3799H39.7305V68.3799H58.7305V63.3799Z" fill="black"/>
<path d="M59.7305 68.3799H57.7305V64.3799H40.7305V68.3799H38.7305V62.3799H59.7305V68.3799Z" fill="#F13C3C"/>
<path d="M39.7305 11.3799H31.7305V13.3799H39.7305V11.3799Z" fill="#F13C3C"/>
<path d="M35.75 31.3799H21.75V19.3799H35.75V31.3799ZM23.75 29.3799H33.75V21.3799H23.75V29.3799Z" fill="black"/>
<path d="M48.7305 21.3799H37.7305V23.3799H48.7305V21.3799Z" fill="#F13C3C"/>
<path d="M45.7305 25.3799H37.7305V27.3799H45.7305V25.3799Z" fill="#F13C3C"/>
<path d="M35.7305 33.3799H21.7305V35.3799H35.7305V33.3799Z" fill="#F13C3C"/>
<path d="M35.7305 37.3799H21.7305V39.3799H35.7305V37.3799Z" fill="#F13C3C"/>
<path d="M29.7305 41.3799H21.7305V43.3799H29.7305V41.3799Z" fill="#F13C3C"/>
</svg>
