<svg width="75" height="75" viewBox="0 0 75 75" fill="none" xmlns="http://www.w3.org/2000/svg">
<path d="M61.35 56.6102H10.89C10.5127 56.6141 10.1384 56.5434 9.78862 56.4021C9.43882 56.2607 9.12043 56.0516 8.8518 55.7867C8.58317 55.5218 8.36961 55.2063 8.22342 54.8585C8.07723 54.5107 8.0013 54.1374 8 53.7602V16.7602C8.00264 16.0051 8.30375 15.2817 8.83766 14.7478C9.37157 14.2139 10.0949 13.9128 10.85 13.9102H61.35C62.1051 13.9128 62.8284 14.2139 63.3623 14.7478C63.8963 15.2817 64.1974 16.0051 64.2 16.7602V53.7602C64.1974 54.5152 63.8963 55.2386 63.3623 55.7725C62.8284 56.3064 62.1051 56.6075 61.35 56.6102ZM10.89 15.5302C10.5655 15.5328 10.2552 15.6635 10.0267 15.8939C9.7982 16.1243 9.66999 16.4357 9.67 16.7602V53.7602C9.66868 53.9217 9.69919 54.0819 9.75979 54.2316C9.82039 54.3814 9.90989 54.5177 10.0232 54.6328C10.1365 54.748 10.2713 54.8397 10.4201 54.9027C10.5688 54.9657 10.7285 54.9988 10.89 55.0002H61.35C61.6762 55.0002 61.9891 54.8706 62.2197 54.6399C62.4504 54.4092 62.58 54.0964 62.58 53.7702V16.7702C62.58 16.4439 62.4504 16.1311 62.2197 15.9004C61.9891 15.6697 61.6762 15.5402 61.35 15.5402L10.89 15.5302ZM59.31 52.5302H12.93C12.7152 52.5302 12.5091 52.4448 12.3572 52.2929C12.2053 52.141 12.12 51.935 12.12 51.7202V18.8002C12.12 18.5853 12.2053 18.3793 12.3572 18.2274C12.5091 18.0755 12.7152 17.9902 12.93 17.9902H59.31C59.5258 17.9901 59.7328 18.0752 59.8863 18.2268C60.0398 18.3784 60.1274 18.5844 60.13 18.8002V51.7302C60.1274 51.9459 60.0398 52.1519 59.8863 52.3035C59.7328 52.4552 59.5258 52.5402 59.31 52.5402V52.5302ZM13.74 50.9102H58.5V19.6102H13.74V50.9102Z" fill="#F13C3C"/>
<path d="M43.1603 65.8502H29.0003C28.8746 65.851 28.7504 65.8225 28.6376 65.767C28.5247 65.7114 28.4264 65.6304 28.3503 65.5302C28.2758 65.4278 28.2253 65.3098 28.2028 65.1851C28.1803 65.0604 28.1863 64.9323 28.2203 64.8102L30.8703 55.5802C30.9183 55.4103 31.0204 55.2607 31.1612 55.1542C31.302 55.0477 31.4738 54.9901 31.6503 54.9902H40.5203C40.6969 54.9901 40.8686 55.0477 41.0094 55.1542C41.1502 55.2607 41.2524 55.4103 41.3003 55.5802L43.9503 64.8102C43.9844 64.9323 43.9903 65.0604 43.9678 65.1851C43.9453 65.3098 43.8949 65.4278 43.8203 65.5302C43.7427 65.6311 43.6427 65.7126 43.5281 65.7681C43.4135 65.8237 43.2876 65.8518 43.1603 65.8502ZM30.0603 64.2302H42.0603L39.9003 56.6102H32.2503L30.0603 64.2302Z" fill="#F13C3C"/>
<path d="M47.9996 69.1504H24.6596C24.4448 69.1504 24.2388 69.0651 24.0869 68.9132C23.9349 68.7613 23.8496 68.5552 23.8496 68.3404V65.0004C23.8496 64.7856 23.9349 64.5796 24.0869 64.4277C24.2388 64.2758 24.4448 64.1904 24.6596 64.1904H47.9996C48.2144 64.1904 48.4205 64.2758 48.5724 64.4277C48.7243 64.5796 48.8096 64.7856 48.8096 65.0004V68.3004C48.815 68.4101 48.7981 68.5198 48.7598 68.6227C48.7215 68.7256 48.6627 68.8197 48.587 68.8992C48.5112 68.9787 48.4201 69.042 48.3191 69.0852C48.2181 69.1284 48.1094 69.1506 47.9996 69.1504ZM25.4696 67.5304H47.1696V65.8504H25.4696V67.5304Z" fill="#F13C3C"/>
<path d="M42.67 46.9196H29.47C28.6151 46.9169 27.7961 46.5755 27.1925 45.97C26.5889 45.3645 26.25 44.5445 26.25 43.6896V34.2896C26.25 33.4347 26.5889 32.6146 27.1925 32.0091C27.7961 31.4037 28.6151 31.0622 29.47 31.0596H42.67C43.5266 31.0596 44.3482 31.3999 44.954 32.0056C45.5597 32.6114 45.9 33.4329 45.9 34.2896V43.6896C45.9 44.5462 45.5597 45.3678 44.954 45.9735C44.3482 46.5793 43.5266 46.9196 42.67 46.9196ZM29.47 32.6796C29.0447 32.6822 28.6378 32.853 28.338 33.1546C28.0382 33.4563 27.87 33.8643 27.87 34.2896V43.6896C27.87 44.1139 28.0386 44.5209 28.3386 44.8209C28.6387 45.121 29.0457 45.2896 29.47 45.2896H42.67C43.0953 45.2896 43.5033 45.1213 43.8049 44.8216C44.1066 44.5218 44.2774 44.1148 44.28 43.6896V34.2896C44.28 33.8626 44.1104 33.4531 43.8084 33.1511C43.5065 32.8492 43.097 32.6796 42.67 32.6796H29.47Z" fill="black"/>
<path d="M42.3591 32.6804H30.0991C29.8842 32.6804 29.6782 32.595 29.5263 32.4431C29.3744 32.2912 29.2891 32.0852 29.2891 31.8704V28.3604C29.2917 26.9025 29.872 25.5051 30.9029 24.4742C31.9338 23.4433 33.3312 22.863 34.7891 22.8604H37.6591C39.1187 22.8603 40.5187 23.4395 41.5517 24.4707C42.5847 25.5018 43.1664 26.9007 43.1691 28.3604V31.8704C43.1691 32.0852 43.0837 32.2912 42.9318 32.4431C42.7799 32.595 42.5739 32.6804 42.3591 32.6804ZM30.9091 31.0604H41.5491V28.3604C41.5464 27.3304 41.1354 26.3435 40.4062 25.6162C39.6769 24.8888 38.689 24.4803 37.6591 24.4804H34.7891C33.76 24.4804 32.7731 24.8891 32.0455 25.6168C31.3178 26.3444 30.9091 27.3313 30.9091 28.3604V31.0604Z" fill="black"/>
<path d="M39.1395 43.4599H33.2896C33.151 43.4585 33.015 43.422 32.8943 43.3538C32.7736 43.2856 32.6722 43.1879 32.5995 43.0699C32.533 42.9507 32.498 42.8165 32.498 42.6799C32.498 42.5434 32.533 42.4091 32.5995 42.2899L34.1096 39.2299C33.803 38.8841 33.5848 38.4692 33.4736 38.0207C33.3625 37.5722 33.3616 37.1034 33.4712 36.6544C33.5808 36.2055 33.7975 35.7898 34.1029 35.443C34.4082 35.0961 34.793 34.8284 35.2244 34.6627C35.6558 34.4971 36.1209 34.4384 36.5799 34.4918C37.0389 34.5452 37.4782 34.7089 37.86 34.9691C38.2419 35.2293 38.5551 35.5782 38.7727 35.9859C38.9903 36.3935 39.1059 36.8478 39.1096 37.3099C39.1124 38.0075 38.8558 38.6811 38.3895 39.1999L39.9195 42.2899C39.988 42.4085 40.0241 42.543 40.0241 42.6799C40.0241 42.8168 39.988 42.9513 39.9195 43.0699C39.8403 43.2026 39.7247 43.3097 39.5865 43.3789C39.4483 43.448 39.2932 43.4761 39.1395 43.4599ZM34.5995 41.8299H37.8396L36.9995 40.0499L36.6695 39.3699C36.5887 39.1983 36.5714 39.0035 36.6209 38.8203C36.6703 38.6372 36.7833 38.4775 36.9395 38.3699C37.1185 38.25 37.2631 38.0855 37.3592 37.8927C37.4552 37.6998 37.4993 37.4853 37.4872 37.2702C37.4751 37.0551 37.4072 36.8469 37.2901 36.6661C37.1731 36.4852 37.0109 36.338 36.8196 36.2389C36.6284 36.1398 36.4146 36.0922 36.1993 36.1009C35.9841 36.1095 35.7748 36.1741 35.5921 36.2883C35.4094 36.4024 35.2596 36.5622 35.1575 36.7519C35.0553 36.9416 35.0043 37.1546 35.0095 37.3699C35.0158 37.5705 35.071 37.7664 35.1704 37.9407C35.2697 38.115 35.4102 38.2624 35.5796 38.3699C35.7345 38.4787 35.847 38.6377 35.898 38.8199C35.9491 39.0022 35.9355 39.1965 35.8596 39.3699L34.5995 41.8299Z" fill="black"/>
</svg>
