<svg width="75" height="75" viewBox="0 0 75 75" fill="none" xmlns="http://www.w3.org/2000/svg">
<path d="M34.7396 63.2599H31.3296C30.6082 63.2599 29.9164 62.9733 29.4063 62.4632C28.8962 61.9532 28.6096 61.2613 28.6096 60.5399V59.8299C28.6119 59.6934 28.5731 59.5594 28.4982 59.4452C28.4233 59.3311 28.3158 59.2421 28.1896 59.1899L23.8096 57.3699C23.6825 57.316 23.5421 57.3015 23.4066 57.3282C23.2711 57.3549 23.1467 57.4217 23.0496 57.5199L22.5396 58.0299C22.0298 58.538 21.3394 58.8233 20.6196 58.8233C19.8999 58.8233 19.2094 58.538 18.6996 58.0299L15.0796 54.4099C14.5715 53.9001 14.2863 53.2097 14.2863 52.4899C14.2863 51.7702 14.5715 51.0797 15.0796 50.5699L15.5896 50.0599C15.6834 49.9601 15.7472 49.8359 15.7737 49.7015C15.8003 49.5671 15.7884 49.4279 15.7396 49.2999L13.9196 44.9199C13.8667 44.7935 13.7779 44.6853 13.6641 44.6089C13.5504 44.5324 13.4167 44.4911 13.2796 44.4899H12.5596C11.8417 44.4873 11.1539 44.2009 10.6463 43.6933C10.1386 43.1856 9.85224 42.4978 9.84961 41.7799V36.6599C9.8496 35.9403 10.1348 35.2499 10.6427 34.7401C11.1507 34.2303 11.84 33.9426 12.5596 33.9399H13.2796C13.4167 33.9388 13.5504 33.8974 13.6641 33.821C13.7779 33.7445 13.8667 33.6364 13.9196 33.5099L15.9196 28.6999L15.0896 27.8699C14.5809 27.3584 14.2954 26.6663 14.2954 25.9449C14.2954 25.2235 14.5809 24.5315 15.0896 24.0199L18.6996 20.3999C19.218 19.9083 19.9052 19.6342 20.6196 19.6342C21.334 19.6342 22.0213 19.9083 22.5396 20.3999L23.0496 20.9099C23.1467 21.0081 23.2711 21.0749 23.4066 21.1016C23.5421 21.1284 23.6825 21.1138 23.8096 21.0599L28.1896 19.2499C28.315 19.1966 28.4218 19.1074 28.4965 18.9935C28.5712 18.8796 28.6106 18.7461 28.6096 18.6099V17.8899C28.6096 17.1685 28.8962 16.4767 29.4063 15.9666C29.9164 15.4565 30.6082 15.1699 31.3296 15.1699H33.8896V17.1699H31.3296C31.1466 17.1699 30.9711 17.2426 30.8417 17.372C30.7123 17.5014 30.6396 17.6769 30.6396 17.8599V18.5799C30.6495 19.1183 30.4988 19.6475 30.2067 20.0999C29.9146 20.5523 29.4944 20.9074 28.9996 21.1199L24.6196 22.9299C24.1188 23.1477 23.5635 23.208 23.0276 23.1026C22.4918 22.9972 22.0006 22.7312 21.6196 22.3399L21.1096 21.8399C21.0452 21.7721 20.9676 21.7182 20.8816 21.6813C20.7957 21.6444 20.7031 21.6254 20.6096 21.6254C20.5161 21.6254 20.4235 21.6444 20.3376 21.6813C20.2516 21.7182 20.1741 21.7721 20.1096 21.8399L16.4896 25.4599C16.4218 25.5244 16.3679 25.6019 16.331 25.6879C16.2941 25.7738 16.2751 25.8664 16.2751 25.9599C16.2751 26.0534 16.2941 26.146 16.331 26.232C16.3679 26.3179 16.4218 26.3955 16.4896 26.4599L17.3996 27.3699C17.6561 27.6267 17.8309 27.9536 17.9021 28.3094C17.9733 28.6653 17.9376 29.0343 17.7996 29.3699L15.7996 34.2799C15.5997 34.7857 15.2527 35.2199 14.8035 35.5265C14.3543 35.8331 13.8235 35.998 13.2796 35.9999H12.5596C12.4681 35.9999 12.3776 36.0181 12.2932 36.0534C12.2089 36.0887 12.1323 36.1404 12.0681 36.2055C12.0039 36.2707 11.9533 36.3479 11.9192 36.4328C11.8852 36.5177 11.8683 36.6085 11.8696 36.6999V41.8199C11.8696 42.0029 11.9423 42.1784 12.0717 42.3078C12.2011 42.4372 12.3766 42.5099 12.5596 42.5099H13.2796C13.8175 42.5093 14.3434 42.6687 14.7904 42.9678C15.2373 43.267 15.5852 43.6924 15.7896 44.1899L17.6096 48.5699C17.8246 49.0713 17.8833 49.6258 17.7781 50.1611C17.6728 50.6963 17.4085 51.1873 17.0196 51.5699L16.5096 52.0799C16.4418 52.1444 16.3879 52.2219 16.351 52.3079C16.3141 52.3938 16.2951 52.4864 16.2951 52.5799C16.2951 52.6735 16.3141 52.766 16.351 52.852C16.3879 52.9379 16.4418 53.0155 16.5096 53.0799L20.1296 56.6999C20.1941 56.7677 20.2716 56.8217 20.3576 56.8585C20.4435 56.8954 20.5361 56.9144 20.6296 56.9144C20.7231 56.9144 20.8157 56.8954 20.9016 56.8585C20.9876 56.8217 21.0652 56.7677 21.1296 56.6999L21.6396 56.1899C22.0222 55.8011 22.5132 55.5367 23.0485 55.4314C23.5837 55.3262 24.1383 55.3849 24.6396 55.5999L28.9996 57.3199C29.4979 57.5232 29.9241 57.8708 30.2234 58.318C30.5228 58.7653 30.6816 59.2918 30.6796 59.8299V60.5399C30.6783 60.6314 30.6952 60.7222 30.7292 60.807C30.7633 60.8919 30.8139 60.9692 30.8781 61.0343C30.9423 61.0994 31.0189 61.1512 31.1032 61.1865C31.1876 61.2218 31.2782 61.2399 31.3696 61.2399H34.7796L34.7396 63.2599Z" fill="#F13C3C"/>
<path d="M39.0005 52.1696H34.7405C32.3795 52.154 30.0674 51.4958 28.0522 50.2655C26.0371 49.0352 24.395 47.2794 23.3023 45.1865C22.2096 43.0936 21.7075 40.7426 21.8498 38.3859C21.9922 36.0292 22.7737 33.7557 24.1105 31.8096L25.7705 32.9996C24.6266 34.6406 23.955 36.5641 23.8289 38.5605C23.7028 40.557 24.127 42.5497 25.0553 44.3216C25.9835 46.0936 27.3803 47.5768 29.0933 48.6098C30.8064 49.6427 32.7701 50.1857 34.7705 50.1796H39.0005V52.1696Z" fill="#F13C3C"/>
<path d="M46.8403 9.36035H44.8203V11.0704H46.8403V9.36035Z" fill="#F13C3C"/>
<path d="M60.8165 14.8777L59.5625 16.084L60.9629 17.5397L62.2169 16.3334L60.8165 14.8777Z" fill="#F13C3C"/>
<path d="M53.3916 10.5845L52.7109 12.1641L54.5661 12.9634L55.2467 11.3838L53.3916 10.5845Z" fill="#F13C3C"/>
<path d="M38.2693 10.5867L36.4141 11.3857L37.0944 12.9655L38.9497 12.1665L38.2693 10.5867Z" fill="#F13C3C"/>
<path d="M52.8192 55.5802H38.9992V53.5802H50.7892V52.7002C50.7922 51.6081 50.9265 50.5203 51.1892 49.4602C51.3834 48.6875 51.8304 48.0019 52.4593 47.5127C53.0881 47.0234 53.8625 46.7585 54.6592 46.7602H56.0692C56.7067 46.7576 57.3171 46.5025 57.7669 46.0508C58.2167 45.5991 58.4692 44.9877 58.4692 44.3502V38.2102H62.3392L60.1792 31.7002V31.5402C60.0805 27.8013 58.5258 24.2486 55.8464 21.639C53.1669 19.0293 49.5745 17.569 45.8342 17.569C42.094 17.569 38.5015 19.0293 35.8221 21.639C33.1426 24.2486 31.5879 27.8013 31.4892 31.5402C31.4892 36.2902 34.4892 40.9302 37.7892 45.2402C38.8834 47.0032 39.6333 48.9578 39.9992 51.0002L37.9992 51.3802C37.6855 49.6527 37.0622 47.996 36.1592 46.4902C32.6792 41.9002 29.4492 36.9202 29.4492 31.5702C29.5303 27.2979 31.2787 23.2266 34.3209 20.2259C37.3632 17.2253 41.4582 15.5332 45.7312 15.511C50.0043 15.4888 54.1166 17.1383 57.1899 20.1072C60.2632 23.0761 62.0538 27.129 62.1792 31.4002L65.1792 40.2602H60.4992V44.3602C60.4966 45.5343 60.029 46.6596 59.1988 47.4898C58.3686 48.32 57.2433 48.7876 56.0692 48.7902H54.6592C54.3138 48.7873 53.9776 48.9013 53.7053 49.1137C53.4329 49.3262 53.2405 49.6245 53.1592 49.9602C52.9319 50.8592 52.8177 51.783 52.8192 52.7102V55.5802Z" fill="#F13C3C"/>
<path d="M49.4092 45.9998H47.4092C47.4092 41.5298 47.4092 36.9198 49.7192 33.3598H41.9992C44.2892 36.9998 44.2892 41.5698 44.2892 45.9998H42.2892C42.2892 40.9998 42.2892 36.1798 39.1792 33.0698L37.4492 31.3398H54.2492L52.5192 33.0698C49.4092 36.2198 49.4092 40.9998 49.4092 45.9998Z" fill="black"/>
<path d="M47.54 63.25H43.27C41.8758 63.25 40.5383 62.6975 39.5506 61.7135C38.5629 60.7295 38.0053 59.3942 38 58H40C40 58.8655 40.3431 59.6958 40.9542 60.3087C41.5653 60.9217 42.3945 61.2674 43.26 61.27H47.53C48.3982 61.27 49.231 60.9258 49.8458 60.3128C50.4606 59.6999 50.8074 58.8682 50.81 58H52.81C52.8021 59.3934 52.2437 60.7272 51.2565 61.7106C50.2693 62.6941 48.9334 63.2474 47.54 63.25Z" fill="black"/>
</svg>
